<svg width="42" height="42" viewBox="0 0 42 42" fill="none" xmlns="http://www.w3.org/2000/svg">
<path d="M39.1087 27.7103L40.2021 22.2432L26.2497 15.267V9.34258C26.2514 8.07437 25.9733 6.82141 25.4354 5.67292C24.8975 4.52444 24.113 3.5087 23.1377 2.69805C22.5376 2.1978 21.781 1.92383 20.9997 1.92383C20.2184 1.92383 19.4619 2.1978 18.8617 2.69805C17.8865 3.5087 17.1019 4.52444 16.564 5.67292C16.0261 6.82141 15.7481 8.07437 15.7497 9.34258V15.267L1.79736 22.2432L2.89076 27.7103L15.7852 26.0286L16.4198 32.6915L10.4997 35.2284V40.6876H31.4997V35.2284L25.5797 32.6913L26.2143 26.0284L39.1087 27.7103ZM28.8747 36.9594V38.0626H13.1247V36.9594L19.2146 34.3493L18.3747 25.5315V23.0434L4.9837 24.79L4.7646 23.6945L18.3747 16.8895V9.34258C18.3736 8.45932 18.5673 7.58668 18.9419 6.78682C19.3166 5.98695 19.863 5.27953 20.5422 4.71495C20.6706 4.60786 20.8325 4.54921 20.9997 4.54921C21.1669 4.54921 21.3288 4.60786 21.4572 4.71495C22.1365 5.27953 22.6829 5.98695 23.0575 6.78682C23.4322 7.58668 23.6258 8.45932 23.6247 9.34258V16.8895L37.2349 23.6945L37.0158 24.79L23.6247 23.0434V25.5315L22.7849 34.3493L28.8747 36.9594Z" fill="black"/>
</svg>
