<svg width="42" height="42" viewBox="0 0 42 42" fill="none" xmlns="http://www.w3.org/2000/svg">
<path d="M15.5859 28.8748H26.414C26.5945 28.8748 26.7421 28.7271 26.7421 28.5467V25.1014C26.7421 24.9209 26.5945 24.7732 26.414 24.7732H24.7734C24.5929 24.7732 24.4453 24.9209 24.4453 25.1014V26.5779H17.5546V25.1014C17.5546 24.9209 17.407 24.7732 17.2265 24.7732H15.5859C15.4054 24.7732 15.2578 24.9209 15.2578 25.1014V28.5467C15.2578 28.7271 15.4054 28.8748 15.5859 28.8748ZM29.5312 23.8299C29.5312 24.265 29.7041 24.6823 30.0117 24.99C30.3194 25.2977 30.7367 25.4705 31.1718 25.4705C31.607 25.4705 32.0243 25.2977 32.3319 24.99C32.6396 24.6823 32.8125 24.265 32.8125 23.8299C32.8125 23.3948 32.6396 22.9775 32.3319 22.6698C32.0243 22.3621 31.607 22.1893 31.1718 22.1893C30.7367 22.1893 30.3194 22.3621 30.0117 22.6698C29.7041 22.9775 29.5312 23.3948 29.5312 23.8299ZM39.3339 16.9557L38.3619 15.2576C38.3182 15.1828 38.2466 15.1282 38.1629 15.106C38.0791 15.0837 37.9899 15.0954 37.9148 15.1387L35.8353 16.3527L32.6238 7.48516C32.4542 6.95603 32.1209 6.49448 31.6719 6.16715C31.223 5.83982 30.6816 5.66365 30.1259 5.66406H12.3539C10.9306 5.66406 9.66734 6.58281 9.22848 7.94043L6.16871 16.3568L4.08512 15.1428C4.01 15.0995 3.92082 15.0878 3.83705 15.1101C3.75329 15.1323 3.68175 15.1869 3.63805 15.2617L2.66598 16.9557C2.57574 17.1115 2.62906 17.3084 2.78492 17.3986L5.26227 18.8424L4.66754 20.483C4.61832 20.6143 4.59371 20.7537 4.59371 20.8932V35.1748C4.59371 35.8187 5.0777 36.3396 5.67242 36.3396H8.44508C8.94957 36.3396 9.38844 35.9582 9.49508 35.425L9.8109 33.8787H32.189L32.5048 35.425C32.6156 35.9582 33.0504 36.3396 33.5548 36.3396H36.3275C36.9222 36.3396 37.4062 35.8187 37.4062 35.1748V20.8932C37.4062 20.7537 37.3816 20.6143 37.3324 20.483L36.7377 18.8424L39.2109 17.3986C39.2854 17.3556 39.34 17.2851 39.363 17.2023C39.386 17.1195 39.3756 17.0309 39.3339 16.9557ZM34.4531 21.2049V30.9256H7.54684V21.2049L8.18668 19.4412H33.8132L34.4531 21.2049ZM12.0052 8.94531L12.0257 8.89199L12.0421 8.83867C12.0873 8.70332 12.2103 8.61309 12.3539 8.61309H29.8921L32.9847 17.1443H9.0234L12.0052 8.94531ZM9.18746 23.8299C9.18746 24.265 9.36031 24.6823 9.66799 24.99C9.97567 25.2977 10.393 25.4705 10.8281 25.4705C11.2632 25.4705 11.6805 25.2977 11.9882 24.99C12.2959 24.6823 12.4687 24.265 12.4687 23.8299C12.4687 23.3948 12.2959 22.9775 11.9882 22.6698C11.6805 22.3621 11.2632 22.1893 10.8281 22.1893C10.393 22.1893 9.97567 22.3621 9.66799 22.6698C9.36031 22.9775 9.18746 23.3948 9.18746 23.8299Z" fill="black"/>
</svg>
