<svg width="42" height="42" viewBox="0 0 42 42" fill="none" xmlns="http://www.w3.org/2000/svg">
<path d="M21 9.1875C21 8.8394 20.8617 8.50556 20.6156 8.25942C20.3694 8.01328 20.0356 7.875 19.6875 7.875C19.3394 7.875 19.0056 8.01328 18.7594 8.25942C18.5133 8.50556 18.375 8.8394 18.375 9.1875V23.625C18.3751 23.8563 18.4363 24.0836 18.5525 24.2836C18.6686 24.4837 18.8356 24.6495 19.0365 24.7642L28.224 30.0142C28.5255 30.1772 28.8788 30.2157 29.2083 30.1217C29.5379 30.0276 29.8176 29.8083 29.9876 29.5108C30.1576 29.2132 30.2045 28.8609 30.1183 28.5293C30.032 28.1976 29.8195 27.9128 29.526 27.7358L21 22.8638V9.1875Z" fill="#14202B"/>
<path d="M21 42C26.5695 42 31.911 39.7875 35.8492 35.8492C39.7875 31.911 42 26.5695 42 21C42 15.4305 39.7875 10.089 35.8492 6.15076C31.911 2.21249 26.5695 0 21 0C15.4305 0 10.089 2.21249 6.15076 6.15076C2.21249 10.089 0 15.4305 0 21C0 26.5695 2.21249 31.911 6.15076 35.8492C10.089 39.7875 15.4305 42 21 42ZM39.375 21C39.375 25.8734 37.4391 30.5471 33.9931 33.9931C30.5471 37.4391 25.8734 39.375 21 39.375C16.1266 39.375 11.4529 37.4391 8.00691 33.9931C4.56093 30.5471 2.625 25.8734 2.625 21C2.625 16.1266 4.56093 11.4529 8.00691 8.00691C11.4529 4.56093 16.1266 2.625 21 2.625C25.8734 2.625 30.5471 4.56093 33.9931 8.00691C37.4391 11.4529 39.375 16.1266 39.375 21Z" fill="#14202B"/>
</svg>
