<svg width="47" height="46" viewBox="0 0 47 46" fill="none" xmlns="http://www.w3.org/2000/svg">
<path d="M23.4029 40.5995L22.7479 39.6371C22.2931 38.9688 11.6102 23.1993 11.6102 17.0372C11.6102 10.6207 16.944 5.40039 23.5 5.40039C30.056 5.40039 35.3898 10.6207 35.3898 17.0372C35.3898 23.2026 24.5277 38.9737 24.0654 39.642L23.4029 40.5995H23.4029ZM23.5001 6.9535C17.8191 6.9535 13.1971 11.477 13.1971 17.0372C13.1971 21.9064 21.0634 34.2216 23.4138 37.7925C25.7995 34.2281 33.803 21.9058 33.803 17.0372C33.803 11.477 29.181 6.9535 23.5001 6.9535V6.9535Z" fill="white"/>
<path d="M23.6322 23.0285C20.205 23.0285 17.4169 20.2996 17.4169 16.9454C17.4169 13.5911 20.205 10.8623 23.6322 10.8623C27.0594 10.8623 29.8475 13.5911 29.8475 16.9454C29.8475 20.2996 27.0594 23.0285 23.6322 23.0285V23.0285ZM23.6322 12.4154C21.0801 12.4154 19.0038 14.4476 19.0038 16.9454C19.0038 19.4432 21.0801 21.4753 23.6322 21.4753C26.1843 21.4753 28.2606 19.4432 28.2606 16.9454C28.2606 14.4476 26.1843 12.4154 23.6322 12.4154Z" fill="white"/>
</svg>
