<svg width="42" height="42" viewBox="0 0 42 42" fill="none" xmlns="http://www.w3.org/2000/svg">
<path d="M40.6087 20.5538C39.065 16.5607 36.385 13.1074 32.9001 10.6209C29.4152 8.13429 25.278 6.72338 20.9999 6.5625C16.7219 6.72338 12.5847 8.13429 9.09976 10.6209C5.61483 13.1074 2.93489 16.5607 1.39118 20.5538C1.28692 20.8421 1.28692 21.1579 1.39118 21.4462C2.93489 25.4393 5.61483 28.8926 9.09976 31.3791C12.5847 33.8657 16.7219 35.2766 20.9999 35.4375C25.278 35.2766 29.4152 33.8657 32.9001 31.3791C36.385 28.8926 39.065 25.4393 40.6087 21.4462C40.7129 21.1579 40.7129 20.8421 40.6087 20.5538ZM20.9999 32.8125C14.0437 32.8125 6.69368 27.6544 4.0293 21C6.69368 14.3456 14.0437 9.1875 20.9999 9.1875C27.9562 9.1875 35.3062 14.3456 37.9706 21C35.3062 27.6544 27.9562 32.8125 20.9999 32.8125Z" fill="black"/>
<path d="M21 13.125C19.4425 13.125 17.9199 13.5869 16.6249 14.4522C15.3298 15.3175 14.3205 16.5474 13.7245 17.9864C13.1284 19.4253 12.9725 21.0087 13.2763 22.5363C13.5802 24.0639 14.3302 25.4671 15.4315 26.5685C16.5329 27.6698 17.9361 28.4198 19.4637 28.7237C20.9913 29.0275 22.5747 28.8716 24.0136 28.2756C25.4526 27.6795 26.6825 26.6702 27.5478 25.3751C28.4131 24.0801 28.875 22.5575 28.875 21C28.875 18.9114 28.0453 16.9084 26.5685 15.4315C25.0916 13.9547 23.0886 13.125 21 13.125ZM21 26.25C19.9617 26.25 18.9466 25.9421 18.0833 25.3652C17.2199 24.7883 16.547 23.9684 16.1496 23.0091C15.7523 22.0498 15.6483 20.9942 15.8509 19.9758C16.0535 18.9574 16.5535 18.0219 17.2877 17.2877C18.0219 16.5535 18.9574 16.0534 19.9758 15.8509C20.9942 15.6483 22.0498 15.7523 23.0091 16.1496C23.9684 16.547 24.7883 17.2199 25.3652 18.0833C25.9421 18.9466 26.25 19.9616 26.25 21C26.25 22.3924 25.6969 23.7277 24.7123 24.7123C23.7277 25.6969 22.3924 26.25 21 26.25Z" fill="black"/>
</svg>
