<svg width="55" height="57" viewBox="0 0 55 57" fill="none" xmlns="http://www.w3.org/2000/svg">
<path d="M19.7268 24.951C22.4196 24.951 25.005 25.5031 27.4124 26.5924C27.9021 26.813 28.4887 26.6202 28.7231 26.1605C28.9581 25.7002 28.7525 25.1475 28.2641 24.927C25.589 23.7162 22.7168 23.1025 19.7268 23.1025C8.8496 23.1025 0 31.4311 0 41.6672C0 42.1774 0.43996 42.5914 0.982053 42.5914H18.0102C18.5523 42.5914 18.9922 42.1774 18.9922 41.6672C18.9922 41.157 18.5523 40.743 18.0102 40.743H1.99095C2.50227 31.9536 10.2618 24.951 19.7268 24.951Z" fill="#14202B"/>
<path d="M19.3988 21.4988C25.6977 21.4988 30.8227 16.6762 30.8227 10.7488C30.8227 4.82201 25.6977 0 19.3988 0C13.1019 0 7.97949 4.82201 7.97949 10.7488C7.97884 16.6762 13.1019 21.4988 19.3988 21.4988ZM19.3988 1.84846C24.6155 1.84846 28.8586 5.84112 28.8586 10.7488C28.8586 15.657 24.6155 19.6503 19.3988 19.6503C14.1848 19.6503 9.9436 15.657 9.9436 10.7488C9.94294 5.84112 14.1848 1.84846 19.3988 1.84846Z" fill="#14202B"/>
<path d="M51.6323 30.2686H28.2529C26.3955 30.2686 24.8838 31.6913 24.8838 33.4393V46.8159C24.8838 48.564 26.3948 49.986 28.2522 49.986H30.7761V55.3262C30.7761 55.6928 31.0059 56.0243 31.3621 56.1716C31.4891 56.2246 31.6239 56.2505 31.7582 56.2505C31.9984 56.2505 32.2354 56.1673 32.4207 56.0083L39.4254 49.986H51.6329C53.4897 49.986 55.0007 48.564 55.0007 46.8166V33.4387C55.0007 31.69 53.4897 30.2686 51.6323 30.2686ZM53.0366 46.8159C53.0366 47.5442 52.4068 48.137 51.6329 48.137H39.0443C38.7995 48.137 38.5631 48.2232 38.3818 48.3791L32.7402 53.2295V49.0612C32.7402 48.551 32.3003 48.137 31.7582 48.137H28.2522C27.4777 48.137 26.8479 47.5442 26.8479 46.8153V33.4387C26.8479 32.7097 27.4784 32.1164 28.2529 32.1164H51.6323C52.4068 32.1164 53.0366 32.7091 53.0366 33.438V46.8159Z" fill="#14202B"/>
<path d="M34.0501 38.3442C33.3267 38.3442 32.7407 38.8963 32.7407 39.5765C32.7407 40.2574 33.3267 40.8088 34.0501 40.8088C34.7729 40.8088 35.3595 40.2568 35.3595 39.5765C35.3589 38.8963 34.7729 38.3442 34.0501 38.3442Z" fill="#14202B"/>
<path d="M40.596 38.3442C39.8726 38.3442 39.2866 38.8963 39.2866 39.5765C39.2866 40.2574 39.8726 40.8088 40.596 40.8088C41.3188 40.8088 41.9054 40.2568 41.9054 39.5765C41.9048 38.8963 41.3188 38.3442 40.596 38.3442Z" fill="#14202B"/>
<path d="M46.4891 38.3442C45.7656 38.3442 45.1797 38.8963 45.1797 39.5765C45.1797 40.2574 45.7656 40.8088 46.4891 40.8088C47.2119 40.8088 47.7985 40.2568 47.7985 39.5765C47.7978 38.8963 47.2119 38.3442 46.4891 38.3442Z" fill="#14202B"/>
</svg>
