<svg width="58" height="58" viewBox="0 0 58 58" fill="none" xmlns="http://www.w3.org/2000/svg">
<g opacity="0.8">
<path d="M29 12.6875C29 12.2068 28.809 11.7458 28.4691 11.4059C28.1292 11.066 27.6682 10.875 27.1875 10.875C26.7068 10.875 26.2458 11.066 25.9059 11.4059C25.566 11.7458 25.375 12.2068 25.375 12.6875V32.625C25.3751 32.9445 25.4596 33.2583 25.6201 33.5345C25.7805 33.8108 26.0111 34.0398 26.2885 34.1982L38.976 41.4482C39.3924 41.6733 39.8802 41.7265 40.3353 41.5966C40.7904 41.4667 41.1766 41.1639 41.4115 40.753C41.6463 40.3421 41.711 39.8556 41.5919 39.3975C41.4728 38.9395 41.1792 38.5462 40.774 38.3018L29 31.5737V12.6875Z" fill="#14202B"/>
<path d="M29 58C36.6913 58 44.0675 54.9447 49.5061 49.5061C54.9447 44.0675 58 36.6913 58 29C58 21.3087 54.9447 13.9325 49.5061 8.4939C44.0675 3.05535 36.6913 0 29 0C21.3087 0 13.9325 3.05535 8.4939 8.4939C3.05535 13.9325 0 21.3087 0 29C0 36.6913 3.05535 44.0675 8.4939 49.5061C13.9325 54.9447 21.3087 58 29 58ZM54.375 29C54.375 35.7299 51.7016 42.1841 46.9428 46.9428C42.1841 51.7016 35.7299 54.375 29 54.375C22.2701 54.375 15.8159 51.7016 11.0572 46.9428C6.29843 42.1841 3.625 35.7299 3.625 29C3.625 22.2701 6.29843 15.8159 11.0572 11.0572C15.8159 6.29843 22.2701 3.625 29 3.625C35.7299 3.625 42.1841 6.29843 46.9428 11.0572C51.7016 15.8159 54.375 22.2701 54.375 29Z" fill="#14202B"/>
</g>
</svg>
