<svg width="20.8" height="14.4" viewBox="0 0 22 16" fill="none" xmlns="http://www.w3.org/2000/svg">
<path fill-rule="evenodd" clip-rule="evenodd" d="M1.4001 0.799988C1.18792 0.799988 0.984441 0.884273 0.834412 1.0343C0.684383 1.18433 0.600098 1.38781 0.600098 1.59999C0.600098 1.81216 0.684383 2.01564 0.834412 2.16567C0.984441 2.3157 1.18792 2.39999 1.4001 2.39999H20.6001C20.8123 2.39999 21.0158 2.3157 21.1658 2.16567C21.3158 2.01564 21.4001 1.81216 21.4001 1.59999C21.4001 1.38781 21.3158 1.18433 21.1658 1.0343C21.0158 0.884273 20.8123 0.799988 20.6001 0.799988H1.4001ZM0.600098 7.99999C0.600098 7.78781 0.684383 7.58433 0.834412 7.4343C0.984441 7.28427 1.18792 7.19999 1.4001 7.19999H20.6001C20.8123 7.19999 21.0158 7.28427 21.1658 7.4343C21.3158 7.58433 21.4001 7.78781 21.4001 7.99999C21.4001 8.21216 21.3158 8.41564 21.1658 8.56567C21.0158 8.7157 20.8123 8.79999 20.6001 8.79999H1.4001C1.18792 8.79999 0.984441 8.7157 0.834412 8.56567C0.684383 8.41564 0.600098 8.21216 0.600098 7.99999ZM0.600098 14.4C0.600098 14.1878 0.684383 13.9843 0.834412 13.8343C0.984441 13.6843 1.18792 13.6 1.4001 13.6H20.6001C20.8123 13.6 21.0158 13.6843 21.1658 13.8343C21.3158 13.9843 21.4001 14.1878 21.4001 14.4C21.4001 14.6122 21.3158 14.8156 21.1658 14.9657C21.0158 15.1157 20.8123 15.2 20.6001 15.2H1.4001C1.18792 15.2 0.984441 15.1157 0.834412 14.9657C0.684383 14.8156 0.600098 14.6122 0.600098 14.4Z" fill="#04376F"/>
</svg>
