<svg width="18" height="12" viewBox="0 0 18 12" fill="none" xmlns="http://www.w3.org/2000/svg">
<path d="M1.52263 11.4701C1.52263 11.7622 1.18158 12 0.761717 12C0.339975 12 0 11.7622 0 11.4701V0.530405C0 0.236692 0.339975 0 0.761717 0C1.18158 0 1.52263 0.236423 1.52263 0.530405V11.4701Z" fill="#04376F"/>
<path d="M17.2138 11.6151C17.2138 11.8286 16.9083 12 16.5301 12C16.1527 12 15.8469 11.8286 15.8469 11.6151V3.67086C15.8469 3.45837 16.1527 3.28516 16.5301 3.28516C16.9083 3.28516 17.2138 3.45864 17.2138 3.67086V11.6151Z" fill="#04376F"/>
<path d="M15.7185 5.64484C16.0948 5.64484 16.3993 6.53942 16.3993 7.64327C16.3993 8.74684 16.0948 9.64143 15.7185 9.64143H1.64882C1.27335 9.64143 0.967529 8.74684 0.967529 7.64327C0.967529 6.53942 1.27335 5.64484 1.64882 5.64484H15.7185Z" fill="#04376F"/>
<path d="M5.19055 2.89139C5.43343 3.7182 5.02783 4.56329 4.2844 4.77954C3.54232 4.99714 2.74456 4.50412 2.50168 3.67785C2.25988 2.85319 2.66656 2.00648 3.40891 1.78701C4.15153 1.56887 4.94875 2.06297 5.19055 2.8887" fill="#04376F"/>
<path d="M5.44067 4.6975C5.44067 4.6975 8.42084 -0.486584 14.9896 4.6975H5.44067Z" fill="#04376F"/>
</svg>
