<svg width="11" height="16" viewBox="0 0 11 16" fill="none" xmlns="http://www.w3.org/2000/svg">
<path d="M6.0435 2.76376C6.80669 2.76376 7.42538 2.14507 7.42538 1.38188C7.42538 0.61869 6.80669 0 6.0435 0C5.28031 0 4.66162 0.61869 4.66162 1.38188C4.66162 2.14507 5.28031 2.76376 6.0435 2.76376Z" fill="white"/>
<path d="M4.13206 3.78039C4.18333 3.42968 4.4554 3.21878 4.65406 3.27413L6.09594 3.67611C6.29402 3.73262 6.36218 4.19286 6.30626 4.39268L5.11837 9.27005C5.06012 9.47046 4.94069 9.56949 4.74203 9.5124L3.76795 9.30151C2.98321 8.65543 2.98788 8.09324 3.14867 7.31724L4.13206 3.78039Z" fill="white"/>
<path d="M2.89531 9.3848L2.64829 11.1121C2.64829 11.1121 2.0127 12.6216 1.57576 13.5083C1.24544 14.18 1.08989 14.6641 1.3171 14.7853C1.66548 14.9706 2.13388 14.5552 2.62441 13.7903C3.44701 12.5074 3.87055 11.866 4.02901 11.5543L4.27777 10.7399C4.27777 10.7405 3.0561 9.93184 2.89531 9.3848Z" fill="white"/>
<path d="M7.2612 10.0996L5.33693 8.18876C5.03341 7.8829 4.58016 8.0268 4.27314 8.33091C3.9667 8.63268 3.36665 8.91815 3.66901 9.22575L6.11643 11.2863L5.84553 13.9266C5.82572 14.5779 5.86417 14.9554 6.2778 14.9985C6.66405 15.0387 6.83417 14.2354 6.87437 14.032C6.87437 14.032 7.36898 11.5031 7.42898 11.1465C7.48899 10.7894 7.52511 10.3694 7.2612 10.0996Z" fill="white"/>
<path d="M9.588 4.434L8.13737 5.11621L6.30982 3.7821C6.01969 3.57178 5.61247 3.63703 5.40157 3.92891C5.19126 4.21961 5.25651 4.62567 5.54838 4.83715L7.51925 6.26447C7.70451 6.39788 7.9894 6.46779 8.19796 6.37749C8.19796 6.37749 9.5513 5.55547 9.91424 5.31894C10.2947 5.0696 10.6926 4.74219 10.5458 4.46721C10.3372 4.07222 9.95735 4.25573 9.588 4.434Z" fill="white"/>
<path d="M9.53906 3.71277V14.7818" stroke="white" stroke-width="1.1418" stroke-miterlimit="10" stroke-linecap="round" stroke-linejoin="round"/>
<path d="M3.45278 3.72327C3.45278 3.72327 2.58824 6.40663 2.45715 6.83308C2.32607 7.25953 1.86875 7.55548 1.22267 7.35857C0.576583 7.16108 -0.0939672 6.89018 0.0108974 6.13515C0.125666 5.31255 0.902828 4.22021 1.57687 3.51762C2.25092 2.81561 3.7901 2.5715 3.45278 3.72327Z" fill="white"/>
</svg>
