<svg width="24" height="24" viewBox="0 0 24 24" fill="none" xmlns="http://www.w3.org/2000/svg">
<path d="M10.0436 10.267H6.76925C6.04353 10.267 5.45312 9.67655 5.45312 8.9509V5.36489C5.45312 4.63923 6.04353 4.04883 6.76925 4.04883H13.0581C13.7838 4.04883 14.3742 4.63923 14.3742 5.36489V5.89073H13.5639V5.36489C13.5639 5.08601 13.337 4.85915 13.0581 4.85915H6.76925C6.49037 4.85915 6.26345 5.086 6.26345 5.36489V8.95089C6.26345 9.22977 6.49037 9.45662 6.76925 9.45662H10.0436V10.2669V10.267Z" fill="#14202B"/>
<path d="M8.99969 19.952C8.34031 19.952 7.68824 19.9487 7.05063 19.9404C6.82826 19.9376 6.60867 19.9076 6.39804 19.8515C5.78845 19.6889 4.65882 19.2364 3.94213 18.033C3.15159 16.7054 3.1723 15.0109 3.99496 13.7161C5.11668 11.9504 7.07544 11.8926 7.32471 11.8926H17.9764C18.5168 11.8926 19.036 12.0508 19.4387 12.3382C20.1587 12.852 20.6075 13.6937 20.6394 14.5898C20.675 15.5824 20.2076 16.5021 19.4443 17.049C19.9062 17.358 20.1556 17.8068 20.1556 18.3441C20.1556 18.6924 20.0038 19.0269 19.7166 19.3116C19.3464 19.6783 18.7935 19.907 18.3013 19.908C16.5531 19.892 14.7033 19.9099 12.9143 19.9269C11.6198 19.9393 10.2958 19.952 8.99971 19.952H8.99969ZM7.32687 12.7029C7.2294 12.7029 5.58474 12.7247 4.67893 14.1507C4.01869 15.1898 4.00273 16.551 4.63838 17.6183C5.20827 18.5754 6.11626 18.9377 6.60676 19.0685C6.7527 19.1074 6.90562 19.1282 7.06119 19.1302C8.94279 19.1545 10.9579 19.1352 12.9065 19.1166C14.6992 19.0994 16.5529 19.0817 18.3086 19.0977C18.5865 19.1061 18.9287 18.9514 19.1461 18.7361C19.237 18.646 19.3453 18.5049 19.3453 18.3441C19.3453 18.0146 19.1484 17.7634 18.7601 17.5977C18.6281 17.5413 18.4812 17.5127 18.3235 17.5127L7.96614 17.5128C7.61215 17.5128 7.28467 17.3983 7.0441 17.1904C6.54352 16.7577 6.43675 16.2692 6.4353 15.9356C6.43332 15.471 6.6363 15.0029 6.9649 14.7139C7.37805 14.3507 7.9064 14.1506 8.45255 14.1506H17.8359V14.9609H8.45255C8.10344 14.9609 7.76514 15.0893 7.49998 15.3225C7.37673 15.4309 7.24451 15.6679 7.24563 15.9321C7.24669 16.1728 7.35715 16.3899 7.57398 16.5773C7.66604 16.6568 7.80894 16.7024 7.96615 16.7024L18.3236 16.7024C18.363 16.7024 18.402 16.7035 18.4408 16.7057L18.4275 16.6635C19.2865 16.3916 19.863 15.5508 19.8296 14.6188C19.8065 13.9723 19.4844 13.3664 18.968 12.9978C18.7015 12.8076 18.3494 12.7029 17.9764 12.7029H7.32687V12.7029Z" fill="#14202B"/>
<path d="M19.7406 13.9976C19.5544 13.4303 19.468 12.7973 19.3845 12.1852C19.2042 10.8642 19.034 9.61636 17.9531 8.94392L18.3812 8.25586C19.7853 9.12956 19.999 10.6948 20.1875 12.0757C20.2696 12.6784 20.3473 13.2476 20.5106 13.7449L19.7406 13.9976Z" fill="#14202B"/>
<path d="M3.36247 15.7177C3.25023 14.2945 3.79599 11.1636 4.32156 9.59884C4.52672 8.9876 5.03726 8.51168 5.68721 8.32584C5.70337 8.32123 5.71927 8.31621 5.73463 8.31055L6.01449 9.07102C5.9804 9.08355 5.94551 9.09476 5.90991 9.10498C5.51668 9.21741 5.20997 9.49847 5.08976 9.85675C4.59834 11.32 4.06689 14.3428 4.17029 15.654L3.36247 15.7177Z" fill="#14202B"/>
<path d="M17.1713 11.5439H10.8825C10.1568 11.5439 9.56641 10.9535 9.56641 10.2278V6.64181C9.56641 5.91608 10.1568 5.32568 10.8825 5.32568H17.1713C17.897 5.32568 18.4875 5.91608 18.4875 6.64181V10.2278C18.4875 10.9535 17.897 11.5439 17.1713 11.5439ZM10.8825 6.13601C10.6036 6.13601 10.3767 6.36293 10.3767 6.64181V10.2278C10.3767 10.5067 10.6036 10.7335 10.8825 10.7335H17.1713C17.4503 10.7335 17.6771 10.5067 17.6771 10.2278V6.64181C17.6771 6.36293 17.4503 6.13601 17.1713 6.13601H10.8825Z" fill="#14202B"/>
</svg>
