<svg width="24" height="24" viewBox="0 0 24 24" fill="none" xmlns="http://www.w3.org/2000/svg">
<path d="M11.9983 21.0497C7.00865 21.0497 2.94922 16.9904 2.94922 12.0007C2.94922 7.01108 7.00865 2.95166 11.9983 2.95166C16.9879 2.95166 21.0473 7.01108 21.0473 12.0007C21.0473 16.9904 16.9879 21.0497 11.9983 21.0497V21.0497ZM11.9983 3.76198C7.45542 3.76198 3.75955 7.45785 3.75955 12.0007C3.75955 16.5436 7.45543 20.2394 11.9983 20.2394C16.5411 20.2394 20.237 16.5435 20.237 12.0007C20.237 7.45792 16.5411 3.76199 11.9983 3.76199V3.76198Z" fill="#14202B"/>
<path d="M13.1471 6.4137C12.5197 6.28531 11.8575 6.26374 11.2222 6.34993L11.1133 5.54699C11.8385 5.4484 12.5933 5.47313 13.3096 5.61986L13.1471 6.4137H13.1471Z" fill="#14202B"/>
<path d="M9.12049 17.8467C6.87765 16.7403 5.48438 14.5004 5.48438 12.001C5.48438 9.88256 6.52017 7.88925 8.25504 6.66895L8.72126 7.33169C7.20183 8.40046 6.2947 10.146 6.2947 12.001C6.2947 14.1896 7.51488 16.1511 9.47897 17.12L9.12049 17.8467V17.8467Z" fill="#14202B"/>
<path d="M12.0017 18.5161C11.4414 18.5161 10.8849 18.4448 10.3477 18.3042L10.5529 17.5203C11.5954 17.7931 12.7251 17.7628 13.751 17.4326L13.9992 18.204C13.3558 18.4111 12.6837 18.5161 12.0017 18.5161L12.0017 18.5161Z" fill="#14202B"/>
<path d="M15.4049 17.5546L14.9805 16.8643C16.6845 15.8167 17.7018 13.9986 17.7018 12.001C17.7018 10.4375 17.0817 8.97879 15.9559 7.89354L16.5182 7.31006C17.804 8.54949 18.5121 10.2154 18.5121 12.001C18.5121 14.2823 17.3505 16.3584 15.4049 17.5546Z" fill="#14202B"/>
<path d="M14.4953 19.5496C14.3883 19.5496 14.235 19.5174 14.0934 19.3699C13.4565 18.7059 13.5701 15.8977 13.77 12.5705C13.8182 11.7695 13.8678 10.9441 13.8515 10.6681C13.1059 10.2285 12.4062 9.67243 12.4062 8.41935C12.4062 6.87282 13.0718 4.58447 14.5002 4.58447C15.8064 4.58447 16.5112 6.47491 16.5112 8.25357C16.5112 9.58466 15.8403 10.1882 15.1507 10.5862C15.1373 10.8606 15.1861 11.6566 15.2335 12.4292C15.4406 15.8056 15.5595 18.6572 14.9144 19.3559C14.7701 19.5123 14.6122 19.5475 14.5052 19.5495C14.502 19.5496 14.4987 19.5496 14.4953 19.5496V19.5496ZM14.5002 5.12469C13.6109 5.12469 12.9465 6.86412 12.9465 8.41935C12.9465 9.44361 13.4986 9.84257 14.2203 10.2577C14.4322 10.3796 14.4364 10.4892 14.3093 12.603C14.234 13.8564 14.1403 15.4164 14.1545 16.7209C14.1776 18.8345 14.4875 19.0044 14.5007 19.0106C14.5072 19.0045 14.8295 18.854 14.8551 16.6825C14.8709 15.341 14.773 13.7449 14.6943 12.4623C14.5663 10.3757 14.5697 10.2901 14.7847 10.1722C15.4968 9.78171 15.971 9.30605 15.971 8.25357C15.971 6.74885 15.4087 5.12469 14.5002 5.12469H14.5002Z" fill="#14202B"/>
<path d="M9.83254 19.4949C9.67572 19.4949 9.53091 19.4321 9.41189 19.3121C8.75033 18.6448 8.8716 15.9656 9.08315 12.7946C9.1342 12.0292 9.18688 11.2398 9.16776 11.0011C8.94223 10.7961 8.21875 10.0565 8.21875 9.00477C8.21875 8.57685 8.35875 5.10974 8.41454 4.85045L8.94263 4.96401C8.90721 5.17372 8.75897 8.42459 8.75897 9.00478C8.75897 9.88811 9.44525 10.5262 9.5575 10.6246C9.75137 10.7394 9.74959 10.92 9.62219 12.8306C9.50197 14.6329 9.25178 18.3832 9.79556 18.9318C9.81916 18.9557 9.82919 18.9548 9.83579 18.9546C9.84113 18.95 10.1366 18.7787 10.1685 16.7791C10.1883 15.5427 10.1063 14.0625 10.0403 12.8731C9.93252 10.9274 9.93133 10.7238 10.1206 10.6117C10.257 10.4869 10.5698 10.1715 10.6898 9.92029C10.8774 9.52752 10.8874 9.1184 10.8934 8.87401L10.8942 8.8409C10.9393 7.10148 10.6655 4.89648 10.6627 4.87439L11.1987 4.80713C11.2103 4.89886 11.4804 7.07503 11.4343 8.85494L11.4334 8.88719C11.4269 9.15591 11.4146 9.65617 11.1773 10.1531C11.012 10.4991 10.6546 10.8525 10.5122 10.9854C10.4901 11.2255 10.5356 12.0469 10.5798 12.8432C10.8271 17.3071 10.7835 19.4409 9.86704 19.4939C9.85549 19.4946 9.84396 19.4949 9.83255 19.4949L9.83254 19.4949Z" fill="#14202B"/>
<path d="M10.1223 4.97559H9.58203V9.02723H10.1223V4.97559Z" fill="#14202B"/>
</svg>
