<svg width="24" height="24" viewBox="0 0 24 24" fill="none" xmlns="http://www.w3.org/2000/svg">
<path d="M10.2985 10.6447C9.22164 10.6447 7.66231 10.4179 6.41741 9.51383C4.3507 8.0128 3.81233 5.13287 3.92404 4.82834C3.97271 4.69619 4.07677 4.60518 4.23372 4.55743C4.8015 4.38492 7.40025 4.20502 9.28086 5.57074C11.3476 7.07177 11.8859 9.9517 11.7742 10.2562C11.7256 10.3884 11.6215 10.4794 11.4646 10.5271C11.2727 10.5854 10.8484 10.6446 10.2985 10.6446V10.6447ZM4.75758 5.28441C4.91691 6.03433 5.48824 7.83753 6.89353 8.85808C8.32558 9.89803 10.2078 9.88155 10.9407 9.80017C10.7814 9.05038 10.2098 7.24719 8.80474 6.22649C7.37282 5.18668 5.49089 5.20303 4.75758 5.28441Z" fill="#14202B"/>
<path d="M14.5625 10.9849C12.7307 10.9849 11.1411 10.1935 11.003 9.98645C10.9251 9.87052 10.9126 9.7327 10.9663 9.57786C11.1604 9.01746 12.5433 6.81055 14.7564 6.09347C17.1867 5.30556 19.8316 6.56603 20.0118 6.83574C20.0899 6.95246 20.1023 7.09029 20.0486 7.24513C19.8541 7.80566 18.4703 10.0124 16.2586 10.7291C15.6936 10.9123 15.1167 10.9849 14.5625 10.9849V10.9849ZM11.8625 9.58169C12.5623 9.8944 14.3561 10.4936 16.0088 9.95837C17.6923 9.41274 18.7865 7.88164 19.1524 7.24092C18.4526 6.92834 16.6582 6.32891 15.0062 6.86424C13.3226 7.40987 12.2284 8.94097 11.8625 9.58169Z" fill="#14202B"/>
<path d="M11.3426 19.5635C11.1933 19.5635 11.0497 19.4805 10.9791 19.3375C8.41073 14.1371 11.161 9.86696 11.2793 9.68772C11.4026 9.50123 11.6539 9.44966 11.8408 9.57284C12.0273 9.69603 12.0788 9.94702 11.9559 10.1338C11.9297 10.1739 9.34885 14.2069 11.7056 18.9788C11.8048 19.1794 11.7225 19.4223 11.5217 19.5214C11.4641 19.5499 11.4029 19.5635 11.3426 19.5635V19.5635Z" fill="#14202B"/>
</svg>
