<svg width="24" height="24" viewBox="0 0 24 24" fill="none" xmlns="http://www.w3.org/2000/svg">
<path d="M15.1997 11.9908C14.9759 11.9908 14.7945 11.8094 14.7945 11.5856C14.7945 10.0457 13.5416 8.79275 12.0017 8.79275C10.4617 8.79275 9.20876 10.0457 9.20876 11.5856C9.20876 11.8094 9.02741 11.9908 8.8036 11.9908C8.57979 11.9908 8.39844 11.8094 8.39844 11.5856C8.39844 9.59886 10.0149 7.98242 12.0017 7.98242C13.9884 7.98242 15.6049 9.59886 15.6049 11.5856C15.6049 11.8094 15.4235 11.9908 15.1997 11.9908Z" fill="#14202B"/>
<path d="M2.33486 12.2043C2.11249 12.2043 1.93141 12.025 1.9297 11.8022C1.92812 11.5784 2.10814 11.3957 2.33183 11.394L21.4845 11.252H21.4876C21.7099 11.252 21.891 11.4313 21.8927 11.6541C21.8943 11.8779 21.7143 12.0606 21.4906 12.0623L2.33789 12.2043H2.33486Z" fill="#14202B"/>
<path d="M9.26437 14.7625H2.29969C2.07588 14.7625 1.89453 14.5811 1.89453 14.3573C1.89453 14.1335 2.07588 13.9521 2.29969 13.9521H9.26437C9.48818 13.9521 9.66953 14.1335 9.66953 14.3573C9.66953 14.5811 9.48818 14.7625 9.26437 14.7625Z" fill="#14202B"/>
<path d="M13.4167 14.7625H10.8583C10.6345 14.7625 10.4531 14.5811 10.4531 14.3573C10.4531 14.1335 10.6345 13.9521 10.8583 13.9521H13.4167C13.6405 13.9521 13.8218 14.1335 13.8218 14.3573C13.8218 14.5811 13.6405 14.7625 13.4167 14.7625Z" fill="#14202B"/>
<path d="M21.6989 14.7625H15.0184C14.7946 14.7625 14.6133 14.5811 14.6133 14.3573C14.6133 14.1335 14.7946 13.9521 15.0184 13.9521H21.6989C21.9227 13.9521 22.1041 14.1335 22.1041 14.3573C22.1041 14.5811 21.9227 14.7625 21.6989 14.7625Z" fill="#14202B"/>
<path d="M6.20946 17.0369H2.94032C2.71651 17.0369 2.53516 16.8555 2.53516 16.6317C2.53516 16.4079 2.71651 16.2266 2.94032 16.2266H6.20946C6.43327 16.2266 6.61462 16.4079 6.61462 16.6317C6.61462 16.8555 6.43327 17.0369 6.20946 17.0369Z" fill="#14202B"/>
<path d="M10.6848 17.0369H8.26844C8.04463 17.0369 7.86328 16.8555 7.86328 16.6317C7.86328 16.4079 8.04463 16.2266 8.26844 16.2266H10.6848C10.9086 16.2266 11.09 16.4079 11.09 16.6317C11.09 16.8555 10.9086 17.0369 10.6848 17.0369Z" fill="#14202B"/>
<path d="M17.5073 17.0369H12.6747C12.4509 17.0369 12.2695 16.8555 12.2695 16.6317C12.2695 16.4079 12.4509 16.2266 12.6747 16.2266H17.5073C17.7311 16.2266 17.9124 16.4079 17.9124 16.6317C17.9124 16.8555 17.7311 17.0369 17.5073 17.0369Z" fill="#14202B"/>
<path d="M8.41165 19.074H4.85829C4.63448 19.074 4.45312 18.8926 4.45312 18.6688C4.45312 18.445 4.63448 18.2637 4.85829 18.2637H8.41165C8.63546 18.2637 8.81681 18.445 8.81681 18.6688C8.81681 18.8926 8.63546 19.074 8.41165 19.074Z" fill="#14202B"/>
<path d="M14.3083 19.074H10.1864C9.9626 19.074 9.78125 18.8926 9.78125 18.6688C9.78125 18.445 9.9626 18.2637 10.1864 18.2637H14.3083C14.5322 18.2637 14.7135 18.445 14.7135 18.6688C14.7135 18.8926 14.5322 19.074 14.3083 19.074Z" fill="#14202B"/>
<path d="M20.6332 19.074H16.0849C15.861 19.074 15.6797 18.8926 15.6797 18.6688C15.6797 18.445 15.861 18.2637 16.0849 18.2637H20.6332C20.857 18.2637 21.0383 18.445 21.0383 18.6688C21.0383 18.8926 20.857 19.074 20.6332 19.074Z" fill="#14202B"/>
<path d="M11.9989 7.72703C11.7751 7.72703 11.5938 7.54568 11.5938 7.32187V5.33192C11.5938 5.10811 11.7751 4.92676 11.9989 4.92676C12.2227 4.92676 12.4041 5.10811 12.4041 5.33192V7.32187C12.4041 7.54568 12.2227 7.72703 11.9989 7.72703Z" fill="#14202B"/>
<path d="M13.9989 8.0809C13.9477 8.0809 13.8959 8.07114 13.8456 8.05057C13.6384 7.96589 13.5393 7.72928 13.6241 7.52222L14.3776 5.68051C14.4622 5.47319 14.6991 5.3744 14.9059 5.45894C15.1131 5.54361 15.2123 5.78022 15.1275 5.98729L14.374 7.82899C14.3099 7.98594 14.1585 8.0809 13.9989 8.0809Z" fill="#14202B"/>
<path d="M15.4795 8.94273C15.3706 8.94273 15.262 8.89907 15.1821 8.81283C15.03 8.64876 15.0399 8.39236 15.2041 8.24029L16.664 6.88816C16.8283 6.7361 17.0845 6.74599 17.2366 6.91019C17.3886 7.07426 17.3787 7.33066 17.2145 7.48273L15.7546 8.83485C15.6767 8.90699 15.5779 8.94273 15.4795 8.94273H15.4795Z" fill="#14202B"/>
<path d="M16.2804 10.4864C16.1199 10.4864 15.968 10.3904 15.9044 10.2324C15.8209 10.0248 15.9214 9.78871 16.129 9.70523L17.975 8.96243C18.1826 8.87908 18.4186 8.97944 18.5022 9.18704C18.5857 9.39463 18.4852 9.63071 18.2776 9.7142L16.4315 10.457C16.3819 10.4769 16.3308 10.4864 16.2804 10.4864Z" fill="#14202B"/>
<path d="M10.0142 8.13823C9.85462 8.13823 9.70322 8.04327 9.63912 7.88632L8.88577 6.04462C8.80097 5.83755 8.90028 5.60095 9.10735 5.51627C9.31481 5.4312 9.55116 5.53065 9.6357 5.73785L10.389 7.57955C10.4739 7.78661 10.3745 8.02322 10.1675 8.1079C10.1172 8.12847 10.0653 8.13823 10.0142 8.13823Z" fill="#14202B"/>
<path d="M8.53693 8.99937C8.43841 8.99937 8.33975 8.96363 8.26181 8.89148L6.80179 7.53936C6.63759 7.38729 6.6277 7.1309 6.77977 6.96682C6.93157 6.80249 7.1881 6.79286 7.3523 6.9448L8.81232 8.29692C8.97652 8.44899 8.98641 8.70538 8.83434 8.86946C8.75455 8.95572 8.64587 8.99937 8.53694 8.99937H8.53693Z" fill="#14202B"/>
<path d="M7.73947 10.543C7.68909 10.543 7.63792 10.5335 7.58832 10.5136L5.74227 9.77077C5.53468 9.68728 5.43417 9.4512 5.51766 9.24361C5.60128 9.03614 5.83736 8.93578 6.04482 9.019L7.89087 9.76179C8.09846 9.84528 8.19897 10.0814 8.11548 10.289C8.05192 10.447 7.89997 10.543 7.73947 10.543Z" fill="#14202B"/>
</svg>
