<svg width="16" height="15" viewBox="0 0 16 15" fill="none" xmlns="http://www.w3.org/2000/svg">
<path d="M6.41119 10.3115H10.2784C10.3428 10.3115 10.3956 10.2588 10.3956 10.1943V8.96387C10.3956 8.89941 10.3428 8.84668 10.2784 8.84668H9.69244C9.62799 8.84668 9.57525 8.89941 9.57525 8.96387V9.49121H7.11431V8.96387C7.11431 8.89941 7.06158 8.84668 6.99713 8.84668H6.41119C6.34674 8.84668 6.294 8.89941 6.294 8.96387V10.1943C6.294 10.2588 6.34674 10.3115 6.41119 10.3115ZM11.3917 8.50976C11.3917 8.66516 11.4534 8.8142 11.5633 8.92409C11.6732 9.03397 11.8222 9.0957 11.9776 9.0957C12.133 9.0957 12.282 9.03397 12.3919 8.92409C12.5018 8.8142 12.5635 8.66516 12.5635 8.50976C12.5635 8.35436 12.5018 8.20533 12.3919 8.09544C12.282 7.98556 12.133 7.92383 11.9776 7.92383C11.8222 7.92383 11.6732 7.98556 11.5633 8.09544C11.4534 8.20533 11.3917 8.35436 11.3917 8.50976ZM14.8926 6.05469L14.5455 5.44824C14.5299 5.42151 14.5043 5.40203 14.4744 5.39408C14.4445 5.38612 14.4126 5.39032 14.3858 5.40576L13.6431 5.83936L12.4962 2.67236C12.4356 2.48339 12.3165 2.31855 12.1562 2.20165C11.9959 2.08474 11.8025 2.02182 11.6041 2.02197H5.25689C4.74859 2.02197 4.29742 2.3501 4.14068 2.83496L3.04791 5.84082L2.30377 5.40723C2.27694 5.39178 2.24509 5.38758 2.21517 5.39554C2.18526 5.4035 2.15971 5.42297 2.1441 5.44971L1.79693 6.05469C1.7647 6.11035 1.78375 6.18066 1.83941 6.21289L2.72418 6.72852L2.51177 7.31445C2.4942 7.36133 2.48541 7.41113 2.48541 7.46094V12.5615C2.48541 12.7915 2.65826 12.9775 2.87066 12.9775H3.8609C4.04107 12.9775 4.19781 12.8413 4.2359 12.6509L4.34869 12.0986H12.3409L12.4537 12.6509C12.4932 12.8413 12.6485 12.9775 12.8287 12.9775H13.8189C14.0313 12.9775 14.2042 12.7915 14.2042 12.5615V7.46094C14.2042 7.41113 14.1954 7.36133 14.1778 7.31445L13.9654 6.72852L14.8487 6.21289C14.8753 6.19754 14.8948 6.17236 14.903 6.14277C14.9112 6.11319 14.9075 6.08156 14.8926 6.05469ZM13.1495 7.57227V11.0439H3.5401V7.57227L3.76861 6.94238H12.921L13.1495 7.57227ZM5.13238 3.19385L5.1397 3.1748L5.14556 3.15576C5.16168 3.10742 5.20562 3.0752 5.25689 3.0752H11.5206L12.6251 6.12207H4.06744L5.13238 3.19385ZM4.12603 8.50976C4.12603 8.66516 4.18777 8.8142 4.29765 8.92409C4.40753 9.03397 4.55657 9.0957 4.71197 9.0957C4.86737 9.0957 5.01641 9.03397 5.12629 8.92409C5.23618 8.8142 5.29791 8.66516 5.29791 8.50976C5.29791 8.35436 5.23618 8.20533 5.12629 8.09544C5.01641 7.98556 4.86737 7.92383 4.71197 7.92383C4.55657 7.92383 4.40753 7.98556 4.29765 8.09544C4.18777 8.20533 4.12603 8.35436 4.12603 8.50976Z" fill="#14202B"/>
</svg>
