<svg width="24" height="24" viewBox="0 0 24 24" fill="none" xmlns="http://www.w3.org/2000/svg">
<path d="M10.9822 18.218C6.58078 18.218 3 15.3079 3 11.731C3 11.2252 3.25035 10.7672 3.74423 10.3697C5.78922 8.72357 11.688 8.38962 15.3976 9.20099L15.2507 9.8727C11.436 9.03849 5.84696 9.55979 4.17543 10.9053C3.84718 11.1696 3.6876 11.4396 3.6876 11.731C3.6876 14.9288 6.95995 17.5304 10.9822 17.5304C15.0045 17.5304 18.277 14.9288 18.277 11.731C18.277 11.3347 18.0573 10.8124 16.3443 10.2859L16.5465 9.62872C17.6723 9.97476 18.9646 10.5264 18.9646 11.731C18.9646 15.3079 15.3837 18.218 10.9822 18.218Z" fill="black"/>
<path d="M10.6057 14.236C5.8726 14.236 3.23424 12.087 3.124 11.9954L3.56315 11.4663C3.58844 11.4872 6.13638 13.5484 10.6065 13.5484H10.6389C15.1584 13.5382 18.401 11.4639 18.4331 11.443L18.8086 12.019C18.6706 12.1091 15.3723 14.2254 10.6405 14.236L10.6057 14.236Z" fill="black"/>
<path d="M8.49093 14.159L7.8105 14.0594C7.97736 12.9208 8.84368 11.8923 10.128 11.3081C11.0625 10.883 12.288 11.0171 12.6374 11.0674C12.8738 10.9275 13.5908 10.3818 14.2861 9.85277C18.9134 6.33175 20.3285 5.55059 20.8691 6.21569C20.9795 6.35156 21.0212 6.51988 20.9899 6.70263C20.8427 7.55955 18.9134 8.87823 15.1668 11.1663C14.4871 11.5813 13.7878 12.0085 13.5263 12.1992C13.5684 12.5651 13.5934 13.3821 13.1248 14.0931L12.5507 13.7148C13.0061 13.0235 12.8261 12.1596 12.8243 12.151L12.8191 12.1201C12.7872 11.8603 12.9882 11.7195 13.4866 11.398C13.816 11.1855 14.2759 10.9046 14.8083 10.5794C15.9135 9.90458 17.2888 9.06467 18.4119 8.28061C19.7293 7.3609 20.1337 6.9025 20.2577 6.70587C20.0243 6.76059 19.4548 6.99159 18.1354 7.88354C17.0068 8.64668 15.7292 9.61875 14.7026 10.3999C14.1962 10.7852 13.7588 11.1181 13.4349 11.3529C12.979 11.6832 12.7822 11.8136 12.5838 11.7548C12.3902 11.7247 11.2224 11.5657 10.4127 11.9339C8.82621 12.6555 8.54062 13.8194 8.49093 14.159Z" fill="black"/>
</svg>
