<svg width="24" height="24" viewBox="0 0 24 24" fill="none" xmlns="http://www.w3.org/2000/svg">
<path d="M12 7.57143V7.95238M12 7.57143C12 6.35901 12.4816 5.19625 13.3389 4.33894C14.1962 3.48163 15.359 3 16.5714 3H16.9524V7.95238C16.9524 9.26583 16.4306 10.5255 15.5019 11.4542C14.5731 12.383 13.3135 12.9048 12 12.9048M12 7.57143C12 6.35901 11.5184 5.19625 10.6611 4.33894C9.80375 3.48163 8.64099 3 7.42857 3H7.04762V7.95238C7.04762 9.26583 7.56939 10.5255 8.49814 11.4542C9.42689 12.383 10.6865 12.9048 12 12.9048M12 12.9048V20.1429M12 12.9048V19.7619M12 20.5238H8.57143C7.35901 20.5238 6.19625 20.0422 5.33894 19.1849C4.48163 18.3276 4 17.1648 4 15.9524H7.42857C8.64099 15.9524 9.80375 16.434 10.6611 17.2913C11.5184 18.1486 12 19.3114 12 20.5238ZM12 20.5238H15.4286C16.641 20.5238 17.8038 20.0422 18.6611 19.1849C19.5184 18.3276 20 17.1648 20 15.9524H16.5714C15.359 15.9524 14.1962 16.434 13.3389 17.2913C12.4816 18.1486 12 19.3114 12 20.5238Z" stroke="black"/>
</svg>
