<svg width="24" height="24" viewBox="0 0 24 24" fill="none" xmlns="http://www.w3.org/2000/svg">
<path d="M15.2403 11.7223C13.5275 11.7223 12.134 10.3288 12.134 8.61602C12.134 6.90324 13.5275 5.50977 15.2403 5.50977C16.9531 5.50977 18.3465 6.90324 18.3465 8.61602C18.3465 10.3288 16.9531 11.7223 15.2403 11.7223ZM15.2403 6.32008C13.9743 6.32008 12.9444 7.35001 12.9444 8.61601C12.9444 9.88202 13.9743 10.9119 15.2403 10.9119C16.5063 10.9119 17.5362 9.88202 17.5362 8.61601C17.5362 7.35001 16.5063 6.32008 15.2403 6.32008Z" fill="black"/>
<path d="M7.94733 12.2625C6.23454 12.2625 4.84107 10.869 4.84107 9.15624C4.84107 7.44346 6.23455 6.04999 7.94733 6.04999C9.6601 6.04999 11.0536 7.44346 11.0536 9.15624C11.0536 10.869 9.6601 12.2625 7.94733 12.2625ZM7.94733 6.8603C6.68132 6.8603 5.6514 7.89023 5.6514 9.15623C5.6514 10.4222 6.68132 11.4522 7.94733 11.4522C9.21333 11.4522 10.2433 10.4222 10.2433 9.15623C10.2433 7.89023 9.21333 6.8603 7.94733 6.8603Z" fill="black"/>
<path d="M15.1728 18.475C13.8448 18.475 12.6068 18.4702 11.687 18.4615C11.2097 18.4569 10.812 18.4513 10.5335 18.4445C10.0514 18.4327 9.70304 18.4243 9.70304 18.0158C9.70304 15.2903 12.1568 13.0728 15.1728 13.0728C18.1887 13.0728 20.6425 15.2903 20.6425 18.0158C20.6425 18.4243 20.2941 18.4327 19.812 18.4445C19.5336 18.4513 19.1358 18.4569 18.6585 18.4615C17.7387 18.4702 16.5007 18.475 15.1728 18.475ZM10.533 17.6352C12.1143 17.6758 18.2312 17.6758 19.8126 17.6352C19.5953 15.5341 17.5973 13.8831 15.1728 13.8831C12.7482 13.8831 10.7502 15.5341 10.533 17.6352Z" fill="black"/>
<path d="M4.55263 18.4903C3.60844 18.4903 3.58357 18.4656 3.47549 18.3581L3.35593 18.2393L3.35547 18.0698C3.35547 15.3263 5.35464 13.3727 8.33014 13.2085C8.64614 13.191 9.43649 13.1984 9.87937 13.2045C10.1071 13.2074 10.2863 13.3213 10.3585 13.509C10.4307 13.6967 10.3742 13.9013 10.2071 14.0563C9.90747 14.3343 9.17898 15.1701 8.88718 16.921C8.76089 17.6788 8.75766 18.0669 8.75766 18.0708L8.75582 18.4741L8.3525 18.475C7.35297 18.475 6.42717 18.4806 5.67283 18.4852C5.19941 18.4881 4.83494 18.4903 4.55263 18.4903ZM4.18175 17.6803C4.52401 17.6816 5.06963 17.6785 5.66795 17.6749C6.32687 17.6709 7.11636 17.6661 7.97159 17.665C7.99091 17.4541 8.0256 17.1615 8.08792 16.7878C8.31134 15.4469 8.76689 14.5623 9.17417 14.0084C8.85868 14.0071 8.53806 14.0086 8.37478 14.0176C5.96372 14.1506 4.3571 15.5727 4.18175 17.6803Z" fill="black"/>
</svg>
