<svg width="16" height="16" viewBox="0 0 16 16" fill="none" xmlns="http://www.w3.org/2000/svg">
<path d="M11.516 13.0001H4.48397C3.66569 13.0001 3 12.3343 3 11.516V4.48402C3 3.66574 3.66569 3 4.48397 3H11.516C12.3343 3 13 3.66574 13 4.48402V11.516C13 12.3343 12.3343 13.0001 11.516 13.0001ZM4.48397 3.625C4.01033 3.625 3.625 4.01034 3.625 4.48402V11.516C3.625 11.9897 4.01033 12.3751 4.48397 12.3751H11.516C11.9897 12.3751 12.375 11.9897 12.375 11.516V4.48402C12.375 4.01034 11.9897 3.625 11.516 3.625H4.48397Z" fill="black"/>
<path d="M7.84375 5.50002C8.0451 5.50002 8.20833 5.33679 8.20833 5.13543C8.20833 4.93408 8.0451 4.77085 7.84375 4.77085C7.64239 4.77085 7.47916 4.93408 7.47916 5.13543C7.47916 5.33679 7.64239 5.50002 7.84375 5.50002Z" fill="black"/>
<path d="M7.84375 5.81251C7.47041 5.81251 7.16667 5.50876 7.16667 5.13542C7.16667 4.76209 7.47041 4.45834 7.84375 4.45834C8.21708 4.45834 8.52083 4.76209 8.52083 5.13542C8.52083 5.50876 8.21708 5.81251 7.84375 5.81251ZM7.84375 5.08334C7.81506 5.08334 7.79166 5.10669 7.79166 5.13542C7.79166 5.16416 7.81506 5.18751 7.84375 5.18751C7.87243 5.18751 7.89583 5.16416 7.89583 5.13542C7.89583 5.10669 7.87243 5.08334 7.84375 5.08334Z" fill="black"/>
<path d="M9.66666 10.6042H6.4375V11.2292H9.66666V10.6042Z" fill="black"/>
<path d="M8.3125 7.47917H7.6875V10.9167H8.3125V7.47917Z" fill="black"/>
<path d="M8.3125 7.16667H6.85417V7.79167H8.3125V7.16667Z" fill="black"/>
</svg>
