<svg width="24" height="24" viewBox="0 0 24 24" fill="none" xmlns="http://www.w3.org/2000/svg">
<path d="M20.1184 10.2579H19.1036V6.99765C19.1036 5.90431 18.2141 5.0148 17.1208 5.0148H6.87926C5.78592 5.0148 4.8964 5.90431 4.8964 6.99765V10.2579H3.88161V6.99765C3.88161 5.34472 5.22633 4 6.87926 4H17.1208C18.7737 4 20.1184 5.34472 20.1184 6.99765V10.2579Z" fill="#14202B"/>
<path d="M3.0148 15.501H2V19.5602H3.0148V15.501Z" fill="#14202B"/>
<path d="M22 17.5306H2V12.2893C2 10.9827 3.06302 9.91965 4.36968 9.91965H19.6304C20.937 9.91965 22 10.9827 22 12.2893L22 17.5306ZM3.0148 16.5158H20.9852V12.2893C20.9852 11.5423 20.3775 10.9345 19.6304 10.9345H4.36968C3.62263 10.9345 3.01481 11.5423 3.01481 12.2893L3.0148 16.5158Z" fill="#14202B"/>
<path d="M22 15.501H20.9852V19.5602H22V15.501Z" fill="#14202B"/>
<path d="M7.60433 9.07402H9.78542C10.257 9.07402 10.6399 9.4569 10.6399 9.9285V10.0888H6.74985V9.9285C6.74985 9.45691 7.13272 9.07402 7.60433 9.07402Z" fill="#14202B"/>
<path d="M11.1473 10.5962H6.24244V9.81353C6.24244 9.12592 6.80179 8.56658 7.48939 8.56658H9.90036C10.588 8.56658 11.1473 9.12592 11.1473 9.81353V10.5962Z" fill="#14202B"/>
<path d="M14.2005 9.07402H16.3816C16.8532 9.07402 17.2361 9.4569 17.2361 9.92849V10.0888H13.346V9.92849C13.346 9.4569 13.7289 9.07402 14.2005 9.07402Z" fill="#14202B"/>
<path d="M17.7435 10.5962H12.8386V9.81353C12.8386 9.12592 13.398 8.56658 14.0856 8.56658H16.4966C17.1842 8.56658 17.7435 9.12592 17.7435 9.81353V10.5962Z" fill="#14202B"/>
</svg>
