<svg width="24" height="24" viewBox="0 0 24 24" fill="none" xmlns="http://www.w3.org/2000/svg">
<path d="M8.192 8V5.385H9.192V8H8.192ZM8.192 16.115V11.77H9.192V16.116L8.192 16.115ZM6.615 21C6.16833 21 5.78733 20.8427 5.472 20.528C5.15733 20.2133 5 19.8323 5 19.385V4.615C5 4.16833 5.15733 3.78733 5.472 3.472C5.78667 3.15733 6.16767 3 6.615 3H17.385C17.8317 3 18.2127 3.15733 18.528 3.472C18.8427 3.78667 19 4.16767 19 4.615V19.385C19 19.8317 18.8427 20.2127 18.528 20.528C18.2133 20.8427 17.8323 21 17.385 21H6.615ZM6.615 20H17.385C17.5643 20 17.7117 19.9423 17.827 19.827C17.9423 19.7117 18 19.5643 18 19.385V10.385H6V19.385C6 19.5643 6.05767 19.7117 6.173 19.827C6.28833 19.9423 6.43567 20 6.615 20ZM6 9.385H18V4.615C18 4.43567 17.9423 4.28833 17.827 4.173C17.7117 4.05767 17.5643 4 17.385 4H6.615C6.43567 4 6.28833 4.05767 6.173 4.173C6.05767 4.28833 6 4.43567 6 4.615V9.385Z" fill="black"/>
</svg>
