<svg width="24" height="24" viewBox="0 0 24 24" fill="none" xmlns="http://www.w3.org/2000/svg">
<path fill-rule="evenodd" clip-rule="evenodd" d="M4.48516 4.61719H18.6059C19.1155 4.61719 19.5286 5.03027 19.5286 5.53984V17.9067C19.5286 18.4162 19.1155 18.8293 18.6059 18.8293H17.6919L18.1839 20.3357H4.90711L5.39907 18.8293H4.48516C3.97558 18.8293 3.5625 18.4162 3.5625 17.9067V5.53984C3.5625 5.03027 3.97559 4.61719 4.48516 4.61719ZM18.786 5.53984C18.786 5.44056 18.7052 5.35979 18.6059 5.35979H4.48516C4.38588 5.35979 4.30511 5.44056 4.30511 5.53984V17.9067C4.30511 18.006 4.38588 18.0867 4.48516 18.0867H18.6059C18.7052 18.0867 18.786 18.006 18.786 17.9067V5.53984ZM6.18028 18.8293L5.93084 19.5931H17.1601L16.9107 18.8293H6.18028Z" fill="black"/>
<path fill-rule="evenodd" clip-rule="evenodd" d="M8.91888 7.80268V16.1989C8.91888 16.3743 9.06112 16.5161 9.23615 16.5161H10.8118C10.9872 16.5161 11.129 16.3738 11.129 16.1989V14.1525L11.8165 16.1276C11.8398 16.1867 11.8944 16.271 11.9588 16.3443C12.0215 16.4473 12.1348 16.5161 12.2641 16.5161H13.7601C13.8319 16.5161 13.8987 16.4949 13.9547 16.4585C14.1166 16.3756 14.2369 16.1796 14.1681 16.0039L14.1172 15.8617V7.70356C14.1172 7.5063 13.9573 7.34645 13.7601 7.34645H12.2641C12.0669 7.34645 11.907 7.50637 11.907 7.70356V9.6917L11.1977 7.7114C11.1869 7.68382 11.1771 7.6579 11.1679 7.63361C11.0909 7.42959 11.0571 7.34008 10.8311 7.34009L10.8264 7.34011L9.21757 7.34543C9.0007 7.3466 8.85245 7.58142 8.91888 7.80268ZM10.6313 7.96529L13.4664 15.8801H12.3856L9.6307 7.96529H10.6313ZM12.4902 11.3196L13.4984 14.1341V7.96529H12.5259V11.3196H12.4902ZM10.5238 12.4137L9.53772 9.58072V15.8973H10.5102V12.4137H10.5238Z" fill="black"/>
</svg>
