<svg width="24" height="24" viewBox="0 0 24 24" fill="none" xmlns="http://www.w3.org/2000/svg">
<path d="M12.3367 11.2698C11.6306 11.2698 11.056 10.5803 11.056 9.73293C11.056 8.88547 11.6306 8.19602 12.3367 8.19602C13.0429 8.19602 13.6175 8.88547 13.6175 9.73293C13.6175 10.5803 13.0429 11.2698 12.3367 11.2698ZM12.3367 9.00634C12.0029 9.00634 11.7313 9.33231 11.7313 9.73292C11.7313 10.1335 12.0029 10.4594 12.3367 10.4594C12.6706 10.4594 12.9422 10.1335 12.9422 9.73292C12.9422 9.33231 12.6706 9.00634 12.3367 9.00634Z" fill="#14202B"/>
<path fill-rule="evenodd" clip-rule="evenodd" d="M12.9206 4.14683C14.0214 4.31621 14.8249 5.02818 14.8249 5.90568C14.8249 6.30783 14.494 6.31618 14.3161 6.32067C14.2016 6.3235 14.0379 6.32589 13.8416 6.3278C13.4518 6.33156 12.9321 6.33346 12.4124 6.33346C11.8928 6.33346 11.3731 6.33155 10.9833 6.3278C10.787 6.32588 10.6235 6.32351 10.5089 6.32067C10.3311 6.31619 10 6.30783 10 5.90568C10 5.02782 10.8041 4.31564 11.9056 4.14662V3.72119H12.9206V4.14683ZM13.9877 5.51647C13.2006 5.52597 11.6245 5.52597 10.8372 5.51647C11.1081 5.19024 11.6948 4.91881 12.4124 4.91881C13.1301 4.91881 13.7168 5.19024 13.9877 5.51647Z" fill="#14202B"/>
<path d="M13.7803 6.36654C13.8064 6.36654 13.8275 6.2652 13.8275 6.1402C13.8275 6.01519 13.8064 5.91385 13.7803 5.91385C13.7543 5.91385 13.7332 6.01519 13.7332 6.1402C13.7332 6.2652 13.7543 6.36654 13.7803 6.36654Z" fill="#14202B"/>
<path d="M13.7803 6.77168C13.7161 6.77168 13.3955 6.74121 13.3955 6.14019C13.3955 5.53916 13.7161 5.5087 13.7803 5.5087C13.8445 5.5087 14.1651 5.53916 14.1651 6.14019C14.1651 6.74121 13.8445 6.77168 13.7803 6.77168ZM13.5087 6.14019C13.5505 6.22163 13.6444 6.31903 13.7803 6.31903C13.9162 6.31903 14.0101 6.22163 14.0519 6.14019C14.0101 6.05874 13.9162 5.96134 13.7803 5.96134C13.6444 5.96134 13.5505 6.05874 13.5087 6.14019Z" fill="#14202B"/>
<path d="M12.8372 7.35944C12.8633 7.35944 12.8844 7.28344 12.8844 7.18969C12.8844 7.09593 12.8633 7.01993 12.8372 7.01993C12.8112 7.01993 12.7901 7.09593 12.7901 7.18969C12.7901 7.28344 12.8112 7.35944 12.8372 7.35944Z" fill="#14202B"/>
<path d="M12.8372 7.76461C12.6457 7.76461 12.4524 7.58682 12.4524 7.1897C12.4524 6.79258 12.6457 6.6148 12.8372 6.6148C13.0287 6.6148 13.222 6.79258 13.222 7.1897C13.222 7.58682 13.0287 7.76461 12.8372 7.76461ZM12.5479 7.1897C12.5632 7.26461 12.6612 7.42512 12.8372 7.42512C13.0133 7.42512 13.1112 7.26461 13.1266 7.1897C13.1112 7.11479 13.0133 6.95428 12.8372 6.95428C12.6612 6.95428 12.5633 7.11479 12.5479 7.1897Z" fill="#14202B"/>
<path d="M11.0935 7.44131C11.1196 7.44131 11.1407 7.36531 11.1407 7.27155C11.1407 7.1778 11.1196 7.10179 11.0935 7.10179C11.0675 7.10179 11.0464 7.1778 11.0464 7.27155C11.0464 7.36531 11.0675 7.44131 11.0935 7.44131Z" fill="#14202B"/>
<path d="M11.0935 7.84644C10.902 7.84644 10.7087 7.66865 10.7087 7.27154C10.7087 6.87442 10.902 6.69663 11.0935 6.69663C11.2851 6.69663 11.4783 6.87442 11.4783 7.27154C11.4783 7.66865 11.2851 7.84644 11.0935 7.84644ZM10.8042 7.27154C10.8195 7.34638 10.9174 7.50696 11.0935 7.50696C11.2696 7.50696 11.3676 7.34638 11.3828 7.27154C11.3676 7.19669 11.2696 7.03612 11.0935 7.03612C10.9174 7.03612 10.8195 7.19669 10.8042 7.27154Z" fill="#14202B"/>
<path d="M11.9885 6.36654C12.0145 6.36654 12.0356 6.2652 12.0356 6.1402C12.0356 6.01519 12.0145 5.91385 11.9885 5.91385C11.9624 5.91385 11.9413 6.01519 11.9413 6.1402C11.9413 6.2652 11.9624 6.36654 11.9885 6.36654Z" fill="#14202B"/>
<path d="M11.9885 6.77168C11.9242 6.77168 11.6037 6.74121 11.6037 6.14019C11.6037 5.53916 11.9242 5.5087 11.9885 5.5087C12.0527 5.5087 12.3733 5.53916 12.3733 6.14019C12.3733 6.74121 12.0527 6.77168 11.9885 6.77168ZM11.7169 6.14019C11.7588 6.22169 11.8526 6.31903 11.9885 6.31903C12.1244 6.31903 12.2182 6.22169 12.2601 6.14019C12.2182 6.05868 12.1244 5.96134 11.9885 5.96134C11.8526 5.96134 11.7588 6.05868 11.7169 6.14019Z" fill="#14202B"/>
<path d="M13.724 20.2774H13.0487V17.0557C13.0487 16.7941 13.1866 16.5631 13.3919 16.4807C13.724 16.3476 13.724 16.0787 13.724 15.9903V12.5793H11.0229V15.9557C11.0229 16.0519 11.0229 16.3447 11.3579 16.4814C11.5615 16.5644 11.6982 16.7947 11.6982 17.0545V20.2774H11.0229V17.1934C10.5976 16.9663 10.3476 16.5132 10.3476 15.9557V12.5376C10.3476 12.1138 10.635 11.769 10.9882 11.769H13.7587C14.1119 11.769 14.3993 12.1138 14.3993 12.5376V15.9903C14.3993 16.5312 14.1493 16.9722 13.724 17.195L13.724 20.2774Z" fill="#14202B"/>
<path d="M12.553 7.25637C12.553 6.98158 12.6808 6.78849 12.8598 6.78849C13.0387 6.78849 13.1614 6.98158 13.1614 7.25637C13.1614 7.52378 13.0438 7.72431 12.8546 7.72431C12.6757 7.72431 12.553 7.52378 12.553 7.25637Z" fill="#14202B"/>
<path d="M10.7584 7.26125C10.7584 6.98646 10.9086 6.79338 11.1189 6.79338C11.3291 6.79338 11.4733 6.98646 11.4733 7.26125C11.4733 7.52866 11.3351 7.72919 11.1129 7.72919C10.9026 7.72919 10.7584 7.52866 10.7584 7.26125Z" fill="#14202B"/>
</svg>
