<?xml version="1.0" encoding="utf-8" ?>
<svg xmlns="http://www.w3.org/2000/svg" xmlns:xlink="http://www.w3.org/1999/xlink" width="200" height="201">
	<path transform="scale(0.333333 0.334443)" d="M504.063 448.673C505.312 453.114 506.455 464.344 504.268 468.322C504.202 468.443 504.129 468.561 504.059 468.68C504.035 462.018 503.891 455.332 504.063 448.673Z"/>
	<path fill="#242323" transform="scale(0.333333 0.334443)" d="M155.822 318.254L191.856 318.227C198.315 318.224 204.943 317.905 211.378 318.365C213.121 318.49 214.844 318.717 216.461 319.419C220.404 321.13 223.878 324.386 225.419 328.424C226.134 330.297 226.46 332.228 226.567 334.224C226.93 340.97 226.696 347.817 226.697 354.576L226.698 390.659L226.692 434.904C226.69 442.908 226.905 450.978 226.626 458.972C226.547 461.227 226.623 464.762 225.656 466.794C224.77 468.657 223.79 470.415 222.404 471.961C219.504 475.195 215.606 476.995 211.266 477.109Q210.452 477.134 209.639 477.075Q208.826 477.017 208.024 476.876Q207.221 476.735 206.437 476.514Q205.653 476.292 204.896 475.992Q204.139 475.692 203.416 475.316Q202.693 474.941 202.012 474.493Q201.331 474.046 200.699 473.532Q200.066 473.018 199.49 472.442C193.056 466.098 194.662 455.249 194.701 446.987Q194.755 430.398 194.601 413.81L160.283 413.8C154.534 413.806 148.601 414.166 142.878 413.843C141.993 413.793 141.512 413.804 140.831 413.247C140.437 410.056 141.444 405.801 141.816 402.587L144.202 381.678C161.049 381.442 178.007 381.379 194.852 381.679C194.325 371.269 194.607 360.614 194.743 350.187C179.093 350.046 163.412 350.024 147.762 350.183C149.234 339.725 150.629 328.912 151.336 318.378L155.822 318.254Z"/>
	<path fill="#242323" transform="scale(0.333333 0.334443)" d="M390.353 318.249C409.754 317.925 429.21 318.239 448.618 318.22C448.989 323.493 449.741 328.773 450.335 334.027C450.947 339.438 451.408 344.869 452.315 350.242C446.62 349.954 440.827 350.13 435.123 350.133L405.245 350.167C405.622 360.536 405.602 371.221 405.209 381.588L455.716 381.631C457.199 392.401 458.1 403.245 459.533 414.024C448.356 413.23 436.793 413.785 425.575 413.787L405.318 413.818C405.677 423.69 405.334 433.717 405.328 443.608C405.325 449.686 405.998 458.009 404.953 463.816C404.476 466.473 403.412 468.897 401.74 471.016C399.209 474.224 395.505 476.598 391.405 477.033C386.796 477.523 382.552 476.238 379.003 473.268C375.014 469.931 373.828 466.226 373.391 461.253C372.73 453.715 373.219 445.804 373.219 438.217L373.218 393.98L373.222 355.001C373.223 347.739 372.749 340.083 373.611 332.877C374.053 329.179 374.926 326.509 377.414 323.673C380.943 319.649 385.182 318.498 390.353 318.249Z"/>
	<path fill="#242323" transform="scale(0.333333 0.334443)" d="M0 135.312C2.46897 130.465 4.12103 125.907 9.84536 123.937C13.845 122.561 19.0594 122.952 22.807 124.823C27.6264 127.23 30.0847 131.28 31.6364 136.269C33.3543 141.793 34.657 147.475 36.0821 153.08C38.6815 163.304 41.111 173.416 43.3269 183.736Q48.9966 208.982 53.0079 234.544Q57.0193 260.107 59.3554 285.876C60.3475 296.596 60.5597 307.43 61.334 318.168C74.8457 318.293 88.4042 318.429 101.914 318.197Q100.865 328.6 99.6437 338.984C99.2108 342.73 98.4973 346.641 98.4238 350.404C93.9896 349.955 89.4542 350.12 85.0007 350.13Q73.4551 350.216 61.9094 350.132C61.4534 360.602 61.0531 371.18 60.3294 381.631C71.7384 381.608 83.2203 381.875 94.6201 381.574C94.0834 388.337 93.2526 395.092 92.4704 401.831C92.0066 405.826 91.3407 409.886 91.3299 413.911C91.3298 413.959 91.328 414.008 91.327 414.056C79.8145 413.305 67.9843 413.744 56.4452 413.883C53.6493 428.244 50.9615 442.452 46.8106 456.504C45.672 460.359 44.6715 464.52 42.8254 468.097C41.5404 470.586 39.7316 472.873 37.4026 474.461C33.8192 476.903 29.1651 477.597 24.9487 476.742Q24.2148 476.586 23.4996 476.36Q22.7844 476.133 22.0947 475.838Q21.4051 475.543 20.7476 475.181Q20.0902 474.82 19.4712 474.396Q18.8522 473.972 18.2776 473.49Q17.7031 473.007 17.1784 472.471Q16.6538 471.934 16.1841 471.349Q15.7144 470.764 15.3041 470.136C12.5835 466.011 12.3206 461.036 13.3592 456.34C14.7119 450.224 17.0414 444.272 18.6494 438.205C21.3653 427.958 23.444 417.069 25.122 406.596C28.5602 385.136 29.6503 363.172 29.6382 341.467C29.6099 290.956 22.9536 241.086 12.3259 191.768C10.7181 184.307 2.68352 147.539 0 143.226L0 135.312Z"/>
	<path fill="#242323" transform="scale(0.333333 0.334443)" d="M538.727 318.101C539.424 307.122 539.706 296.055 540.712 285.101Q543.056 259.489 547.055 234.083Q551.055 208.677 556.694 183.584Q561.462 160.687 567.79 138.171C569.426 132.51 571.556 127.518 577.048 124.638C580.646 122.752 586.013 122.636 589.863 123.931C595.626 125.871 597.539 130.363 600 135.326L600 143.157C598.302 146.467 597.571 151.08 596.609 154.682Q591.691 172.995 587.766 191.546C577.063 240.848 570.413 290.852 570.407 341.355C570.405 363.008 571.521 384.816 574.794 406.244C576.606 418.107 579.264 430.74 582.448 442.299C583.533 446.237 584.914 450.078 586.076 453.992C587.603 459.138 587.877 464.495 585.134 469.312C583.145 472.806 579.906 475.525 575.981 476.522Q575.175 476.734 574.353 476.865Q573.53 476.996 572.699 477.046Q571.867 477.095 571.035 477.062Q570.203 477.029 569.378 476.914Q568.553 476.8 567.743 476.604Q566.934 476.408 566.147 476.134Q565.361 475.859 564.606 475.508Q563.85 475.158 563.133 474.734C560.906 473.399 559.224 471.613 557.931 469.37C555.333 464.864 553.924 459.339 552.538 454.343C551.072 449.061 549.578 443.722 548.425 438.364C546.676 430.231 545.327 422.002 543.456 413.896Q526.158 413.707 508.86 413.879Q507.202 397.806 505.301 381.76C511.318 381.487 517.377 381.595 523.4 381.597C528.863 381.599 534.367 381.474 539.824 381.74C539.109 376.525 539.209 371.108 538.96 365.849C538.715 360.654 538.145 355.475 538.1 350.272C525.938 349.839 513.678 350.142 501.505 350.115C501.416 346.122 500.751 342.053 500.298 338.081L498.088 318.283C511.608 318.137 525.219 318.626 538.727 318.101Z"/>
	<path fill="#242323" transform="scale(0.333333 0.334443)" d="M120.538 232.445L120.062 232.453C109.728 232.606 99.2767 233.192 91.3306 225.38C86.5476 220.677 84.2263 214.752 84.1938 208.084C84.1608 201.34 86.4975 195.123 91.3172 190.336C95.1016 186.578 99.856 184.156 105.163 183.512C109.654 182.966 114.426 183.24 118.947 183.24L142.677 183.251L219.769 183.257L482.635 183.232C492.622 183.228 501.487 183.081 509.002 190.704C513.605 195.372 515.87 201.484 515.818 207.992C515.764 214.896 513.355 220.906 508.358 225.737C500.417 233.416 489.652 232.609 479.403 232.395C480.363 237.551 480.781 242.87 481.38 248.081L484.432 274.995L493.659 355.948L500.633 417.048L502.942 436.676C503.4 440.627 504.084 444.691 504.063 448.673C503.891 455.332 504.035 462.018 504.059 468.68C503.569 470.096 502.706 471.44 501.751 472.591C499.195 475.666 495.794 477.48 491.812 477.838C487.235 478.249 482.827 477.179 479.295 474.121C476.875 472.025 475.189 469.397 474.494 466.258C473.261 460.695 472.805 455.079 472.17 449.43L469.797 428.723L462.303 362.928L452.244 274.532L449.214 248.243C448.611 242.998 447.869 237.724 447.557 232.454C421.17 232.106 394.74 232.395 368.348 232.394L218.956 232.395C196.8 232.396 174.581 232.758 152.431 232.421C152.193 240.556 150.669 249.037 149.761 257.141L143.788 309.236L126.626 460.626C125.92 466.532 124.441 471.533 119.51 475.254C116.051 477.865 111.268 478.348 107.078 477.665C103.086 477.013 99.4168 474.413 97.1305 471.106C95.1607 468.258 94.3195 464.802 94.3991 461.365C94.5162 456.309 95.4069 451.174 96.0152 446.151L98.2915 426.02L106.158 357.402L115.791 272.94L118.684 247.495C119.248 242.492 119.651 237.4 120.538 232.445Z"/>
</svg>
