<svg width="24" height="24" viewBox="0 0 24 24" fill="none" xmlns="http://www.w3.org/2000/svg">
<path d="M7.71694 11.6614C6.74452 11.6614 5.95335 10.8702 5.95335 9.89774C5.95335 8.92532 6.74453 8.13415 7.71694 8.13415C8.68944 8.13415 9.48062 8.92533 9.48062 9.89774C9.48062 10.8702 8.68944 11.6614 7.71694 11.6614ZM7.71694 9.06403C7.25722 9.06403 6.88323 9.43802 6.88323 9.89774C6.88323 10.3575 7.25722 10.7315 7.71694 10.7315C8.17666 10.7315 8.55072 10.3575 8.55072 9.89774C8.55072 9.43802 8.17666 9.06403 7.71694 9.06403Z" fill="#14202B"/>
<path d="M16.5731 11.6621C15.6007 11.6621 14.8095 10.8709 14.8095 9.89851C14.8095 8.92601 15.6007 8.13483 16.5731 8.13483C17.5456 8.13483 18.3367 8.92601 18.3367 9.89851C18.3367 10.8709 17.5456 11.6621 16.5731 11.6621ZM16.5731 9.06472C16.1133 9.06472 15.7394 9.43878 15.7394 9.8985C15.7394 10.3582 16.1133 10.7322 16.5731 10.7322C17.0328 10.7322 17.4069 10.3582 17.4069 9.8985C17.4069 9.43878 17.0328 9.06472 16.5731 9.06472Z" fill="#14202B"/>
<path d="M12.7178 3.21875L11.7879 3.22108L11.8348 22L12.7647 21.9976L12.7178 3.21875Z" fill="#14202B"/>
<path d="M16.6779 5.9974C15.9623 5.9974 15.2466 5.9952 14.7099 5.9909C14.4396 5.9887 14.2144 5.98598 14.0567 5.98273C13.8118 5.97758 13.3558 5.96812 13.3558 5.50651C13.3558 4.35004 14.8151 3.44415 16.6779 3.44415C18.5407 3.44415 20 4.35005 20 5.50651C20 5.96812 19.5441 5.97758 19.2992 5.98273C19.1415 5.98598 18.9163 5.98871 18.646 5.9909C18.1092 5.99521 17.3935 5.9974 16.6779 5.9974ZM14.5087 5.05987C15.5929 5.07077 17.7633 5.07077 18.8471 5.05987C18.4741 4.68551 17.6661 4.37403 16.6779 4.37403C15.6896 4.37403 14.8817 4.68551 14.5087 5.05987Z" fill="#14202B"/>
<path d="M18.561 6.03542C18.5969 6.03542 18.6259 5.91913 18.6259 5.77568C18.6259 5.63223 18.5969 5.51594 18.561 5.51594C18.5251 5.51594 18.4961 5.63223 18.4961 5.77568C18.4961 5.91913 18.5251 6.03542 18.561 6.03542Z" fill="#14202B"/>
<path d="M18.561 6.50034C18.4725 6.50034 18.0311 6.46538 18.0311 5.77567C18.0311 5.08597 18.4725 5.05101 18.561 5.05101C18.6494 5.05101 19.0909 5.08597 19.0909 5.77567C19.0909 6.46538 18.6494 6.50034 18.561 6.50034ZM18.187 5.77567C18.2446 5.86913 18.3738 5.9809 18.561 5.9809C18.7481 5.9809 18.8774 5.86913 18.9349 5.77567C18.8774 5.68221 18.7481 5.57044 18.561 5.57044C18.3738 5.57044 18.2446 5.68221 18.187 5.77567Z" fill="#14202B"/>
<path d="M17.2623 7.17483C17.2982 7.17483 17.3272 7.08761 17.3272 6.98002C17.3272 6.87243 17.2982 6.78521 17.2623 6.78521C17.2264 6.78521 17.1974 6.87243 17.1974 6.98002C17.1974 7.08761 17.2264 7.17483 17.2623 7.17483Z" fill="#14202B"/>
<path d="M17.2623 7.63977C16.9986 7.63977 16.7324 7.43575 16.7324 6.98004C16.7324 6.52433 16.9986 6.32031 17.2623 6.32031C17.526 6.32031 17.7922 6.52433 17.7922 6.98004C17.7922 7.43575 17.526 7.63977 17.2623 7.63977ZM16.8639 6.98004C16.885 7.066 17.0199 7.25019 17.2623 7.25019C17.5047 7.25019 17.6396 7.066 17.6607 6.98004C17.6395 6.89407 17.5047 6.70988 17.2623 6.70988C17.0199 6.70988 16.8851 6.89407 16.8639 6.98004Z" fill="#14202B"/>
<path d="M14.8611 7.26877C14.897 7.26877 14.9261 7.18155 14.9261 7.07396C14.9261 6.96638 14.897 6.87916 14.8611 6.87916C14.8253 6.87916 14.7962 6.96638 14.7962 7.07396C14.7962 7.18155 14.8253 7.26877 14.8611 7.26877Z" fill="#14202B"/>
<path d="M14.8611 7.73368C14.5974 7.73368 14.3312 7.52966 14.3312 7.07395C14.3312 6.61824 14.5974 6.41421 14.8611 6.41421C15.1249 6.41421 15.391 6.61824 15.391 7.07395C15.391 7.52966 15.1249 7.73368 14.8611 7.73368ZM14.4627 7.07395C14.4838 7.15984 14.6186 7.3441 14.8611 7.3441C15.1035 7.3441 15.2385 7.15983 15.2595 7.07395C15.2385 6.98805 15.1035 6.80379 14.8611 6.80379C14.6186 6.80379 14.4838 6.98806 14.4627 7.07395Z" fill="#14202B"/>
<path d="M16.0935 6.03542C16.1293 6.03542 16.1584 5.91913 16.1584 5.77568C16.1584 5.63223 16.1293 5.51594 16.0935 5.51594C16.0576 5.51594 16.0286 5.63223 16.0286 5.77568C16.0286 5.91913 16.0576 6.03542 16.0935 6.03542Z" fill="#14202B"/>
<path d="M16.0935 6.50034C16.0051 6.50034 15.5636 6.46538 15.5636 5.77567C15.5636 5.08597 16.0051 5.05101 16.0935 5.05101C16.182 5.05101 16.6234 5.08597 16.6234 5.77567C16.6234 6.46538 16.182 6.50034 16.0935 6.50034ZM15.7195 5.77567C15.7772 5.8692 15.9064 5.9809 16.0935 5.9809C16.2807 5.9809 16.4098 5.8692 16.4675 5.77567C16.4098 5.68214 16.2807 5.57044 16.0935 5.57044C15.9064 5.57044 15.7772 5.68214 15.7195 5.77567Z" fill="#14202B"/>
<path d="M9.64944 21.9988H8.71956V18.3017C8.71956 18.0016 8.9095 17.7365 9.19222 17.6419C9.64945 17.4891 9.64945 17.1806 9.64945 17.0792V13.1648H5.92989V17.0394C5.92989 17.1498 5.92989 17.4859 6.39128 17.6427C6.67157 17.7379 6.85977 18.0023 6.85977 18.3004V21.9988H5.92989V18.4597C5.34424 18.1991 5 17.6791 5 17.0394V13.117C5 12.6307 5.3957 12.235 5.88207 12.235H9.69728C10.1836 12.235 10.5793 12.6307 10.5793 13.117V17.0792C10.5793 17.6998 10.2352 18.2059 9.64946 18.4615L9.64944 21.9988Z" fill="#14202B"/>
<path d="M18.4834 21.9988H17.5535V18.3017C17.5535 18.0016 17.7435 17.7365 18.0262 17.6419C18.4834 17.4891 18.4834 17.1806 18.4834 17.0792V13.1648H14.7638V17.0394C14.7638 17.1498 14.7638 17.4859 15.2252 17.6427C15.5055 17.7379 15.6937 18.0023 15.6937 18.3004V21.9988H14.7638V18.4597C14.1782 18.1991 13.834 17.6791 13.834 17.0394V13.117C13.834 12.6307 14.2297 12.235 14.716 12.235H18.5312C19.0176 12.235 19.4133 12.6307 19.4133 13.117V17.0792C19.4133 17.6998 19.0691 18.2059 18.4834 18.4615L18.4834 21.9988Z" fill="#14202B"/>
<path d="M16.8709 7.05654C16.8709 6.7412 17.0469 6.51963 17.2933 6.51963C17.5397 6.51963 17.7086 6.7412 17.7086 7.05654C17.7086 7.3634 17.5468 7.59352 17.2862 7.59352C17.0398 7.59352 16.8709 7.3634 16.8709 7.05654Z" fill="#14202B"/>
<path d="M14.3997 7.06215C14.3997 6.74681 14.6065 6.52523 14.896 6.52523C15.1856 6.52523 15.3841 6.74681 15.3841 7.06215C15.3841 7.36901 15.1938 7.59913 14.8878 7.59913C14.5983 7.59913 14.3997 7.36901 14.3997 7.06215Z" fill="#14202B"/>
</svg>
