<svg width="16" height="15" viewBox="0 0 16 15" fill="none" xmlns="http://www.w3.org/2000/svg">
<g clip-path="url(#clip0_74_11862)">
<path d="M8.34375 3.28125C8.34375 3.15693 8.29436 3.0377 8.20646 2.94979C8.11855 2.86189 7.99932 2.8125 7.875 2.8125C7.75068 2.8125 7.63145 2.86189 7.54354 2.94979C7.45564 3.0377 7.40625 3.15693 7.40625 3.28125V8.4375C7.40628 8.52012 7.42814 8.60127 7.46963 8.67273C7.51112 8.74418 7.57076 8.80339 7.6425 8.84438L10.9238 10.7194C11.0314 10.7776 11.1576 10.7913 11.2753 10.7577C11.393 10.7241 11.4929 10.6458 11.5536 10.5396C11.6143 10.4333 11.6311 10.3075 11.6003 10.189C11.5695 10.0706 11.4936 9.96885 11.3888 9.90562L8.34375 8.16563V3.28125Z" fill="#14202B"/>
<path d="M8.34375 15C10.3329 15 12.2405 14.2098 13.6471 12.8033C15.0536 11.3968 15.8437 9.48912 15.8438 7.5C15.8437 5.51088 15.0536 3.60322 13.6471 2.1967C12.2405 0.790176 10.3329 0 8.34375 0C6.35463 0 4.44697 0.790176 3.04045 2.1967C1.63393 3.60322 0.84375 5.51088 0.84375 7.5C0.84375 9.48912 1.63393 11.3968 3.04045 12.8033C4.44697 14.2098 6.35463 15 8.34375 15V15ZM14.9062 7.5C14.9062 9.24048 14.2148 10.9097 12.9841 12.1404C11.7534 13.3711 10.0842 14.0625 8.34375 14.0625C6.60327 14.0625 4.93407 13.3711 3.70336 12.1404C2.47265 10.9097 1.78125 9.24048 1.78125 7.5C1.78125 5.75952 2.47265 4.09032 3.70336 2.85961C4.93407 1.6289 6.60327 0.9375 8.34375 0.9375C10.0842 0.9375 11.7534 1.6289 12.9841 2.85961C14.2148 4.09032 14.9062 5.75952 14.9062 7.5V7.5Z" fill="#14202B"/>
</g>
<defs>
<clipPath id="clip0_74_11862">
<rect width="15" height="15" fill="white" transform="translate(0.84375)"/>
</clipPath>
</defs>
</svg>
