<?xml version="1.0" encoding="utf-8" ?>
<svg xmlns="http://www.w3.org/2000/svg" xmlns:xlink="http://www.w3.org/1999/xlink" width="200" height="201">
	<path fill="#232323" transform="scale(0.333333 0.334443)" d="M162.456 118.097Q162.854 118.061 163.253 118.039Q165.017 117.94 166.784 117.927Q168.551 117.913 170.317 117.987Q172.083 118.06 173.843 118.219Q175.602 118.378 177.353 118.623Q179.103 118.868 180.839 119.198Q182.575 119.528 184.292 119.943Q186.01 120.357 187.706 120.855Q189.402 121.353 191.071 121.933Q192.74 122.513 194.379 123.173Q196.018 123.834 197.623 124.574Q199.228 125.314 200.794 126.131Q202.361 126.949 203.886 127.841Q205.411 128.734 206.891 129.7Q208.371 130.667 209.801 131.704Q211.232 132.741 212.611 133.847Q213.989 134.953 215.312 136.125C230.661 149.812 239.239 168.17 240.249 188.695C241.156 207.109 234.238 226.715 221.749 240.298C208.384 254.836 190.901 263.97 170.978 264.714Q170.415 264.759 169.85 264.789C150.335 265.879 132.031 259.041 117.52 246.049C103.626 233.608 94.3842 215.344 93.4226 196.611C92.3858 176.41 98.4993 156.994 112.271 141.972C125.429 127.618 142.948 118.984 162.456 118.097Z"/>
	<path fill="#232323" transform="scale(0.333333 0.334443)" d="M295.094 217.286Q296.886 217.163 298.681 217.103C317.592 216.451 336.724 224.263 350.379 237.169C364.859 250.855 372.899 269.105 373.429 288.988C373.965 309.07 366.517 327.771 352.682 342.252C341.028 354.45 322.86 363.717 305.794 364.179C286.27 364.734 270.635 361.205 254.926 349.088C240.224 337.748 229.539 320.23 227.283 301.679C224.807 281.325 229.309 261.303 242.195 245.077Q243.151 243.873 244.155 242.71Q245.16 241.547 246.212 240.427Q247.264 239.307 248.362 238.231Q249.459 237.155 250.601 236.126Q251.742 235.096 252.925 234.115Q254.108 233.134 255.33 232.202Q256.552 231.271 257.812 230.391Q259.073 229.511 260.368 228.684Q261.663 227.857 262.992 227.085Q264.32 226.312 265.68 225.595Q267.039 224.879 268.427 224.219Q269.815 223.559 271.229 222.957Q272.643 222.355 274.081 221.813Q275.519 221.27 276.978 220.787Q278.437 220.305 279.914 219.883Q281.392 219.461 282.886 219.101C286.877 218.165 291.024 217.744 295.094 217.286Z"/>
	<path fill="#232323" transform="scale(0.333333 0.334443)" d="M427.204 118.138Q428.321 118.056 429.439 117.999C449.197 117.008 468.12 123.568 482.739 136.95C496.366 149.422 505.685 167.483 506.483 186.112C507.389 207.267 501.42 226.321 486.895 241.957C474.684 255.102 456.524 264.1 438.509 264.73Q436.665 264.895 434.816 264.974C416.806 265.62 398.034 259.055 384.735 246.812C368.942 232.274 360.355 214.65 359.563 193.121C358.901 175.125 366.297 155.234 378.574 142.106C391.12 128.69 408.516 118.795 427.204 118.138Z"/>
	<path fill="#232323" transform="scale(0.333333 0.334443)" d="M505.4 248.298C516.504 252.349 535.819 263.7 544.21 271.836C557.95 285.157 563.326 300.606 566.886 318.931C568.581 327.656 569.726 336.638 569.804 345.537C569.896 355.918 566.385 365.574 558.996 373.021C554.652 377.4 548.636 381.042 542.643 382.511C534.395 384.532 526.201 383.92 517.809 383.895L496.683 383.898L442.118 383.941C441.294 382.708 440.576 381.495 439.898 380.174C427.814 355.682 405.31 343.776 382.047 331.919C383.419 329.314 384.421 326.408 385.472 323.659Q386.068 322.143 386.609 320.607Q387.15 319.071 387.636 317.516Q388.122 315.961 388.552 314.391Q388.983 312.82 389.357 311.234Q389.731 309.649 390.049 308.052Q390.366 306.454 390.626 304.846Q390.887 303.238 391.089 301.622Q391.292 300.006 391.437 298.384Q391.583 296.762 391.67 295.135Q391.757 293.509 391.786 291.88Q391.816 290.252 391.787 288.623Q391.758 286.995 391.671 285.368Q391.585 283.742 391.44 282.119Q391.295 280.497 391.093 278.881Q390.891 277.265 390.631 275.657Q390.371 274.049 390.054 272.451C401.74 279.717 420.808 283.623 434.321 283.387Q436.273 283.351 438.221 283.232Q440.169 283.113 442.111 282.912Q444.052 282.711 445.983 282.428Q447.915 282.146 449.832 281.782Q451.75 281.418 453.65 280.973Q455.551 280.528 457.431 280.004Q459.311 279.479 461.167 278.876Q463.024 278.272 464.853 277.591Q466.682 276.909 468.481 276.151Q470.279 275.393 472.044 274.56Q473.81 273.727 475.538 272.82Q477.266 271.912 478.955 270.933Q480.643 269.954 482.289 268.904Q483.935 267.855 485.535 266.736Q487.135 265.618 488.686 264.433Q490.237 263.248 491.737 261.999C496.703 257.787 500.911 252.987 505.4 248.298Z"/>
	<path fill="#232323" transform="scale(0.333333 0.334443)" d="M94.4013 248.309C97.5187 250.413 100.271 254.741 103.087 257.444C113.073 267.024 125.485 274.806 138.738 278.935C162.862 286.451 187.72 283.975 210.021 272.278Q209.697 273.889 209.431 275.51Q209.165 277.132 208.958 278.762Q208.751 280.392 208.602 282.028Q208.453 283.665 208.363 285.305Q208.273 286.946 208.242 288.589Q208.212 290.232 208.24 291.875Q208.268 293.518 208.355 295.159Q208.442 296.799 208.588 298.436Q208.734 300.073 208.939 301.703Q209.144 303.333 209.407 304.955Q209.67 306.577 209.991 308.189Q210.312 309.8 210.691 311.399Q211.07 312.998 211.506 314.582Q211.942 316.166 212.435 317.734Q212.928 319.301 213.476 320.85Q214.025 322.399 214.629 323.927C215.679 326.594 216.635 329.409 218.028 331.912C211.903 334.717 205.896 337.996 200.069 341.367C183.829 350.763 169.477 361.904 160.687 378.945Q159.339 381.49 158.116 384.097C152.729 384.321 147.217 383.87 141.81 383.883L100.091 383.898L74.9944 383.909C71.4117 383.879 67.7643 384.027 64.1946 383.693C60.0715 383.307 55.847 382.403 52.0731 380.662Q51.2228 380.276 50.3927 379.848Q49.5626 379.421 48.7547 378.952Q47.9469 378.484 47.1633 377.976Q46.3797 377.468 45.6222 376.922Q44.8648 376.376 44.1354 375.793Q43.4061 375.21 42.7066 374.591Q42.007 373.972 41.3391 373.32Q40.6711 372.667 40.0364 371.982Q39.4017 371.297 38.8018 370.581Q38.2018 369.866 37.6382 369.121Q37.0745 368.376 36.5485 367.605Q36.0225 366.833 35.5354 366.036Q35.0484 365.239 34.6015 364.419Q34.1546 363.599 33.749 362.758Q33.3433 361.917 32.98 361.057Q32.6166 360.196 32.2964 359.319C27.2463 345.199 32.5003 316.932 37.0831 302.443C38.3814 298.338 40.119 294.279 41.964 290.39C49.6294 274.229 63.8073 264.295 78.9782 255.873C83.9232 253.128 89.0617 250.207 94.4013 248.309Z"/>
	<path fill="#232323" transform="scale(0.333333 0.334443)" d="M372.165 347.382C380.017 351.261 387.822 355.099 395.346 359.606C416.664 372.374 426.51 387.582 432.397 411.364C435.062 422.125 437.677 441.677 435.988 452.511Q435.743 454.16 435.334 455.775Q434.924 457.391 434.354 458.957Q433.784 460.523 433.059 462.024Q432.334 463.525 431.462 464.945C426.01 473.904 417.534 480.04 407.331 482.525C398.842 483.992 388.882 483.23 380.233 483.219L335.198 483.228L243.983 483.223C229.252 483.211 214.388 483.679 199.676 483.167C196.148 483.044 192.691 482.695 189.318 481.606C179.892 478.56 171.523 471.536 167.085 462.661C164.947 458.385 163.754 453.406 163.382 448.656C162.358 435.57 166.693 412.718 170.963 399.948C180.683 370.881 201.319 360.566 226.961 347.738C227.646 347.681 227.809 347.633 228.379 348.104C229.672 349.173 230.866 351.098 232.028 352.374Q236.607 357.42 241.833 361.792C261.023 377.646 285.42 384.628 310.133 382.143C334.805 379.663 356.619 366.315 372.165 347.382Z"/>
</svg>
