<svg width="24" height="24" viewBox="0 0 24 24" fill="none" xmlns="http://www.w3.org/2000/svg">
<path d="M13.2116 9.45C12.6716 9.315 12.1316 9.045 11.7266 8.64C11.3216 8.505 11.1866 8.1 11.1866 7.83C11.1866 7.56 11.3216 7.155 11.5916 7.02C11.9966 6.75 12.4016 6.48 12.8066 6.615C13.6166 6.615 14.2916 7.02 14.6966 7.56L15.9116 5.94C15.5066 5.535 15.1016 5.265 14.6966 4.995C14.2916 4.725 13.7516 4.59 13.2116 4.59V2.7H11.5916V4.59C10.9166 4.725 10.2416 5.13 9.70156 5.67C9.16156 6.345 8.75656 7.155 8.89156 7.965C8.89156 8.775 9.16156 9.585 9.70156 10.125C10.3766 10.8 11.3216 11.205 12.1316 11.61C12.5366 11.745 13.0766 12.015 13.4816 12.285C13.7516 12.555 13.8866 12.96 13.8866 13.365C13.8866 13.77 13.7516 14.175 13.4816 14.58C13.0766 14.985 12.5366 15.12 12.1316 15.12C11.5916 15.12 10.9166 14.985 10.5116 14.58C10.1066 14.31 9.70156 13.905 9.43156 13.5L8.08156 14.985C8.48656 15.525 8.89156 15.93 9.43156 16.335C10.1066 16.74 10.9166 17.145 11.7266 17.145V18.9H13.2116V16.875C14.0216 16.74 14.6966 16.335 15.2366 15.795C15.9116 15.12 16.3166 14.04 16.3166 13.095C16.3166 12.285 16.0466 11.34 15.3716 10.8C14.6966 10.125 14.0216 9.72 13.2116 9.45ZM12.4016 0C6.46156 0 1.60156 4.86 1.60156 10.8C1.60156 16.74 6.46156 21.6 12.4016 21.6C18.3416 21.6 23.2016 16.74 23.2016 10.8C23.2016 4.86 18.3416 0 12.4016 0ZM12.4016 20.115C7.27156 20.115 3.08656 15.93 3.08656 10.8C3.08656 5.67 7.27156 1.485 12.4016 1.485C17.5316 1.485 21.7166 5.67 21.7166 10.8C21.7166 15.93 17.5316 20.115 12.4016 20.115Z" fill="black"/>
</svg>
