<svg width="24" height="24" viewBox="0 0 24 24" fill="none" xmlns="http://www.w3.org/2000/svg">
<path d="M19.6376 11.6986C19.7129 11.626 19.771 11.5375 19.8078 11.4396C19.8446 11.3417 19.8591 11.2369 19.8503 11.1327C19.8415 11.0284 19.8096 10.9275 19.7569 10.8372C19.7042 10.7469 19.632 10.6694 19.5456 10.6105C17.2999 9.15165 14.6784 8.37729 12.0004 8.38166C9.21803 8.38166 6.62555 9.19957 4.45516 10.6105C4.36834 10.6691 4.29574 10.7464 4.24272 10.8367C4.1897 10.9271 4.15759 11.0281 4.14877 11.1325C4.13994 11.2369 4.15462 11.3419 4.19172 11.4399C4.22881 11.5378 4.28739 11.6262 4.36315 11.6986C4.48759 11.82 4.64963 11.8956 4.82266 11.9128C4.99569 11.9301 5.16945 11.888 5.31543 11.7935C7.31058 10.5156 9.63107 9.83828 12.0004 9.84222C14.3692 9.83856 16.6892 10.5159 18.6839 11.7935C18.9848 11.9863 19.385 11.9513 19.6376 11.6986ZM16.4492 14.887C16.7793 14.5569 16.7194 14.0033 16.3032 13.7916C14.9704 13.1133 13.4958 12.761 12.0004 12.7633C10.4522 12.7633 8.98872 13.1343 7.69759 13.7916C7.28134 14.0033 7.22145 14.5569 7.55154 14.887L7.57345 14.9089C7.80714 15.1426 8.16789 15.1864 8.46585 15.0403C9.56598 14.5012 10.7752 14.2218 12.0004 14.2239C13.2682 14.2239 14.4687 14.5175 15.5349 15.0418C15.8314 15.1878 16.1922 15.144 16.4259 14.9089L16.4492 14.887ZM13.5486 17.7876C13.8348 17.5014 13.8378 17.0281 13.4902 16.8237C13.0396 16.5555 12.5248 16.4141 12.0004 16.4147C11.476 16.4141 10.9612 16.5555 10.5106 16.8237C10.163 17.0281 10.1659 17.5014 10.4522 17.7876L11.4834 18.8188C11.6203 18.9557 11.806 19.0326 11.9997 19.0326C12.1933 19.0326 12.379 18.9557 12.516 18.8188L13.5486 17.7862V17.7876Z" fill="black"/>
<path d="M22.7851 8.54965C22.8586 8.47832 22.9157 8.39193 22.9525 8.29641C22.9894 8.20089 23.0051 8.09852 22.9986 7.99635C22.992 7.89418 22.9634 7.79463 22.9147 7.70458C22.8661 7.61452 22.7984 7.53609 22.7165 7.47468C19.6026 5.21074 15.8503 3.99406 12.0004 4.00002C7.99703 4.00002 4.29307 5.28823 1.28432 7.47468C1.20231 7.53598 1.13455 7.61432 1.08572 7.70432C1.0369 7.79432 1.00817 7.89383 1.0015 7.99601C0.994838 8.09818 1.0104 8.20058 1.04713 8.29616C1.08385 8.39174 1.14085 8.47822 1.21422 8.54965C1.34186 8.67537 1.50998 8.75172 1.68865 8.76509C1.86731 8.77847 2.04493 8.728 2.18987 8.62268C5.04546 6.56182 8.47883 5.45518 12.0004 5.46058C15.662 5.46058 19.0505 6.63194 21.8095 8.62122C22.1089 8.83738 22.5252 8.81109 22.7851 8.54965Z" fill="black"/>
</svg>
