<svg width="44" height="41" viewBox="0 0 44 41" fill="none" xmlns="http://www.w3.org/2000/svg">
<path fill-rule="evenodd" clip-rule="evenodd" d="M10.3529 20.5H15.4595V22.9728H10.3529V20.5Z" fill="#332F2F"/>
<path fill-rule="evenodd" clip-rule="evenodd" d="M18.1176 20.5H33.4866V22.8652H18.1176V20.5Z" fill="#332F2F"/>
<path fill-rule="evenodd" clip-rule="evenodd" d="M33.1708 15.28C32.2416 14.5881 31.3772 14.4292 30.3393 14.132C28.0487 13.476 27.0238 10.8007 26.9176 8.71484C26.6148 10.114 26.7623 11.5285 26.9565 12.4535C27.2412 13.8424 28.028 15.1467 29.2936 15.8463C30.36 16.428 31.7732 16.4767 32.912 17.0558C34.0146 17.6118 34.9308 18.3601 35.2595 18.829C35.2621 18.829 34.6668 16.3947 33.1708 15.28Z" fill="#332F2F"/>
<path fill-rule="evenodd" clip-rule="evenodd" d="M23.2812 0.171509C11.9137 0.171509 2.66849 9.3017 2.66849 20.5331C2.66849 31.7594 11.9137 40.8896 23.2812 40.8896C34.6435 40.8896 43.8913 31.7594 43.8913 20.5331C43.8913 9.30426 34.6435 0.171509 23.2812 0.171509ZM41.6861 20.7304C41.689 24.9291 40.225 28.9995 37.5424 32.2514L11.5617 6.4932C14.8465 3.855 18.9479 2.41552 23.1777 2.41626C33.3831 2.41626 41.6861 10.6291 41.6861 20.7304ZM5.09108 20.4639C5.09108 16.0564 6.68284 12.0077 9.32284 8.86095L35.1042 34.468C31.8246 37.1688 27.692 38.6451 23.4261 38.6398C13.3139 38.6398 5.09108 30.4833 5.09108 20.4639Z" fill="#332F2F"/>
</svg>
