<svg width="42" height="42" viewBox="0 0 42 42" fill="none" xmlns="http://www.w3.org/2000/svg">
<g clip-path="url(#clip0)">
<path fill-rule="evenodd" clip-rule="evenodd" d="M22.4 4.20005C22.4 3.94005 22.3276 3.68519 22.1909 3.46403C22.0542 3.24286 21.8586 3.06413 21.6261 2.94785C21.3936 2.83158 21.1332 2.78236 20.8743 2.80571C20.6153 2.82906 20.368 2.92405 20.16 3.08005L9.3324 11.2001H4.2C3.08609 11.2001 2.0178 11.6425 1.23015 12.4302C0.442499 13.2179 0 14.2861 0 15.4L0 26.6C0 27.714 0.442499 28.7822 1.23015 29.5699C2.0178 30.3576 3.08609 30.8001 4.2 30.8001H9.3324L20.16 38.9201C20.368 39.076 20.6153 39.171 20.8743 39.1944C21.1332 39.2177 21.3936 39.1685 21.6261 39.0522C21.8586 38.936 22.0542 38.7572 22.1909 38.5361C22.3276 38.3149 22.4 38.06 22.4 37.8001V4.20005ZM10.64 13.7201L19.6 7.00005V35L10.64 28.2801C10.3977 28.0983 10.1029 28 9.8 28H4.2C3.8287 28 3.4726 27.8526 3.21005 27.59C2.9475 27.3274 2.8 26.9714 2.8 26.6V15.4C2.8 15.0287 2.9475 14.6727 3.21005 14.4101C3.4726 14.1475 3.8287 14 4.2 14H9.8C10.1029 14 10.3977 13.9018 10.64 13.7201ZM28.2324 14.1568C28.1522 14.0316 28.0479 13.9236 27.9255 13.8391C27.8031 13.7546 27.6651 13.6953 27.5195 13.6647C27.374 13.6341 27.2238 13.6328 27.0778 13.6609C26.9317 13.689 26.7927 13.7459 26.6689 13.8282C26.545 13.9106 26.4389 14.0168 26.3565 14.1407C26.2742 14.2645 26.2173 14.4035 26.1893 14.5496C26.1612 14.6956 26.1625 14.8458 26.1932 14.9913C26.2238 15.1369 26.2831 15.2749 26.3676 15.3973C27.4682 17.0585 28.0552 19.0072 28.0552 21C28.0552 22.9929 27.4682 24.9416 26.3676 26.6029C26.2831 26.7252 26.2238 26.8632 26.1932 27.0088C26.1625 27.1543 26.1612 27.3045 26.1893 27.4505C26.2173 27.5966 26.2742 27.7356 26.3565 27.8594C26.4389 27.9833 26.545 28.0895 26.6689 28.1719C26.7927 28.2542 26.9317 28.3111 27.0778 28.3392C27.2238 28.3673 27.374 28.366 27.5195 28.3354C27.6651 28.3048 27.8031 28.2455 27.9255 28.161C28.0479 28.0765 28.1522 27.9685 28.2324 27.8433C29.5774 25.8144 30.2948 23.4342 30.2948 21C30.2948 18.5659 29.5774 16.1857 28.2324 14.1568Z" fill="black"/>
</g>
<defs>
<clipPath id="clip0">
<rect width="42" height="42" fill="white"/>
</clipPath>
</defs>
</svg>
