<svg width="38" height="38" viewBox="0 0 38 38" fill="none" xmlns="http://www.w3.org/2000/svg">
<path d="M34.4375 20.7813H5.9375V7.4219C5.93612 6.91879 6.03455 6.42041 6.22709 5.9556C6.41962 5.49079 6.70244 5.06879 7.05917 4.71402L7.08886 4.68434C7.64792 4.12609 8.36569 3.75407 9.14413 3.61908C9.92256 3.48409 10.7237 3.59272 11.4381 3.93012C10.7634 5.05186 10.483 6.3669 10.6414 7.66628C10.7997 8.96566 11.3878 10.1748 12.3122 11.1017L13.125 11.9144L11.629 13.4105L13.3082 15.0898L14.8043 13.5938L23.0937 5.30451L24.5897 3.80848L22.9104 2.12913L21.4143 3.62516L20.6015 2.81239C19.6284 1.842 18.3456 1.24382 16.9768 1.12208C15.6079 1.00035 14.2397 1.36277 13.1107 2.1462C11.9201 1.3943 10.5091 1.0697 9.10965 1.22573C7.71016 1.38175 6.40536 2.00911 5.40958 3.00477L5.37989 3.03445C4.80191 3.60927 4.34368 4.29303 4.03172 5.04613C3.71977 5.79924 3.56028 6.60674 3.5625 7.4219V20.7813H1.1875V23.1563H3.5625V25.4348C3.56245 25.6262 3.59333 25.8164 3.65394 25.998L5.86328 32.6258C5.98118 32.9806 6.2079 33.2893 6.51121 33.5079C6.81453 33.7266 7.17903 33.8441 7.55295 33.8438H8.51037L7.64453 36.8125H10.1185L10.9844 33.8438H26.4293L27.3199 36.8125H29.7988L28.9082 33.8438H30.4468C30.8207 33.8441 31.1853 33.7267 31.4887 33.508C31.792 33.2893 32.0188 32.9806 32.1367 32.6258L34.3459 25.998C34.4065 25.8164 34.4375 25.6262 34.4375 25.4348V23.1563H36.8125V20.7813H34.4375ZM13.9917 4.49174C14.646 3.83885 15.5326 3.47218 16.4569 3.47218C17.3813 3.47218 18.2678 3.83885 18.9221 4.49174L19.7348 5.30451L14.8045 10.2348L13.9917 9.42216C13.3389 8.76784 12.9722 7.88127 12.9722 6.95695C12.9722 6.03264 13.3389 5.14607 13.9917 4.49174ZM32.0625 25.3383L30.0191 31.4688H7.98089L5.9375 25.3383V23.1563H32.0625V25.3383Z" fill="black"/>
</svg>
