<svg width="43" height="43" viewBox="0 0 43 43" fill="none" xmlns="http://www.w3.org/2000/svg">
<path d="M12.0938 5.375C9.93031 5.375 8.20359 6.95525 7.09634 9.02866C5.98909 11.1021 5.375 13.8205 5.375 16.7969V37.625H26.875V26.0352C27.9245 27.3319 29.3005 28.2188 30.9062 28.2188C33.0697 28.2188 34.7964 26.6385 35.9037 24.5651C37.0109 22.4917 37.625 19.7733 37.625 16.7969C37.625 13.8205 37.0109 11.1021 35.9037 9.02866C34.7964 6.95525 33.0683 5.375 30.9062 5.375H12.0938ZM12.0938 8.0625H26.4974C26.2829 8.37302 26.0864 8.6956 25.9088 9.02866C24.8016 11.1021 24.1875 13.8205 24.1875 16.7969C24.1875 17.028 24.2238 17.243 24.2292 17.4688H24.1875V34.9375H8.0625V16.7969C8.0625 14.2088 8.65106 11.8626 9.49091 10.2878C10.3308 8.71288 11.2902 8.0625 12.0938 8.0625ZM30.9062 8.0625C31.7098 8.0625 32.6706 8.71288 33.5104 10.2878C34.3503 11.8626 34.9375 14.2088 34.9375 16.7969C34.9375 19.3849 34.3489 21.7311 33.5091 23.306C32.6706 24.8809 31.7098 25.5312 30.9062 25.5312C30.1027 25.5312 29.1419 24.8809 28.3021 23.306C27.4622 21.7311 26.875 19.3849 26.875 16.7969C26.875 14.2088 27.4636 11.8626 28.3034 10.2878C29.1432 8.71288 30.1027 8.0625 30.9062 8.0625ZM30.9062 13.4375C30.1672 13.4375 29.5625 14.9438 29.5625 16.7969C29.5625 18.6499 30.1672 20.1562 30.9062 20.1562C31.6453 20.1562 32.25 18.6499 32.25 16.7969C32.25 14.9438 31.6453 13.4375 30.9062 13.4375ZM12.0938 17.4688C11.3547 17.4688 10.75 18.0734 10.75 18.8125C10.75 19.5516 11.3547 20.1562 12.0938 20.1562C12.8328 20.1562 13.4375 19.5516 13.4375 18.8125C13.4375 18.0734 12.8328 17.4688 12.0938 17.4688ZM16.125 17.4688C15.3859 17.4688 14.7812 18.0734 14.7812 18.8125C14.7812 19.5516 15.3859 20.1562 16.125 20.1562C16.8641 20.1562 17.4688 19.5516 17.4688 18.8125C17.4688 18.0734 16.8641 17.4688 16.125 17.4688ZM20.1562 17.4688C19.4172 17.4688 18.8125 18.0734 18.8125 18.8125C18.8125 19.5516 19.4172 20.1562 20.1562 20.1562C20.8953 20.1562 21.5 19.5516 21.5 18.8125C21.5 18.0734 20.8953 17.4688 20.1562 17.4688Z" fill="black"/>
</svg>
