<svg width="39" height="39" viewBox="0 0 39 39" fill="none" xmlns="http://www.w3.org/2000/svg">
<path d="M16.25 35.75H22.75H16.25ZM8.125 14.625C8.125 11.6082 9.32344 8.71489 11.4567 6.58166C13.5899 4.44843 16.4832 3.25 19.5 3.25C22.5168 3.25 25.4101 4.44843 27.5433 6.58166C29.6766 8.71489 30.875 11.6082 30.875 14.625C30.8761 16.4565 30.4331 18.2609 29.5841 19.8838C28.735 21.5066 27.5052 22.8993 26 23.9428L25.1193 28.1125C25.0026 28.8811 24.6144 29.5824 24.025 30.0892C23.4356 30.5961 22.684 30.8749 21.9066 30.875H17.0934C16.316 30.8749 15.5644 30.5961 14.975 30.0892C14.3856 29.5824 13.9974 28.8811 13.8808 28.1125L13 23.9606C11.4943 22.9135 10.2644 21.5175 9.4155 19.8918C8.56657 18.2661 8.12379 16.459 8.125 14.625V14.625Z" stroke="black" stroke-width="2" stroke-linecap="round" stroke-linejoin="round"/>
</svg>
