<svg width="43" height="43" viewBox="0 0 43 43" fill="none" xmlns="http://www.w3.org/2000/svg">
<path d="M24.1875 37.625V34.9375C25.9521 34.9375 27.6995 34.5899 29.3298 33.9146C30.9601 33.2393 32.4415 32.2495 33.6892 31.0017C34.937 29.754 35.9268 28.2726 36.6021 26.6423C37.2774 25.012 37.625 23.2646 37.625 21.5H40.3125C40.3125 25.7766 38.6136 29.8781 35.5896 32.9021C32.5656 35.9261 28.4641 37.625 24.1875 37.625Z" fill="black"/>
<path d="M24.1875 30.9062V28.2188C25.0698 28.2188 25.9435 28.045 26.7587 27.7073C27.5738 27.3697 28.3145 26.8748 28.9384 26.2509C29.5623 25.627 30.0572 24.8863 30.3948 24.0712C30.7325 23.256 30.9062 22.3823 30.9062 21.5H33.5938C33.5938 23.9947 32.6027 26.3872 30.8387 28.1512C29.0747 29.9152 26.6822 30.9062 24.1875 30.9062Z" fill="black"/>
<path d="M36.2812 14.7812H28.2187V9.40625C28.2187 8.3371 27.794 7.31173 27.038 6.55573C26.282 5.79972 25.2566 5.375 24.1875 5.375H16.125C15.0558 5.375 14.0305 5.79972 13.2745 6.55573C12.5185 7.31173 12.0937 8.3371 12.0937 9.40625V14.7812H4.03124C3.83646 14.779 3.64352 14.8192 3.46581 14.899C3.28809 14.9787 3.12984 15.0962 3.00202 15.2432C2.8742 15.3902 2.77987 15.5632 2.72556 15.7503C2.67125 15.9373 2.65826 16.134 2.68749 16.3266L5.21374 32.6531C5.31092 33.294 5.63644 33.8781 6.1303 34.2979C6.62417 34.7177 7.25311 34.9448 7.90124 34.9375H20.1562V32.25H7.87436L5.60343 17.4688H36.2812V14.7812ZM14.7812 9.40625C14.7812 9.04987 14.9228 8.70808 15.1748 8.45608C15.4268 8.20407 15.7686 8.0625 16.125 8.0625H24.1875C24.5439 8.0625 24.8857 8.20407 25.1377 8.45608C25.3897 8.70808 25.5312 9.04987 25.5312 9.40625V14.7812H14.7812V9.40625Z" fill="black"/>
</svg>
