<svg width="73" height="52" viewBox="0 0 73 52" fill="none" xmlns="http://www.w3.org/2000/svg">
<path opacity="0.8" d="M29.9789 21.7783C23.9925 21.7783 19.1226 26.9757 19.1226 33.3642C19.1226 39.7526 23.9925 44.95 29.9789 44.95C35.9623 44.95 40.8306 39.7526 40.8306 33.3642C40.8298 26.9757 35.9623 21.7783 29.9789 21.7783ZM29.9789 42.4408C25.2885 42.4408 21.4733 38.3692 21.4733 33.3642C21.4733 28.36 25.2893 24.2875 29.9789 24.2875C34.6663 24.2875 38.4799 28.3591 38.4799 33.3642C38.4791 38.3692 34.6663 42.4408 29.9789 42.4408Z" fill="#14202B"/>
<path d="M7.14948 21.7783C6.4999 21.7783 5.97412 22.3395 5.97412 23.0329V43.6954C5.97412 44.3888 6.4999 44.95 7.14948 44.95C7.79907 44.95 8.32484 44.3888 8.32484 43.6954V23.0329C8.32484 22.3404 7.79907 21.7783 7.14948 21.7783Z" fill="#14202B"/>
<path d="M52.4376 21.7783C51.788 21.7783 51.2622 22.3395 51.2622 23.0329V43.6954C51.2622 44.3888 51.788 44.95 52.4376 44.95C53.0871 44.95 53.6129 44.3888 53.6129 43.6954V23.0329C53.6129 22.3404 53.0864 21.7783 52.4376 21.7783Z" fill="#14202B"/>
<path opacity="0.8" d="M71.5973 0H14.5141C13.8645 0 13.3387 0.561226 13.3387 1.2546V7.40049H8.12093C7.47135 7.40049 6.94558 7.96172 6.94558 8.6551V15.4902H1.17536C0.525776 15.4902 0 16.0514 0 16.7448V49.9818C0 50.6751 0.525776 51.2364 1.17536 51.2364H58.2585C58.9081 51.2364 59.4339 50.6751 59.4339 49.9818V43.1467H65.2041C65.8537 43.1467 66.3795 42.5855 66.3795 41.8921V35.7428H71.5973C72.2468 35.7428 72.7726 35.1816 72.7726 34.4882V1.25377C72.7726 0.562063 72.2461 0 71.5973 0ZM57.0832 48.728H2.35071V18.0002H57.0832V48.728ZM59.4339 40.6383V16.7456C59.4339 16.0522 58.9081 15.491 58.2585 15.491H9.29629V9.91054H64.0287V40.6383H59.4339ZM70.4219 33.2345H66.3795V8.6551C66.3795 7.96172 65.8537 7.40049 65.2041 7.40049H15.6894V2.50921H70.4219V33.2345Z" fill="#14202B"/>
</svg>
