<svg width="47" height="56" viewBox="0 0 47 56" fill="none" xmlns="http://www.w3.org/2000/svg">
<path d="M20.4538 40.4059H1.90004C2.38473 31.8273 9.72067 24.9928 18.6693 24.9928C21.2139 24.9928 23.658 25.5319 25.9347 26.5945C26.4013 26.8116 26.9603 26.6241 27.1858 26.1742C27.4106 25.7243 27.2157 25.1834 26.7498 24.9656C24.217 23.783 21.4981 23.1836 18.6687 23.1836C8.37528 23.1836 0 31.3147 0 41.3105C0 41.8098 0.419107 42.2151 0.936902 42.2151H20.4532C20.971 42.2151 21.3901 41.8098 21.3901 41.3105C21.3901 40.8111 20.9716 40.4059 20.4538 40.4059Z" fill="#14202B"/>
<path d="M19.0436 21.1193C25.0754 21.1193 29.9823 16.3822 29.9823 10.559C29.9823 4.73706 25.0754 0 19.0436 0C13.0144 0 8.10938 4.73646 8.10938 10.559C8.10938 16.3822 13.0144 21.1193 19.0436 21.1193ZM19.0436 1.80979C24.0417 1.80979 28.1085 5.73513 28.1085 10.5596C28.1085 15.3847 24.0417 19.3107 19.0436 19.3107C14.0475 19.3107 9.98318 15.3847 9.98318 10.5596C9.98318 5.73453 14.0475 1.80979 19.0436 1.80979Z" fill="#14202B"/>
<path d="M46.063 29.5503H24.8266C24.3088 29.5503 23.8896 29.9556 23.8896 30.4549V49.7529C23.8896 50.2523 24.3088 50.6575 24.8266 50.6575H31.3849V54.9435C31.3849 55.3174 31.6228 55.6527 31.9845 55.7872C32.0944 55.8276 32.2081 55.8481 32.3218 55.8481C32.5816 55.8481 32.8352 55.7438 33.0163 55.5514L38.9663 50.6822C39.1849 50.6822 46.0636 50.6575 46.0636 50.6575C46.5814 50.6575 47.0005 50.2523 47.0005 49.7529V30.4549C46.9999 29.9549 46.5808 29.5503 46.063 29.5503ZM45.1261 48.8483H38.7333C38.569 48.8483 38.2811 48.8544 37.8976 49.1517L33.2587 52.6V49.7529C33.2587 49.2536 32.8396 48.8483 32.3218 48.8483C32.1544 48.8483 25.7628 48.8483 25.7628 48.8483V31.3595H45.1255L45.1261 48.8483Z" fill="#14202B"/>
<path d="M33.2573 37.6742C33.7751 37.6742 34.1942 37.2689 34.1942 36.7696C34.1942 35.9832 34.8569 35.344 35.6708 35.344C36.4847 35.344 37.148 35.9838 37.148 36.7696C37.148 37.5337 36.5215 38.1597 35.7376 38.194C35.7151 38.1952 35.4403 38.1952 35.4178 38.1952C34.98 38.1952 34.5665 38.4178 34.5122 38.8785C34.5122 39.1203 34.5059 41.3095 34.5059 41.3095C34.5059 41.8088 34.925 42.2141 35.4428 42.2141C35.9606 42.2141 36.3797 41.8088 36.3797 41.3095V39.9278C37.8869 39.6124 39.0212 38.3177 39.0212 36.769C39.0212 34.9851 37.5177 33.5342 35.6702 33.5342C33.8226 33.5342 32.3198 34.9851 32.3198 36.769C32.3204 37.2689 32.7402 37.6742 33.2573 37.6742Z" fill="#14202B"/>
<path d="M35.4443 46.4367C36.3067 46.4367 37.0058 45.7617 37.0058 44.929C37.0058 44.0964 36.3067 43.4214 35.4443 43.4214C34.5819 43.4214 33.8828 44.0964 33.8828 44.929C33.8828 45.7617 34.5819 46.4367 35.4443 46.4367Z" fill="#14202B"/>
</svg>
