<svg width="57" height="55" viewBox="0 0 57 55" fill="none" xmlns="http://www.w3.org/2000/svg">
<path d="M45.5175 26.6785C45.2552 26.5135 44.9267 26.4902 44.6444 26.6175L33.382 31.6841H26.1631C25.6587 31.6841 25.2505 32.0853 25.2505 32.5809V42.1461C25.2505 42.4056 25.3466 42.5622 25.4969 42.7804L33.2725 54.6048C33.4422 54.8517 33.7257 55 34.0287 55H38.4775C38.7841 55 39.0707 54.8487 39.2392 54.5964C39.4083 54.3448 39.4369 54.0261 39.3153 53.7493L34.9322 43.7285L44.6438 48.0855C44.7648 48.1399 44.8938 48.1668 45.0228 48.1668C45.195 48.1668 45.3666 48.119 45.5162 48.0245C45.7772 47.8595 45.9354 47.5756 45.9354 47.2701V27.4336C45.9367 27.1281 45.7785 26.8435 45.5175 26.6785ZM27.0757 33.4782H33.1599C33.1599 33.5768 33.1599 33.6719 33.1599 33.7771V41.25H27.0757V33.4782ZM34.5136 53.2065L27.5278 43.0434H32.6574C32.6665 43.0721 32.6726 43.1014 32.6853 43.1301L37.0927 53.2065H34.5136ZM44.1114 45.8747L34.9852 41.7802V32.936L44.1114 28.8301V45.8747Z" fill="#14202B"/>
<path d="M50.2514 33.9333C50.4345 33.9333 50.6195 33.8795 50.7801 33.7671L54.7804 30.9687C55.1911 30.6817 55.2866 30.1216 54.9946 29.718C54.7032 29.3151 54.1325 29.22 53.7218 29.5076L49.7215 32.306C49.3108 32.593 49.2146 33.1531 49.5073 33.5567C49.6856 33.8018 49.966 33.9333 50.2514 33.9333Z" fill="#14202B"/>
<path d="M55.3664 35.8696H50.4991C49.9947 35.8696 49.5864 36.2708 49.5864 36.7664C49.5864 37.262 49.9947 37.6631 50.4991 37.6631H55.3664C55.8701 37.6631 56.279 37.262 56.279 36.7664C56.279 36.2708 55.8701 35.8696 55.3664 35.8696Z" fill="#14202B"/>
<path d="M54.7816 42.644L50.7813 39.8456C50.3718 39.5593 49.8011 39.6525 49.5085 40.0561C49.2165 40.4596 49.312 41.0198 49.7227 41.3067L53.723 44.1051C53.8836 44.2175 54.068 44.2713 54.2517 44.2713C54.537 44.2713 54.8181 44.1404 54.9958 43.8947C55.2878 43.4918 55.1923 42.9316 54.7816 42.644Z" fill="#14202B"/>
<path d="M18.1381 24.8223C20.6101 24.8223 22.9841 25.355 25.1939 26.4053C25.6478 26.6217 26.1935 26.4346 26.4126 25.9886C26.6322 25.5427 26.4424 25.0064 25.9885 24.7912C23.5287 23.6219 20.8875 23.0288 18.1375 23.0288C8.13635 23.0288 0 31.069 0 40.9511C0 41.4467 0.408247 41.8478 0.912625 41.8478H20.0777C20.5821 41.8478 20.9904 41.4467 20.9904 40.9511C20.9904 40.4555 20.5821 40.0543 20.0777 40.0543H1.85019C2.32233 31.5759 9.44749 24.8223 18.1381 24.8223Z" fill="#14202B"/>
<path d="M18.5011 20.8827C24.362 20.8827 29.1302 16.1987 29.1302 10.441C29.1302 4.68397 24.362 0 18.5011 0C12.6433 0 7.87695 4.68337 7.87695 10.441C7.87695 16.1987 12.6427 20.8827 18.5011 20.8827ZM18.5011 1.79348C23.3557 1.79348 27.3049 5.67278 27.3049 10.441C27.3049 15.2099 23.3557 19.0892 18.5011 19.0892C13.6496 19.0892 9.7022 15.2093 9.7022 10.441C9.7022 5.67278 13.6496 1.79348 18.5011 1.79348Z" fill="#14202B"/>
</svg>
