<svg width="37" height="43" viewBox="0 0 37 43" fill="none" xmlns="http://www.w3.org/2000/svg">
<path d="M18.4137 25.228C9.1267 25.228 1.5708 32.8759 1.5708 42.2768C1.5708 42.6759 1.89035 42.9998 2.28515 42.9998H34.5423C34.9366 42.9998 35.2566 42.6759 35.2566 42.2768C35.2566 32.8759 27.7012 25.228 18.4137 25.228ZM3.01569 41.5538C3.39001 33.2846 10.1535 26.674 18.4137 26.674C26.674 26.674 33.4379 33.2846 33.8117 41.5538H3.01569Z" fill="#14202B"/>
<path d="M18.1331 3.84863C12.7859 3.84863 8.43555 8.25168 8.43555 13.6635C8.43555 19.0754 12.7859 23.4785 18.1331 23.4785C23.4807 23.4785 27.8306 19.0754 27.8306 13.6635C27.8306 8.25168 23.4802 3.84863 18.1331 3.84863ZM18.1331 22.0325C13.5736 22.0325 9.86424 18.2782 9.86424 13.6635C9.86424 9.0489 13.5736 5.29463 18.1331 5.29463C22.6925 5.29463 26.4019 9.0489 26.4019 13.6635C26.4019 18.2782 22.6925 22.0325 18.1331 22.0325Z" fill="#14202B"/>
<path d="M6.35199 19.0365C6.74678 19.0365 7.06633 18.7131 7.06633 18.3135V8.95696C7.06633 8.91069 7.0611 8.86586 7.053 8.822C8.96698 4.33027 13.2697 1.44551 18.1335 1.44551C23.0844 1.44551 27.4591 4.43486 29.3183 9.06878V18.259C28.7192 19.7523 27.8491 21.0951 26.7228 22.25C26.4457 22.5343 26.4485 22.9918 26.7295 23.2723C26.8685 23.4116 27.05 23.481 27.2314 23.481C27.4157 23.481 27.6 23.4092 27.7396 23.266C28.9397 22.0355 29.8802 20.6131 30.546 19.037H31.048C33.9906 19.037 36.3846 16.614 36.3846 13.6357C36.3846 10.6574 33.9906 8.23444 31.048 8.23444H30.5155C28.3711 3.22023 23.5644 0 18.1335 0C12.6997 0 7.8926 3.21974 5.74908 8.23444H5.33666C2.39402 8.23444 0 10.6574 0 13.6357C0 16.614 2.39402 19.037 5.33666 19.037H6.35199V19.0365ZM34.9559 13.6352C34.9559 15.8163 33.2024 17.5905 31.048 17.5905H30.747V9.67996H31.048C33.2029 9.67996 34.9559 11.4542 34.9559 13.6352ZM1.4287 13.6352C1.4287 11.4542 3.18171 9.67996 5.33666 9.67996H5.63764V17.5905H5.33666C3.18171 17.5905 1.4287 15.8163 1.4287 13.6352Z" fill="#14202B"/>
</svg>
