<svg width="46" height="45" viewBox="0 0 46 45" fill="none" xmlns="http://www.w3.org/2000/svg">
<path d="M22 13V15" stroke="#073762" stroke-width="1.5" stroke-linecap="round"/>
<circle cx="22.5" cy="22.5" r="21.5" stroke="#073762" stroke-width="2"/>
<path d="M22.488 31.24C21.16 31.24 20.008 31.032 19.032 30.616C18.072 30.2 17.336 29.656 16.824 28.984C16.312 28.296 16.04 27.56 16.008 26.776C16.008 26.648 16.056 26.536 16.152 26.44C16.264 26.328 16.392 26.272 16.536 26.272H17.76C18.064 26.272 18.272 26.432 18.384 26.752C18.528 27.424 18.936 28 19.608 28.48C20.296 28.96 21.256 29.2 22.488 29.2C23.816 29.2 24.816 28.968 25.488 28.504C26.16 28.024 26.496 27.36 26.496 26.512C26.496 25.968 26.328 25.528 25.992 25.192C25.672 24.856 25.192 24.56 24.552 24.304C23.912 24.048 22.952 23.728 21.672 23.344C20.424 22.992 19.432 22.616 18.696 22.216C17.96 21.816 17.408 21.32 17.04 20.728C16.672 20.136 16.488 19.392 16.488 18.496C16.488 17.632 16.72 16.856 17.184 16.168C17.664 15.48 18.344 14.944 19.224 14.56C20.104 14.16 21.152 13.96 22.368 13.96C23.616 13.96 24.688 14.184 25.584 14.632C26.48 15.064 27.16 15.616 27.624 16.288C28.088 16.96 28.336 17.632 28.368 18.304C28.368 18.432 28.32 18.544 28.224 18.64C28.144 18.736 28.024 18.784 27.864 18.784H26.592C26.256 18.784 26.048 18.632 25.968 18.328C25.872 17.656 25.496 17.104 24.84 16.672C24.184 16.224 23.36 16 22.368 16C21.28 16 20.424 16.208 19.8 16.624C19.176 17.04 18.864 17.656 18.864 18.472C18.864 19.016 19.008 19.464 19.296 19.816C19.6 20.168 20.056 20.48 20.664 20.752C21.272 21.008 22.16 21.304 23.328 21.64C24.688 22.008 25.76 22.392 26.544 22.792C27.328 23.176 27.912 23.664 28.296 24.256C28.68 24.832 28.872 25.568 28.872 26.464C28.872 27.952 28.296 29.12 27.144 29.968C25.992 30.816 24.44 31.24 22.488 31.24Z" fill="#073762"/>
<circle cx="22.5" cy="22.5" r="16.5" stroke="#073762" stroke-width="2"/>
<line x1="44.9129" y1="4.41153" x2="3.41153" y2="41.0871" stroke="#073762" stroke-width="2" stroke-linecap="round"/>
<path d="M22 30V32" stroke="#073762" stroke-width="1.5" stroke-linecap="round"/>
</svg>
