<?xml version="1.0" encoding="utf-8" ?>
<svg xmlns="http://www.w3.org/2000/svg" xmlns:xlink="http://www.w3.org/1999/xlink" width="100" height="100">
	<path fill="#19243E" transform="scale(0.2 0.2)" d="M0 0L238.04 0L269.24 0L500 0L500 500L0 500L0 0ZM252.051 16.1144C237.732 16.5277 223.427 16.4381 209.255 18.8133C203.592 19.7625 197.747 20.7738 192.211 22.2979C184.277 24.4818 176.404 27.4711 168.794 30.5836C164.828 32.2057 160.804 33.7482 156.913 35.5404C135.166 45.5551 109.681 61.327 93.1435 78.8554C75.7047 97.339 60.8232 116.797 49.4085 139.589C45.8045 146.785 42.7078 154.249 39.5554 161.652C35.2935 171.661 30.8069 182.332 28.4515 192.978C24.0144 213.033 23.2845 236.419 23.8841 256.883C24.295 270.905 26.6461 285.037 29.3665 298.78C30.5458 304.738 31.6432 310.693 33.4797 316.494C35.291 322.215 37.8623 327.626 40.1856 333.145Q41.4002 336.109 42.6941 339.038Q43.9879 341.968 45.3601 344.862Q46.7323 347.756 48.1818 350.613Q49.6313 353.469 51.1571 356.285Q52.6829 359.101 54.2839 361.875Q55.8848 364.649 57.5598 367.379Q59.2348 370.109 60.9826 372.793Q62.7304 375.477 64.5497 378.113Q66.369 380.749 68.2586 383.335Q70.1481 385.921 72.1065 388.455Q74.0649 390.99 76.0908 393.47Q78.1167 395.951 80.2085 398.377Q82.3003 400.802 84.4566 403.17Q86.6129 405.538 88.8321 407.848Q91.0513 410.157 93.3318 412.406Q95.6123 414.655 97.9525 416.842Q103.274 421.922 108.947 426.604Q114.621 431.287 120.618 435.549Q126.614 439.81 132.902 443.629Q139.19 447.447 145.737 450.802C150.172 453.121 154.599 455.612 159.173 457.643C164.3 459.919 169.648 461.759 174.958 463.562C180.707 465.513 186.494 467.494 192.373 469.015C198.208 470.525 204.134 471.527 210.072 472.531C221.973 474.544 233.656 475.977 245.724 476.504C274.16 476.635 300.18 471.407 326.751 461.495C336.552 457.839 346.263 453.675 355.371 448.501C361.225 445.176 366.623 441 372.192 437.224C381.245 431.086 390.23 424.985 398.041 417.253C409.135 406.269 420.433 394.632 429.586 381.971C432.227 378.317 434.546 374.382 436.934 370.56Q438.686 367.786 440.361 364.964Q442.036 362.142 443.633 359.275Q445.229 356.409 446.746 353.499Q448.263 350.589 449.699 347.639Q451.136 344.689 452.49 341.7Q453.844 338.711 455.116 335.686Q456.388 332.661 457.575 329.602Q458.763 326.543 459.866 323.453Q460.969 320.363 461.987 317.243Q463.004 314.123 463.936 310.977Q464.867 307.83 465.711 304.659Q466.555 301.489 467.312 298.296Q468.068 295.103 468.736 291.89Q469.405 288.677 469.984 285.448Q470.564 282.218 471.054 278.973Q471.544 275.729 471.945 272.472C473.004 264.079 473.802 255.932 473.824 247.454Q473.815 244.596 473.738 241.738Q473.66 238.881 473.513 236.027Q473.366 233.172 473.15 230.322Q472.933 227.472 472.648 224.628Q472.363 221.784 472.009 218.947Q471.654 216.111 471.232 213.284Q470.809 210.457 470.318 207.641Q469.826 204.826 469.267 202.023Q468.708 199.219 468.081 196.431Q467.453 193.642 466.759 190.869Q466.064 188.097 465.303 185.342Q464.541 182.587 463.713 179.851Q462.885 177.115 461.99 174.401Q461.096 171.686 460.136 168.993Q459.177 166.301 458.152 163.633Q457.127 160.964 456.038 158.322Q454.948 155.679 453.795 153.064Q452.642 150.448 451.426 147.861Q450.21 145.275 448.932 142.718Q447.654 140.162 446.314 137.637Q444.974 135.112 443.573 132.621Q442.172 130.129 440.711 127.672Q439.25 125.215 437.73 122.795Q436.21 120.374 434.632 117.991Q433.054 115.608 431.418 113.264Q429.783 110.919 428.091 108.616Q426.399 106.312 424.652 104.05Q422.904 101.788 421.103 99.5685Q419.301 97.3494 417.446 95.1747Q415.591 93 413.684 90.8708Q411.777 88.7417 409.819 86.6594Q407.861 84.5772 405.853 82.543C388.685 65.3435 371.925 53.5151 350.647 41.8696C341.056 36.6201 331.138 31.7188 320.794 28.1186C311.356 24.8341 301.445 22.6645 291.68 20.5971C279.758 18.073 267.774 16.0631 255.545 16.0656C254.382 16.0658 253.212 16.0592 252.051 16.1144ZM0 0L0 500L500 500L500 0L269.24 0L271.105 0.497775C271.36 0.482336 271.616 0.473104 271.872 0.47778C279.757 0.622027 288.005 2.23615 295.73 3.75585C304.121 5.40676 312.738 7.29678 320.843 10.0534C327.713 12.39 334.409 15.423 341.072 18.2875C347.481 21.0425 353.903 23.7448 360.12 26.9182C376.263 35.1582 389.523 45.0786 403.271 56.7776C408.022 60.8208 412.898 64.7991 417.294 69.2324C421.461 73.4339 425.279 78.1462 429.15 82.6245C445.4 101.423 459.312 122.222 468.816 145.265C471.444 151.637 473.559 158.195 475.742 164.728C478.329 172.469 480.932 180.162 482.63 188.159C486.772 207.659 488.202 228.297 488.133 248.197C488.046 273.483 483.353 305.299 475.083 329.166C470.629 342.021 464.882 354.145 458.511 366.143C454.661 373.392 450.672 380.968 446.034 387.744C441.284 394.683 435.66 401.105 430.229 407.515C425.663 412.904 421.104 418.344 416.081 423.316C406.559 432.742 394.605 443.117 383.508 450.612C371.01 459.052 357.276 465.888 343.54 472.049C336.063 475.404 328.558 478.965 320.669 481.26C306.521 485.376 291.78 487.344 277.163 488.882C268.151 489.83 259.18 490.864 250.104 490.808C241.61 490.756 233.115 490.131 224.647 489.502C212.759 488.62 200.689 487.61 189.046 484.955C176.868 482.177 165.021 477.63 153.641 472.546C122.029 458.423 98.7829 441.977 74.5189 417.346C65.4715 408.162 58.4485 398.646 51.1957 388.028C40.0257 371.675 32.2628 357.159 24.8154 338.763C22.2147 332.339 19.6424 325.767 17.7457 319.099C16.1744 313.575 15.1565 307.884 13.9576 302.269Q12.6344 296.173 11.6459 290.014Q10.6574 283.855 10.0067 277.651Q9.35589 271.448 9.04476 265.218Q8.73362 258.988 8.76305 252.75C8.92019 233.46 9.24845 211.982 12.5799 192.997C15.1211 178.516 20.2411 164.238 25.8664 150.703C28.5885 144.153 31.0764 137.475 34.1948 131.1C36.8418 125.688 40.0661 120.565 43.1682 115.406C55.0348 95.6708 65.1017 82.7438 81.4332 66.668C90.7137 57.5329 100.832 50.0863 111.396 42.5393C117.235 38.3682 122.968 34.062 129.214 30.5003C135.926 26.6723 143.038 23.6861 150.117 20.6236C161.633 15.6407 172.994 10.8855 185.199 7.78739C193.493 5.68241 201.88 4.69528 210.326 3.44245C214.932 2.75934 219.479 1.69255 224.083 1.06298C227.947 0.534776 231.839 0.463628 235.732 0.495454L238.04 0L0 0ZM238.04 0L235.732 0.495454C242.949 0.898383 250.271 0.301672 257.497 0.279377C262.002 0.265479 266.621 0.817377 271.105 0.497775L269.24 0L238.04 0Z"/>
	<path fill="#30435E" fill-opacity="0.7647059" transform="scale(0.2 0.2)" d="M238.04 0L269.24 0L271.105 0.497775C266.621 0.817377 262.002 0.265479 257.497 0.279377C250.271 0.301672 242.949 0.898383 235.732 0.495454L238.04 0Z"/>
	<defs>
		<linearGradient id="gradient_0" gradientUnits="userSpaceOnUse" x1="252.12489" y1="80.574104" x2="299.54224" y2="356.85944">
			<stop offset="0" stop-color="#12152D"/>
			<stop offset="1" stop-color="#212E4A"/>
		</linearGradient>
	</defs>
	<path fill="url(#gradient_0)" transform="scale(0.2 0.2)" d="M233.895 83.6033C235.323 83.3666 236.991 83.5025 238.449 83.4953C238.661 94.0149 238.399 104.587 238.433 115.115L238.569 216.972L238.953 250.665C239.041 256.796 238.737 263.29 239.542 269.36C243.015 271.85 246.77 273.944 250.442 276.121C258.846 281.103 267.397 285.763 275.886 290.587L307.469 308.88C314.406 312.89 321.484 316.65 328.373 320.746C334.474 324.374 340.384 328.321 346.333 332.189C349.731 334.398 356.899 338.118 359.344 341.019C359.548 341.653 359.581 342.034 359.363 342.678C358.472 345.314 351.572 347.862 349.103 348.958C348.404 349.016 347.693 349.084 346.991 349.084C344.567 349.084 342.442 348.272 340.303 347.225C332.437 343.377 325.002 338.473 317.328 334.242Q281.915 315.022 247.571 293.95C240.625 289.757 229.057 284.259 223.603 279.064C222.868 275.065 223.299 270.349 223.296 266.277L223.294 241.732L223.331 153.726C223.335 147.588 222.727 88.0135 224.467 85.9138C226.055 83.9963 231.559 83.8067 233.895 83.6033Z"/>
</svg>
