<?xml version="1.0" encoding="utf-8" ?>
<svg xmlns="http://www.w3.org/2000/svg" xmlns:xlink="http://www.w3.org/1999/xlink" width="100" height="107">
	<defs>
		<linearGradient id="gradient_0" gradientUnits="userSpaceOnUse" x1="268.69409" y1="86.718719" x2="229.21791" y2="453.05298">
			<stop offset="0" stop-color="#0A0C16"/>
			<stop offset="1" stop-color="#232839"/>
		</linearGradient>
	</defs>
	<path fill="url(#gradient_0)" transform="scale(0.2 0.201128)" d="M103.687 154.114C103.585 148.484 103.54 121.058 105.189 117.17C106.166 114.866 109.619 111.372 111.445 109.475C112.77 108.1 115.265 108.295 117.112 108.311Q239.181 109.403 361.254 108.902L441.58 108.723L465.676 108.695C468.977 108.695 472.479 108.344 475.755 108.67C478.754 108.968 481.39 110.825 483.457 112.92C486.306 115.808 487.795 119.531 488.388 123.498C489.402 130.286 489.139 137.504 489.287 144.371Q489.646 167.483 489.57 190.597Q489.758 253.308 489.282 316.017C489.181 322.55 487.193 328.327 482.412 332.993C481.003 334.369 479.435 335.264 477.562 335.853C470.151 338.184 454.485 337.623 446.384 337.458C444.711 337.423 443.073 337.322 441.431 336.989Q441.352 344.167 441.47 351.345C441.546 358.979 442.635 373.39 436.967 379.119C435.624 380.476 433.938 381.357 432.098 381.834C428.248 382.832 423.804 382.768 419.843 382.942Q408.136 383.363 396.422 383.545C396.178 391.199 397.053 410.219 395.193 416.334C394.059 420.061 391.707 423.538 388.895 426.206C386.435 428.54 382.821 431.018 379.365 431.394C375.123 431.856 370.366 431.274 366.072 431.235L335.136 431.04L235.572 430.799L85.5666 430.907L41.134 431.079Q36.324 431.108 31.5175 431.296C29.4781 431.393 27.3141 431.684 25.2789 431.576C20.7492 431.334 16.1372 428.058 13.2503 424.715C9.45617 420.321 9.713 414.868 9.71427 409.396Q8.68966 345.643 8.93314 281.882Q8.89624 259.385 9.18452 236.89C9.30531 229.867 9.29636 222.772 9.80831 215.765C9.99363 211.389 13.1415 207.5 16.1886 204.555C17.1977 203.58 18.2867 202.829 19.6708 202.518C22.9575 201.778 26.8074 202.191 30.1705 202.208L47.3236 202.297C49.2391 201.867 51.8387 202.169 53.8361 202.153C53.5352 193.133 53.0442 178.048 54.9036 169.491C57.154 164.023 62.2701 158.103 67.8011 155.763C74.4703 152.941 95.6049 154.328 103.687 154.114ZM23.6438 214.362C23.1644 215.54 22.8397 216.661 22.5572 217.896C21.6772 218.98 21.502 220.786 21.365 222.148C20.9681 226.094 21.2261 230.101 21.1209 234.061L20.8767 248.085C20.8226 250.945 20.5717 253.786 20.6935 256.648Q20.7543 259.057 20.9681 261.458L21.1014 260.259C21.1683 263.56 20.6404 271.793 21.4766 274.404L21.5123 368.754Q21.5139 381.471 21.3497 394.187C21.2924 399.876 21.1096 405.618 21.3673 411.303C21.6362 411.937 21.667 412.979 21.8195 413.684C22.299 415.9 22.693 418.271 24.8235 419.522C25.7102 420.042 26.8533 420.131 27.8598 420.25C34.3576 421.022 41.315 420.593 47.8746 420.619L82.157 420.802L200.803 420.807L331.746 420.813L358.072 420.615C362.346 420.599 371.803 421.165 375.567 420.119C378.785 419.225 382.782 414.05 384.395 411.209C384.476 408.403 384.285 405.545 384.256 402.733C384.206 397.941 384.313 393.14 384.191 388.35C384.054 382.961 383.71 377.593 383.677 372.198L383.649 287.03L383.588 240.415C383.583 233.155 384.151 222.853 383.179 215.823C374.181 214.496 364.525 215.024 355.422 214.962L304.622 214.889L127.73 214.873C107.038 214.863 86.2702 215.158 65.5865 214.744L38.1069 214.082C33.3639 214.011 28.3315 213.635 23.6438 214.362ZM74.5357 165.022C73.1289 166.977 68.9985 171.992 68.1887 173.841C66.4918 177.717 67.2598 196.213 67.3173 201.535C70.5143 201.647 73.7126 201.625 76.9084 201.793C82.6318 201.471 88.4715 201.722 94.2072 201.763Q109.85 201.934 125.493 201.842Q196.749 201.53 268.005 201.976Q303.15 201.897 338.292 202.248L360.004 202.239C362.852 202.251 366.14 201.951 368.943 202.35C370.016 202.286 371.088 202.286 372.162 202.277C377.879 202.228 385.913 201.098 390.265 205.594C393.981 209.432 395.931 215.923 396.664 221.079C397.687 228.282 397.422 235.867 397.481 243.134Q397.648 260.58 397.584 278.026L397.902 372.177C404.529 372.539 419.685 372.465 425.713 370.525C427.331 370.004 428.552 369.196 429.862 368.149C430.442 363.074 430.041 357.649 429.956 352.539C429.726 338.752 428.793 325.018 428.726 311.216L428.527 223.296C428.524 207.519 428.907 191.651 428.457 175.886C428.357 172.374 427.976 169.017 426.888 165.666C418.16 163.797 409.239 163.989 400.356 163.955Q389.295 163.933 378.235 163.79C337.136 163.264 296.009 163.61 254.907 163.626Q190.048 163.472 125.191 164.088L96.2362 164.423C89.0527 164.459 81.6696 164.167 74.5357 165.022ZM200.136 118.83C179.451 119.284 158.693 118.95 137.999 118.964C131.801 118.968 125.595 118.837 119.4 118.981C118.207 120.802 117.296 122.613 116.731 124.726C114.794 131.97 115.804 144.747 115.408 152.657C134.333 153.132 153.32 152.728 172.255 152.843L336.183 153.202L393.516 153.009C402.382 153.006 412.545 152.47 421.3 153.326C427.277 153.911 434.079 155.182 438.426 159.713C439.782 161.126 441.31 163.253 441.655 165.184C442.332 168.983 441.867 173.448 441.839 177.316Q441.814 185.3 441.953 193.283L442.348 279.183C442.412 295.017 442.045 310.967 442.548 326.789C449.21 327.44 462.937 327.363 469.217 325.56Q470.815 325.096 472.291 324.326Q473.766 323.557 475.062 322.513C476.798 321.108 478.071 319.536 478.297 317.248C478.642 313.753 478.493 310.096 478.53 306.58L478.809 289.473Q479.2 249.571 479.04 209.668L478.776 153.665L478.695 137.709C478.679 134.36 478.824 130.9 478.395 127.575C478.056 124.949 476.387 122.417 475.076 120.174C464.835 118.714 453.125 119.968 442.668 120.046C427.12 120.162 411.558 119.751 396.011 119.598Q298.078 118.116 200.136 118.83Z"/>
	<path transform="scale(0.2 0.201128)" d="M241.308 109.492L307.871 109.439L329.224 109.403C333.16 109.403 337.265 109.224 341.184 109.569C337.128 109.74 333.023 109.616 328.961 109.621C321.283 109.576 313.588 109.744 305.906 109.74C301.412 109.738 296.501 109.308 292.071 109.884C296.044 110.11 300.158 109.45 304.098 110.032C302.268 111.001 247.192 109.934 241.308 109.492Z"/>
	<path fill="#4B576B" transform="scale(0.2 0.201128)" d="M53.8361 202.153C53.5352 193.133 53.0442 178.048 54.9036 169.491L55.4284 170.263L55.1393 170.796L55.3482 171.192C55.3055 171.285 55.2618 171.377 55.22 171.47C54.8828 172.222 54.6725 172.635 54.8493 173.45C55.7021 174.835 57.5008 175.586 58.6944 176.703C58.6066 176.098 58.5086 175.494 58.4357 174.887C58.3543 174.208 58.1546 173.91 57.769 173.372C58.3269 172.885 58.7894 172.719 59.4779 172.507C59.6996 176.084 59.1766 179.629 59.2058 183.208C59.2359 186.882 59.2125 190.605 59.3678 194.273C59.4136 195.356 59.7353 196.462 59.7168 197.534C59.7076 198.068 59.55 198.427 59.2498 198.855L58.918 198.835C58.8101 198.223 58.7135 197.615 58.6348 196.998L58.5365 196.89L58.1125 196.878C57.2634 197.808 57.0941 198.539 55.7363 198.734C55.1949 198.812 54.9313 198.952 54.4981 199.301C54.2078 200.008 54.0933 200.536 54.4425 201.258C54.8014 202 55.3957 202.562 56.1902 202.796C56.4049 202.859 56.6235 202.908 56.8402 202.964L59.1369 203.577L59.2466 203.8C56.9577 203.603 54.7196 202.891 52.432 202.618C50.7722 202.42 48.9233 202.63 47.3236 202.297C49.2391 201.867 51.8387 202.169 53.8361 202.153Z"/>
	<path transform="scale(0.2 0.201128)" d="M76.9084 201.793C82.6318 201.471 88.4715 201.722 94.2072 201.763Q109.85 201.934 125.493 201.842Q196.749 201.53 268.005 201.976Q303.15 201.897 338.292 202.248L360.004 202.239C362.852 202.251 366.14 201.951 368.943 202.35C371.515 202.972 374.31 202.432 376.934 202.838C376.592 203.061 376.203 203.362 375.778 203.392C374.61 203.474 373.312 202.888 372.114 202.845C370.061 202.772 367.938 203.079 365.851 203.037C361.202 202.941 356.546 202.542 351.898 202.585L271.429 202.614C258.136 202.562 244.711 201.943 231.428 202.594L233.217 202.775C222.6 203.737 210.691 202.659 199.878 202.773Q177.808 203.204 155.735 203.006C147.997 203.011 140.053 203.38 132.338 202.809L135.817 202.576C132.226 202.361 128.574 202.507 124.975 202.489L105.87 202.469C100.321 202.517 94.7393 202.222 89.2104 202.318C88.8866 202.323 88.7319 202.362 88.4223 202.463L88.6043 202.641L88.336 202.925C87.2912 203.044 76.4547 202.788 76.0989 202.657C75.9247 202.593 75.7993 202.438 75.6495 202.329L75.58 202.598L75.3115 202.468C77.4093 201.698 83.5258 202.905 86.096 202.306C82.6686 201.333 77.8478 202.805 74.3048 202.081L76.9084 201.793Z"/>
	<path fill="#4B576B" transform="scale(0.2 0.201128)" d="M9.71427 409.396Q8.68966 345.643 8.93314 281.882Q8.89624 259.385 9.18452 236.89C9.30531 229.867 9.29636 222.772 9.80831 215.765C10.8212 222.625 9.9539 229.721 9.6745 236.616C9.4758 241.519 10.0102 246.471 10.1664 251.374C10.2654 254.481 9.95393 257.809 10.3506 260.867L10.8896 261.053C11.4891 263.069 9.85963 267.057 11.071 268.722L11.0482 268.341C11.0218 267.829 11.083 267.354 11.1482 266.847L11.3302 266.657C11.9028 267.785 11.5485 270.843 11.5606 272.206C11.5802 270.358 11.3806 267.809 12.14 266.091L12.4714 265.886L12.8719 266.196C12.8798 267.517 12.841 268.787 13.2604 270.057L13.4527 270.005C13.5757 268.745 13.654 267.494 14.0147 266.275L14.3711 266.101L15.1853 266.855C15.1824 267.482 15.1845 268.107 15.166 268.733C15.1056 270.789 15.7645 272.728 15.7048 274.766C16.1165 274.131 16.4766 273.293 17.1709 272.995L17.1927 273.21C17.2441 273.689 17.2638 274.081 17.5218 274.502L18.107 274.434C18.347 275.079 18.3531 275.53 18.3501 276.206C18.8951 275.901 19.0165 275.635 19.1489 275.016C19.2114 274.724 19.2009 274.557 19.2268 274.253C19.5571 270.385 19.4676 259.272 20.6935 256.648Q20.7543 259.057 20.9681 261.458L21.1014 260.259C21.1683 263.56 20.6404 271.793 21.4766 274.404L21.5123 368.754Q21.5139 381.471 21.3497 394.187C21.2924 399.876 21.1096 405.618 21.3673 411.303L20.9981 411.413C19.9608 409.554 21.0497 364.996 20.5935 358.447C20.3938 355.58 19.2734 352.654 18.9052 349.751C18.8842 350.361 18.8939 350.777 18.6127 351.333C16.8836 351.732 16.7531 352.672 15.8944 354.037C15.3009 354.27 14.7248 354.54 14.1454 354.805C13.1542 354.081 12.2067 353.325 11.071 352.84C10.9846 352.97 10.8438 353.163 10.8053 353.31C10.5724 354.197 9.74723 355.07 9.64841 355.818C9.05832 360.282 9.76912 365.605 9.88511 370.116C10.0862 377.94 10.2374 385.769 10.2281 393.592C10.2218 398.896 10.2785 404.11 9.71427 409.396Z"/>
	<path fill="#495864" transform="scale(0.2 0.201128)" d="M20.6935 256.648C20.5717 253.786 20.8226 250.945 20.8767 248.085L21.1209 234.061C21.2261 230.101 20.9681 226.094 21.365 222.148C21.502 220.786 21.6772 218.98 22.5572 217.896C21.6464 223.928 21.8692 230.322 21.757 236.42Q21.4366 255.411 21.4766 274.404C20.6404 271.793 21.1683 263.56 21.1014 260.259L20.9681 261.458Q20.7543 259.057 20.6935 256.648Z"/>
	<path fill="#151B31" transform="scale(0.2 0.201128)" d="M349.234 245.034C349.788 244.97 350.351 244.903 350.909 244.901C352.075 244.897 353.506 245.101 354.353 245.989C355.182 246.857 355.379 248.091 355.455 249.241C355.865 255.454 355.509 261.925 355.539 268.17L355.661 309.652Q355.876 338.122 355.739 366.592C355.662 373.599 355.781 380.653 355.415 387.65L351.477 387.99C349.242 387.712 347 387.466 344.787 387.046C344.295 382.62 344.537 377.976 344.517 373.521L344.497 347.806C344.496 322.982 344.211 298.119 344.672 273.3C344.748 269.208 344.804 249.145 345.877 246.963C346.444 245.81 348.11 245.38 349.234 245.034Z"/>
	<defs>
		<linearGradient id="gradient_1" gradientUnits="userSpaceOnUse" x1="67.369324" y1="313.8812" x2="36.67033" y2="318.3382">
			<stop offset="0" stop-color="#374553"/>
			<stop offset="1" stop-color="#4E5775"/>
		</linearGradient>
	</defs>
	<path fill="url(#gradient_1)" transform="scale(0.2 0.201128)" d="M54.4514 244.551C55.6986 244.43 56.9344 244.55 58.1809 244.633C58.6187 253.927 58.3676 263.349 58.4044 272.654L58.4967 328.348L58.5777 365.828C58.6166 372.786 59.0715 380.006 58.5257 386.939C55.9455 387.237 53.318 387.085 50.7257 387.031C49.1242 387.048 47.5255 386.977 45.9256 386.917C45.3915 380.661 45.7607 374.129 45.7554 367.843L45.7279 331.988Q45.5946 304.263 45.9564 276.541C46.0677 268.557 45.8451 260.37 46.397 252.42C46.5195 250.656 46.7046 247.307 47.7669 245.875C49.5866 244.689 52.3231 244.743 54.4514 244.551Z"/>
	<path fill="#151B31" transform="scale(0.2 0.201128)" d="M201.275 241.706C207.089 241.67 212.716 242.103 218.387 243.464C230.411 246.351 245.555 254.681 254.371 263.179C261.263 269.823 267.773 279.793 271.13 288.779C274.456 297.685 276.121 308.144 276.219 317.639C276.411 336.107 268.187 355.121 255.257 368.182C247.875 375.639 235.068 385.017 224.963 387.815C217.677 389.833 209.957 390.001 202.447 390.057C181.752 389.662 166.674 385.943 151.119 371.287Q147.426 367.805 144.212 363.877Q140.998 359.948 138.317 355.639C131.974 345.233 127.015 330.418 126.708 318.222C126.192 297.691 135.723 277.418 149.717 262.73C162.685 249.118 182.741 242.076 201.275 241.706ZM199.888 253.124C184.073 253.946 167.183 260.538 156.388 272.503C145.131 284.982 137.599 302.965 138.539 319.9C139.475 336.761 148.669 353.501 161.215 364.553C174.808 376.529 186.827 378.78 204.483 378.751C221.07 378.59 235.772 371.981 247.342 360.171C258.733 348.544 265.188 333.499 265.078 317.148C264.982 303.005 262.118 291.586 253.723 280.026C251.579 277.074 249.306 274.219 246.687 271.67C234.854 260.152 218.585 252.678 201.94 253.04Q200.913 253.064 199.888 253.124Z"/>
</svg>
