<svg xmlns="http://www.w3.org/2000/svg" width="42" height="42" fill="none" xmlns:v="https://vecta.io/nano"><path d="M39.109 27.71l1.093-5.467-13.952-6.976V9.343c.002-1.268-.276-2.521-.814-3.67s-1.322-2.164-2.298-2.975a3.34 3.34 0 0 0-4.276 0c-.975.811-1.76 1.826-2.298 2.975s-.816 2.401-.814 3.67v5.924L1.797 22.243l1.093 5.467 12.894-1.682.635 6.663-5.92 2.537v5.459h21v-5.459l-5.92-2.537.635-6.663 12.894 1.682zm-10.234 9.249v1.103h-15.75v-1.103l6.09-2.61-.84-8.818v-2.488L4.984 24.79l-.219-1.095 13.61-6.805V9.343a6.01 6.01 0 0 1 2.168-4.628c.128-.107.29-.166.457-.166s.329.059.457.166c.679.565 1.226 1.272 1.6 2.072s.568 1.673.567 2.556v7.547l13.61 6.805-.219 1.095-13.391-1.747v2.488l-.84 8.818 6.09 2.61z" fill="#000"/></svg>