<?xml version="1.0" encoding="utf-8" ?>
<svg xmlns="http://www.w3.org/2000/svg" xmlns:xlink="http://www.w3.org/1999/xlink" width="300" height="111">
	<path fill="#C3C7CA" fill-opacity="0.011764706" transform="matrix(0.104603 0 0 0.104717 0 3.8147e-06)" d="M1570.72 773.169C1570.38 772.25 1570.11 771.465 1569.94 770.498C1567.53 756.866 1564.88 690.635 1570.72 681.833C1572.45 686.523 1572.65 766.917 1570.72 773.169Z"/>
	<path fill="#C3C7CA" fill-opacity="0.015686275" transform="matrix(0.104603 0 0 0.104717 0 3.8147e-06)" d="M1205.66 826.174C1204.18 826.399 1204.25 826.27 1203.01 825.389C1201.46 816.862 1202.68 806.95 1202.79 798.236L1203.54 742.32C1203.93 717.067 1202.81 691.88 1202.69 666.633C1202.66 660.1 1200.78 633.437 1203.59 628.812L1205.46 628.825C1209.07 639.293 1208.66 819.232 1205.66 826.174Z"/>
	<path fill="#FEFEFE" transform="matrix(0.104603 0 0 0.104717 0 3.8147e-06)" d="M1777.41 671.5Q1778.66 671.4 1779.92 671.346Q1781.18 671.291 1782.44 671.283Q1783.69 671.274 1784.95 671.312Q1786.21 671.349 1787.46 671.432Q1788.72 671.516 1789.97 671.644Q1791.22 671.773 1792.47 671.948Q1793.71 672.122 1794.95 672.342Q1796.19 672.562 1797.42 672.826Q1798.65 673.091 1799.87 673.4Q1801.09 673.71 1802.29 674.063Q1803.5 674.417 1804.69 674.815Q1805.89 675.212 1807.07 675.653Q1808.24 676.093 1809.41 676.577Q1810.57 677.06 1811.71 677.585Q1812.85 678.111 1813.98 678.677Q1815.1 679.244 1816.2 679.851C1821.67 682.799 1827.26 690.698 1828.81 696.608C1829.39 698.829 1829.3 701.048 1827.98 702.994C1820.99 713.302 1790.73 707.099 1778.23 710.047C1773.72 711.112 1768.45 712.498 1765.86 716.667C1766.35 718.651 1766.69 719.183 1768.59 720.155C1772.1 721.953 1776.66 722.568 1780.38 724.157C1794.58 730.216 1812.16 738.124 1823.79 748.394C1831.51 755.221 1834.92 763.288 1835.42 773.481C1835.91 783.518 1835.52 799.353 1828.41 807.077C1812.47 824.396 1800.82 829.839 1777.25 830.517C1769.12 831.495 1747.27 830.314 1739.86 827.3C1724.52 821.065 1734.74 801.244 1729.72 789.82C1729.64 789.635 1729.55 789.457 1729.46 789.276C1746.96 789.78 1764.68 795.756 1782.08 795.086C1787.04 794.896 1791.77 791.381 1794.96 787.755C1797.17 785.253 1799.03 782.29 1798.85 778.851C1794.24 770.98 1770.4 765.043 1761.34 759.913Q1755.31 756.442 1749.6 752.459Q1743.89 748.476 1738.55 744.012C1735.36 741.34 1732.7 738.344 1729.23 735.969C1729.83 731.429 1729.96 705.32 1728.54 702.048C1732.26 699.074 1735.21 694.827 1738.37 691.268C1749.41 678.831 1761.16 673.688 1777.41 671.5Z"/>
	<path fill="#FEFEFE" transform="matrix(0.104603 0 0 0.104717 0 3.8147e-06)" d="M1570.72 681.833C1572.6 678.828 1574.51 675.333 1578.23 674.456C1584.46 672.986 1600.44 673.42 1605.77 676.929C1607.12 677.815 1607.62 679.21 1607.91 680.724C1612.02 702.469 1609.73 736.664 1610.23 759.528C1610.44 768.869 1612.55 780.169 1611.25 789.242C1622.16 791.223 1650.59 792.215 1659.76 786.071C1659.85 785.873 1659.94 785.678 1660.02 785.477C1663.36 776.782 1660.98 716.607 1660.97 702.616C1660.97 696.443 1660.11 688.173 1661.85 682.265C1662.6 679.724 1664.11 678.495 1666.48 677.418C1672.74 674.571 1690.49 673.805 1696.88 676.329C1698.91 677.128 1700.01 678.036 1700.89 680.006C1701.7 706.527 1700.57 733.315 1700.44 759.867C1700.34 780.333 1701.53 801.758 1699.97 822.117C1699.85 823.752 1699.41 825.058 1698.54 826.459C1686.51 827.577 1674.43 826.937 1662.37 827.37C1646.46 827.942 1609.18 834.579 1596.82 824.369C1587.9 816.995 1573.52 801.994 1572.43 790.071C1571.94 784.76 1572.95 778.042 1570.72 773.169C1572.65 766.917 1572.45 686.523 1570.72 681.833Z"/>
	<path fill="#FEFEFE" transform="matrix(0.104603 0 0 0.104717 0 3.8147e-06)" d="M1922.03 671.5C1937.55 669.945 1951.27 673.381 1963.79 682.879C1981.89 696.618 1992.96 716.976 1995.98 739.337C1996.87 745.946 1998.01 754.927 1993.34 760.443C1985.62 769.549 1928.71 768.748 1914.94 769.764C1909.33 770.178 1902.93 770.03 1899.03 774.545C1899.66 778.734 1902.42 780.699 1905.59 783.273C1913.32 789.533 1928.96 797.25 1939.16 797.358C1948.86 797.461 1959.6 794.788 1969.36 793.829C1974.65 793.309 1982.3 792.175 1986.54 795.67L1986.27 798.499C1986.69 799.381 1987.01 800.031 1987.16 801.008C1988.04 806.642 1988.05 815.448 1984.68 820.334C1980.14 826.931 1968.8 828.194 1961.4 829.377C1939.04 832.949 1910.04 832.216 1891.23 818.402C1873.5 805.385 1861.27 787.208 1858 765.296C1854.6 742.506 1858.34 719.918 1872.19 701.242C1885.47 683.321 1899.97 674.733 1922.03 671.5ZM1919.98 708.5C1915.42 709.948 1910.52 711.154 1908.09 715.713C1905.67 720.257 1904.74 728.787 1905.76 733.793C1906.84 735.216 1907.1 735.989 1909.01 736.187C1916.9 737.002 1923.62 731.979 1932.26 735.5C1936.29 736.444 1941.71 737.191 1945.17 739.464C1948.01 734.283 1948.61 727.355 1946.88 721.692C1946.46 720.316 1945.93 719.016 1945.29 717.724C1944.2 714.328 1942.22 711.707 1939.05 710.003C1933.71 707.137 1925.79 707.789 1919.98 708.5Z"/>
	<path fill="#FEFEFE" transform="matrix(0.104603 0 0 0.104717 0 3.8147e-06)" d="M1451.64 281.499C1464.8 279.694 1480.92 279.531 1493.8 283.101C1493.96 283.41 1494.29 283.995 1494.4 284.374C1495.17 287.21 1493.54 311.941 1493.55 317.325C1493.56 336.776 1494.4 511.516 1491.69 517.088C1496.64 520.181 1500.51 527.282 1504.56 531.645C1518.38 546.506 1535.83 536.439 1552.66 537.279L1553.12 537.305C1554 538.142 1554.74 539.035 1555.23 540.159C1558.18 546.892 1560.09 569.178 1556.61 575.807C1555.11 578.663 1552.96 578.919 1550.18 579.851C1549.9 580.064 1549.64 580.299 1549.34 580.488C1539.3 586.908 1502.98 585.105 1491.53 581.641C1474.54 576.501 1460.03 562.011 1451.75 546.582C1448.3 540.152 1446.68 533.695 1446.08 526.436C1444.25 504.392 1443.54 291.541 1445.75 285.982C1446.93 282.99 1448.95 282.631 1451.64 281.499Z"/>
	<path fill="#FEFEFE" transform="matrix(0.104603 0 0 0.104717 0 3.8147e-06)" d="M1463.28 672.499Q1464.86 672.316 1466.45 672.2C1484.91 670.683 1501.75 674.701 1516.08 686.942C1533.34 701.684 1543.45 722.158 1545.16 744.726C1546.84 766.95 1539.67 790.141 1525.11 807.028C1511.84 822.401 1501.63 829.271 1480.93 830.799C1466.74 831.771 1453.1 830.689 1440.35 823.8C1423.78 814.848 1411.01 800.605 1405.69 782.367C1399.16 760.01 1397.63 734.166 1409.17 713.187C1420.91 691.845 1440.4 679.186 1463.28 672.499ZM1464.66 708.499C1452.6 717.082 1445.41 726.05 1442.99 741.09C1440.82 754.615 1443.07 768.915 1451.31 780.111C1456.07 786.585 1462.1 791.777 1470.29 792.817C1473.83 793.267 1479.16 793.611 1482.33 791.638C1491.39 788.605 1498.61 780.582 1502.8 772.209C1508.2 761.428 1509.69 748.879 1505.8 737.36C1502.08 726.343 1493.72 715.686 1483.13 710.603C1476.7 707.516 1471.62 707.618 1464.66 708.499Z"/>
	<path fill="#FEFEFE" transform="matrix(0.104603 0 0 0.104717 0 3.8147e-06)" d="M1325.86 626.457C1338.81 625.71 1352.41 624.446 1365.28 626.354C1366.47 628.426 1366.76 630.06 1366.82 632.383C1368.13 677.819 1366.37 723.423 1366.33 768.862C1366.32 780.359 1368.08 817.548 1366.43 825.428C1366.26 826.2 1365.87 826.979 1365.49 827.668C1352.57 829.886 1338.72 829.278 1325.66 828.364C1328.24 820.79 1326.99 747.56 1324.7 743.169C1324.57 742.923 1324.43 742.684 1324.29 742.442Q1285.87 742.548 1247.46 743.151C1248.34 744.586 1248.79 745.791 1248.92 747.469C1249.64 756.783 1250.27 819.16 1248.92 825.223C1248.63 826.5 1248.23 827.68 1247.54 828.801C1236.88 829.817 1214.82 832.053 1205.66 826.174C1208.66 819.232 1209.07 639.293 1205.46 628.825C1214.81 623.646 1236.95 625.356 1247.28 626.796C1249.49 630.084 1250.5 694.61 1249.09 700.567C1248.87 701.491 1248.46 702.207 1247.99 703.019C1273.14 703.277 1298.91 704.436 1324.01 703.114C1326.96 698.464 1328.46 636.137 1326.98 629.064C1326.78 628.083 1326.4 627.287 1325.86 626.457Z"/>
	<path fill="#FEFEFE" transform="matrix(0.104603 0 0 0.104717 0 3.8147e-06)" d="M1710.04 474.826C1710.14 474.641 1710.24 474.46 1710.34 474.271C1716.06 462.44 1707.46 372.274 1713.33 365.708C1713.87 365.109 1715.26 364.548 1716 364.25C1724.38 360.891 1744.18 361.959 1752.24 365.684C1754.58 366.763 1757.11 368.644 1758.11 371.096C1759.76 375.141 1758.51 500.434 1758.77 516.929Q1759.08 535.104 1759.72 553.271C1759.91 559.089 1760.83 565.961 1760.18 571.677C1760.05 572.837 1759.85 573.955 1759.27 574.985C1759.13 575.223 1758.98 575.45 1758.84 575.683C1751.19 581.577 1735.19 582.453 1725.86 581.286C1719.08 580.437 1713.3 578.608 1709.05 573.022Q1708.28 572.012 1707.56 570.964C1703.62 569.801 1701.57 570.459 1697.99 572.43C1692.94 575.21 1687.88 579.041 1682.53 581.12C1667.55 586.934 1646.31 586.451 1631.02 582.104C1613.27 577.057 1598.9 564.553 1590.02 548.537Q1587.99 544.891 1586.28 541.085Q1584.57 537.28 1583.2 533.343Q1581.82 529.406 1580.78 525.365Q1579.74 521.325 1579.05 517.211C1575.82 498.52 1576.86 478.625 1576.8 459.671C1576.73 437.216 1576.38 414.683 1576.77 392.236C1576.87 386.602 1578.7 370.414 1576.81 365.882C1593.9 364.767 1612.54 363.427 1629.55 365.666C1631.05 367.936 1631.45 369.992 1631.66 372.673C1632.68 385.296 1631.88 398.57 1631.9 411.251L1632.22 483.765C1632.29 494.102 1630.19 511.306 1634.67 520.457C1638.71 528.694 1651.99 535.564 1660.63 537.208C1674.65 539.874 1693.12 527.348 1706.04 521.4L1706.94 520.163C1710.21 506.252 1706.47 489.658 1708.59 475.255L1710.04 474.826ZM1706.94 520.163L1709.89 519.466C1710.48 518.666 1710.9 517.889 1711.17 516.922C1712.79 511.247 1712.8 479.991 1710.04 474.826L1708.59 475.255C1706.47 489.658 1710.21 506.252 1706.94 520.163Z"/>
	<path fill="#C3C7CA" fill-opacity="0.011764706" transform="matrix(0.104603 0 0 0.104717 0 3.8147e-06)" d="M1706.94 520.163C1710.21 506.252 1706.47 489.658 1708.59 475.255L1710.04 474.826C1712.8 479.991 1712.79 511.247 1711.17 516.922C1710.9 517.889 1710.48 518.666 1709.89 519.466L1706.94 520.163Z"/>
	<path fill="#FEFEFE" transform="matrix(0.104603 0 0 0.104717 0 3.8147e-06)" d="M1896.48 361.5Q1899 361.337 1901.52 361.329Q1904.04 361.321 1906.56 361.469Q1909.08 361.617 1911.58 361.92Q1914.09 362.224 1916.57 362.681Q1919.05 363.138 1921.5 363.747Q1923.95 364.356 1926.35 365.115Q1928.76 365.874 1931.11 366.78Q1933.47 367.686 1935.76 368.736Q1936.9 369.254 1938.02 369.799Q1939.14 370.345 1940.25 370.917Q1941.36 371.49 1942.46 372.089Q1943.55 372.689 1944.63 373.315Q1945.71 373.941 1946.78 374.593Q1947.84 375.246 1948.89 375.924Q1949.94 376.602 1950.97 377.306Q1952 378.009 1953.02 378.738Q1954.03 379.466 1955.03 380.219Q1956.02 380.972 1957 381.749Q1957.98 382.526 1958.93 383.327Q1959.89 384.128 1960.83 384.952Q1961.77 385.776 1962.69 386.622Q1963.6 387.469 1964.5 388.338Q1965.4 389.206 1966.27 390.097Q1967.15 390.987 1968 391.899Q1968.85 392.81 1969.69 393.742Q1970.52 394.674 1971.32 395.626Q1972.13 396.578 1972.92 397.55Q1973.7 398.521 1974.46 399.512Q1975.22 400.502 1975.96 401.511Q1976.69 402.519 1977.4 403.546Q1978.11 404.572 1978.8 405.615Q1979.49 406.659 1980.15 407.718Q1980.81 408.778 1981.44 409.854Q1982.07 410.929 1982.68 412.02Q1983.29 413.111 1983.87 414.216Q1984.45 415.321 1985.01 416.441Q1985.56 417.56 1986.09 418.692Q1986.61 419.824 1987.11 420.969Q1987.61 422.114 1988.08 423.271Q1988.55 424.427 1988.99 425.595Q1990.54 429.691 1991.65 433.926Q1992.76 438.161 1993.42 442.489C1994.67 450.657 1997.43 487.281 1994.62 493.477C1978.13 497.036 1957.54 494.825 1940.51 495.037Q1899.39 495.622 1858.31 497.563C1862.2 502.733 1858.04 507.782 1868.47 518.43C1888.03 538.407 1917.3 542.731 1943.64 536.586C1954.12 534.14 1965.51 529.471 1976.32 529.831C1979.14 529.925 1980.77 530.394 1982.67 532.43L1982.14 535.497C1982.52 535.986 1982.83 536.501 1983.09 537.063C1985.75 542.847 1985.13 567.471 1982.89 573.824C1978.05 579.613 1967.14 580.844 1960 581.71C1946.88 583.301 1933.72 583.247 1920.52 583.107C1890.63 582.789 1866.02 580.736 1841.64 561.453C1815.92 541.111 1806 519.029 1802.37 486.784C1798.93 456.281 1807.13 422.756 1826.42 398.694C1844.49 376.155 1868.16 364.677 1896.48 361.5ZM1893.4 408.499C1881.37 413.653 1870.27 420.073 1865.04 432.8C1863.17 437.35 1861.48 444.668 1863.02 449.448C1873.33 453.661 1890.37 450.638 1901.75 451.276C1912.54 451.288 1923.7 451.896 1934.41 450.664C1937.14 446.963 1936.37 438.003 1935.75 433.594C1935.51 431.913 1935.1 430.659 1934.14 429.245C1933.09 423.827 1928.24 420.073 1923.9 417.145C1915.62 411.553 1903.46 406.468 1893.4 408.499Z"/>
	<path fill="#FEFEFE" transform="matrix(0.104603 0 0 0.104717 0 3.8147e-06)" d="M2415.73 541.5C2426.99 540.746 2439.4 540.301 2450.49 542.528C2467.51 545.948 2480.87 559.632 2490.15 573.73C2498.5 586.422 2503 602.305 2499.75 617.405C2495.48 637.258 2473.02 664.346 2456.2 675.172C2465.1 684.075 2467.12 694.858 2480.76 704.225C2491.6 711.667 2493.04 691.72 2511.83 688.734C2519.47 687.521 2531.63 686.425 2538.04 691.309C2540.33 693.058 2541.82 695.817 2542.17 698.658C2546.54 717.877 2535.82 740.5 2527.04 756.735C2536.43 774.93 2572.02 809.32 2573.41 823.386C2572.65 825.204 2572.58 825.573 2570.74 826.548C2561.59 831.379 2524.12 829.69 2513.45 826.5C2507.6 821.397 2504.16 812.755 2497.5 809.201C2482.96 801.443 2470.73 824.29 2457.98 827.811C2434.65 834.255 2396.05 832.66 2374.74 820.235C2353.25 807.705 2334.08 786.639 2327.68 762.219C2318.1 725.673 2337.29 701.043 2360.79 675.931C2365.92 670.452 2373.34 664.245 2376.98 657.762C2377.07 657.592 2377.16 657.416 2377.25 657.244C2377 654.881 2365.22 642.84 2362.89 638.706C2359.38 632.451 2356.74 622.986 2355.54 615.893C2352.89 600.171 2358.86 582.679 2367.93 569.816C2379.92 552.828 2395.52 544.941 2415.73 541.5ZM2403.85 702.499C2390.17 713.017 2379.43 719.95 2377.04 738.698C2375.74 748.947 2378.94 758.548 2385.28 766.592C2392.84 776.198 2403.72 782.873 2415.98 784.154C2421.47 784.728 2427.75 784.253 2433.24 783.596C2441.25 782.598 2451.84 782.165 2457.4 775.375C2459.93 772.288 2461.82 766.648 2461.64 762.696C2461.68 761.222 2461.35 760.128 2460.52 758.912C2451.28 745.408 2437.63 733.124 2426.61 720.967C2421.57 715.409 2416.84 708.508 2411.36 703.484C2409.5 701.78 2407.99 701.983 2405.62 702.187C2405.02 702.239 2404.44 702.369 2403.85 702.499ZM2426.59 587.5C2420.14 589.42 2415.24 592.788 2411.87 598.78C2409.13 603.659 2408.73 610.29 2410.34 615.592C2412.59 622.948 2417.85 627.073 2424.41 630.53C2425.8 631.265 2427.25 631.88 2428.72 632.453C2434.32 632.174 2437.81 629.742 2441.53 625.633C2446.23 620.449 2448.55 613.1 2448.1 606.16C2447.73 600.472 2445.59 594.964 2441.18 591.197C2437.2 587.794 2432.21 586.921 2427.12 587.439C2426.94 587.457 2426.77 587.479 2426.59 587.5Z"/>
	<path fill="#FEFEFE" transform="matrix(0.104603 0 0 0.104717 0 3.8147e-06)" d="M2123.2 543.5C2144.06 541.438 2200.13 541.507 2218.86 548.368C2242.38 556.989 2259.29 572.168 2269.7 594.966C2275.97 608.707 2279.51 624.614 2273.92 639.2C2268.7 652.793 2255.27 671.554 2241.68 677.648Q2243.94 678.383 2246.18 679.195Q2247.62 679.704 2249.03 680.284Q2250.43 680.864 2251.81 681.513Q2253.19 682.162 2254.54 682.879Q2255.88 683.595 2257.19 684.377Q2258.5 685.159 2259.77 686.005Q2261.03 686.85 2262.26 687.758Q2263.48 688.665 2264.66 689.632Q2265.84 690.599 2266.97 691.623Q2268.09 692.647 2269.17 693.726Q2270.25 694.805 2271.27 695.935Q2272.29 697.066 2273.26 698.246Q2274.22 699.425 2275.13 700.651Q2276.03 701.877 2276.87 703.147Q2277.72 704.416 2278.5 705.725Q2279.28 707.035 2279.99 708.381Q2280.7 709.728 2281.35 711.108C2289.8 729.352 2288.63 752.129 2281.69 770.678C2276.3 785.074 2265.71 801.519 2251.3 808.113C2251.24 808.281 2251.2 808.459 2251.12 808.615C2247.77 814.714 2224.4 823.097 2217.34 824.892Q2211.99 826.204 2206.54 827.025Q2201.09 827.846 2195.59 828.169C2180.82 829.104 2084.1 830.147 2078.09 826.011C2077.28 825.451 2076.89 825.015 2076.67 824.057C2073.92 812.107 2075.75 758.06 2075.72 742.342L2075.63 642.643C2075.65 625.055 2074.79 606.917 2076.09 589.386C2076.57 582.954 2077.62 576.5 2081.14 570.99C2090.14 556.909 2107.22 546.898 2123.2 543.5ZM2154.87 704.498Q2140.85 705.777 2126.81 706.725C2126.88 706.934 2126.96 707.141 2127.03 707.352C2131.21 720.706 2122.47 767.958 2129.64 775.506C2139.47 779.499 2186.16 779.386 2196.18 775.123C2196.83 774.848 2196.82 774.828 2197.32 774.5C2208.69 771.843 2219.74 766.686 2226.23 756.488C2230.53 749.717 2231.64 741.98 2229.75 734.207C2227.26 723.954 2220.12 715.573 2211.17 710.245C2197.4 702.05 2170.33 702.935 2154.87 704.498ZM2141.36 595.5C2135 598.703 2131.66 601.686 2129.37 608.575C2126.06 618.542 2128.43 635.125 2129.52 645.7C2129.76 648.064 2131.15 651.39 2130.82 653.594C2145.82 656.315 2186.94 659.828 2199.8 650.893C2199.97 650.775 2200.12 650.631 2200.28 650.5C2207.7 647.853 2213.41 642.942 2216.83 635.743C2218.33 632.583 2219.7 629.347 2219.02 625.81C2219.9 620.01 2217.55 614.125 2214.16 609.464C2208.24 601.318 2196.5 597.055 2186.91 595.692C2172.6 593.659 2155.75 594.135 2141.36 595.5Z"/>
	<path fill="#FEFEFE" transform="matrix(0.104603 0 0 0.104717 0 3.8147e-06)" d="M1235.23 297.5C1256.88 295.911 1303.4 294.789 1324.24 300.128C1342.98 304.925 1365.02 323.176 1374.68 339.865C1384.01 355.995 1385.98 375.576 1381.07 393.485C1377.04 408.142 1365.85 425.593 1352.5 433.156Q1356.37 434.25 1360.18 435.527C1374.15 440.288 1383.23 449.302 1389.59 462.483C1398.62 481.225 1399.02 501.431 1392.06 520.884C1385.62 538.902 1372.19 557.162 1354.5 565.498C1354.26 565.935 1354.23 566.041 1353.83 566.444C1345.53 574.639 1326.91 578.329 1315.65 579.827C1297.39 582.257 1278.33 581.302 1259.93 581.331C1234.58 581.37 1209.18 581.723 1183.85 581.111C1186.53 575.432 1183.59 550.942 1183.48 543.366C1182.89 502.294 1184.02 461.177 1184.2 420.109C1184.3 396.364 1182.1 363.383 1186.24 340.48C1187.76 332.105 1191.64 324.288 1196.95 317.659C1207.18 304.884 1219.24 299.239 1235.23 297.5ZM1243.75 456.499C1239.72 461.055 1241.04 508.005 1241.63 517.22C1241.86 520.841 1241.91 524.041 1244.61 526.622C1257.59 530.72 1309.85 529.027 1321.27 523.021C1322.87 522.176 1325.01 521.126 1325.89 519.5C1331.66 516.565 1334.79 510.959 1336.67 504.941C1339.46 496.033 1339.33 485.01 1334.93 476.631C1330.2 467.62 1321.05 462.576 1311.6 459.776C1294.17 454.609 1261.97 455.011 1243.75 456.499ZM1252.78 345.499C1247.05 349.345 1245.36 356.124 1244.11 362.603C1242.5 370.918 1239.05 395.267 1243.95 402.359C1245.19 404.139 1250.29 404.891 1252.3 405.16C1262.79 406.564 1299.92 407.429 1308.19 402.36C1311.62 401.349 1317.3 399.686 1319.27 396.441C1323.79 391.889 1325.3 385.115 1325.3 378.878C1325.3 370.802 1322.93 363.571 1317.15 357.773C1305.06 345.647 1289.02 344.653 1272.98 344.846C1266.27 344.926 1259.46 345.01 1252.78 345.499Z"/>
	<path fill="#FEFEFE" transform="matrix(0.104603 0 0 0.104717 0 3.8147e-06)" d="M2664.41 543.5C2686.58 542.468 2727.02 540.937 2747.78 546.419C2770.21 552.339 2789.94 569.86 2801.45 589.652Q2802.21 590.987 2802.91 592.357Q2803.61 593.728 2804.23 595.131Q2804.86 596.535 2805.42 597.968Q2805.98 599.4 2806.47 600.859Q2806.95 602.317 2807.37 603.798Q2807.78 605.279 2808.12 606.778Q2808.46 608.277 2808.73 609.792Q2809 611.306 2809.19 612.832Q2809.38 614.357 2809.5 615.891Q2809.61 617.424 2809.65 618.961Q2809.69 620.498 2809.66 622.035Q2809.62 623.572 2809.51 625.106Q2809.4 626.639 2809.21 628.166Q2809.03 629.692 2808.76 631.207Q2808.5 632.722 2808.17 634.223Q2807.83 635.723 2807.42 637.205C2804.12 649.245 2791.75 668.383 2780.85 674.671C2781.09 674.767 2781.33 674.859 2781.57 674.96C2796.73 681.437 2810.51 698.425 2816.71 713.373C2824.06 731.111 2824.29 752.759 2816.84 770.486C2808.66 789.965 2793.91 805.887 2774.21 813.966C2771.48 818.112 2760.81 822.083 2756.05 823.461C2738.69 828.49 2620.81 831.477 2608.71 824.78C2608.53 823.959 2608.35 823.114 2608.27 822.275C2607.41 812.817 2608.2 802.68 2608.2 793.125L2608.16 731.687Q2607.98 683.991 2608.41 636.299C2608.53 620.363 2607.22 602.508 2609.86 586.859C2610.91 580.647 2614.68 574.907 2618.57 570.07C2630.63 555.054 2645.19 545.661 2664.41 543.5ZM2670.65 704.5C2669.23 704.709 2667.42 704.551 2666.51 705.727C2661.07 712.755 2669.78 765.836 2664.6 776.663C2681.41 777.055 2734.87 780.774 2746.74 768.355C2746.94 768.137 2747.14 767.906 2747.34 767.681C2753.25 765.592 2757.67 759.67 2760.28 754.174C2764.15 746.018 2765.73 735.967 2762.44 727.346C2759.44 719.473 2752.72 713.852 2745.13 710.583C2723.47 701.251 2693.94 704.103 2670.65 704.5ZM2707.9 597.5C2694.45 597.641 2681.22 597.369 2668 600.216C2668.53 604.216 2666.58 609.815 2666.36 614.166C2665.95 622.186 2667.79 649.45 2665.58 655.492L2705.81 654.673C2716.93 654.356 2737.11 652.14 2744.95 643.238C2745.16 642.998 2745.34 642.736 2745.54 642.485C2749.39 638.526 2750.44 628.392 2750.34 623.171C2750.22 616.637 2748.41 610.335 2743.51 605.761C2734.61 597.456 2719.39 597.349 2707.9 597.5Z"/>
	<path fill="#FEFEFE" transform="matrix(0.104603 0 0 0.104717 0 3.8147e-06)" d="M102.288 800.116C95.4337 793.33 86.2788 773.419 81.4895 764.555Q78.5926 759.074 75.8336 753.523Q73.0746 747.971 70.4551 742.352Q67.8357 736.734 65.3576 731.051Q62.8794 725.369 60.544 719.626Q58.2086 713.883 56.0175 708.084Q53.8264 702.285 51.7809 696.433Q49.7354 690.581 47.8368 684.679Q45.9381 678.778 44.1876 672.831Q42.4371 666.884 40.8357 660.895Q39.2344 654.906 37.7832 648.879Q36.332 642.852 35.0319 636.79Q33.7318 630.729 32.5836 624.637Q31.4354 618.545 30.4399 612.426Q29.4443 606.307 28.6019 600.165Q27.7596 594.023 27.071 587.862Q26.3824 581.701 25.848 575.525C24.1982 555.038 24.8837 533.746 24.7867 513.165C24.6584 485.926 29.5448 461.788 34.6333 435.194C36.3706 426.115 37.5266 416.948 39.6561 407.942Q40.6708 403.62 41.7604 399.316Q42.8499 395.011 44.0139 390.727Q45.1778 386.442 46.4159 382.179Q47.654 377.915 48.9659 373.673Q50.2777 369.431 51.6629 365.213Q53.0481 360.995 54.5062 356.801Q55.9643 352.608 57.4949 348.44Q59.0255 344.272 60.6281 340.132Q62.2308 335.991 63.9049 331.879Q65.5791 327.767 67.3243 323.685Q69.0696 319.602 70.8853 315.551Q72.7011 311.499 74.5868 307.479Q76.4725 303.46 78.4276 299.474Q80.3828 295.487 82.4067 291.536Q84.4307 287.584 86.5228 283.668Q88.615 279.752 90.7747 275.873Q92.9345 271.994 95.1612 268.153Q97.3878 264.311 99.6808 260.509Q101.974 256.708 104.332 252.946Q106.691 249.184 109.114 245.464Q111.538 241.744 114.025 238.066Q116.513 234.389 119.063 230.755Q121.614 227.121 124.228 223.532Q126.841 219.943 129.517 216.399Q132.192 212.856 134.929 209.36Q137.665 205.863 140.462 202.415Q143.258 198.967 146.114 195.567Q148.97 192.168 151.885 188.818Q154.799 185.469 157.771 182.171Q160.743 178.872 163.772 175.626Q166.801 172.38 169.886 169.187Q172.97 165.993 176.11 162.854C226.767 111.814 294.948 67.9247 363.174 44.5464C418.405 25.621 479.671 17.5602 537.875 17.3293Q543.99 17.3397 550.102 17.4978Q556.215 17.6558 562.322 17.9616Q568.429 18.2673 574.527 18.7204Q580.625 19.1736 586.71 19.7739Q592.795 20.3743 598.864 21.1215Q604.932 21.8686 610.981 22.7622Q617.03 23.6558 623.056 24.6953Q629.082 25.7347 635.08 26.9194Q641.079 28.1042 647.048 29.4335Q653.016 30.7628 658.951 32.2359Q664.885 33.709 670.782 35.325Q676.68 36.9411 682.536 38.6991Q688.393 40.4572 694.205 42.3562Q700.017 44.2552 705.782 46.2941Q711.547 48.333 717.26 50.5105Q722.974 52.6881 728.634 55.0031Q734.293 57.318 739.895 59.769Q745.497 62.22 751.038 64.8057Q756.579 67.3913 762.056 70.1101Q767.533 72.8288 772.943 75.6791Q778.352 78.5293 783.692 81.5095Q789.031 84.4896 794.297 87.5978Q799.562 90.7061 804.751 93.9407Q809.94 97.1752 815.05 100.534Q820.159 103.893 825.186 107.375Q830.213 110.856 835.154 114.458Q840.095 118.06 844.948 121.78Q849.801 125.5 854.562 129.336Q859.324 133.173 863.991 137.123Q868.659 141.073 873.229 145.135Q877.8 149.197 882.271 153.368Q886.742 157.539 891.111 161.817Q894.708 165.4 898.234 169.052Q901.761 172.705 905.214 176.426Q908.668 180.148 912.047 183.936Q915.427 187.725 918.732 191.579Q922.036 195.433 925.264 199.352Q928.492 203.271 931.642 207.252Q934.793 211.233 937.864 215.276Q940.936 219.318 943.927 223.42Q946.918 227.523 949.828 231.683Q952.738 235.843 955.566 240.06Q958.393 244.276 961.137 248.548Q963.881 252.819 966.541 257.144Q969.2 261.469 971.774 265.845Q974.348 270.221 976.836 274.647Q979.323 279.073 981.723 283.546Q984.123 288.02 986.434 292.541Q988.745 297.061 990.967 301.626Q993.189 306.191 995.321 310.799Q997.453 315.406 999.493 320.055Q1001.53 324.704 1003.48 329.392Q1005.43 334.08 1007.29 338.806Q1009.14 343.531 1010.91 348.292Q1012.67 353.053 1014.34 357.848Q1016.01 362.643 1017.58 367.469Q1019.16 372.296 1020.63 377.153Q1022.11 382.01 1023.5 386.895Q1024.88 391.779 1026.17 396.691Q1027.45 401.602 1028.64 406.537Q1029.83 411.473 1030.93 416.431Q1032.02 421.389 1033.01 426.367Q1034.01 431.346 1034.91 436.343Q1035.8 441.34 1036.6 446.354C1040.9 474.923 1041.91 503.089 1041.99 531.939Q1042.03 538.134 1041.93 544.329Q1041.82 550.524 1041.56 556.714Q1041.29 562.904 1040.88 569.085Q1040.47 575.267 1039.9 581.436Q1039.33 587.606 1038.61 593.759Q1037.89 599.913 1037.02 606.047Q1036.15 612.181 1035.12 618.291Q1034.1 624.402 1032.93 630.485Q1031.75 636.569 1030.43 642.621Q1029.11 648.673 1027.63 654.691Q1026.16 660.709 1024.54 666.689Q1022.92 672.668 1021.15 678.606Q1019.38 684.544 1017.46 690.436Q1015.55 696.328 1013.49 702.171Q1011.43 708.014 1009.22 713.804Q1007.02 719.594 1004.67 725.328Q1002.33 731.062 999.84 736.736Q997.352 742.41 994.725 748.021Q992.098 753.632 989.333 759.177Q986.568 764.721 983.666 770.195Q980.765 775.669 977.729 781.07Q974.693 786.471 971.525 791.795Q968.356 797.119 965.057 802.363Q961.758 807.607 958.33 812.768Q954.902 817.929 951.348 823.003Q947.794 828.078 944.115 833.063Q940.436 838.048 936.635 842.941Q932.834 847.833 928.913 852.63Q924.993 857.427 920.955 862.126Q916.917 866.825 912.763 871.422Q908.61 876.02 904.345 880.513Q900.079 885.007 895.704 889.393C879.293 905.901 820.91 957.713 801.088 965.592C784.048 978.239 762.807 989.166 743.372 997.536Q737.277 1000.1 731.121 1002.52Q724.964 1004.93 718.75 1007.2Q712.536 1009.46 706.269 1011.57Q700.001 1013.68 693.683 1015.64Q687.366 1017.59 681.002 1019.39Q674.638 1021.19 668.232 1022.84Q661.825 1024.48 655.381 1025.96Q648.936 1027.45 642.457 1028.77Q635.977 1030.1 629.467 1031.26Q622.957 1032.43 616.421 1033.44Q609.884 1034.44 603.325 1035.29Q596.765 1036.13 590.187 1036.81Q583.609 1037.49 577.016 1038.01Q570.423 1038.54 563.82 1038.89Q557.216 1039.25 550.605 1039.45Q543.995 1039.64 537.381 1039.68Q530.768 1039.71 524.156 1039.58Q517.544 1039.45 510.937 1039.16Q504.329 1038.87 497.732 1038.41Q491.134 1037.96 484.549 1037.34Q477.965 1036.72 471.397 1035.95Q464.83 1035.17 458.283 1034.23Q451.737 1033.29 445.216 1032.19Q438.694 1031.09 432.202 1029.83Q425.71 1028.56 419.251 1027.15Q412.791 1025.73 406.369 1024.15Q399.947 1022.57 393.565 1020.83Q387.183 1019.1 380.846 1017.2Q374.509 1015.31 368.221 1013.26Q361.932 1011.22 355.696 1009.02Q349.46 1006.81 343.28 1004.46Q337.099 1002.11 330.979 999.6C253.959 968.709 181.454 907.814 130.601 842.724C120.612 829.937 108.658 814.997 102.288 800.116ZM510.649 77.3815C486.733 79.4661 463.026 81.2234 439.514 86.3956C363.726 103.068 286.03 144.468 228.722 196.719C214.072 210.076 200.535 225.41 187.821 240.6Q184.312 244.856 180.908 249.197Q177.505 253.537 174.209 257.961Q170.913 262.384 167.727 266.887Q164.542 271.39 161.468 275.97Q158.393 280.55 155.433 285.204Q152.473 289.859 149.628 294.584Q146.783 299.31 144.055 304.104Q141.327 308.899 138.718 313.759Q136.109 318.619 133.62 323.542Q131.132 328.464 128.765 333.447Q126.398 338.429 124.155 343.469Q121.912 348.508 119.793 353.601Q117.674 358.694 115.681 363.837Q113.689 368.981 111.823 374.172Q109.958 379.363 108.22 384.598Q106.483 389.833 104.875 395.11Q103.267 400.386 101.79 405.701Q100.312 411.015 98.9659 416.364Q97.6196 421.714 96.4053 427.094Q95.1911 432.475 94.1096 437.884Q93.0281 443.293 92.08 448.727Q91.132 454.161 90.3179 459.617Q89.5039 465.072 88.8243 470.546Q88.1448 476.02 87.6002 481.509Q87.0555 486.998 86.6461 492.499Q86.2368 498 85.9629 503.509Q85.689 509.018 85.5508 514.533Q85.4125 520.047 85.41 525.563Q85.4075 531.079 85.5408 536.594Q85.674 542.108 85.943 547.618Q86.2119 553.127 86.6163 558.628Q87.0207 564.129 87.5604 569.619C89.6407 592.522 92.0913 615.901 97.4658 638.281C118.991 727.912 174.748 814.988 245.422 873.748C268.161 892.655 291.239 908.348 316.903 923.034C378.37 958.208 430.213 971.842 500.558 975.198C518.864 976.071 537.282 976.86 555.61 976.283Q560.955 976.128 566.295 975.841Q571.635 975.554 576.966 975.136Q582.297 974.718 587.617 974.169Q592.936 973.62 598.24 972.94Q603.544 972.26 608.83 971.45Q614.116 970.64 619.38 969.701Q624.645 968.761 629.885 967.692Q635.124 966.623 640.336 965.426Q645.548 964.228 650.728 962.903Q655.909 961.578 661.056 960.125Q666.202 958.673 671.312 957.095Q676.421 955.516 681.49 953.813Q686.559 952.109 691.584 950.281Q696.61 948.453 701.589 946.503Q706.568 944.552 711.497 942.479Q716.427 940.406 721.304 938.213Q726.181 936.02 731.003 933.707Q735.825 931.395 740.588 928.964Q745.351 926.534 750.053 923.987Q754.755 921.44 759.393 918.778Q764.032 916.117 768.603 913.342Q773.174 910.567 777.676 907.68Q782.177 904.793 786.606 901.797Q791.035 898.801 795.39 895.696Q799.744 892.592 804.02 889.381Q808.297 886.17 812.493 882.856Q816.689 879.541 820.803 876.124Q824.916 872.707 828.944 869.189Q832.972 865.672 836.913 862.057Q840.853 858.442 844.704 854.731Q848.554 851.02 852.312 847.215Q856.07 843.411 859.733 839.515C912.069 783.534 953.158 712.766 970.865 637.747C980.036 598.891 983.094 553.673 981.741 513.888Q981.528 508.317 981.178 502.752Q980.828 497.188 980.341 491.634Q979.855 486.08 979.232 480.539Q978.61 474.998 977.851 469.475Q977.093 463.951 976.199 458.448Q975.305 452.945 974.277 447.465Q973.248 441.985 972.085 436.532Q970.922 431.08 969.626 425.657Q968.33 420.234 966.901 414.845Q965.472 409.456 963.911 404.104Q962.35 398.751 960.658 393.439Q958.967 388.126 957.145 382.857Q955.323 377.587 953.373 372.364Q951.422 367.141 949.344 361.967Q947.266 356.794 945.062 351.672Q942.858 346.551 940.528 341.486Q938.199 336.42 935.746 331.414Q933.292 326.407 930.717 321.462Q928.142 316.517 925.446 311.637Q922.75 306.756 919.935 301.944Q917.121 297.131 914.189 292.389Q911.256 287.647 908.209 282.978Q905.161 278.309 902 273.717Q898.839 269.124 895.565 264.61Q892.292 260.097 888.91 255.665Q885.527 251.233 882.036 246.886Q878.546 242.538 874.949 238.278Q871.353 234.017 867.653 229.846Q863.953 225.675 860.152 221.596Q856.351 217.518 852.451 213.533Q848.551 209.549 844.555 205.662Q840.558 201.774 836.467 197.986C761.254 127.732 679.43 89.9857 576.574 80.2577C555.664 78.2801 534.064 76.6609 513.049 77.2836Q511.848 77.3198 510.649 77.3815Z"/>
	<path fill="#FEFEFE" transform="matrix(0.104603 0 0 0.104717 0 3.8147e-06)" d="M329.706 260.99C347.78 260.416 368.395 266.695 385.923 270.986C417.684 278.762 459.994 290.967 491.813 294.222C508.803 295.96 526.747 294.815 543.85 294.664L634.548 293.963C651.526 293.894 669.076 292.952 685.885 295.731C699.885 298.044 750.169 318.439 762.182 326.294Q763.862 348.914 764.96 371.57Q783.001 389.68 802.73 405.935C822.238 421.952 906.271 485.757 916.95 503.306C919.171 506.956 918.613 512.247 917.568 516.197C913.164 532.84 898.888 542.603 884.922 550.589C886.18 565.129 885.466 580.193 885.406 594.799L885.092 668.185C893.874 670.211 903.299 670.344 911.734 673.637C917.34 679.987 912.774 714.569 912.179 724.594C892.365 726.361 872.006 726.17 852.111 726.72L744.5 729.681C682.303 731.066 619.921 733.339 557.723 733.572Q439.009 733.244 320.333 730.234L238.237 728.933C215.614 728.442 190.715 728.862 168.718 723.353C168.776 712.66 165.743 694.986 169.511 685.255C173.392 675.233 186.511 671.134 195.558 667.322C196.456 645.863 195.811 624.185 195.783 602.704Q195.979 556.496 195.302 510.292C181.133 499.318 168.614 486.338 156.096 473.562C171.058 452.583 189.199 433.741 205.299 413.625L283.497 316.676C293.881 303.673 319.077 269.374 329.706 260.99ZM336.966 323.145C313.974 348.203 290.59 378.729 269.397 405.598C265.025 411.14 249.617 434.016 246.17 436.109L244.991 609.4C244.839 629.358 246.939 661.253 244.535 679.163C273.964 678.609 303.814 681.305 333.214 682.695Q387.905 685.109 442.639 686.155C451.643 686.401 478.458 689.25 486 686.057C482.2 666.567 484.489 641.376 484.534 621.335C484.644 571.198 485.587 521.217 486.426 471.103C467.373 443.869 439.392 420.825 414.794 398.547C401.536 386.54 388.589 374.199 375.439 362.073C361.989 349.672 348.08 337.772 336.966 323.145ZM534.042 499.712C531.684 520.018 533.184 542.116 533.105 562.628C532.944 604.014 532.665 645.216 534.084 686.591C634.381 687.809 734.928 679.561 835.25 678.995L839.984 678.643C843.892 672.75 837.641 556.93 840.437 534.543C772.618 527.267 705.211 517.63 637.51 509.555C603.124 505.453 568.771 499.74 534.042 499.712ZM412.701 329.95C412.103 332.001 411.094 334.005 412.231 336.067C418.704 347.799 508.109 431.575 521.978 441.439C525.649 444.05 529.445 444.858 533.854 445.625C555.899 449.462 578.692 451.055 600.911 454.012C616.385 456.072 635.937 460.355 651.023 460.805C653.103 421.78 651.595 382.541 652.404 343.445C593.821 343.303 534.696 344.59 476.226 340.605Q461.896 339.677 447.854 336.672C436.859 334.376 423.872 328.862 412.701 329.95ZM684.348 345.283C681.684 383.436 683.644 423.58 683.68 461.961C691.569 465.004 725.687 473.116 733.161 471.341C735.545 436.171 734.874 399.994 734.805 364.714C727.351 362.163 719.864 359.637 712.59 356.604C704.011 353.027 693.445 346.547 684.348 345.283ZM764.692 437.3C764.112 448.744 761.863 461.455 762.942 472.76C769.724 479.118 806.194 482.263 816.636 482.239C817.435 480.066 818.077 478.899 817.055 476.608C813.915 469.568 772.141 439.619 764.692 437.3Z"/>
	<path fill="#C3C7CA" transform="matrix(0.104603 0 0 0.104717 0 3.8147e-06)" d="M244.535 679.163L243.419 678.788C242.683 677.779 242.481 677.219 242.452 675.971C241.76 645.704 243.232 615.343 242.032 585.067L239.547 512.026C238.797 494.414 236.507 475.097 238.575 457.553C239.266 451.693 241.283 439.984 246.17 436.109L244.991 609.4C244.839 629.358 246.939 661.253 244.535 679.163Z"/>
</svg>
