<svg width="42" height="42" viewBox="0 0 42 42" fill="none" xmlns="http://www.w3.org/2000/svg">
<path d="M11.8462 4C8.96923 4 6.61538 6.475 6.61538 9.5V16.375H4V20.5H6.61538V35.625C6.61538 36.3813 7.20385 37 7.92308 37H11.8462L12.296 35.625H29.704L30.1538 37H34.0769C34.7962 37 35.3846 36.3813 35.3846 35.625V20.5H38V16.375H35.3846V9.5C35.3846 6.475 33.0308 4 30.1538 4H11.8462ZM11.8462 6.75H30.1538C31.6145 6.75 32.7692 7.96413 32.7692 9.5H9.23077C9.23077 7.96413 10.3855 6.75 11.8462 6.75ZM9.23077 12.25H19.6923V21.875H9.23077V12.25ZM22.3077 12.25H32.7692V21.875H22.3077V12.25ZM9.23077 24.625H32.7692V32.875H9.23077V24.625ZM10.5385 27.375V30.125H15.7692V27.375H10.5385ZM26.2308 27.375V30.125H31.4615V27.375H26.2308Z" fill="#14202B"/>
</svg>
