<svg xmlns="http://www.w3.org/2000/svg" width="42" height="42" fill="none" xmlns:v="https://vecta.io/nano"><path d="M11.846 4C8.969 4 6.615 6.475 6.615 9.5v6.875H4V20.5h2.615v15.125c0 .756.588 1.375 1.308 1.375h3.923l.45-1.375h17.408l.45 1.375h3.923c.719 0 1.308-.619 1.308-1.375V20.5H38v-4.125h-2.615V9.5c0-3.025-2.354-5.5-5.231-5.5H11.846zm0 2.75h18.308c1.461 0 2.615 1.214 2.615 2.75H9.231c0-1.536 1.155-2.75 2.615-2.75zm-2.615 5.5h10.462v9.625H9.231V12.25zm13.077 0h10.461v9.625H22.308V12.25zM9.231 24.625h23.538v8.25H9.231v-8.25zm1.308 2.75v2.75h5.231v-2.75h-5.231zm15.692 0v2.75h5.231v-2.75h-5.231z" fill="#14202b"/></svg>