<svg width="26" height="24" viewBox="0 0 26 24" fill="none" xmlns="http://www.w3.org/2000/svg">
<path d="M20.1093 14.4976C19.6054 13.9992 18.994 13.7339 18.3432 13.7361C17.6976 13.7383 17.0756 14.0027 16.5403 14.5046L14.8657 16.0697C14.73 16.0008 14.5942 15.9369 14.4636 15.873C14.2756 15.7845 14.098 15.7009 13.9467 15.6123C12.4027 14.6867 11.0033 13.4784 9.66536 11.9135C9.01734 11.1335 8.58323 10.4764 8.26995 9.80914C8.70415 9.43638 9.10702 9.04887 9.49924 8.67625C9.64763 8.53713 9.79607 8.39306 9.94445 8.25394C11.0574 7.21055 11.0712 5.86389 9.97972 4.82787L8.56076 3.48104C8.39964 3.32811 8.23331 3.17024 8.07749 3.01233C7.76573 2.70642 7.43833 2.39067 7.10023 2.09475C6.59601 1.62116 5.98978 1.37069 5.34945 1.37283C4.70912 1.37497 4.08719 1.62954 3.55744 2.10659C3.55214 2.11156 3.55214 2.11156 3.54684 2.11652L1.74484 3.82067C1.0665 4.45664 0.675405 5.23027 0.582204 6.12668C0.441358 7.57278 0.878875 8.91794 1.21621 9.79806C2.04421 11.9588 3.29373 13.9597 5.16635 16.1021C7.43858 18.6838 10.1835 20.7193 13.3284 22.1494C14.53 22.6851 16.1347 23.3183 17.9339 23.4213C18.044 23.4258 18.1594 23.4304 18.2644 23.43C19.4768 23.426 20.4993 23.0117 21.3055 22.1921C21.3108 22.1822 21.3214 22.1772 21.3267 22.1673C21.6029 21.8544 21.9207 21.5712 22.2545 21.2681C22.4822 21.0643 22.7154 20.8507 22.9434 20.6271C23.4682 20.1154 23.7473 19.5204 23.7535 18.9114C23.7598 18.2975 23.4877 17.7093 22.9627 17.2159L20.1093 14.4976ZM21.9347 19.7047C21.9294 19.7047 21.9294 19.7096 21.9347 19.7047C21.7278 19.9133 21.5159 20.1021 21.2881 20.3108C20.9438 20.6189 20.5941 20.9419 20.2649 21.3044C19.7293 21.8409 19.1022 22.0955 18.2834 22.0982C18.2046 22.0985 18.1207 22.0988 18.042 22.0941C16.4841 22.0052 15.0414 21.4357 13.96 20.9492C11.0033 19.6026 8.41456 17.6854 6.27202 15.2518C4.5032 13.2229 3.32589 11.3456 2.55414 9.32821C2.07871 8.09705 1.91015 7.13716 1.9982 6.23087C2.05665 5.65143 2.29778 5.17039 2.73764 4.75801L4.54478 3.06374C4.80431 2.83514 5.07851 2.71045 5.34619 2.70956C5.67685 2.70845 5.94259 2.8957 6.10891 3.05357C6.11411 3.0585 6.11931 3.06343 6.1245 3.06837C6.44176 3.3495 6.74318 3.64059 7.06013 3.95143C7.2212 4.10932 7.38753 4.26719 7.5538 4.43001L8.97275 5.77684C9.5237 6.29978 9.51871 6.78498 8.95695 7.31164C8.80327 7.45573 8.65483 7.59979 8.50119 7.73893C8.05593 8.16619 7.63197 8.56367 7.17137 8.95137C7.16077 8.96131 7.15022 8.96629 7.14487 8.97621C6.68911 9.4035 6.7688 9.81911 6.86037 10.101C6.86547 10.1158 6.87057 10.1307 6.87566 10.1455C7.23955 10.9958 7.75615 11.7961 8.5441 12.749L8.54929 12.7539C9.98058 14.4324 11.4944 15.7393 13.1689 16.7387C13.3827 16.8667 13.6021 16.97 13.811 17.0683C13.9991 17.1568 14.1766 17.2404 14.3279 17.329C14.3488 17.3388 14.3697 17.3536 14.3906 17.3634C14.5681 17.447 14.7357 17.486 14.9089 17.4854C15.3445 17.484 15.6201 17.2256 15.7102 17.1412L17.5226 15.4419C17.7028 15.273 17.9883 15.0691 18.319 15.068C18.6444 15.0669 18.9101 15.2591 19.0711 15.4269C19.0763 15.4318 19.0763 15.4318 19.0815 15.4367L21.9454 18.155C22.4808 18.6582 22.4754 19.1781 21.9347 19.7047Z" fill="white"/>
<path d="M13.9895 5.60132C15.3624 5.81458 16.6053 6.42433 17.5929 7.3617C18.5805 8.29907 19.2139 9.47526 19.4368 10.7717C19.4911 11.0982 19.788 11.325 20.1291 11.3238C20.1711 11.3237 20.2079 11.3186 20.25 11.3135C20.639 11.2528 20.8997 10.9054 20.8405 10.5392C20.5733 8.97068 19.8007 7.54246 18.6104 6.41268C17.4201 5.2829 15.9109 4.54531 14.2498 4.28352C13.862 4.2254 13.4973 4.46922 13.4254 4.83087C13.3534 5.19253 13.6017 5.54321 13.9895 5.60132Z" fill="white"/>
<path d="M25.3399 10.3477C24.8994 7.7648 23.6324 5.41736 21.6676 3.55249C19.7029 1.68762 17.2223 0.477989 14.487 0.0465019C14.1045 -0.0165814 13.7398 0.232182 13.6678 0.593838C13.6011 0.960427 13.8547 1.30119 14.2425 1.36426C16.6844 1.74722 18.9038 2.83394 20.6607 4.49652C22.4175 6.16405 23.5506 8.2644 23.9415 10.5702C23.9959 10.8968 24.2927 11.1235 24.6339 11.1224C24.6759 11.1222 24.7127 11.1172 24.7547 11.1121C25.1384 11.0563 25.4044 10.7089 25.3399 10.3477Z" fill="white"/>
</svg>