<svg width="14" height="12" viewBox="0 0 14 12" fill="none" xmlns="http://www.w3.org/2000/svg">
<path d="M5.1718 9.14513H8.82915C8.89011 9.14513 8.93998 9.0915 8.93998 9.02594V7.77444C8.93998 7.70888 8.89011 7.65525 8.82915 7.65525H8.27501C8.21405 7.65525 8.16418 7.70888 8.16418 7.77444V8.3108H5.83678V7.77444C5.83678 7.70888 5.7869 7.65525 5.72595 7.65525H5.1718C5.11085 7.65525 5.06098 7.70888 5.06098 7.77444V9.02594C5.06098 9.0915 5.11085 9.14513 5.1718 9.14513ZM9.88203 7.31257C9.88203 7.47063 9.94041 7.62221 10.0443 7.73398C10.1483 7.84574 10.2892 7.90853 10.4362 7.90853C10.5831 7.90853 10.7241 7.84574 10.828 7.73398C10.9319 7.62221 10.9903 7.47063 10.9903 7.31257C10.9903 7.15452 10.9319 7.00293 10.828 6.89117C10.7241 6.77941 10.5831 6.71662 10.4362 6.71662C10.2892 6.71662 10.1483 6.77941 10.0443 6.89117C9.94041 7.00293 9.88203 7.15452 9.88203 7.31257ZM13.193 4.81552L12.8647 4.19871C12.8499 4.17152 12.8258 4.15171 12.7975 4.14362C12.7692 4.13552 12.7391 4.1398 12.7137 4.1555L12.0113 4.59651L10.9266 1.37538C10.8693 1.18317 10.7567 1.01552 10.6051 0.896614C10.4534 0.777711 10.2706 0.713716 10.0829 0.713867H4.08014C3.59942 0.713867 3.17273 1.0476 3.0245 1.54075L1.99102 4.598L1.28726 4.15699C1.26188 4.14129 1.23176 4.13701 1.20347 4.14511C1.17518 4.1532 1.15101 4.17301 1.13625 4.2002L0.807921 4.81552C0.777443 4.87214 0.795453 4.94365 0.848096 4.97643L1.68485 5.50087L1.48398 6.09683C1.46735 6.1445 1.45904 6.19516 1.45904 6.24581V11.4336C1.45904 11.6675 1.62251 11.8567 1.82339 11.8567H2.75989C2.93029 11.8567 3.07853 11.7182 3.11454 11.5245L3.22122 10.9628H10.7797L10.8864 11.5245C10.9238 11.7182 11.0707 11.8567 11.2411 11.8567H12.1776C12.3784 11.8567 12.5419 11.6675 12.5419 11.4336V6.24581C12.5419 6.19516 12.5336 6.1445 12.517 6.09683L12.3161 5.50087L13.1515 4.97643C13.1766 4.96081 13.1951 4.93521 13.2028 4.90511C13.2106 4.87502 13.2071 4.84285 13.193 4.81552ZM11.5445 6.35905V9.89008H2.4565V6.35905L2.67262 5.71839H11.3283L11.5445 6.35905ZM3.96238 1.90578L3.96931 1.88641L3.97485 1.86704C3.99009 1.81787 4.03165 1.7851 4.08014 1.7851H10.0039L11.0485 4.88406H2.95523L3.96238 1.90578ZM3.01064 7.31257C3.01064 7.47063 3.06903 7.62221 3.17295 7.73398C3.27687 7.84574 3.41782 7.90853 3.56479 7.90853C3.71175 7.90853 3.8527 7.84574 3.95663 7.73398C4.06055 7.62221 4.11893 7.47063 4.11893 7.31257C4.11893 7.15452 4.06055 7.00293 3.95663 6.89117C3.8527 6.77941 3.71175 6.71662 3.56479 6.71662C3.41782 6.71662 3.27687 6.77941 3.17295 6.89117C3.06903 7.00293 3.01064 7.15452 3.01064 7.31257Z" fill="white"/>
</svg>