<svg xmlns="http://www.w3.org/2000/svg" width="42" height="42" fill="#14202b" xmlns:v="https://vecta.io/nano"><path d="M21 9.188a1.31 1.31 0 0 0-1.312-1.312 1.31 1.31 0 0 0-1.312 1.312v14.438a1.31 1.31 0 0 0 .662 1.139l9.188 5.25c.302.163.655.201.984.108a1.31 1.31 0 0 0 .779-.611c.17-.298.217-.65.131-.982a1.31 1.31 0 0 0-.592-.793L21 22.864V9.188zM21 42a21 21 0 1 0 0-42 21 21 0 1 0 0 42zm18.375-21c0 4.873-1.936 9.547-5.382 12.993S25.873 39.375 21 39.375s-9.547-1.936-12.993-5.382S2.625 25.873 2.625 21s1.936-9.547 5.382-12.993S16.127 2.625 21 2.625s9.547 1.936 12.993 5.382 5.382 8.12 5.382 12.993z"/></svg>