<svg xmlns="http://www.w3.org/2000/svg" width="49" height="33" fill="none" xmlns:v="https://vecta.io/nano"><path d="M48.783 11.256c0 4.128-1.824 8.784-5.472 13.968S36.927 33 35.103 33c-1.728 0-2.592-.576-2.592-1.728 0-.48.432-2.112 1.296-4.896.768-2.688 1.152-4.656 1.152-5.904s-.336-2.064-1.008-2.448c-3.072-2.112-4.608-5.232-4.608-9.36 0-2.496.96-4.512 2.88-6.048 1.824-1.536 4.224-2.304 7.2-2.304 6.24 0 9.36 3.648 9.36 10.944zm-28.8 0c0 4.128-1.824 8.784-5.472 13.968S8.127 33 6.303 33c-1.728 0-2.592-.576-2.592-1.728 0-.48.432-2.112 1.296-4.896.768-2.688 1.152-4.656 1.152-5.904s-.336-2.064-1.008-2.448C2.079 15.912.543 12.792.543 8.664c0-2.496.96-4.512 2.88-6.048C5.247 1.08 7.647.312 10.623.312c6.24 0 9.36 3.648 9.36 10.944z" fill="#edf1f4"/></svg>