<svg xmlns="http://www.w3.org/2000/svg" width="24" height="24" fill="#fff" xmlns:v="https://vecta.io/nano"><path d="M17.178 8.467H4.823a.83.83 0 0 0-.582.239.81.81 0 0 0-.241.575v7.904a.81.81 0 0 0 .241.576c.154.153.363.239.582.239h12.355a.83.83 0 0 0 .582-.239.81.81 0 0 0 .241-.576V9.281a.81.81 0 0 0-.241-.576c-.154-.153-.363-.239-.582-.239zm-.052 8.667H4.875v-7.8h12.25v7.8zM6.87 12.562a1.32 1.32 0 0 0 .729-.219 1.3 1.3 0 0 0 .483-.583 1.29 1.29 0 0 0 .075-.751c-.051-.252-.176-.484-.359-.666a1.31 1.31 0 0 0-.672-.356c-.255-.05-.519-.024-.758.074a1.31 1.31 0 0 0-.589.479 1.29 1.29 0 0 0-.221.722c0 .345.138.675.384.919a1.32 1.32 0 0 0 .928.381zm0-1.993c.139-.004.276.034.394.108s.21.181.266.307.072.266.047.402a.69.69 0 0 1-.187.359.7.7 0 0 1-.358.195.71.71 0 0 1-.407-.037.7.7 0 0 1-.317-.255.69.69 0 0 1 .08-.871.7.7 0 0 1 .484-.209zm-.288 5.698l2.625-2.6 1.391 1.378-1.234 1.222h.875l3.264-3.233 2.747 2.7v-.867l-2.537-2.5c-.058-.057-.137-.089-.219-.089s-.161.032-.219.089l-2.257 2.236-1.606-1.586c-.058-.057-.137-.089-.219-.089s-.161.032-.219.089l-3.259 3.25h.866zm9.729-10.834a.43.43 0 0 0-.128-.306.44.44 0 0 0-.309-.127H6.249a.44.44 0 0 0-.309.127.43.43 0 0 0-.128.306v.433h10.5v-.433zm.867 1.734a.43.43 0 0 0-.128-.306.44.44 0 0 0-.309-.127H5.365a.44.44 0 0 0-.309.127.43.43 0 0 0-.128.306V7.6h12.25v-.433z"/></svg>