<svg xmlns="http://www.w3.org/2000/svg" width="11" height="14" fill="#fff" xmlns:v="https://vecta.io/nano"><path d="M7.315 6.889a.66.66 0 0 1-.165.442c-.105.117-.249.183-.398.183s-.292-.066-.398-.183a.66.66 0 0 1-.165-.442.66.66 0 0 1 .165-.442c.105-.117.249-.183.398-.183s.292.066.398.183a.66.66 0 0 1 .165.442zM5.153.232a.34.34 0 0 0-.166.002.36.36 0 0 0-.149.081.4.4 0 0 0-.103.145C4.711.517 4.7.577 4.7.639v12.5c0 .062.012.123.037.18a.41.41 0 0 0 .103.145c.044.039.094.067.149.081a.34.34 0 0 0 .166.002l5.25-1.251c.084-.02.159-.072.213-.146s.083-.167.083-.262V1.889c0-.095-.03-.187-.084-.261a.37.37 0 0 0-.213-.145L5.153.233V.232zm.296 12.391V1.155l4.5 1.071v9.327l-4.5 1.072v-.001zm-1.498.096v-.833H.95V1.89h3.001v-.833H.575c-.099 0-.195.044-.265.122a.44.44 0 0 0-.11.295v10.829a.44.44 0 0 0 .11.295c.07.078.166.122.265.122h3.376z"/></svg>