<svg xmlns="http://www.w3.org/2000/svg" width="24" height="24" fill="#fff" xmlns:v="https://vecta.io/nano"><path d="M12.75 16.5v-6h-3V12h1.5v4.5H9V18h6v-1.5h-2.25zM12 6a1.12 1.12 0 0 0-.625.19c-.185.124-.329.299-.414.505a1.13 1.13 0 0 0-.064.65c.043.218.151.419.308.576a1.13 1.13 0 0 0 .576.308 1.12 1.12 0 0 0 .65-.064c.206-.085.381-.229.505-.414s.19-.403.19-.625a1.12 1.12 0 0 0-.329-.795C12.586 6.121 12.298 6 12 6zm7.5 15h-15A1.5 1.5 0 0 1 3 19.5v-15A1.5 1.5 0 0 1 4.5 3h15A1.5 1.5 0 0 1 21 4.5v15a1.5 1.5 0 0 1-1.5 1.5zM4.5 4.5v15h15v-15h-15z"/></svg>