<?xml version="1.0" encoding="utf-8" ?>
<svg xmlns="http://www.w3.org/2000/svg" xmlns:xlink="http://www.w3.org/1999/xlink" width="200" height="200">
	<path fill="#1D3A67" transform="scale(0.281294 0.282486)" d="M0 86.0719C56.9963 85.4167 114.07 85.9876 171.075 85.9893L497.142 85.9953L637.732 85.9909L683.498 85.9942C691.573 85.9934 699.823 86.3301 707.875 85.8849C708.465 89.8553 708.571 129.951 707.891 133.285C702.843 132.319 696.113 132.997 690.859 133.003L655.516 133.035L518.339 133.03L0 133.054L0 86.0719Z"/>
	<path fill="#1D3A67" transform="scale(0.281294 0.282486)" d="M702.52 326.045C704.307 325.987 706.087 325.933 707.875 325.964C708.485 329.612 708.576 369.859 707.877 373.277C702.796 372.316 696.012 372.993 690.726 372.997L654.34 373.024L516 373.026L2.23118 373.027L0 373.104L0 326.041L451.834 325.984L618.759 325.978L673.64 325.976C683.224 325.976 692.95 325.637 702.52 326.045Z"/>
	<path fill="#1D3A67" transform="scale(0.281294 0.282486)" d="M0 575.034L707.875 574.96C708.482 578.483 708.57 618.824 707.875 622.258C701.073 621.309 691.633 622.016 684.519 622.028L637.749 622.035L471.497 622.034L157.344 622.025L53.3018 622.025C35.5967 622.026 17.6791 621.464 0 622.101L0 575.034Z"/>
</svg>
