<svg width="42" height="43" viewBox="0 0 42 43" fill="none" xmlns="http://www.w3.org/2000/svg">
<mask id="path-1-inside-1" fill="white">
<path d="M29.2075 27.1792C29.2075 25.1016 28.8298 23.0444 28.0959 21.1249C27.362 19.2054 26.2863 17.4614 24.9302 15.9923C23.5741 14.5232 21.9642 13.3578 20.1924 12.5628C18.4206 11.7677 16.5216 11.3585 14.6038 11.3585C12.686 11.3585 10.787 11.7677 9.01515 12.5628C7.24334 13.3578 5.63343 14.5232 4.27735 15.9923C2.92126 17.4614 1.84555 19.2054 1.11165 21.1249C0.377737 23.0444 -1.67659e-07 25.1016 0 27.1792L14.6038 27.1792H29.2075Z"/>
</mask>
<path d="M29.2075 27.1792C29.2075 25.1016 28.8298 23.0444 28.0959 21.1249C27.362 19.2054 26.2863 17.4614 24.9302 15.9923C23.5741 14.5232 21.9642 13.3578 20.1924 12.5628C18.4206 11.7677 16.5216 11.3585 14.6038 11.3585C12.686 11.3585 10.787 11.7677 9.01515 12.5628C7.24334 13.3578 5.63343 14.5232 4.27735 15.9923C2.92126 17.4614 1.84555 19.2054 1.11165 21.1249C0.377737 23.0444 -1.67659e-07 25.1016 0 27.1792L14.6038 27.1792H29.2075Z" fill="white" stroke="#073762" stroke-width="6" mask="url(#path-1-inside-1)"/>
<circle cx="14.1981" cy="8.51887" r="7.01887" fill="white" stroke="#073762" stroke-width="3"/>
<mask id="path-3-inside-2" fill="white">
<path d="M41.3774 27.1792C41.3774 25.1016 40.9996 23.0444 40.2657 21.1249C39.5318 19.2054 38.4561 17.4614 37.1 15.9923C35.7439 14.5232 34.134 13.3578 32.3622 12.5628C30.5904 11.7677 28.6914 11.3585 26.7736 11.3585C24.8558 11.3585 22.9568 11.7677 21.185 12.5628C19.4132 13.3578 17.8032 14.5232 16.4472 15.9923C15.0911 17.4614 14.0154 19.2054 13.2815 21.1249C12.5475 23.0444 12.1698 25.1016 12.1698 27.1792L26.7736 27.1792H41.3774Z"/>
</mask>
<path d="M41.3774 27.1792C41.3774 25.1016 40.9996 23.0444 40.2657 21.1249C39.5318 19.2054 38.4561 17.4614 37.1 15.9923C35.7439 14.5232 34.134 13.3578 32.3622 12.5628C30.5904 11.7677 28.6914 11.3585 26.7736 11.3585C24.8558 11.3585 22.9568 11.7677 21.185 12.5628C19.4132 13.3578 17.8032 14.5232 16.4472 15.9923C15.0911 17.4614 14.0154 19.2054 13.2815 21.1249C12.5475 23.0444 12.1698 25.1016 12.1698 27.1792L26.7736 27.1792H41.3774Z" fill="white" stroke="#073762" stroke-width="6" mask="url(#path-3-inside-2)"/>
<circle cx="26.3679" cy="8.51887" r="7.01887" fill="white" stroke="#073762" stroke-width="3"/>
</svg>
