<svg xmlns="http://www.w3.org/2000/svg" width="42" height="43" fill="none" xmlns:v="https://vecta.io/nano"><mask id="A" fill="#fff"><path d="M29.208 27.179c0-2.078-.378-4.135-1.112-6.054s-1.81-3.663-3.166-5.133-2.966-2.635-4.738-3.43-3.671-1.204-5.589-1.204-3.817.409-5.589 1.204-3.382 1.96-4.738 3.43-2.432 3.213-3.166 5.133A16.97 16.97 0 0 0 0 27.179h14.604 14.604z"/></mask><g fill="#fff" stroke="#073762"><path d="M29.208 27.179c0-2.078-.378-4.135-1.112-6.054s-1.81-3.663-3.166-5.133-2.966-2.635-4.738-3.43-3.671-1.204-5.589-1.204-3.817.409-5.589 1.204-3.382 1.96-4.738 3.43-2.432 3.213-3.166 5.133A16.97 16.97 0 0 0 0 27.179h14.604 14.604z" stroke-width="6" mask="url(#A)"/><circle cx="14.198" cy="8.519" r="7.019" stroke-width="3"/></g><mask id="B" fill="#fff"><path d="M41.377 27.179c0-2.078-.378-4.135-1.112-6.054s-1.81-3.663-3.166-5.133-2.966-2.635-4.738-3.43-3.671-1.204-5.589-1.204-3.817.409-5.589 1.204-3.382 1.96-4.738 3.43-2.432 3.213-3.166 5.133a16.97 16.97 0 0 0-1.112 6.054h14.604 14.604z"/></mask><g fill="#fff" stroke="#073762"><path d="M41.377 27.179c0-2.078-.378-4.135-1.112-6.054s-1.81-3.663-3.166-5.133-2.966-2.635-4.738-3.43-3.671-1.204-5.589-1.204-3.817.409-5.589 1.204-3.382 1.96-4.738 3.43-2.432 3.213-3.166 5.133a16.97 16.97 0 0 0-1.112 6.054h14.604 14.604z" stroke-width="6" mask="url(#B)"/><circle cx="26.368" cy="8.519" r="7.019" stroke-width="3"/></g></svg>