<svg xmlns="http://www.w3.org/2000/svg" width="452" height="512" fill="none" xmlns:v="https://vecta.io/nano"><path opacity=".6" d="M-263.875 346.865c2.956-115.45 78.346-202.605 226.168-234.297 78.346-16.978 155.213-16.978 230.603 4.528 45.825 13.582 96.084 24.901 146.344 16.978 72.433-11.319 159.648-53.198 81.302-109.792-57.65-40.747-156.691-12.451-202.516 26.033-42.869 37.352-44.347 72.44-39.912 119.979 5.912 55.461-5.913 92.813-60.608 131.297-138.953 96.209-329.643 70.176-496.683 54.329-25.13-2.263-107.91-6.791-84.259-39.615 22.174-29.429 88.694-48.671 127.128-59.989 45.825-13.583 94.606-21.506 143.387-30.561 82.781-15.846 215.821-28.297 258.69-93.945C116.028 52.579-52.489 2.776-126.401.513-178.138-.619-226.92 5.04-275.701 16.359c-17.739 4.527-73.911 19.242-72.433 39.616 1.478 15.846 67.998 16.978 79.824 18.11 56.173 5.659 103.476 15.846 153.735 38.484C-8.143 160.107 117.506 252.92 96.811 355.92c-5.913 29.429-35.477 146.012 47.303 99.605 59.129-32.824 115.302-93.945 140.432-146.011 69.476-143.748-177.387-104.132-274.95-79.231-137.475 35.088-279.384 109.791-334.078 215.055-11.826 22.638-25.13 55.462 13.304 64.517 22.173 5.659 54.694-2.264 73.911-9.055 76.867-28.297 135.996-74.703 189.212-123.374 1.478-1.132-20.695-1.132-25.13 3.396-28.086 24.901-53.216 48.67-87.215 69.044-33.999 21.505-131.562 87.154-150.778 36.22-10.348-26.033 23.651-66.781 41.39-88.286 51.738-64.517 143.387-116.583 233.559-147.144 75.39-26.033 198.082-62.253 276.428-28.296 75.389 32.824 2.956 121.11-29.565 157.33-8.869 10.187-70.954 82.626-88.693 76.967-33.999-10.187 7.391-124.506 4.435-148.275-13.304-92.814-143.388-173.177-242.429-213.924-38.434-15.846-75.389-22.637-118.258-26.033-20.695-2.264-41.39-3.396-60.607-6.791-78.346-13.582 63.564-47.539 72.433-48.671 78.346-12.451 159.648 0 223.212 36.22 78.346 44.143 48.781 108.66-31.043 136.957-116.78 41.879-252.776 39.615-368.078 86.022-22.173 9.055-94.606 33.956-94.606 59.989 0 23.769 50.26 27.165 72.433 30.561 110.867 14.714 235.038 29.428 345.904 13.582 100.519-13.582 221.734-49.802 270.515-123.374 22.174-32.824 11.826-75.835 7.391-109.791C194.374 71.821 288.98-17.597 389.5 28.81c20.695 10.187 33.999 26.033 38.433 44.143 14.783 52.067-93.128 62.253-138.953 56.593-57.65-6.791-107.91-31.692-167.039-33.956-94.606-3.396-199.56 14.714-279.384 54.33-93.128 45.275-128.606 124.506-130.084 206-1.478-1.131 23.652-3.395 23.652-9.055z" fill="#d5d6d6" fill-opacity=".24"/></svg>