<svg xmlns="http://www.w3.org/2000/svg" width="13" height="12" fill="none" xmlns:v="https://vecta.io/nano"><path d="M3.369 0C2.354 0 1.523.867 1.523 1.926v2.407H.6v1.444h.923v5.296c0 .265.208.482.462.482h1.385l.159-.482h6.144l.159.482h1.385c.254 0 .461-.217.461-.482V5.778h.923V4.333h-.923V1.926C11.677.867 10.846 0 9.831 0H3.369zm0 .963h6.462c.516 0 .923.425.923.963H2.446c0-.538.408-.963.923-.963zm-.923 1.926h3.692v3.37H2.446v-3.37zm4.615 0h3.692v3.37H7.062v-3.37zM2.446 7.222h8.308v2.889H2.446V7.222zm.462.963v.963h1.846v-.963H2.908zm5.538 0v.963h1.846v-.963H8.446z" fill="#fff"/></svg>