<svg xmlns="http://www.w3.org/2000/svg" width="11" height="18" fill="none" xmlns:v="https://vecta.io/nano"><g fill="#fff"><path d="M6.04 3.378c.704 0 1.276-.675 1.276-1.508S6.745.363 6.04.363s-1.276.675-1.276 1.508.571 1.508 1.276 1.508zm-1.764 1.11c.047-.383.298-.613.482-.552l1.331.439c.183.062.246.564.194.782l-1.097 5.321c-.054.219-.164.327-.347.264l-.899-.23c-.724-.705-.72-1.318-.572-2.165l.908-3.858z"/><path d="M3.134 10.602l-.228 1.884-.99 2.614c-.305.733-.448 1.261-.239 1.393.322.202.754-.251 1.207-1.085l1.297-2.439.23-.888c0 .001-1.128-.882-1.276-1.478zm4.03.779L5.388 9.297c-.28-.334-.699-.177-.982.155s-.837.641-.558.976l2.259 2.248-.25 2.88c-.018.711.017 1.122.399 1.169.357.044.514-.833.551-1.054l.512-3.148c.055-.39.089-.848-.155-1.142zM9.312 5.2l-1.339.744-1.687-1.455c-.268-.229-.644-.158-.838.16s-.134.76.136.991l1.819 1.557c.171.146.434.222.626.123l1.584-1.155c.351-.272.718-.629.583-.929-.192-.431-.543-.231-.884-.036z"/></g><path d="M9.267 4.414v12.075" stroke="#fff" stroke-width="1.142" stroke-miterlimit="10" stroke-linecap="round" stroke-linejoin="round"/><path d="M3.649 4.425L2.73 7.818c-.121.465-.543.788-1.14.573S.375 7.88.472 7.056c.106-.897.823-2.089 1.446-2.855s2.043-1.032 1.732.224z" fill="#fff"/></svg>