<svg xmlns="http://www.w3.org/2000/svg" width="42" height="42" fill="#000" xmlns:v="https://vecta.io/nano"><path d="M40.609 20.554a21.91 21.91 0 0 0-7.709-9.933C29.415 8.134 25.278 6.723 21 6.563a21.91 21.91 0 0 0-11.9 4.058c-3.485 2.486-6.165 5.94-7.709 9.933a1.31 1.31 0 0 0 0 .892A21.91 21.91 0 0 0 9.1 31.379c3.485 2.487 7.622 3.898 11.9 4.058a21.91 21.91 0 0 0 11.9-4.058c3.485-2.486 6.165-5.94 7.709-9.933.104-.288.104-.604 0-.892zM21 32.813c-6.956 0-14.306-5.158-16.971-11.812C6.694 14.346 14.044 9.188 21 9.188S35.306 14.346 37.971 21C35.306 27.654 27.956 32.813 21 32.813zm0-19.688c-1.558 0-3.08.462-4.375 1.327a7.87 7.87 0 0 0-2.9 3.534c-.596 1.439-.752 3.022-.448 4.55s1.054 2.931 2.155 4.032a7.88 7.88 0 0 0 4.032 2.155c1.527.304 3.111.148 4.55-.448s2.669-1.605 3.534-2.901a7.88 7.88 0 0 0 1.327-4.375c0-2.089-.83-4.092-2.306-5.568s-3.48-2.306-5.568-2.306zm0 13.125a5.25 5.25 0 0 1-3.712-8.962A5.25 5.25 0 0 1 26.25 21 5.25 5.25 0 0 1 21 26.25z"/></svg>