<svg xmlns="http://www.w3.org/2000/svg" width="24" height="24" fill="none" xmlns:v="https://vecta.io/nano"><path fill-rule="evenodd" d="M3.5 12a8.5 8.5 0 0 1 5.247-7.853 8.5 8.5 0 0 1 9.263 1.843 8.5 8.5 0 0 1 1.843 9.263A8.5 8.5 0 0 1 12 20.5c-1.608.003-3.184-.453-4.542-1.314a1 1 0 0 0-.821-.113l-2.88.859 1.085-2.537a1 1 0 0 0-.07-.92C3.938 15.132 3.497 13.581 3.5 12zM12 1.5C6.201 1.5 1.5 6.201 1.5 12c0 1.838.473 3.568 1.305 5.073L1.08 21.107a1 1 0 0 0 .174 1.059 1 1 0 0 0 1.032.292l4.5-1.342c1.587.91 3.385 1.387 5.214 1.384 5.799 0 10.5-4.701 10.5-10.5S17.799 1.5 12 1.5zm2.293 12.682l-1.315.926A9.33 9.33 0 0 1 11 13.585a10.2 10.2 0 0 1-1.624-2.114l.835-.709a1 1 0 0 0 .236-1.232l-1.064-2a1 1 0 0 0-.702-.513 1 1 0 0 0-.838.23l-.316.275c-.759.662-1.208 1.75-.836 2.852A12.05 12.05 0 0 0 9.586 15c1.813 1.813 3.655 2.527 4.733 2.805.868.223 1.689-.076 2.268-.548l.591-.482a1 1 0 0 0 .365-.848 1 1 0 0 0-.485-.786l-1.678-1a1 1 0 0 0-1.088.041h.001z" fill="#fff" opacity=".9"/></svg>