<svg width="24" height="24" viewBox="0 0 24 24" fill="none" xmlns="http://www.w3.org/2000/svg">
<path d="M11.9999 0C9.89905 0.000551147 7.83513 0.552459 6.01444 1.60056C4.19374 2.64866 2.68003 4.15625 1.62461 5.97264C0.569196 7.78903 0.00903186 9.85059 0.000108309 11.9513C-0.00881524 14.052 0.533815 16.1183 1.57376 17.9435L0.493169 21.7252C0.422645 21.9721 0.419431 22.2334 0.483859 22.4819C0.548287 22.7305 0.678013 22.9573 0.859596 23.1388C1.04118 23.3204 1.26801 23.4501 1.51659 23.5145C1.76517 23.5789 2.02645 23.5757 2.27336 23.5052L6.05538 22.4247C7.6521 23.335 9.43658 23.8664 11.2712 23.9779C13.1058 24.0894 14.9415 23.778 16.6367 23.0678C18.3319 22.3576 19.8413 21.2675 21.0485 19.8817C22.2557 18.4958 23.1285 16.8512 23.5994 15.0747C24.0703 13.2981 24.1269 11.4372 23.7647 9.63537C23.4025 7.83353 22.6313 6.13896 21.5105 4.68235C20.3897 3.22574 18.9492 2.04603 17.3003 1.23419C15.6513 0.422361 13.8379 0.000106488 11.9999 0ZM11.9999 23.0384C10.0172 23.0397 8.07075 22.5064 6.3657 21.4945C6.30948 21.461 6.24701 21.4394 6.18213 21.431C6.11724 21.4225 6.05132 21.4275 5.98842 21.4455L2.0096 22.5822C1.9273 22.6057 1.84022 22.6067 1.75737 22.5852C1.67453 22.5638 1.59893 22.5205 1.53842 22.46C1.47791 22.3995 1.43468 22.3239 1.41321 22.241C1.39174 22.1582 1.39282 22.0711 1.41632 21.9888L2.55296 18.0104C2.57093 17.9475 2.57586 17.8816 2.56744 17.8167C2.55902 17.7518 2.53743 17.6894 2.504 17.6331C1.26054 15.5383 0.744867 13.0911 1.0373 10.6727C1.32974 8.25428 2.41386 6.00048 4.12079 4.26239C5.82772 2.5243 8.06161 1.3995 10.4745 1.06323C12.8873 0.726956 15.3437 1.19808 17.4608 2.40322C19.578 3.60836 21.2371 5.47984 22.1798 7.72612C23.1224 9.9724 23.2956 12.4673 22.6724 14.8223C22.0491 17.1773 20.6645 19.26 18.7341 20.7461C16.8038 22.2321 14.4361 23.0381 11.9999 23.0384ZM18.0613 14.2242L15.6061 12.8213C15.384 12.6946 15.1322 12.6292 14.8764 12.6319C14.6207 12.6346 14.3703 12.7054 14.1509 12.8368L12.4941 13.8308C11.4911 13.3227 10.6764 12.5079 10.1682 11.505L11.1623 9.84831C11.2938 9.62894 11.3645 9.37854 11.3672 9.12282C11.3699 8.8671 11.3045 8.61527 11.1777 8.39317L9.77488 5.93814C9.66033 5.73828 9.49508 5.57215 9.29581 5.45654C9.09655 5.34092 8.87031 5.2799 8.63993 5.27963C7.62407 5.27988 6.64968 5.68252 5.93001 6.39945C5.21034 7.11637 4.80401 8.08918 4.79995 9.10496C4.79807 10.4298 5.05741 11.742 5.56312 12.9665C6.06884 14.191 6.81101 15.3039 7.74719 16.2413C8.68338 17.1788 9.7952 17.9225 11.0191 18.43C12.243 18.9374 13.5549 19.1986 14.8798 19.1987H14.8942C15.9101 19.1946 16.883 18.7883 17.5999 18.0687C18.3169 17.3491 18.7196 16.3747 18.7199 15.3589C18.7196 15.1286 18.6586 14.9024 18.543 14.7031C18.4274 14.5039 18.2612 14.3387 18.0613 14.2242ZM14.8929 18.2387H14.8799C13.6812 18.2387 12.4942 18.0024 11.3869 17.5433C10.2796 17.0842 9.27361 16.4114 8.42657 15.5632C7.57954 14.715 6.90804 13.7082 6.45047 12.6003C5.99291 11.4924 5.75826 10.3052 5.75994 9.10652C5.76324 8.34495 6.06814 7.6157 6.60789 7.07839C7.14765 6.54107 7.8783 6.23946 8.63993 6.23956C8.70111 6.23964 8.76119 6.25584 8.81411 6.28653C8.86703 6.31722 8.91093 6.36133 8.94137 6.41439L10.3442 8.86954C10.3864 8.94356 10.4082 9.02749 10.4073 9.11272C10.4065 9.19795 10.3829 9.28141 10.3391 9.35454L9.21233 11.2322C9.17248 11.2986 9.14929 11.3736 9.14473 11.4509C9.14018 11.5282 9.15439 11.6054 9.18617 11.676C9.81267 13.0703 10.9288 14.1863 12.3232 14.8127C12.3938 14.8445 12.471 14.8587 12.5483 14.8542C12.6256 14.8496 12.7007 14.8264 12.7671 14.7866L14.6447 13.6598C14.7178 13.616 14.8013 13.5925 14.8866 13.5916C14.9718 13.5907 15.0558 13.6124 15.1299 13.6547L17.585 15.0576C17.6381 15.088 17.6822 15.1319 17.7129 15.1848C17.7436 15.2377 17.7598 15.2978 17.7599 15.3589C17.76 16.1205 17.4584 16.8511 16.921 17.3908C16.3837 17.9305 15.6545 18.2354 14.8929 18.2387Z" fill="white"/>
</svg>