<svg width="42" height="42" viewBox="0 0 42 42" fill="none" xmlns="http://www.w3.org/2000/svg">
<path d="M40.3831 16.0519C40.5151 15.9237 40.6178 15.7684 40.684 15.5968C40.7502 15.4251 40.7784 15.2411 40.7667 15.0575C40.755 14.8739 40.7036 14.695 40.616 14.5331C40.5285 14.3712 40.407 14.2303 40.2597 14.1199C34.6633 10.051 27.9194 7.86433 21.0001 7.87504C13.805 7.87504 7.14799 10.1903 1.7405 14.1199C1.59309 14.2301 1.47131 14.3709 1.38356 14.5326C1.29581 14.6944 1.24417 14.8732 1.23219 15.0569C1.22022 15.2405 1.24819 15.4246 1.31419 15.5963C1.38019 15.7681 1.48264 15.9235 1.6145 16.0519C1.84391 16.2779 2.14607 16.4151 2.46717 16.4391C2.78828 16.4632 3.1075 16.3725 3.368 16.1832C8.50024 12.4793 14.6709 10.4903 21.0001 10.5C27.581 10.5 33.671 12.6053 38.6296 16.1805C39.1677 16.569 39.9159 16.5218 40.3831 16.0519Z" fill="black"/>
<path d="M34.7263 21.7114C34.8616 21.5809 34.966 21.4219 35.0322 21.246C35.0983 21.07 35.1244 20.8816 35.1085 20.6943C35.0927 20.507 35.0353 20.3256 34.9406 20.1633C34.8459 20.0009 34.7162 19.8617 34.5609 19.7558C30.5247 17.1339 25.8132 15.7422 21.0002 15.75C15.9996 15.75 11.3402 17.22 7.43943 19.7558C7.28338 19.8611 7.15291 20 7.05762 20.1624C6.96232 20.3248 6.90462 20.5064 6.88876 20.694C6.87289 20.8816 6.89927 21.0704 6.96595 21.2464C7.03262 21.4225 7.13791 21.5814 7.27406 21.7114C7.49772 21.9297 7.78893 22.0655 8.09992 22.0965C8.41091 22.1275 8.7232 22.0519 8.98556 21.882C12.5714 19.5853 16.7419 18.368 21.0002 18.375C25.2576 18.3685 29.4271 19.5858 33.0122 21.882C33.5529 22.2285 34.2722 22.1655 34.7263 21.7114ZM28.9959 27.4418C29.5892 26.8485 29.4816 25.8537 28.7334 25.473C26.3381 24.2541 23.6878 23.6208 21.0002 23.625C18.2177 23.625 15.5874 24.2918 13.2669 25.473C12.5188 25.8537 12.4112 26.8485 13.0044 27.4418L13.0438 27.4812C13.4638 27.9012 14.1122 27.9799 14.6477 27.7174C16.6249 26.7484 18.7983 26.2463 21.0002 26.25C23.2787 26.25 25.4364 26.7777 27.3527 27.72C27.8856 27.9825 28.5339 27.9038 28.9539 27.4812L28.9959 27.4418ZM23.7827 32.655C24.2972 32.1405 24.3024 31.29 23.6777 30.9225C22.8678 30.4405 21.9426 30.1865 21.0002 30.1875C20.0577 30.1865 19.1325 30.4405 18.3227 30.9225C17.6979 31.29 17.7032 32.1405 18.2177 32.655L20.0709 34.5083C20.3171 34.7543 20.6508 34.8926 20.9989 34.8926C21.3469 34.8926 21.6807 34.7543 21.9268 34.5083L23.7827 32.6524V32.655Z" fill="black"/>
</svg>
