<svg xmlns="http://www.w3.org/2000/svg" width="42" height="42" fill="#000" xmlns:v="https://vecta.io/nano"><path d="M40.383 16.052c.132-.128.235-.284.301-.455s.094-.356.083-.539a1.27 1.27 0 0 0-.507-.938C34.663 10.051 27.919 7.864 21 7.875A32.65 32.65 0 0 0 1.74 14.12a1.28 1.28 0 0 0-.357.413 1.27 1.27 0 0 0-.069 1.063c.066.171.168.327.3.456a1.36 1.36 0 0 0 1.753.131A30.05 30.05 0 0 1 21 10.5a30.04 30.04 0 0 1 17.63 5.68c.538.389 1.286.341 1.753-.129zm-5.657 5.659a1.28 1.28 0 0 0 .306-.465 1.26 1.26 0 0 0-.092-1.083c-.095-.162-.224-.302-.38-.407A24.82 24.82 0 0 0 21 15.75a24.8 24.8 0 0 0-13.561 4.006 1.26 1.26 0 0 0-.166 1.955 1.38 1.38 0 0 0 1.711.171A22.21 22.21 0 0 1 21 18.375a22.21 22.21 0 0 1 12.012 3.507 1.38 1.38 0 0 0 1.714-.171zm-5.73 5.73c.593-.593.486-1.588-.262-1.969-2.395-1.219-5.046-1.852-7.733-1.848-2.782 0-5.413.667-7.733 1.848-.748.381-.856 1.376-.262 1.969l.039.039c.42.42 1.068.499 1.604.236A14.38 14.38 0 0 1 21 26.25a14.36 14.36 0 0 1 6.352 1.47c.533.263 1.181.184 1.601-.239l.042-.039zm-5.213 5.213c.515-.514.52-1.365-.105-1.733-.81-.482-1.735-.736-2.678-.735a5.24 5.24 0 0 0-2.677.735c-.625.367-.62 1.218-.105 1.733l1.853 1.853a1.31 1.31 0 0 0 1.856 0l1.856-1.856v.003z"/></svg>