<?xml version="1.0" encoding="utf-8" ?>
<svg xmlns="http://www.w3.org/2000/svg" xmlns:xlink="http://www.w3.org/1999/xlink" width="150" height="149">
	<defs>
		<linearGradient id="gradient_0" gradientUnits="userSpaceOnUse" x1="195.07181" y1="394.55215" x2="208.00368" y2="4.7086573">
			<stop offset="0" stop-color="#1C3D69"/>
			<stop offset="1" stop-color="#1C6970"/>
		</linearGradient>
	</defs>
	<path fill="url(#gradient_0)" transform="scale(0.367647 0.368812)" d="M199.358 4.36301C208.784 4.00049 218.484 4.87906 227.832 6.08203C268.187 11.275 303.566 27.2474 333.733 54.6848Q335.49 56.2778 337.208 57.9133Q338.926 59.5488 340.603 61.2258Q342.281 62.9029 343.916 64.6205Q345.552 66.3382 347.145 68.0954Q348.738 69.8525 350.288 71.6482Q351.838 73.4438 353.343 75.2769Q354.848 77.1099 356.308 78.9792Q357.768 80.8486 359.182 82.7531Q360.595 84.6577 361.962 86.5962Q363.329 88.5348 364.648 90.5063Q365.966 92.4777 367.237 94.4808Q368.507 96.484 369.727 98.5176Q370.948 100.551 372.119 102.614Q373.289 104.677 374.409 106.768Q375.529 108.859 376.597 110.977Q377.665 113.095 378.681 115.238Q379.697 117.381 380.66 119.549Q381.624 121.716 382.533 123.906Q383.443 126.097 384.299 128.309Q385.155 130.521 385.957 132.753Q386.758 134.986 387.505 137.237Q388.252 139.488 388.943 141.757Q389.634 144.026 390.27 146.311Q390.906 148.596 391.485 150.896Q392.064 153.196 392.587 155.51Q393.11 157.823 393.577 160.149Q394.043 162.475 394.452 164.811Q394.861 167.147 395.213 169.493Q395.564 171.839 395.859 174.192Q396.153 176.546 396.389 178.906Q396.626 181.266 396.805 183.631Q396.983 185.996 397.104 188.365C398.683 222.432 392.29 257.988 376.841 288.563C373.857 294.468 370.274 300.121 366.698 305.685C361.44 313.866 355.982 321.467 349.415 328.667C341.404 337.45 332.695 346.256 323.41 353.674C318.745 357.4 313.721 360.646 308.687 363.842C291.799 374.563 273.692 383.532 254.21 388.472C238.09 392.559 221.449 394.172 204.881 394.943C178.26 395.4 150.477 391.141 125.767 380.976C103.833 371.952 83.1791 357.78 65.9558 341.585C41.1126 318.225 20.2041 283.206 12.0535 250.122C8.02512 233.77 6.58853 217.536 6.06969 200.745C5.79345 191.805 6.43964 182.883 7.50537 174.012Q7.7319 172.102 7.99693 170.197Q8.26196 168.292 8.56537 166.393Q8.86878 164.494 9.21046 162.601Q9.55213 160.709 9.93193 158.823Q10.3117 156.938 10.7295 155.061Q11.1473 153.183 11.6028 151.315Q12.0584 149.446 12.5516 147.587Q13.0447 145.728 13.5753 143.88Q14.1059 142.031 14.6737 140.194Q15.2415 138.356 15.8462 136.531Q16.451 134.705 17.0925 132.892Q17.7339 131.079 18.4118 129.279Q19.0898 127.479 19.8039 125.693Q20.518 123.908 21.268 122.137Q22.018 120.366 22.8035 118.61Q23.5891 116.855 24.41 115.115Q25.2308 113.376 26.0866 111.654Q26.9424 109.931 27.8327 108.227Q28.7231 106.522 29.6476 104.835Q30.5722 103.149 31.5306 101.482Q32.4891 99.8142 33.4809 98.1665Q34.4728 96.5187 35.4977 94.8913Q36.5226 93.2639 37.5802 91.6576Q38.6377 90.0512 39.7275 88.4665Q40.8172 86.8818 41.9387 85.3194Q43.0602 83.757 44.2131 82.2175Q45.3659 80.6781 46.5495 79.1622Q47.7331 77.6463 48.9471 76.1547Q50.1611 74.663 51.4049 73.1961Q52.6488 71.7293 53.922 70.2878Q55.1952 68.8463 56.4972 67.4308Q57.7992 66.0153 59.1295 64.6264C81.0447 41.4055 113.408 21.1474 144.146 12.2776C161.922 7.14795 180.89 4.89138 199.358 4.36301Z"/>
	<path fill="#FEFEFE" transform="scale(0.367647 0.368812)" d="M168.405 98.8574C170.547 98.6418 172.821 98.7007 174.973 98.74C194.993 99.1053 224.908 109.314 238.996 123.876C233.404 124.38 227.808 123.921 222.227 124.339Q220.517 124.468 218.813 124.654Q217.109 124.84 215.412 125.085Q213.715 125.329 212.027 125.63Q210.339 125.931 208.663 126.29Q206.986 126.648 205.323 127.063Q203.66 127.478 202.011 127.949Q200.363 128.421 198.731 128.947Q197.1 129.474 195.487 130.056Q193.874 130.637 192.282 131.273Q190.69 131.909 189.12 132.599Q187.551 133.289 186.005 134.031Q184.46 134.773 182.941 135.567Q181.421 136.362 179.93 137.207Q178.438 138.052 176.976 138.948Q175.514 139.843 174.083 140.787Q172.652 141.732 171.254 142.724C153.459 155.451 139.636 175.303 136.026 197.11C135.141 202.456 134.879 207.844 134.915 213.258C134.945 217.816 135.107 222.459 135.851 226.962C138.178 241.041 145.32 254.473 153.557 265.961C151.076 265.333 148.759 264.454 146.39 263.501C140.98 261.549 135.727 259.033 130.245 257.304C126.191 258.444 122.244 260.449 118.4 262.159C113.445 264.362 108.457 266.508 103.544 268.804C100.406 270.27 96.3745 273.214 92.9296 273.585C91.6443 273.723 90.3852 273.111 89.4428 272.276C87.9046 270.915 87.1648 268.853 87.1044 266.835C86.9388 261.304 92.3098 247.087 94.1936 241.176C95.0965 238.342 96.1734 235.372 96.3472 232.386C96.4111 231.287 96.2486 230.328 95.8365 229.307C95.2547 227.866 94.1775 226.542 93.4263 225.172C91.976 222.525 90.6648 219.745 89.4058 217.004C85.0699 207.565 81.987 196.752 81.3313 186.36C80.0459 165.985 87.8764 145.045 101.338 129.796C118.247 110.64 143.241 100.427 168.405 98.8574Z"/>
	<path fill="#FEFEFE" transform="scale(0.367647 0.368812)" d="M225.922 131.108C229.567 130.695 233.561 130.987 237.22 131.198C245.963 131.704 254.218 132.424 262.587 135.137C284.074 142.104 303.378 157.521 313.682 177.745C325.012 199.984 325.478 220.591 315.304 243.315C313.994 246.239 312.607 249.19 311.074 252.006C309.51 254.878 307.583 257.626 306.585 260.762L306.474 261.118C307.879 268.205 311.096 276.377 313.346 283.376C314.229 286.122 315.345 289.149 315.776 291.993C315.971 293.285 315.899 294.616 315.481 295.859C314.874 297.668 313.547 299.309 311.789 300.098C310.256 300.785 308.656 300.748 307.063 300.333C302.958 299.264 298.854 296.818 295.071 294.893C288.585 291.592 281.882 288.028 275.012 285.619C269.977 286.751 264.902 289.073 259.937 290.612Q254.583 292.303 249.061 293.319Q243.539 294.334 237.934 294.659Q236.744 294.734 235.553 294.78Q234.362 294.827 233.17 294.843Q231.977 294.86 230.785 294.848Q229.593 294.835 228.402 294.794Q227.21 294.752 226.02 294.681Q224.83 294.61 223.642 294.51Q222.454 294.409 221.269 294.28Q220.084 294.151 218.902 293.992Q217.721 293.834 216.543 293.646Q215.366 293.459 214.194 293.242Q213.021 293.026 211.854 292.781Q210.688 292.536 209.527 292.262Q208.367 291.989 207.214 291.687Q206.06 291.385 204.915 291.054Q203.769 290.724 202.632 290.366Q201.495 290.007 200.367 289.621Q199.239 289.235 198.121 288.821Q197.003 288.408 195.896 287.966Q194.788 287.525 193.692 287.057Q192.595 286.589 191.511 286.094Q190.426 285.599 189.354 285.078Q188.282 284.556 187.223 284.008Q186.164 283.461 185.119 282.887Q184.074 282.314 183.043 281.715Q182.012 281.116 180.996 280.492Q179.98 279.867 178.98 279.218Q177.98 278.57 176.996 277.896Q176.013 277.223 175.046 276.526Q174.078 275.828 173.129 275.108Q172.179 274.387 171.248 273.643Q170.316 272.899 169.403 272.132Q168.49 271.366 167.596 270.577C156.457 260.636 147.771 246.24 144.159 231.751C142.815 226.359 142.211 220.815 141.903 215.275C140.808 195.588 148.18 175.781 161.296 161.132C177.978 142.5 201.087 132.508 225.922 131.108Z"/>
</svg>
