<svg xmlns="http://www.w3.org/2000/svg" width="24" height="24" fill="rgb(100%,100%,100%)" xmlns:v="https://vecta.io/nano"><path d="M8.609 10.504a8.36 8.36 0 0 1 3.352.691c.215.094.469.012.574-.18s.012-.426-.203-.52a9.19 9.19 0 0 0-3.723-.77C3.863 9.727 0 13.234 0 17.543c0 .215.191.391.43.391h7.43c.234 0 .43-.176.43-.391s-.195-.387-.43-.387H.867c.227-3.703 3.609-6.652 7.742-6.652zm-.144-1.453c2.75 0 4.984-2.027 4.984-4.523S11.215 0 8.465 0 3.48 2.031 3.48 4.527 5.718 9.05 8.464 9.05zm0-8.273c2.277 0 4.129 1.684 4.129 3.75s-1.852 3.746-4.129 3.746S4.34 6.594 4.34 4.527 6.191.777 8.465.777zm14.066 11.968H12.328c-.809 0-1.469.598-1.469 1.332v5.633c0 .738.66 1.336 1.469 1.336h1.102v2.25c0 .152.102.293.254.355.059.02.117.031.176.031.105 0 .207-.035.289-.102l3.055-2.535h5.328c.809 0 1.469-.598 1.469-1.336v-5.633c0-.734-.66-1.332-1.469-1.332zm.613 6.965c0 .309-.277.559-.613.559h-5.492a.44.44 0 0 0-.289.102l-2.465 2.043v-1.758c0-.215-.191-.387-.426-.387h-1.531c-.336 0-.613-.25-.613-.559v-5.633c0-.305.277-.555.613-.555h10.203c.336 0 .613.25.613.555zm-8.285-3.566c-.316 0-.574.234-.574.52s.258.52.574.52.57-.234.57-.52-.258-.52-.57-.52zm0 0"/><path d="M17.715 16.145c-.316 0-.57.234-.57.52s.254.52.57.52.57-.234.57-.52-.254-.52-.57-.52zm2.57 0c-.316 0-.57.234-.57.52s.254.52.57.52.574-.234.574-.52-.258-.52-.574-.52zm0 0"/></svg>