<svg xmlns="http://www.w3.org/2000/svg" width="24" height="24" fill="rgb(100%,100%,100%)" xmlns:v="https://vecta.io/nano"><path d="M11.945 15.84c-6.023 0-10.926 4.805-10.926 10.707 0 .25.207.453.461.453h20.926c.254 0 .465-.203.465-.453 0-5.902-4.902-10.707-10.926-10.707zM1.957 26.094c.242-5.195 4.629-9.344 9.988-9.344s9.742 4.148 9.988 9.344zm9.805-23.676c-3.469 0-6.289 2.762-6.289 6.16s2.82 6.164 6.289 6.164 6.289-2.766 6.289-6.164-2.82-6.16-6.289-6.16zm0 11.418c-2.957 0-5.363-2.359-5.363-5.258s2.406-5.254 5.363-5.254 5.363 2.359 5.363 5.254-2.406 5.258-5.363 5.258zm0 0"/><path d="M4.121 11.953c.254 0 .461-.203.461-.453V5.625c0-.031 0-.059-.008-.086C5.816 2.719 8.605.906 11.762.906c3.211 0 6.051 1.879 7.254 4.789v5.77c-.387.938-.953 1.781-1.684 2.508-.18.176-.176.465.008.641a.47.47 0 0 0 .324.129c.117 0 .238-.043.328-.133.781-.773 1.391-1.668 1.82-2.656h.328c1.906 0 3.461-1.52 3.461-3.391s-1.555-3.391-3.461-3.391h-.348C18.402 2.023 15.285 0 11.762 0S5.121 2.023 3.73 5.172h-.27C1.555 5.172 0 6.691 0 8.563s1.555 3.391 3.461 3.391zm18.555-3.391c0 1.367-1.141 2.484-2.535 2.484h-.195V6.078h.195c1.395 0 2.535 1.113 2.535 2.484zm-21.75 0c0-1.371 1.137-2.484 2.535-2.484h.195v4.969h-.195C2.063 11.047.926 9.93.926 8.563zm0 0"/></svg>