<svg xmlns="http://www.w3.org/2000/svg" width="24" height="24" fill="rgb(100%,100%,100%)" xmlns:v="https://vecta.io/nano"><path d="M19.164 11.641c-.109-.07-.246-.082-.367-.027l-4.742 2.211h-3.039a.39.39 0 0 0-.383.395v4.172c0 .113.039.184.102.277l3.273 5.16c.074.105.191.172.32.172h1.871a.39.39 0 0 0 .324-.176c.07-.109.082-.25.031-.371l-1.848-4.371 4.09 1.902c.051.023.105.035.16.035a.39.39 0 0 0 .207-.062c.109-.074.176-.195.176-.332v-8.652c0-.137-.066-.258-.176-.332zm-7.766 2.969h2.563v.129V18h-2.562zm3.133 8.609l-2.941-4.437h2.16l.012.039 1.855 4.398zm4.043-3.199l-3.844-1.79v-3.859l3.844-1.789zm2.586-5.211a.38.38 0 0 0 .223-.074l1.684-1.223c.172-.125.211-.367.09-.543a.38.38 0 0 0-.535-.094l-1.687 1.223a.4.4 0 0 0-.09.547c.078.105.195.164.316.164zm2.153.843h-2.051c-.211 0-.383.176-.383.391s.172.391.383.391h2.051c.211 0 .383-.172.383-.391s-.172-.391-.383-.391zm-.247 2.957l-1.684-1.223c-.172-.125-.414-.082-.539.094a.39.39 0 0 0 .094.543l1.684 1.223a.39.39 0 0 0 .223.074.38.38 0 0 0 .313-.168c.121-.176.082-.418-.09-.543zM7.637 10.832c1.043 0 2.039.23 2.973.691a.38.38 0 0 0 .512-.184c.094-.195.012-.43-.18-.523a7.44 7.44 0 0 0-3.305-.766C3.426 10.05 0 13.558 0 17.87c0 .215.172.391.383.391h8.07a.39.39 0 0 0 .387-.391.39.39 0 0 0-.387-.395H.777c.199-3.699 3.199-6.645 6.859-6.645zm.152-1.719c2.469 0 4.477-2.043 4.477-4.559S10.258 0 7.789 0 3.316 2.043 3.316 4.555s2.008 4.559 4.473 4.559zm0-8.332c2.043 0 3.707 1.695 3.707 3.773S9.832 8.328 7.789 8.328 4.086 6.637 4.086 4.555 5.746.781 7.789.781zm0 0"/></svg>