<svg width="39" height="39" viewBox="0 0 39 39" fill="none" xmlns="http://www.w3.org/2000/svg">
<path d="M12.6129 27.9258H8.4375V29.417H12.6129V27.9258Z" fill="black"/>
<path d="M13.504 27.0312H7.53906V30.312H13.504V27.0312Z" fill="black"/>
<path d="M30.2067 27.9258H26.0312V29.417H30.2067V27.9258Z" fill="black"/>
<path d="M31.0977 27.0312H25.1328V30.312H31.0977V27.0312Z" fill="black"/>
<path d="M2.91516 15.9961H0.976562V18.2329H2.91516V15.9961Z" fill="black"/>
<path d="M3.80619 19.1279H0.078125V15.1016H3.80619V19.1279ZM1.86759 17.3384H2.01672V16.891H1.86759V17.3384Z" fill="black"/>
<path d="M37.4308 15.9961H35.4922V18.2329H37.4308V15.9961Z" fill="black"/>
<path d="M38.3218 19.1279H34.5938V15.1016H38.3218V19.1279ZM36.3832 17.3384H36.5323V16.891H36.3832V17.3384Z" fill="black"/>
<path d="M4.25781 35.6797H8.43325V35.9153C8.43325 36.6083 7.87062 37.1709 7.17761 37.1709H5.51347C4.82047 37.1709 4.25783 36.6083 4.25783 35.9153V35.6797H4.25781Z" fill="black"/>
<path d="M8.12504 38.0659H4.55876C3.89747 38.0659 3.35938 37.5278 3.35938 36.8665V34.7852H9.32429V36.8665C9.32429 37.5278 8.78633 38.0659 8.12504 38.0659Z" fill="black"/>
<path d="M35.2717 35.8284H3.35938V7.15875C3.35938 3.72615 6.15193 0.933594 9.58453 0.933594H29.0467C32.4791 0.933594 35.2717 3.72615 35.2717 7.15875V35.8284ZM5.14886 34.0389H33.4822V7.15875C33.4822 4.71292 31.4925 2.72306 29.0467 2.72306H9.58453C7.13871 2.72306 5.14884 4.71292 5.14884 7.15875V34.0389H5.14886Z" fill="black"/>
<path d="M34.3806 7.49609H4.25781V9.28556H34.3806V7.49609Z" fill="black"/>
<path d="M34.3779 21.8125H4.85156V23.602H34.3779V21.8125Z" fill="black"/>
<path d="M20.0629 8.98438H18.2734V23.3002H20.0629V8.98438Z" fill="black"/>
<path d="M30.2031 35.6797H34.3786V35.9153C34.3786 36.6083 33.8159 37.1709 33.1229 37.1709H31.4588C30.7658 37.1709 30.2031 36.6083 30.2031 35.9153V35.6797H30.2031Z" fill="black"/>
<path d="M34.0704 38.0659H30.5041C29.8428 38.0659 29.3047 37.5278 29.3047 36.8665V34.7852H35.2696V36.8665C35.2696 37.5278 34.7316 38.0659 34.0704 38.0659Z" fill="black"/>
</svg>
