<svg width="42" height="34" viewBox="0 0 42 34" fill="none" xmlns="http://www.w3.org/2000/svg">
<path d="M1.88734 9.533L0.375 12.1523L3.9605 14.2225L5.47284 11.6032L1.88734 9.533Z" fill="black"/>
<path d="M39.7106 9.53136L36.125 11.6016L37.6374 14.2211L41.223 12.1509L39.7106 9.53136Z" fill="black"/>
<path d="M9.38295 21.4925C8.34032 21.4925 7.49219 20.6443 7.49219 19.6017C7.49219 18.5591 8.34032 17.7109 9.38295 17.7109C10.4256 17.7109 11.2737 18.5591 11.2737 19.6017C11.2737 20.6443 10.4256 21.4925 9.38295 21.4925Z" fill="black"/>
<path d="M32.0704 21.4925C31.0278 21.4925 30.1797 20.6443 30.1797 19.6017C30.1797 18.5591 31.0278 17.7109 32.0704 17.7109C33.1131 17.7109 33.9612 18.5591 33.9612 19.6017C33.9612 20.6443 33.1131 21.4925 32.0704 21.4925Z" fill="black"/>
<path d="M33.9609 30.6289H37.4273V31.3754C37.4273 32.1809 36.7734 32.8348 35.968 32.8348H35.4203C34.6149 32.8348 33.9609 32.1809 33.9609 31.3754V30.6289Z" fill="black"/>
<path d="M36.6731 33.7803H34.7153C33.7781 33.7803 33.0156 33.0178 33.0156 32.0806V29.6836H38.3728V32.0806C38.3728 33.0178 37.6104 33.7803 36.6731 33.7803H36.6731ZM34.9064 31.8895H36.482V31.5744H34.9064V31.8895Z" fill="black"/>
<path d="M38.3724 30.471H3.07812V16.1139L8.52055 2.03351C8.94016 0.948112 10.0039 0.21875 11.1676 0.21875H30.4431C31.6197 0.21875 32.6875 0.958878 33.1005 2.06028L38.3724 16.1188V30.471H38.3724ZM4.96889 28.5802H36.4817V16.4617L31.3301 2.72407C31.1922 2.35647 30.8358 2.10951 30.4431 2.10951H11.1676C10.7792 2.10951 10.4242 2.35293 10.2842 2.71515L4.96889 16.4666V28.5802V28.5802Z" fill="black"/>
<path d="M36.1637 12.1953H5.28125V14.0861H36.1637V12.1953Z" fill="black"/>
<path d="M26.8681 24.9548H14.5781V20.543H16.4689V23.064H24.9773V20.543H26.8681V24.9548Z" fill="black"/>
<path d="M4.02344 30.6289H7.48984V31.3754C7.48984 32.1809 6.8359 32.8348 6.03045 32.8348H5.48283C4.67738 32.8348 4.02344 32.1809 4.02344 31.3754V30.6289Z" fill="black"/>
<path d="M6.73565 33.7803H4.77779C3.84057 33.7803 3.07812 33.0178 3.07812 32.0806V29.6836H8.43529V32.0806C8.43529 33.0178 7.67287 33.7803 6.73563 33.7803H6.73565ZM4.9689 31.8895H6.54455V31.5744H4.9689V31.8895Z" fill="black"/>
</svg>
