<svg width="41" height="41" viewBox="0 0 41 41" fill="none" xmlns="http://www.w3.org/2000/svg">
<path d="M20.0028 41.0095C8.96886 41.0095 -0.0078125 32.0328 -0.0078125 20.9989C-0.0078125 9.96495 8.96886 0.988281 20.0028 0.988281C31.0367 0.988281 40.0134 9.96495 40.0134 20.9989C40.0134 32.0328 31.0367 41.0095 20.0028 41.0095ZM20.0028 2.87904C10.0115 2.87904 1.88295 11.0076 1.88295 20.9989C1.88295 30.9902 10.0115 39.1187 20.0028 39.1187C29.9941 39.1187 38.1226 30.9902 38.1226 20.9989C38.1226 11.0076 29.9941 2.87904 20.0028 2.87904Z" fill="black"/>
<path d="M25.5177 31.1538C24.3516 32.341 22.7809 33.039 20.8065 33.2495V35.1716H18.9472V33.2495C17.7073 33.1651 16.5153 32.9082 15.3705 32.4773C14.2252 32.0468 13.2011 31.5163 12.298 30.886L13.6531 28.4595C14.3671 28.9848 15.2022 29.4418 16.1583 29.8301C17.114 30.2191 18.0437 30.4555 18.9472 30.5392V22.2828C17.2456 21.6107 15.8953 20.8333 14.8978 19.951C13.8998 19.0687 13.4009 17.819 13.4009 16.2009C13.4009 14.4994 13.9683 13.1078 15.1026 12.0254C16.2371 10.9437 17.7286 10.319 19.5775 10.1504V8.13374H21.4367V10.1821C23.3693 10.3504 25.2182 10.9382 26.983 11.9467L25.8169 14.3101C24.325 13.5122 22.8651 13.0395 21.4367 12.892V20.0455H21.4682C22.6446 20.4659 23.6372 20.9229 24.4462 21.4162C25.2547 21.9101 25.9272 22.593 26.463 23.4645C26.9987 24.3366 27.2666 25.4451 27.2666 26.7893C27.2666 28.5121 26.6836 29.9671 25.5177 31.1538ZM17.3559 17.8082C17.8915 18.3335 18.6321 18.8164 19.5775 19.2577V12.892C18.6321 13.0395 17.8915 13.3804 17.3559 13.9162C16.8201 14.452 16.5522 15.1296 16.5522 15.9489C16.5522 16.6634 16.8201 17.2832 17.3559 17.8082ZM23.1542 29.2473C23.7735 28.6383 24.0837 27.8292 24.0837 26.8207C24.0837 25.9385 23.7948 25.1977 23.2171 24.5991C22.6392 24.0003 21.8355 23.4805 20.8064 23.0392V30.4447C21.7518 30.2557 22.5343 29.8569 23.1542 29.2473Z" fill="black"/>
</svg>
