<svg width="42" height="26" viewBox="0 0 42 26" fill="none" xmlns="http://www.w3.org/2000/svg">
<path d="M21.1048 20.0909C16.7607 20.0909 13.2266 16.9102 13.2266 13.0005C13.2266 9.09082 16.7607 5.91016 21.1048 5.91016C25.4488 5.91016 28.9829 9.09082 28.9829 13.0005C28.9829 16.9102 25.4488 20.0909 21.1048 20.0909ZM21.1048 7.80093C17.8033 7.80093 15.1173 10.1335 15.1173 13.0005C15.1173 15.8676 17.8033 18.2001 21.1048 18.2001C24.4062 18.2001 27.0922 15.8676 27.0922 13.0005C27.0922 10.1335 24.4062 7.80093 21.1048 7.80093Z" fill="black"/>
<path d="M21.1021 25.6048C7.78564 25.6048 1.1701 13.9541 0.894978 13.4582L0.640625 12.9996L0.894978 12.5411C1.1701 12.0452 7.78562 0.394531 21.1021 0.394531C34.4185 0.394531 41.0341 12.0452 41.3092 12.5411L41.5635 12.9996L41.3092 13.4582C41.0341 13.9541 34.4185 25.6048 21.1021 25.6048ZM2.82806 12.9996C4.16997 15.1031 10.3245 23.714 21.1021 23.714C31.8797 23.714 38.0342 15.1031 39.3761 12.9996C38.0342 10.8962 31.8797 2.28531 21.1021 2.28531C10.3245 2.28531 4.16997 10.8962 2.82806 12.9996Z" fill="black"/>
</svg>
