<svg width="41" height="41" viewBox="0 0 41 41" fill="none" xmlns="http://www.w3.org/2000/svg">
<path d="M20.0028 41.0095C8.96886 41.0095 -0.0078125 32.0328 -0.0078125 20.9989C-0.0078125 9.96495 8.96886 0.988281 20.0028 0.988281C31.0367 0.988281 40.0134 9.96495 40.0134 20.9989C40.0134 32.0328 31.0367 41.0095 20.0028 41.0095ZM20.0028 2.87904C10.0115 2.87904 1.88295 11.0076 1.88295 20.9989C1.88295 30.9902 10.0115 39.1187 20.0028 39.1187C29.9941 39.1187 38.1226 30.9902 38.1226 20.9989C38.1226 11.0076 29.9941 2.87904 20.0028 2.87904Z" fill="black"/>
<path d="M20.1564 24.0694V10.4415C20.1564 9.91936 19.7331 9.49609 19.211 9.49609C18.6889 9.49609 18.2656 9.91935 18.2656 10.4415V24.0694H20.1564Z" fill="black"/>
<path d="M19.2773 22.4729L18.2656 24.0703L27.0308 29.6216C27.4719 29.901 28.056 29.7699 28.3354 29.3287C28.6147 28.8876 28.4836 28.3036 28.0425 28.0242L19.2773 22.4729Z" fill="black"/>
</svg>
