<svg  width="55" height="55" viewBox="0 0 55 55" fill="none" xmlns="http://www.w3.org/2000/svg">
<path d="M27.1044 0.00448015C41.1987 -0.239554 54.1601 11.5875 54.0925 27.6199C54.0853 31.3002 53.3495 34.9415 51.929 38.3269C50.5084 41.7123 48.4322 44.7726 45.8239 47.3256C43.2155 49.8787 40.1284 51.8723 36.7463 53.1877C33.3642 54.5032 29.7562 55.1136 26.1372 54.9826C11.5575 54.5289 -0.582094 42.0969 0.0215874 26.2983C0.584685 11.5342 12.8206 -0.263614 27.1044 0.00448015ZM26.2589 3.12021C13.3753 3.46736 2.36698 14.6534 3.15836 28.9397C3.87872 41.8649 14.7737 52.7107 28.7463 51.7689C34.9416 51.3388 40.7285 48.4736 44.8805 43.7808C49.0324 39.088 51.223 32.9364 50.9879 26.63C50.4975 12.7063 38.9768 2.59605 26.2589 3.12537V3.12021Z" fill="#053768"/>
<path d="M47.5568 26.09C47.2558 26.8461 46.9734 27.5525 46.6893 28.2622H45.8151V35.2138H47.1307V37.9634C45.2418 38.0528 43.3395 38.1353 41.4371 38.2332C37.6206 38.4377 33.8074 38.7385 29.9892 38.8399C26.7645 38.9275 23.5313 38.8313 20.3049 38.7402C17.8327 38.6715 15.3638 38.4893 12.895 38.3467C11.1601 38.2453 9.42679 38.125 7.66986 38.0116V35.3701L9.09198 35.2773V26.2481L6.90723 24.7564L10.81 19.8568C12.4232 17.8375 14.0483 15.8199 15.6395 13.7817C15.9997 13.3194 16.3531 13.1733 16.9263 13.2988C19.2937 13.8144 21.6611 14.3007 24.0386 14.7767C24.4299 14.8397 24.8263 14.8644 25.2223 14.8506C28.0124 14.8506 30.8025 14.8128 33.591 14.8781C34.4365 14.897 35.2938 15.1428 36.1088 15.3937C36.9239 15.6446 37.7068 16.1121 38.5303 16.4008C39.1239 16.6087 39.342 16.961 39.2355 17.5522C39.0021 18.8617 39.5737 19.6746 40.6035 20.4548C42.9675 22.2542 45.2266 24.191 47.5568 26.09ZM16.512 16.4094C14.8616 18.4596 13.2991 20.3981 11.7401 22.3538C11.6119 22.538 11.5449 22.759 11.549 22.9845C11.5371 26.9613 11.549 30.9397 11.5338 34.9164C11.5338 35.389 11.7029 35.5729 12.173 35.5935C14.0804 35.6743 15.9861 35.7774 17.8919 35.8874C19.8822 36.0008 21.8724 36.1126 23.8593 36.2638C24.4596 36.3102 24.6473 36.1211 24.644 35.5128C24.6237 31.9038 24.644 28.2949 24.6118 24.6979C24.5732 24.3172 24.4038 23.9624 24.1333 23.696C23.2049 22.7405 22.2292 21.8331 21.2586 20.9154C19.7097 19.4289 18.1489 17.9595 16.512 16.4094ZM26.942 30.8847C26.942 32.4314 26.9589 33.9781 26.942 35.5248C26.942 36.0747 27.0671 36.2707 27.6641 36.2277C29.9317 36.0558 32.2044 35.9544 34.4753 35.8376C37.2553 35.6949 40.0353 35.5506 42.8153 35.4423C43.3496 35.4217 43.4781 35.2223 43.4731 34.7222C43.4528 32.7167 43.4393 30.7129 43.4731 28.7073C43.4849 28.0938 43.304 27.8669 42.6986 27.7879C37.6516 27.1314 32.6062 26.4532 27.5626 25.7531C27.0097 25.6758 26.9302 25.8769 26.9319 26.3323C26.9488 27.8498 26.942 29.3672 26.942 30.8847ZM33.4472 23.971V17.5385C29.0405 17.2257 24.5915 18.054 20.2339 16.7015C20.3153 16.9814 20.4661 17.2352 20.6718 17.4388C22.0026 18.7105 23.4062 19.9118 24.6575 21.2591C25.8023 22.4913 27.0147 23.3214 28.7632 23.3764C30.2952 23.4245 31.8171 23.7527 33.4472 23.971ZM37.7423 24.5416C37.7423 22.5841 37.7423 20.7607 37.7423 18.9374C37.7428 18.8681 37.7278 18.7997 37.6985 18.7372C37.6692 18.6747 37.6264 18.6198 37.5732 18.5765C36.7497 18.1967 35.9144 17.8461 35.0368 17.468V24.1927L37.7423 24.5416ZM42.3892 25.1929L42.4822 24.9317L39.2304 22.2902C39.2304 23.1667 39.2033 23.7562 39.2473 24.3422C39.2653 24.4412 39.3072 24.5341 39.3692 24.6127C39.4311 24.6913 39.5113 24.753 39.6024 24.7925C40.5223 24.9557 41.4574 25.0657 42.3892 25.1929Z" fill="#053769"/>
</svg>
