<svg width="24" height="24" viewBox="0 0 24 24" fill="none" xmlns="http://www.w3.org/2000/svg">
<path d="M11.9999 3C10.4243 3.00041 8.87635 3.41434 7.51083 4.20042C6.1453 4.9865 5.01002 6.11719 4.21846 7.47948C3.4269 8.84177 3.00677 10.3879 3.00008 11.9635C2.99339 13.539 3.40036 15.0887 4.18032 16.4577L3.36988 19.2939C3.31698 19.4791 3.31457 19.675 3.36289 19.8614C3.41122 20.0479 3.50851 20.218 3.6447 20.3541C3.78088 20.4903 3.95101 20.5876 4.13744 20.6359C4.32388 20.6842 4.51984 20.6818 4.70502 20.6289L7.54154 19.8186C8.73907 20.5013 10.0774 20.8998 11.4534 20.9834C12.8293 21.067 14.2061 20.8335 15.4775 20.3009C16.7489 19.7682 17.881 18.9506 18.7864 17.9112C19.6918 16.8718 20.3463 15.6384 20.6995 14.306C21.0527 12.9736 21.0952 11.5779 20.8235 10.2265C20.5519 8.87515 19.9735 7.60422 19.1328 6.51176C18.2922 5.41931 17.2119 4.53452 15.9752 3.92565C14.7385 3.31677 13.3784 3.00008 11.9999 3ZM11.9999 20.2788C10.5129 20.2798 9.05306 19.8798 7.77427 19.1208C7.73211 19.0957 7.68526 19.0795 7.63659 19.0732C7.58793 19.0669 7.53849 19.0706 7.49132 19.0841L4.5072 19.9366C4.44548 19.9542 4.38016 19.955 4.31803 19.9389C4.25589 19.9228 4.1992 19.8904 4.15381 19.845C4.10843 19.7996 4.07601 19.7429 4.05991 19.6808C4.04381 19.6186 4.04461 19.5533 4.06224 19.4916L4.91472 16.5078C4.9282 16.4606 4.9319 16.4112 4.92558 16.3625C4.91927 16.3139 4.90307 16.267 4.878 16.2248C3.94541 14.6537 3.55865 12.8183 3.77798 11.0045C3.9973 9.19071 4.81039 7.50036 6.09059 6.19679C7.37079 4.89322 9.04621 4.04963 10.8559 3.79742C12.6655 3.54522 14.5077 3.89856 16.0956 4.80242C17.6835 5.70627 18.9279 7.10988 19.6348 8.79459C20.3418 10.4793 20.4717 12.3505 20.0043 14.1167C19.5369 15.883 18.4984 17.445 17.0506 18.5596C15.6028 19.6741 13.8271 20.2786 11.9999 20.2788ZM16.546 13.6681L14.7046 12.616C14.538 12.5209 14.3491 12.4719 14.1573 12.4739C13.9655 12.476 13.7777 12.529 13.6132 12.6276L12.3706 13.3731C11.6183 12.992 11.0073 12.381 10.6262 11.6288L11.3717 10.3862C11.4703 10.2217 11.5234 10.0339 11.5254 9.84212C11.5274 9.65033 11.4784 9.46145 11.3833 9.29488L10.3312 7.45361C10.2452 7.30371 10.1213 7.17912 9.97186 7.0924C9.82241 7.00569 9.65273 6.95992 9.47995 6.95972C8.71805 6.95991 7.98726 7.26189 7.44751 7.79958C6.90776 8.33728 6.60301 9.06688 6.59996 9.82872C6.59855 10.8223 6.79306 11.8065 7.17234 12.7249C7.55163 13.6433 8.10826 14.4779 8.81039 15.181C9.51253 15.8841 10.3464 16.4419 11.2643 16.8225C12.1822 17.2031 13.1661 17.399 14.1598 17.399H14.1706C14.9325 17.396 15.6622 17.0913 16.2 16.5515C16.7377 16.0118 17.0397 15.2811 17.0399 14.5192C17.0397 14.3464 16.994 14.1768 16.9072 14.0273C16.8205 13.8779 16.6959 13.754 16.546 13.6681ZM14.1696 16.679H14.1599C13.2609 16.679 12.3706 16.5018 11.5402 16.1575C10.7097 15.8132 9.9552 15.3085 9.31993 14.6724C8.68465 14.0363 8.18103 13.2811 7.83785 12.4502C7.49468 11.6193 7.31869 10.7289 7.31996 9.82989C7.32243 9.25871 7.5511 8.71178 7.95592 8.30879C8.36074 7.90581 8.90872 7.6796 9.47995 7.67967C9.52583 7.67973 9.57089 7.69188 9.61058 7.7149C9.65027 7.73792 9.68319 7.77099 9.70603 7.81079L10.7581 9.65215C10.7898 9.70767 10.8062 9.77062 10.8055 9.83454C10.8048 9.89847 10.7872 9.96106 10.7543 10.0159L9.90924 11.4241C9.87936 11.4739 9.86197 11.5302 9.85855 11.5882C9.85513 11.6461 9.8658 11.7041 9.88962 11.757C10.3595 12.8027 11.1966 13.6397 12.2424 14.1095C12.2953 14.1334 12.3533 14.1441 12.4113 14.1406C12.4692 14.1372 12.5255 14.1198 12.5753 14.0899L13.9835 13.2449C14.0384 13.212 14.101 13.1944 14.1649 13.1937C14.2289 13.193 14.2918 13.2093 14.3474 13.241L16.1888 14.2932C16.2286 14.316 16.2617 14.3489 16.2847 14.3886C16.3077 14.4283 16.3199 14.4733 16.3199 14.5192C16.32 15.0904 16.0938 15.6383 15.6908 16.0431C15.2878 16.4479 14.7408 16.6765 14.1696 16.679Z" fill="#455C80" stroke="#455C80" stroke-width="0.5"/>
</svg>
