<svg width="24" height="16" viewBox="0 0 24 16" fill="none" xmlns="http://www.w3.org/2000/svg">
<path d="M12.006 0.296876C9.336 0.296876 6.668 1.08088 4.361 2.64988H0L1.963 4.78488C1.06861 5.59975 0.441617 6.66611 0.1644 7.84387C-0.112816 9.02163 -0.0272945 10.2557 0.409731 11.384C0.846756 12.5122 1.61484 13.4819 2.61309 14.1656C3.61134 14.8493 4.79306 15.2151 6.003 15.2149C7.51482 15.2162 8.97095 14.6445 10.078 13.6149L12 15.7069L13.922 13.6169C15.0284 14.6454 16.4834 15.2164 17.994 15.2149C19.585 15.2149 21.1108 14.583 22.2359 13.4582C23.3611 12.3334 23.9935 10.8078 23.994 9.21688C23.9949 8.3825 23.8213 7.55716 23.4843 6.79389C23.1472 6.03061 22.6543 5.34629 22.037 4.78488L24 2.64988H19.65C17.3962 1.11559 14.7325 0.295657 12.006 0.296876ZM12 2.25688C13.531 2.25688 15.063 2.55988 16.504 3.15988C13.943 4.13988 12 6.43188 12 9.10188C12 6.43088 10.058 4.13988 7.496 3.15988C8.92314 2.56506 10.4539 2.25751 12 2.25688ZM6.002 5.15888C6.53504 5.15888 7.06285 5.26387 7.55531 5.46785C8.04777 5.67183 8.49523 5.97082 8.87215 6.34773C9.24906 6.72464 9.54804 7.1721 9.75203 7.66456C9.95601 8.15703 10.061 8.68484 10.061 9.21788C10.061 9.75091 9.95601 10.2787 9.75203 10.7712C9.54804 11.2636 9.24906 11.7111 8.87215 12.088C8.49523 12.4649 8.04777 12.7639 7.55531 12.9679C7.06285 13.1719 6.53504 13.2769 6.002 13.2769C4.92549 13.2769 3.89306 12.8492 3.13185 12.088C2.37064 11.3268 1.943 10.2944 1.943 9.21788C1.943 8.14136 2.37064 7.10894 3.13185 6.34773C3.89306 5.58652 4.92549 5.15888 6.002 5.15888ZM17.994 5.16088C18.5268 5.16068 19.0545 5.26544 19.5469 5.46916C20.0392 5.67289 20.4866 5.9716 20.8635 6.34823C21.2404 6.72486 21.5395 7.17205 21.7436 7.66425C21.9477 8.15646 22.0528 8.68404 22.053 9.21688C22.0532 9.74971 21.9484 10.2774 21.7447 10.7697C21.541 11.2621 21.2423 11.7095 20.8656 12.0864C20.489 12.4633 20.0418 12.7624 19.5496 12.9664C19.0574 13.1705 18.5298 13.2757 17.997 13.2759C16.9209 13.2763 15.8887 12.8492 15.1275 12.0885C14.3663 11.3279 13.9384 10.296 13.938 9.21988C13.9376 8.14376 14.3647 7.11156 15.1254 6.35035C15.886 5.58914 16.9179 5.16127 17.994 5.16088ZM6.002 7.09088C5.43762 7.09088 4.89635 7.31508 4.49728 7.71415C4.0982 8.11323 3.874 8.6545 3.874 9.21888C3.874 9.78326 4.0982 10.3245 4.49728 10.7236C4.89635 11.1227 5.43762 11.3469 6.002 11.3469C6.56638 11.3469 7.10765 11.1227 7.50672 10.7236C7.9058 10.3245 8.13 9.78326 8.13 9.21888C8.13 8.6545 7.9058 8.11323 7.50672 7.71415C7.10765 7.31508 6.56638 7.09088 6.002 7.09088ZM17.994 7.09088C17.4296 7.09088 16.8884 7.31508 16.4893 7.71415C16.0902 8.11323 15.866 8.6545 15.866 9.21888C15.866 9.78326 16.0902 10.3245 16.4893 10.7236C16.8884 11.1227 17.4296 11.3469 17.994 11.3469C18.5584 11.3469 19.0996 11.1227 19.4987 10.7236C19.8978 10.3245 20.122 9.78326 20.122 9.21888C20.122 8.6545 19.8978 8.11323 19.4987 7.71415C19.0996 7.31508 18.5584 7.09088 17.994 7.09088Z" fill="#073762"/>
</svg>
