<svg width="22" height="22" viewBox="0 0 22 22" fill="none" xmlns="http://www.w3.org/2000/svg">
<path fill-rule="evenodd" clip-rule="evenodd" d="M2.49993 11C2.49993 9.31886 2.99845 7.67547 3.93244 6.27765C4.86643 4.87984 6.19395 3.79037 7.74712 3.14702C9.30029 2.50368 11.0094 2.33535 12.6582 2.66333C14.307 2.9913 15.8216 3.80085 17.0103 4.98959C18.1991 6.17834 19.0086 7.69289 19.3366 9.34173C19.6646 10.9906 19.4963 12.6996 18.8529 14.2528C18.2096 15.806 17.1201 17.1335 15.7223 18.0675C14.3245 19.0015 12.6811 19.5 10.9999 19.5C9.39178 19.5029 7.81616 19.047 6.45793 18.186C6.33711 18.1096 6.20131 18.0599 6.05969 18.0404C5.91806 18.021 5.7739 18.0321 5.63693 18.073L2.75693 18.932L3.84193 16.395C3.90499 16.2473 3.93156 16.0866 3.91937 15.9264C3.90719 15.7663 3.85662 15.6115 3.77193 15.475C2.93786 14.1316 2.49718 12.5813 2.49993 11ZM10.9999 0.5C5.20093 0.5 0.499929 5.201 0.499929 11C0.499929 12.838 0.972929 14.568 1.80493 16.073L0.0799289 20.107C0.00526863 20.2817 -0.0180569 20.4741 0.0126842 20.6617C0.0434253 20.8492 0.12696 21.0241 0.253506 21.1658C0.380052 21.3076 0.544369 21.4104 0.727215 21.4621C0.91006 21.5139 1.10386 21.5124 1.28593 21.458L5.78593 20.116C7.37295 21.0255 9.17079 21.5027 10.9999 21.5C16.7989 21.5 21.4999 16.799 21.4999 11C21.4999 5.201 16.7989 0.5 10.9999 0.5ZM13.2929 13.182L11.9779 14.108C11.2534 13.6912 10.5881 13.1789 9.99993 12.585C9.36846 11.9544 8.82247 11.2437 8.37593 10.471L9.21093 9.762C9.38492 9.61438 9.50319 9.4117 9.54612 9.1876C9.58905 8.96351 9.55405 8.73147 9.44693 8.53L8.38293 6.53C8.31212 6.39718 8.21225 6.28205 8.09075 6.1932C7.96925 6.10436 7.82926 6.04408 7.68122 6.01688C7.53318 5.98967 7.38091 5.99624 7.23576 6.03608C7.09061 6.07593 6.95633 6.14803 6.84293 6.247L6.52693 6.522C5.76793 7.184 5.31893 8.272 5.69093 9.374C6.28943 11.1171 7.27983 12.6997 8.58593 14C10.3989 15.813 12.2409 16.527 13.3189 16.805C14.1869 17.028 15.0079 16.729 15.5869 16.257L16.1779 15.775C16.3025 15.6734 16.4008 15.5432 16.4644 15.3956C16.528 15.2479 16.5551 15.0871 16.5433 14.9268C16.5315 14.7664 16.4812 14.6113 16.3967 14.4745C16.3123 14.3377 16.196 14.2233 16.0579 14.141L14.3799 13.141C14.214 13.042 14.0229 12.9932 13.8299 13.0004C13.6368 13.0077 13.4499 13.0708 13.2919 13.182H13.2929Z" fill="#04376F"/>
</svg>
