<svg width="14" height="21" viewBox="0 0 14 21" fill="none" xmlns="http://www.w3.org/2000/svg">
<path d="M7.25001 2.96024C7.23922 2.96024 7.22809 2.96078 7.21731 2.96078C7.20757 2.96078 7.19609 2.96024 7.1853 2.96024H7.25001Z" fill="#073762"/>
<path d="M6.99983 0C3.13411 0 0 3.29122 0 7.35108C0 10.5418 1.93877 13.2496 4.64394 14.2667L6.99948 21L9.35711 14.2667C12.0605 13.2493 14 10.5418 14 7.35108C13.9997 3.29122 10.8655 0 6.99983 0ZM9.63994 7.22833V10.5367H7.39572V8.55921H6.38233V10.5367H4.13637V7.22833H3.267L6.88885 3.35113L8.19134 4.74594V4.03465H9.20543V5.83205L10.5097 7.22833H9.63994Z" fill="#073762"/>
</svg>
