<svg width="14" height="21" viewBox="0 0 14 21" fill="none" xmlns="http://www.w3.org/2000/svg">
<path d="M7.20912 20.7891C7.15781 20.7211 7.08819 20.6283 7.0026 20.5131C6.8058 20.2484 6.52454 19.8654 6.18699 19.3929C5.51179 18.4478 4.61174 17.1451 3.71191 15.714C2.81181 14.2825 1.91336 12.7249 1.24036 11.2698C0.565331 9.81032 0.125 8.47019 0.125 7.46819C0.125 3.40564 3.21122 0.125 6.99998 0.125C10.7888 0.125 13.875 3.40564 13.875 7.46819C13.875 8.47185 13.46 9.81304 12.8248 11.2724C12.1913 12.7277 11.3457 14.2854 10.4985 15.7169C9.65161 17.148 8.80451 18.4507 8.16904 19.3958C7.85135 19.8683 7.58664 20.2513 7.40142 20.516C7.32201 20.6296 7.25721 20.7213 7.20912 20.7891ZM12.7047 7.46819C12.7047 4.11915 10.1582 1.39024 6.99998 1.39024C3.84182 1.39024 1.29525 4.11915 1.29525 7.46819C1.29525 10.8173 3.84182 13.5462 6.99998 13.5462C10.1582 13.5462 12.7047 10.8173 12.7047 7.46819Z" fill="#FEC60D" stroke="black" stroke-width="0.25"/>
<mask id="path-2-inside-1" fill="white">
<path d="M10.6936 8.61494C10.6872 8.52298 10.6213 8.48319 10.5556 8.46583C10.5219 8.26734 10.5267 8.13894 10.4382 8.14247C10.4378 8.14247 10.4375 8.14256 10.437 8.14265C10.4353 8.02962 10.4325 7.90971 10.4278 7.8229C10.4158 7.60579 10.3326 6.72849 10.2929 6.46028C10.2532 6.19208 10.0905 5.3872 10.0429 5.20834C9.99527 5.02939 9.90798 5.12316 9.90798 5.12316L9.88194 5.13084C9.74292 5.01727 9.2896 4.78379 8.68849 4.70865C8.02983 4.62636 7.424 4.62067 7.424 4.62067C7.00608 4.60077 5.8395 5.02948 5.38972 5.14016C4.94003 5.25093 3.59887 5.69384 3.33429 5.73353C3.0698 5.77323 3.12794 6.17635 3.1148 6.47439C3.10157 6.77252 3.12794 7.99887 3.12794 7.99887C3.12794 7.99887 3.54696 8.22783 3.66299 8.28679C3.66114 8.13967 3.66358 7.97726 3.66358 7.93657C3.66358 7.79605 3.75879 7.54593 3.94189 7.54593C3.9788 7.54593 4.01385 7.55714 4.0457 7.57731C4.00854 7.57667 3.97804 7.57794 3.96253 7.58246C3.96093 7.58291 3.9595 7.58373 3.95798 7.58436C3.81137 7.60308 3.69535 7.84433 3.69535 8.14012C3.69535 8.44793 3.82106 8.6975 3.97618 8.6975C3.97694 8.6975 3.97762 8.69732 3.97829 8.69732C3.97863 8.69732 3.97888 8.69759 3.9793 8.69759C4.01772 8.69705 4.14285 8.69307 4.17369 8.69307C4.20453 8.69307 4.2973 8.59342 4.31171 8.53546C4.31213 8.53401 4.31246 8.53193 4.3128 8.52976C4.99016 8.78323 5.98746 9.15451 5.98746 9.15451C5.98746 9.15451 5.99033 9.15523 5.99538 9.1565C5.99412 8.93604 5.98881 8.80574 5.98881 8.672C5.98881 8.31582 6.13163 7.96958 6.48561 7.96958C6.59177 7.96958 6.69052 8.00936 6.77487 8.07709C6.65193 8.0704 6.53085 8.0676 6.48619 8.07863C6.48476 8.07908 6.48358 8.07971 6.48215 8.08007C6.23805 8.10367 6.04442 8.44793 6.04442 8.8694C6.04442 9.30597 6.25229 9.65999 6.50878 9.65999C6.50996 9.65999 6.51105 9.65981 6.51215 9.65981C6.51282 9.65981 6.51333 9.65999 6.51392 9.65999C6.57745 9.65927 6.78431 9.65366 6.83528 9.65366C6.88626 9.65366 7.03961 9.51242 7.06346 9.43004C7.06725 9.41702 7.07062 9.38238 7.07374 9.33328C7.08267 9.36819 7.09337 9.39956 7.10702 9.4247C7.34438 9.47923 7.54062 9.52083 7.59606 9.52372C7.76273 9.53231 7.91617 9.50102 8.12774 9.48674C8.33932 9.47263 8.85052 9.47335 8.93385 9.47335C9.01719 9.47335 9.07271 9.51377 9.11838 9.54777C9.16405 9.58186 9.40605 9.56694 9.49334 9.56477C9.58063 9.5626 9.68579 9.43067 9.73938 9.39875C9.79297 9.36674 10.0131 9.34974 10.2155 9.32415C10.4179 9.29865 10.4199 9.2944 10.5013 9.16446C10.5826 9.03434 10.7055 8.78522 10.6936 8.61494ZM3.85544 8.09961C3.85544 7.95266 3.9049 7.83358 3.9659 7.83358C4.02691 7.83358 4.07637 7.95266 4.07637 8.09961C4.07637 8.24655 4.02691 8.36564 3.9659 8.36564C3.9049 8.36564 3.85544 8.24655 3.85544 8.09961ZM4.43211 6.4771C3.83572 6.44482 3.23512 6.41208 3.23512 6.41208C3.23512 6.41208 3.23512 6.09704 3.23512 5.99486C3.23512 5.89259 3.23908 5.85 3.40179 5.8245C3.45554 5.816 3.88341 5.73968 4.43211 5.6413V6.4771ZM5.04712 6.51056C4.89048 6.50206 4.71346 6.49239 4.53263 6.48262V5.62312C4.69728 5.59364 4.87077 5.56245 5.04712 5.5308V6.51056ZM5.81827 6.55659C5.72752 6.54845 5.64629 6.54338 5.58419 6.53986C5.53052 6.53687 5.37397 6.52838 5.16559 6.51698V5.50946C5.38526 5.46985 5.60678 5.43006 5.81835 5.39199V6.55659H5.81827ZM5.99285 6.5753V5.36053C6.41146 5.28511 6.77352 5.21983 6.97692 5.1832V6.954C6.80975 6.8473 6.66617 6.76022 6.58806 6.72297C6.42654 6.64592 6.20047 6.60162 5.99285 6.5753ZM6.309 8.81207C6.309 8.60364 6.39073 8.43472 6.49159 8.43472C6.59245 8.43472 6.67409 8.60364 6.67409 8.81207C6.67409 9.02041 6.59236 9.18933 6.49159 9.18933C6.39081 9.18933 6.309 9.02041 6.309 8.81207ZM9.8656 5.3476C9.8656 5.3476 10.0323 5.88418 10.1196 6.31425C10.2095 6.75733 10.2862 7.22122 10.3338 7.61294L10.2346 7.70662L9.57381 7.72416C9.54221 7.36273 9.47826 6.62269 9.46073 6.37411C9.44236 6.11404 9.24435 5.45448 9.14661 5.14161C9.36476 5.18266 9.60641 5.24759 9.8656 5.3476ZM7.15151 7.06686C7.15151 7.06686 7.15151 5.36885 7.15151 5.21974C7.15151 5.0708 7.15951 4.99548 7.19254 4.96003C7.22566 4.92449 7.53885 4.9188 7.59985 4.98128C7.68723 5.07071 7.97683 6.04161 7.99663 6.45893C8.00776 6.69349 8.03236 7.65977 8.03236 7.65977C8.03236 7.65977 7.56556 7.33732 7.15151 7.06686ZM8.11308 8.51574L8.326 8.28724H8.90664L9.11906 8.5152L8.11308 8.51574ZM8.63557 7.74921L8.51256 7.65987L8.29837 7.65128C8.29837 7.65128 8.26618 6.92308 8.25868 6.68047C8.25068 6.42493 8.21503 6.15238 8.1317 5.82875C8.03893 5.4684 7.90951 5.14323 8.00472 5.12189C8.07162 5.10697 8.462 5.03128 9.04044 5.12334C9.129 5.40528 9.34748 6.12137 9.36594 6.38207C9.38346 6.62974 9.44683 7.36273 9.47851 7.72687L8.63557 7.74921ZM10.2029 8.96498L9.34976 9.03515V8.64343L10.2108 8.63059L10.2029 8.96498ZM10.4253 8.45236C10.3849 8.45236 10.0585 8.45236 10.0585 8.45236L10.2693 8.22611H10.4162C10.4509 8.22611 10.456 8.39114 10.4567 8.45263C10.4429 8.45227 10.4317 8.45236 10.4253 8.45236Z"/>
</mask>
<path d="M10.6936 8.61494C10.6872 8.52298 10.6213 8.48319 10.5556 8.46583C10.5219 8.26734 10.5267 8.13894 10.4382 8.14247C10.4378 8.14247 10.4375 8.14256 10.437 8.14265C10.4353 8.02962 10.4325 7.90971 10.4278 7.8229C10.4158 7.60579 10.3326 6.72849 10.2929 6.46028C10.2532 6.19208 10.0905 5.3872 10.0429 5.20834C9.99527 5.02939 9.90798 5.12316 9.90798 5.12316L9.88194 5.13084C9.74292 5.01727 9.2896 4.78379 8.68849 4.70865C8.02983 4.62636 7.424 4.62067 7.424 4.62067C7.00608 4.60077 5.8395 5.02948 5.38972 5.14016C4.94003 5.25093 3.59887 5.69384 3.33429 5.73353C3.0698 5.77323 3.12794 6.17635 3.1148 6.47439C3.10157 6.77252 3.12794 7.99887 3.12794 7.99887C3.12794 7.99887 3.54696 8.22783 3.66299 8.28679C3.66114 8.13967 3.66358 7.97726 3.66358 7.93657C3.66358 7.79605 3.75879 7.54593 3.94189 7.54593C3.9788 7.54593 4.01385 7.55714 4.0457 7.57731C4.00854 7.57667 3.97804 7.57794 3.96253 7.58246C3.96093 7.58291 3.9595 7.58373 3.95798 7.58436C3.81137 7.60308 3.69535 7.84433 3.69535 8.14012C3.69535 8.44793 3.82106 8.6975 3.97618 8.6975C3.97694 8.6975 3.97762 8.69732 3.97829 8.69732C3.97863 8.69732 3.97888 8.69759 3.9793 8.69759C4.01772 8.69705 4.14285 8.69307 4.17369 8.69307C4.20453 8.69307 4.2973 8.59342 4.31171 8.53546C4.31213 8.53401 4.31246 8.53193 4.3128 8.52976C4.99016 8.78323 5.98746 9.15451 5.98746 9.15451C5.98746 9.15451 5.99033 9.15523 5.99538 9.1565C5.99412 8.93604 5.98881 8.80574 5.98881 8.672C5.98881 8.31582 6.13163 7.96958 6.48561 7.96958C6.59177 7.96958 6.69052 8.00936 6.77487 8.07709C6.65193 8.0704 6.53085 8.0676 6.48619 8.07863C6.48476 8.07908 6.48358 8.07971 6.48215 8.08007C6.23805 8.10367 6.04442 8.44793 6.04442 8.8694C6.04442 9.30597 6.25229 9.65999 6.50878 9.65999C6.50996 9.65999 6.51105 9.65981 6.51215 9.65981C6.51282 9.65981 6.51333 9.65999 6.51392 9.65999C6.57745 9.65927 6.78431 9.65366 6.83528 9.65366C6.88626 9.65366 7.03961 9.51242 7.06346 9.43004C7.06725 9.41702 7.07062 9.38238 7.07374 9.33328C7.08267 9.36819 7.09337 9.39956 7.10702 9.4247C7.34438 9.47923 7.54062 9.52083 7.59606 9.52372C7.76273 9.53231 7.91617 9.50102 8.12774 9.48674C8.33932 9.47263 8.85052 9.47335 8.93385 9.47335C9.01719 9.47335 9.07271 9.51377 9.11838 9.54777C9.16405 9.58186 9.40605 9.56694 9.49334 9.56477C9.58063 9.5626 9.68579 9.43067 9.73938 9.39875C9.79297 9.36674 10.0131 9.34974 10.2155 9.32415C10.4179 9.29865 10.4199 9.2944 10.5013 9.16446C10.5826 9.03434 10.7055 8.78522 10.6936 8.61494ZM3.85544 8.09961C3.85544 7.95266 3.9049 7.83358 3.9659 7.83358C4.02691 7.83358 4.07637 7.95266 4.07637 8.09961C4.07637 8.24655 4.02691 8.36564 3.9659 8.36564C3.9049 8.36564 3.85544 8.24655 3.85544 8.09961ZM4.43211 6.4771C3.83572 6.44482 3.23512 6.41208 3.23512 6.41208C3.23512 6.41208 3.23512 6.09704 3.23512 5.99486C3.23512 5.89259 3.23908 5.85 3.40179 5.8245C3.45554 5.816 3.88341 5.73968 4.43211 5.6413V6.4771ZM5.04712 6.51056C4.89048 6.50206 4.71346 6.49239 4.53263 6.48262V5.62312C4.69728 5.59364 4.87077 5.56245 5.04712 5.5308V6.51056ZM5.81827 6.55659C5.72752 6.54845 5.64629 6.54338 5.58419 6.53986C5.53052 6.53687 5.37397 6.52838 5.16559 6.51698V5.50946C5.38526 5.46985 5.60678 5.43006 5.81835 5.39199V6.55659H5.81827ZM5.99285 6.5753V5.36053C6.41146 5.28511 6.77352 5.21983 6.97692 5.1832V6.954C6.80975 6.8473 6.66617 6.76022 6.58806 6.72297C6.42654 6.64592 6.20047 6.60162 5.99285 6.5753ZM6.309 8.81207C6.309 8.60364 6.39073 8.43472 6.49159 8.43472C6.59245 8.43472 6.67409 8.60364 6.67409 8.81207C6.67409 9.02041 6.59236 9.18933 6.49159 9.18933C6.39081 9.18933 6.309 9.02041 6.309 8.81207ZM9.8656 5.3476C9.8656 5.3476 10.0323 5.88418 10.1196 6.31425C10.2095 6.75733 10.2862 7.22122 10.3338 7.61294L10.2346 7.70662L9.57381 7.72416C9.54221 7.36273 9.47826 6.62269 9.46073 6.37411C9.44236 6.11404 9.24435 5.45448 9.14661 5.14161C9.36476 5.18266 9.60641 5.24759 9.8656 5.3476ZM7.15151 7.06686C7.15151 7.06686 7.15151 5.36885 7.15151 5.21974C7.15151 5.0708 7.15951 4.99548 7.19254 4.96003C7.22566 4.92449 7.53885 4.9188 7.59985 4.98128C7.68723 5.07071 7.97683 6.04161 7.99663 6.45893C8.00776 6.69349 8.03236 7.65977 8.03236 7.65977C8.03236 7.65977 7.56556 7.33732 7.15151 7.06686ZM8.11308 8.51574L8.326 8.28724H8.90664L9.11906 8.5152L8.11308 8.51574ZM8.63557 7.74921L8.51256 7.65987L8.29837 7.65128C8.29837 7.65128 8.26618 6.92308 8.25868 6.68047C8.25068 6.42493 8.21503 6.15238 8.1317 5.82875C8.03893 5.4684 7.90951 5.14323 8.00472 5.12189C8.07162 5.10697 8.462 5.03128 9.04044 5.12334C9.129 5.40528 9.34748 6.12137 9.36594 6.38207C9.38346 6.62974 9.44683 7.36273 9.47851 7.72687L8.63557 7.74921ZM10.2029 8.96498L9.34976 9.03515V8.64343L10.2108 8.63059L10.2029 8.96498ZM10.4253 8.45236C10.3849 8.45236 10.0585 8.45236 10.0585 8.45236L10.2693 8.22611H10.4162C10.4509 8.22611 10.456 8.39114 10.4567 8.45263C10.4429 8.45227 10.4317 8.45236 10.4253 8.45236Z" fill="#FEC60D" stroke="black" stroke-width="0.1" mask="url(#path-2-inside-1)"/>
</svg>
