<svg width="14" height="21" viewBox="0 0 14 21" fill="none" xmlns="http://www.w3.org/2000/svg">
<path d="M6.99995 0C3.13394 1.16667e-05 3.21496e-05 3.34367 0 7.46825C0 11.5928 7.21308 21 7.21308 21C7.21308 21 14 11.5928 14 7.46825C14 3.34367 10.8659 1.16667e-05 6.99995 0ZM6.99995 1.51594C8.47963 1.51595 9.8987 2.14306 10.945 3.25933C11.9913 4.37561 12.5791 5.8896 12.5791 7.46825C12.5791 9.0469 11.9913 10.5609 10.945 11.6772C9.8987 12.7934 8.47963 13.4206 6.99995 13.4206C5.52027 13.4206 4.1012 12.7934 3.05491 11.6772C2.00862 10.5609 1.42082 9.0469 1.42082 7.46825C1.42082 5.8896 2.00862 4.37561 3.05491 3.25933C4.1012 2.14306 5.52027 1.51595 6.99995 1.51594Z" fill="#FC6808"/>
<path d="M4.72539 7.79071V10.5348H4.39087V10.7371H9.60902V10.5348H9.27466V7.79071H4.72539ZM5.41662 8.84272H6.43129V10.5348H5.41662V8.84272ZM7.7001 8.84295H8.83667V9.69183H7.7001V8.84295Z" fill="#FC6808"/>
<path d="M8.04637 5.31758C8.03254 5.31759 8.02136 5.32951 8.02136 5.34425V5.43204C8.02136 5.44676 8.03254 5.4586 8.04637 5.4586H8.04894C8.04894 5.4586 8.05183 5.78409 8.04765 5.94572L4.75768 5.93233L4.52832 7.61608C4.53546 7.61421 4.54276 7.61294 4.55044 7.61294H9.47178L9.26097 5.9507L8.63285 5.94807C8.63285 5.785 8.63156 5.45854 8.63156 5.45854H8.63715C8.65098 5.45854 8.66204 5.44674 8.66204 5.43199V5.3442C8.66204 5.32947 8.65098 5.31754 8.63715 5.31754H8.04626L8.04637 5.31758Z" fill="#FC6808"/>
<path d="M8.24596 4.19943C8.20698 4.19944 8.16959 4.21596 8.14202 4.24535C8.11446 4.27474 8.09897 4.3146 8.09897 4.35616C8.099 4.39034 8.10952 4.42357 8.12891 4.4508C8.1483 4.47802 8.17551 4.49773 8.20638 4.50694C8.1986 4.53226 8.19461 4.55873 8.19455 4.58538C8.19452 4.58775 8.19452 4.59013 8.19455 4.5925C8.14242 4.60562 8.09597 4.6371 8.0627 4.68185C8.02944 4.7266 8.0113 4.782 8.01123 4.83911C8.01123 4.87243 8.01738 4.90543 8.02934 4.93622C8.0413 4.96701 8.05883 4.99497 8.08093 5.01853C8.10304 5.0421 8.12927 5.0608 8.15815 5.07355C8.18703 5.0863 8.21798 5.09286 8.24924 5.09286C8.26065 5.09278 8.27204 5.09181 8.28332 5.08998C8.32211 5.11725 8.36754 5.13182 8.41401 5.13188C8.47713 5.13188 8.53766 5.10514 8.58229 5.05756C8.62692 5.00997 8.65199 4.94542 8.65199 4.87813C8.65193 4.83131 8.63972 4.78543 8.61672 4.74555C8.65133 4.70032 8.67026 4.64375 8.67031 4.58538C8.67031 4.51809 8.64523 4.45356 8.60061 4.40598C8.55598 4.3584 8.49545 4.33167 8.43234 4.33167C8.41856 4.33166 8.40481 4.33293 8.39125 4.33547C8.38655 4.29786 8.36921 4.26334 8.34245 4.23833C8.31569 4.21331 8.28133 4.1995 8.24574 4.19945L8.24596 4.19943Z" fill="#FC6808"/>
</svg>
