<svg width="14" height="21" viewBox="0 0 14 21" fill="none" xmlns="http://www.w3.org/2000/svg">
<path d="M6.99995 0C3.13395 1.16667e-05 3.21496e-05 3.34367 0 7.46824C0 11.5928 7.21308 21 7.21308 21C7.21308 21 14 11.5928 14 7.46824C14 3.34367 10.8659 1.16667e-05 6.99995 0ZM6.99995 1.51594C8.47964 1.51594 9.89872 2.14306 10.945 3.25933C11.9913 4.3756 12.5791 5.88959 12.5791 7.46824C12.5791 9.04689 11.9913 10.5609 10.945 11.6772C9.89871 12.7934 8.47963 13.4205 6.99995 13.4205C5.52027 13.4205 4.1012 12.7934 3.05491 11.6772C2.00863 10.5609 1.42082 9.04689 1.42082 7.46824C1.42082 5.8896 2.00862 4.37562 3.05491 3.25934C4.1012 2.14307 5.52027 1.51595 6.99995 1.51594Z" fill="#FC6A08"/>
<path d="M6.91578 2.9873L6.45117 3.8458H7.38038L6.91578 2.9873Z" fill="#FC6A08"/>
<path d="M6.23282 3.98041H6.20239V10.4555H6.50692V9.25017C6.50692 9.01828 6.68375 8.82963 6.9011 8.82963H6.93463C7.15199 8.82963 7.32881 9.01828 7.32881 9.25017V10.4555H7.67202V3.98041H7.59894H6.23282ZM6.97895 8.19001H6.85281V7.28283H6.97895V8.19001ZM6.97895 6.77614H6.85281V5.86896H6.97895V6.77614ZM6.97895 5.36234H6.85281V4.45509H6.97895V5.36234Z" fill="#FC6A08"/>
<path d="M2.95557 9.68842V10.4555H6.0762V4.53601C6.00147 4.94683 5.94318 5.35744 5.8866 5.75893C5.59192 7.84934 5.33722 9.6572 2.95557 9.68842Z" fill="#FC6A08"/>
<path d="M7.9824 5.77161C7.92729 5.37617 7.87061 4.97192 7.7981 4.56738V10.4555H10.9021V9.6961C8.52529 9.66476 8.27342 7.85926 7.9824 5.77161Z" fill="#FC6A08"/>
</svg>
