<svg width="50" height="90"  id="icon" xmlns="http://www.w3.org/2000/svg" viewBox="0 0 131 169"><defs><style>.cls-1{fill:#1d3967;}.cls-2,.cls-3,.cls-4{fill:#fff;}.cls-2{stroke:#1d3967;}.cls-2,.cls-3{stroke-miterlimit:10;stroke-width:0.75px;}.cls-3{stroke:#fff;}</style></defs><path class="cls-1" d="M65.06,77.93h50.48a1.85,1.85,0,0,1,1.6,2.77L91.89,124.51l-25.24,43.8a1.83,1.83,0,0,1-3.19,0l-25.24-43.8L13,80.7a1.85,1.85,0,0,1,1.6-2.77Z"/><ellipse class="cls-1" cx="64.92" cy="57.46" rx="53.67" ry="53.78"/><path class="cls-2" d="M65.43,114.58C34.32,114.94,9.23,90,8.05,59.83,6.73,26.12,34,.08,64.86.24c31.39.16,57,25.48,57.14,56.53C122.17,89.33,95.93,114.53,65.43,114.58Zm49.71-57.14C115.1,29.62,92.55,6.82,64.93,7A50.12,50.12,0,0,0,14.8,57.37a50.17,50.17,0,1,0,100.34.07Z"/><path class="cls-3" d="M65.8,32.06a3.38,3.38,0,0,1,3.47,3.41,3.41,3.41,0,1,1-6.82.05A3.37,3.37,0,0,1,65.8,32.06Zm2.14,3.4a2.09,2.09,0,1,0-4.17,0,2.09,2.09,0,1,0,4.17,0Z"/><path class="cls-4" d="M103.53,86.16c-.41-.07-.51-.25-.59-.61-.77-3.42-1.57-6.82-2.33-10.24A1.56,1.56,0,0,0,99.18,74c-2.45-.43-4.9-.85-7.34-1.35a13,13,0,0,1-9.65-7.44A46.69,46.69,0,0,1,79.27,57c-2.31-9-3.62-18.12-5-27.26a11.83,11.83,0,0,0-.78-3.5c-1.83-3.56-3.84-7-5.75-10.55a3.79,3.79,0,0,1-.4-1.48c-.09-1-.54-1.6-1.34-1.61s-1.3.6-1.38,1.65a3.67,3.67,0,0,1-.39,1.42c-1.9,3.49-3.84,7-5.74,10.46A4,4,0,0,0,58,27.5c-.49,3.11-.88,6.24-1.43,9.34-1,5.75-2,11.51-3.19,17.23a42.09,42.09,0,0,1-4.2,12.16,12,12,0,0,1-6.68,5.69,56.25,56.25,0,0,1-9.42,2c-1.39.24-1.53.39-1.85,1.78-.73,3.22-1.47,6.43-2.19,9.65-.1.44-.19.75-.75.83a1.14,1.14,0,0,0-1,1.26,1.23,1.23,0,0,0,1,1.25,5.16,5.16,0,0,0,1,.09h73.15a5.49,5.49,0,0,0,.91,0,1.3,1.3,0,0,0,1.19-1.26A1.27,1.27,0,0,0,103.53,86.16Zm-67-.08H31.64c.39-1.72.76-3.39,1.14-5,.29-1.27.61-2.54.86-3.82a.83.83,0,0,1,.89-.79c.64,0,1.28-.19,2-.3Zm5.43,0H39.31V75.59L42,74.94Zm5.42,0H44.74c0-.21-.05-.43-.05-.64,0-3.6,0-7.21,0-10.81a.9.9,0,0,1,.58-1c.7-.33,1.35-.76,2.11-1.2Zm5.31,0H50.12c0-.25,0-.51,0-.77,0-5.05,0-10.09,0-15.13a1.08,1.08,0,0,1,.11-.57c.81-1.3,1.63-2.59,2.49-3.94Zm5.35,0H55.4c0-.25,0-.51,0-.78,0-9.1,0-18.21,0-27.31a23.88,23.88,0,0,1,.85-4.35c.52-2.6,1-5.19,1.54-7.78,0-.15.07-.29.11-.43H58Zm8-68,4.27,7.78H61.7C63.13,23.26,64.52,20.74,66,18.09Zm1.26,68H64.73V82.13s0-2.93,0-3c0-2.37,0-4.73.07-7.1A3.68,3.68,0,0,1,66,69.42a3.72,3.72,0,0,1,1.19,2.5c0,2.46,0,4.93,0,7.45h0c0,.87,0,2.76,0,2.76Zm3.93,0H69.92c0-.71,0-1.39,0-2.06,0-3.94,0-7.87,0-11.8a7.76,7.76,0,0,0-3.1-5.82,1.28,1.28,0,0,0-1.78.09A8.27,8.27,0,0,0,62,73c.06,4.08,0,8.17,0,12.26v.85H60.77V28.65h10.4Zm5.38-.86v.88H74V45.41l.07,0c.18.9.35,1.79.54,2.69.6,2.83,1.21,5.66,1.81,8.49A7.46,7.46,0,0,1,76.55,58Zm5.31.56c0,.08,0,.15,0,.31H79.3V65.7q1.28,2,2.52,4a.63.63,0,0,1,.07.36Zm5.39.12s0,.09-.07.18H84.61V72.46c.83.48,1.6.89,2.35,1.35a.73.73,0,0,1,.29.52C87.26,78.19,87.25,82,87.25,85.89Zm5.41.18H90V75l2.67.64Zm2.77,0V76.12c.83.13,1.58.22,2.32.36a.68.68,0,0,1,.45.39c.72,3,1.4,6.07,2.11,9.18Z"/></svg>