<svg width="38" height="73" id="icon" xmlns="http://www.w3.org/2000/svg" viewBox="0 0 131 169"><defs><style>.cls-1{fill:#1d3967;}.cls-2{fill:#1b686e;}.cls-3,.cls-4{fill:#fff;}.cls-3{stroke:#1d3967;stroke-miterlimit:10;stroke-width:0.75px;}</style></defs><path class="cls-1" d="M65.9,86.32h46.39a1.69,1.69,0,0,1,1.47,2.54L90.57,129.1l-23.2,40.24a1.69,1.69,0,0,1-2.93,0L41.24,129.1,18.05,88.86a1.69,1.69,0,0,1,1.47-2.54Z"/><path class="cls-2" d="M66.57,115.44H65.43A56.47,56.47,0,0,1,9,58.92V57.78A56.48,56.48,0,0,1,65.43,1.26h1.14A56.48,56.48,0,0,1,123,57.78v1.14A56.47,56.47,0,0,1,66.57,115.44Zm-.19-6.3c27.18,0,50.55-22.48,50.4-51.47C116.63,30,93.84,7.47,65.88,7.33c-27.46-.15-51.8,23-50.62,53.06C16.31,87.22,38.67,109.46,66.38,109.14Z"/><path class="cls-3" d="M66.43,115.25c-31.05.36-56.1-24.55-57.27-54.62C7.84,27,35.1,1,65.86,1.19c31.33.16,56.87,25.42,57,56.4C123.06,90.07,96.87,115.2,66.43,115.25Zm49.61-57C116,30.5,93.5,7.76,65.93,7.94a50,50,0,0,0-50,50.24A50.07,50.07,0,1,0,116,58.25Z"/><path class="cls-1" d="M116,58.25A50.07,50.07,0,1,1,65.93,7.94C93.5,7.76,116,30.5,116,58.25ZM23.52,52.62,28.13,56V74.24l-2.87.18c-.07,1.19-.14,2.29-.21,3.4-.14,2.27.05,2.43,2.39,2.55,7.19.37,14.37.82,21.56,1.15,5.83.27,11.67.68,17.5.55,9-.2,17.9-.81,26.86-1.26,4.53-.22,9.07-.45,13.6-.75.48,0,1.3-.54,1.33-.88.15-1.63.07-3.28.07-4.92l-2.9-.15V60.05c1.61.38,2.17-.55,2.51-1.79a5.4,5.4,0,0,1,.54-1.31c.73-1.21.32-2-.75-2.8-4.42-3.46-8.69-7.13-13.19-10.48-2.18-1.63-3.47-3.33-3-6.15.1-.57-.22-1.66-.61-1.81-3.81-1.45-7.24-3.81-11.65-3.78C70.23,32,61,32.81,52,30.29c-2.38-.67-4.88-.91-7.28-1.53a2.42,2.42,0,0,0-2.84,1c-4,5-8,9.93-12,14.9C27.81,47.27,25.75,49.85,23.52,52.62Z"/><path class="cls-4" d="M23.52,52.62c2.23-2.77,4.29-5.35,6.37-7.91,4-5,8-9.91,12-14.9a2.42,2.42,0,0,1,2.84-1c2.4.62,4.9.86,7.28,1.53,9,2.52,18.19,1.69,27.31,1.64,4.41,0,7.84,2.33,11.65,3.78.39.15.71,1.24.61,1.81-.51,2.82.78,4.52,3,6.15,4.5,3.35,8.77,7,13.19,10.48,1.07.83,1.48,1.59.75,2.8a5.4,5.4,0,0,0-.54,1.31c-.34,1.24-.9,2.17-2.51,1.79V74.11l2.9.15c0,1.64.08,3.29-.07,4.92,0,.34-.85.85-1.33.88-4.53.3-9.07.53-13.6.75-9,.45-17.91,1.06-26.86,1.26-5.83.13-11.67-.28-17.5-.55-7.19-.33-14.37-.78-21.56-1.15-2.34-.12-2.53-.28-2.39-2.55.07-1.11.14-2.21.21-3.4l2.87-.18V56ZM43.88,35.51C40.5,39.67,37.24,43.65,34,47.66a2.55,2.55,0,0,0-.4,1.48c0,8.1,0,16.2,0,24.3,0,1,.32,1.34,1.32,1.39q12.18.63,24.36,1.37c1.1.06,1.44-.31,1.43-1.39,0-7.45,0-14.91,0-22.36A2.58,2.58,0,0,0,60,50.77C54.72,45.72,49.39,40.71,43.88,35.51ZM66.11,54.73V76.17l34.06-1.72c0-5,0-9.62-.06-14.28,0-.38-.89-1-1.42-1.06-5.9-.85-11.81-1.62-17.72-2.41ZM51.59,36a8.23,8.23,0,0,0,.73,1c4,3.72,7.91,7.46,11.9,11.14A3.38,3.38,0,0,0,65.9,49c4,.58,8.08,1.07,12.11,1.66,1.07.16,1.37-.21,1.36-1.21,0-3.43,0-6.87,0-10.3,0-1.08-.36-1.46-1.43-1.44-3.08,0-6.15.05-9.22,0-3.3,0-6.62,0-9.9-.31A67,67,0,0,1,51.59,36ZM82.8,51.24l5.49.75c0-3.89,0-7.59,0-11.29a1.28,1.28,0,0,0-.64-.94c-1.53-.71-3.11-1.33-4.82-2Zm15.11,2.09.14-.41-6.44-5.14c0,1.62,0,2.83,0,4a1.1,1.1,0,0,0,.73.78C94.22,52.88,96.07,53.09,97.91,53.33Z"/><path class="cls-1" d="M43.88,35.51C49.39,40.71,54.72,45.72,60,50.77a2.58,2.58,0,0,1,.68,1.68c0,7.45,0,14.91,0,22.36,0,1.08-.33,1.45-1.43,1.39q-12.18-.74-24.36-1.37c-1,0-1.32-.42-1.32-1.39,0-8.1,0-16.2,0-24.3a2.55,2.55,0,0,1,.4-1.48C37.24,43.65,40.5,39.67,43.88,35.51Z"/><path class="cls-1" d="M66.11,54.73,81,56.7c5.91.79,11.82,1.56,17.72,2.41.53.08,1.41.68,1.42,1.06.1,4.66.06,9.32.06,14.28L66.11,76.17Z"/><path class="cls-1" d="M51.59,36a67,67,0,0,0,7.24,1.42c3.28.29,6.6.26,9.9.31,3.07.05,6.14,0,9.22,0,1.07,0,1.45.36,1.43,1.44,0,3.43,0,6.87,0,10.3,0,1-.29,1.37-1.36,1.21-4-.59-8.07-1.08-12.11-1.66a3.38,3.38,0,0,1-1.68-.83c-4-3.68-7.95-7.42-11.9-11.14A8.23,8.23,0,0,1,51.59,36Z"/><path class="cls-1" d="M82.8,51.24V37.72c1.71.71,3.29,1.33,4.82,2a1.28,1.28,0,0,1,.64.94c0,3.7,0,7.4,0,11.29Z"/><path class="cls-1" d="M97.91,53.33c-1.84-.24-3.69-.45-5.53-.75a1.1,1.1,0,0,1-.73-.78c-.08-1.19,0-2.4,0-4l6.44,5.14Z"/></svg>