<svg width="50" height="90" id="icon" xmlns="http://www.w3.org/2000/svg" viewBox="0 0 131 169"><defs><style>.cls-1{fill:#1d3967;}.cls-2,.cls-3{fill:#fff;}.cls-2{stroke:#1d3967;stroke-miterlimit:10;stroke-width:0.25px;}</style></defs><path class="cls-1" d="M65.27,77.62h50.49a1.85,1.85,0,0,1,1.59,2.77L92.11,124.1,66.87,167.82a1.85,1.85,0,0,1-3.19,0L38.44,124.1,13.2,80.39a1.84,1.84,0,0,1,1.59-2.77Z"/><circle class="cls-1" cx="65.28" cy="56.13" r="53.32"/><path class="cls-2" d="M65.43,113.84C34.32,114.2,9.23,89.28,8.05,59.2,6.73,25.57,34-.42,64.86-.26c31.39.16,57,25.43,57.14,56.42C122.17,88.65,95.93,113.79,65.43,113.84Zm49.71-57c0-27.76-22.59-50.51-50.21-50.33a50.28,50.28,0,1,0,50.21,50.33Z"/><path class="cls-3" d="M107.22,75.68h0a2,2,0,0,1-.44,1.25c-1.24,1.51-3,1.3-4.7.77a21.27,21.27,0,0,1-4.39-2.27,26.24,26.24,0,0,1-2.31-1.93,5.35,5.35,0,0,0-6.6,0c-1.13.85-2.14,1.84-3.29,2.66a10.51,10.51,0,0,1-12.66-.37c-.75-.6-1.45-1.25-2.18-1.88a5.48,5.48,0,0,0-7.44-.15c-.67.53-1.28,1.14-1.94,1.69a10.89,10.89,0,0,1-6,2.61,10.3,10.3,0,0,1-4-.38h0a24.93,24.93,0,0,1-3.83-2.07l-.24-.16a14.25,14.25,0,0,0-1.52-1.31,5.83,5.83,0,0,0-.55-.46,5.49,5.49,0,0,0-2.73-1.13,5.38,5.38,0,0,0-3.87,1.08c-1.12.85-2.14,1.84-3.28,2.66A10.52,10.52,0,0,1,24,76.79a2.84,2.84,0,0,1-1.3-3.36l.11-.29a2.83,2.83,0,0,1,3.79-.83c2.11,1.22,4.35,1,6.46-.8A13.46,13.46,0,0,1,34.86,70a20.53,20.53,0,0,1,4.68-2.3,11.36,11.36,0,0,1,1.37-.26,9.47,9.47,0,0,1,4.19.41l.12,0a13.74,13.74,0,0,1,4.16,2.59l.21.18c3.76,3.21,5.8,3.13,9.61-.23.22-.2.44-.41.68-.6a10.67,10.67,0,0,1,8.88-2.38c2.75.44,4.74,2.07,6.7,3.83a5.45,5.45,0,0,0,7.77.15,13.46,13.46,0,0,1,1.84-1.56,20.33,20.33,0,0,1,4.68-2.3c3.81-1,7.14.24,10,2.9,1.29,1.21,2.62,2.46,4.53,2.46a3,3,0,0,1,1.8.49A2.78,2.78,0,0,1,107.22,75.68Z"/><path class="cls-3" d="M45.1,67.8a9.47,9.47,0,0,0-4.19-.41A4.59,4.59,0,0,1,43,67.28,10.34,10.34,0,0,1,45.1,67.8Z"/><path class="cls-3" d="M45.17,73.63a5.83,5.83,0,0,1,.55.46L45.56,74a10.61,10.61,0,0,0-3.12-1.48A5.49,5.49,0,0,1,45.17,73.63Z"/><path class="cls-3" d="M51.3,77.62a11.18,11.18,0,0,1-3.78-2l-.28-.24.24.16A23.88,23.88,0,0,0,51.3,77.62Z"/><path class="cls-3" d="M42.71,57.4a9.71,9.71,0,0,1,3.09.81,9.63,9.63,0,0,0-2.6-.65,11.6,11.6,0,0,0-2.35,0A4.67,4.67,0,0,1,42.71,57.4Z"/><path class="cls-3" d="M52.6,68a11.06,11.06,0,0,1-6.08-3.1c-.19-.19-.39-.37-.59-.55a19.47,19.47,0,0,0,3,2.29A15.33,15.33,0,0,0,52.6,68Z"/><path class="cls-3" d="M67.42,46.92C61.52,50.64,55.94,54,50,57.79c.29.19,2.75,3.09,5.09,2.42.83-.16,1.58-1.14,2.29-1.59,2.77-1.76,4.15-3.5,9.09-3.75a14.32,14.32,0,0,1,6.62,1.37c.63.31,2.79,1.82,3.37,2.2,1.38.89,1.69,1.6,3.26,1.51s2.67-1.4,4.06-2.22a5.71,5.71,0,0,0,.69-.49,8.61,8.61,0,0,1,1.76-.86c-.48-.7-.6-1-1.08-1.73-1.24-1.82-2.46-3.65-3.72-5.46a36.8,36.8,0,0,0-6.29-7c-2.75-2.36-5.71-4.45-8.61-6.61C65.67,35,64.82,34.3,64,33.67a3.81,3.81,0,0,0-4.54-.07L49.8,39.93a5.06,5.06,0,0,0-2,2.16,3.37,3.37,0,0,0,1.34,4.09,3.19,3.19,0,0,0,3.23.08c2-1,4-2.14,6-3.21.55-.29,1.1-.6,1.68-.86a1.91,1.91,0,0,1,2.51.6,20.11,20.11,0,0,0,4.71,4A1,1,0,0,1,67.42,46.92Z"/><path class="cls-3" d="M93,54.26A8.37,8.37,0,1,0,84.7,45.9,8.22,8.22,0,0,0,93,54.26Z"/><path class="cls-3" d="M45.72,74.09a14.25,14.25,0,0,1,1.52,1.31A17,17,0,0,1,45.72,74.09Z"/><path class="cls-3" d="M49.52,70.55l.07.06-.21-.18a13.74,13.74,0,0,0-4.16-2.59A12.21,12.21,0,0,1,49.52,70.55Z"/><path class="cls-3" d="M55.29,78a5.26,5.26,0,0,1-3.42-.18l-.55-.2A10.3,10.3,0,0,0,55.29,78Z"/><path class="cls-3" d="M107.22,65.77h0a1.83,1.83,0,0,1-.3,1,3,3,0,0,1-3.44,1.26,17.7,17.7,0,0,1-4.37-1.53,31.26,31.26,0,0,1-3.68-2.88,4.35,4.35,0,0,0-4.37-1,16.78,16.78,0,0,0-4.29,2.63A11.16,11.16,0,0,1,79,68.13a10.42,10.42,0,0,1-6.37-2.41c-.71-.57-1.35-1.22-2.06-1.79A5.44,5.44,0,0,0,63,64c-1.8,1.54-3.52,3.2-5.92,3.79a14,14,0,0,1-1.75.31,11.52,11.52,0,0,1-2.76,0h0a15.33,15.33,0,0,1-3.7-1.36,19.47,19.47,0,0,1-3-2.29l-.71-.59a4.35,4.35,0,0,0-4.37-1,16.73,16.73,0,0,0-4.28,2.63,11.18,11.18,0,0,1-7.75,2.84,14.61,14.61,0,0,1-5.23-1.87,2.39,2.39,0,0,1-1-3.31.64.64,0,0,0,.08-.14,2.51,2.51,0,0,1,3.49-.79c2.56,1.68,4.82,1.37,7.43-1.07a12.21,12.21,0,0,1,7.23-3.55,11.6,11.6,0,0,1,2.35,0,9.63,9.63,0,0,1,2.6.65l.06,0a15.67,15.67,0,0,1,3.31,2.11l.13.11a12.3,12.3,0,0,0,4.22,2.41c2.13.62,3.86-.63,5.36-2.09a10.94,10.94,0,0,1,7.66-3.41A10.46,10.46,0,0,1,74,60.09c.37.33.76.65,1.14,1,3.1,2.68,5.65,2.71,8.68-.12,2.72-2.54,5.76-4,9.57-3.52a10.73,10.73,0,0,1,6.26,3c1.5,1.41,3.21,1.78,5.27,2.62a3,3,0,0,1,1.61,1.07A2.25,2.25,0,0,1,107.22,65.77Z"/><path class="cls-3" d="M45.86,58.23a11.85,11.85,0,0,1,3.31,2.11A15.67,15.67,0,0,0,45.86,58.23Z"/><path class="cls-3" d="M55.37,68.09a3.37,3.37,0,0,1-2.1.11L52.61,68A11.52,11.52,0,0,0,55.37,68.09Z"/></svg>