<svg width="38" height="73"  id="icon" xmlns="http://www.w3.org/2000/svg" viewBox="0 0 131 169"><defs><style>.cls-1{fill:#1d3967;}.cls-2,.cls-3{fill:#fff;stroke-miterlimit:10;}.cls-2{stroke:#1d3967;stroke-width:0.75px;}.cls-3{stroke:#fff;stroke-width:2px;}</style></defs><path class="cls-1" d="M64.92,78.31H115.4a1.84,1.84,0,0,1,1.6,2.76L91.76,124.69,66.52,168.32a1.86,1.86,0,0,1-3.2,0L38.08,124.69,12.84,81.07a1.84,1.84,0,0,1,1.6-2.76Z"/><ellipse class="cls-1" cx="66.7" cy="56.51" rx="53.67" ry="53.56"/><path class="cls-2" d="M65.43,114.1A56.93,56.93,0,1,1,64.86.24c31.39.16,57,25.38,57.14,56.3C122.17,89,95.93,114.05,65.43,114.1Zm49.71-56.9C115.1,29.5,92.55,6.8,64.93,7A50.17,50.17,0,1,0,115.14,57.2Z"/><path class="cls-3" d="M98.08,38.14l-9.78.1-15.14.14-15.69.17-17,.17c-.29,0-.39-.07-.45-.35-.5-2.64-1-5.27-1.55-7.9-.2-1-.5-1.23-1.51-1.26l-2.23-.07L27,28.84a2,2,0,0,0-.64.1.82.82,0,0,0-.56.82.8.8,0,0,0,.55.81,1.87,1.87,0,0,0,.61.11c3.12.12,6.24.24,9.36.33.31,0,.41.11.47.4.29,1.53.57,3.07.91,4.6s.54,3.06.88,4.58c.49,2.23.9,4.48,1.34,6.72,0,.18,0,.38,0,.57a4.43,4.43,0,0,0,.14.81c.08.27.25.51.31.77.16.71.28,1.42.42,2.12q1.8,9.09,3.61,18.17c.24,1.24.49,2.49.74,3.73h0c.23,1.18.46,2.37.7,3.55a9,9,0,0,0,.69,2.7,6.37,6.37,0,0,0,8.1,9.78,6.15,6.15,0,0,0,2.54-3.74,6.37,6.37,0,0,0-1.61-5.89l27.17-.34-.26.32a6.14,6.14,0,0,0-1.4,5.34,6.36,6.36,0,1,0,6.37-7.54c-2.09,0-4.19,0-6.28.08-4.26.05-8.51.12-12.77.14-5.73,0-11.46.29-17.19.11-.93,0-1.86.1-2.8.15-.48,0-.48,0-.58-.48-.27-1.39-.55-2.78-.82-4.18h0l-.53-2.69-.18-.91.28,0,2.81,0,20.15-.22,12.84-.14L94,69.35c.89,0,1.23-.32,1.35-1.18.18-1.29.37-2.58.55-3.86q.91-6.6,1.84-13.2c.53-3.86,1.08-7.71,1.61-11.57C99.45,38.59,99,38.13,98.08,38.14ZM87.18,80A3.83,3.83,0,0,1,91,83.88a3.81,3.81,0,1,1-7.62,0A3.83,3.83,0,0,1,87.18,80ZM51,80.64a3.86,3.86,0,1,1-3.81,3.86A3.81,3.81,0,0,1,51,80.64ZM53,68,46.31,68c-.29,0-.41-.06-.47-.37-.5-2.62-1-5.24-1.55-7.86,0-.12,0-.24-.06-.43l-.44-2q-.8-4.05-1.6-8.09s0-.07,0-.2h9.62c.28,1.16.42,2,.57,3,.26,1.71.63,3.39,1,5.09,0,0,0,.08,0,.15.1.71.29,1.37.43,2.13v0c.51,2.73,1,5.45,1.55,8.18a2.57,2.57,0,0,1,0,.3Zm11.5-.12h-7.3c-.55-2.86-1.09-5.74-1.66-8.74,0,0-.41-2.1-.44-2.24q-.63-3.48-1.31-7c-.06-.3-.2-.9-.12-.91s0,0,0,0c3,0,6,0,9.06-.08.32,0,.45.07.47.42.15,2.5.34,5,.51,7.48,0,.11,0,.22,0,.43a17.28,17.28,0,0,0,.17,2v0q.28,4.2.59,8.4S64.55,67.74,64.54,67.84Zm10.1-17.69c0,2.13,0,4.27,0,6.4,0,.2,0,2.43,0,2.51l-.06,8.33c0,.24-.05.34-.32.34l-7.48.07a1.84,1.84,0,0,1-.31,0c-.2-2.93-.4-5.85-.61-8.82a12.8,12.8,0,0,0-.16-2.16c-.17-2.54-.35-5.07-.53-7.61,0-.09,0-.18,0-.34h9.52C74.64,49.26,74.65,49.71,74.64,50.15Zm10.25,9.27c-.37,2.6-.75,5.2-1.1,7.8-.05.33-.16.42-.49.43-2.22,0-4.44,0-6.66.07-.23,0-.32-.06-.32-.31q0-4.18.07-8.39c0-.17,0-2.34,0-2.45q0-3.72,0-7.43c0-.24,0-.37.33-.38,3.08,0,6.16,0,9.23-.07l.39,0c0,.24,0,.43-.08.62-.33,2.35-.68,4.7-1,7.05C85.31,56.51,84.93,59.16,84.89,59.42ZM96,50c-.28,2-.57,4.07-.85,6.1l-1.6,11.41h-8l.3-2.1.93-6.53c0-.24,1.08-7.56,1.46-10.25h7.92Zm1.37-9.78c-.29,2.06-.59,4.11-.86,6.17,0,.29-.15.35-.42.35l-10.6.08L74.14,47l-20.63.16c-3.78,0-7.55.06-11.33.11-.3,0-.41-.1-.46-.39-.38-2-.78-3.94-1.17-5.91,0-.11,0-.22,0-.39L97.38,40A2.78,2.78,0,0,1,97.38,40.26Z"/></svg>