<svg width="38" height="73"  id="icon" xmlns="http://www.w3.org/2000/svg" viewBox="0 0 131 169"><defs><style>.cls-1{fill:#1d3967;}.cls-2,.cls-3{fill:#fff;}.cls-2{stroke:#1d3967;stroke-miterlimit:10;stroke-width:0.75px;}</style></defs><path class="cls-1" d="M66.22,80.23h49.26A1.79,1.79,0,0,1,117,82.92L92.41,125.38,67.78,167.85a1.8,1.8,0,0,1-3.11,0L40,125.38,15.42,82.92A1.79,1.79,0,0,1,17,80.23Z"/><path class="cls-2" d="M66.51,113.34A56.8,56.8,0,1,1,123,57.26,56.9,56.9,0,0,1,66.51,113.34ZM66,6.19a50.36,50.36,0,1,0,50.53,51A50.38,50.38,0,0,0,66,6.19Z"/><path class="cls-1" d="M66,6.19A50.36,50.36,0,1,1,15.48,56,50.45,50.45,0,0,1,66,6.19ZM51.82,97.57H50.35a2.1,2.1,0,0,0-2,2.56,2.18,2.18,0,0,0,2.39,1.67H81.25a4.89,4.89,0,0,0,.66,0,2.09,2.09,0,0,0,1.81-2,2,2,0,0,0-1.64-2.15,8.11,8.11,0,0,0-1.48-.07c-.3,0-.42-.07-.42-.39-.06-2.16-.14-4.33-.2-6.5q-.09-3.72-.19-7.45c-.09-3.32-.21-6.64-.3-10-.08-2.45-.12-4.91-.2-7.36-.09-3.37-.21-6.73-.3-10.1-.07-2.43-.12-4.86-.19-7.28-.1-3.33-.21-6.65-.31-10-.08-2.55-.13-5.1-.22-7.65A7.88,7.88,0,0,1,78.55,28a5,5,0,0,0,.19-2.36c-.21-1.31-.35-2.62-.52-3.94,0-.26-.13-.35-.41-.28a10.5,10.5,0,0,1-1.27.19c-.3,0-.4.16-.41.45s-.06.84-.09,1.28l-1.38.12c0-1.55,0-3,0-4.5a.68.68,0,0,0-.44-.73C72,17.11,69.85,16,67.65,14.92a.85.85,0,0,1-.5-.59c-.31-1.18-.65-2.36-1-3.54,0-.13-.1-.26-.14-.39a1.17,1.17,0,0,0-.23.44c-.32,1.16-.66,2.33-1,3.5a.82.82,0,0,1-.47.57l-6.69,3.32a.54.54,0,0,0-.36.56c0,1.38,0,2.77,0,4.15v.46l-1.38-.12c0-.44,0-.87-.11-1.29,0-.14-.11-.37-.21-.39-.57-.11-1.16-.18-1.75-.27,0,.18-.08.32-.1.45-.15,1.19-.26,2.39-.45,3.57a4.7,4.7,0,0,0,.11,2.44,8.83,8.83,0,0,1,.31,3.31c-.1,3.3-.21,6.59-.31,9.89-.07,2.48-.12,5-.19,7.45-.09,3.34-.21,6.67-.31,10-.07,2.44-.12,4.89-.19,7.33-.09,3.36-.21,6.73-.31,10.09-.07,2.43-.11,4.86-.19,7.29-.09,3.35-.2,6.7-.31,10C51.89,94.64,51.86,96.08,51.82,97.57Z"/><path class="cls-3" d="M51.82,97.57c0-1.49.07-2.93.11-4.36.11-3.35.22-6.7.31-10,.08-2.43.12-4.86.19-7.29.1-3.36.22-6.73.31-10.09.07-2.44.12-4.89.19-7.33.1-3.34.22-6.67.31-10,.07-2.48.12-5,.19-7.45.1-3.3.21-6.59.31-9.89a8.83,8.83,0,0,0-.31-3.31,4.7,4.7,0,0,1-.11-2.44c.19-1.18.3-2.38.45-3.57,0-.13.06-.27.1-.45.59.09,1.18.16,1.75.27.1,0,.19.25.21.39.06.42.08.85.11,1.29l1.38.12v-.46c0-1.38,0-2.77,0-4.15a.54.54,0,0,1,.36-.56l6.69-3.32a.82.82,0,0,0,.47-.57c.31-1.17.65-2.34,1-3.5A1.17,1.17,0,0,1,66,10.4c0,.13.1.26.14.39.33,1.18.67,2.36,1,3.54a.85.85,0,0,0,.5.59c2.2,1.09,4.38,2.19,6.58,3.26a.68.68,0,0,1,.44.73c0,1.47,0,2.95,0,4.5L76,23.29c0-.44.07-.86.09-1.28s.11-.43.41-.45a10.5,10.5,0,0,0,1.27-.19c.28-.07.38,0,.41.28.17,1.32.31,2.63.52,3.94A5,5,0,0,1,78.55,28a7.88,7.88,0,0,0-.28,2.94c.09,2.55.14,5.1.22,7.65.1,3.33.21,6.65.31,10,.07,2.42.12,4.85.19,7.28.09,3.37.21,6.73.3,10.1.08,2.45.12,4.91.2,7.36.09,3.33.21,6.65.3,10q.1,3.73.19,7.45c.06,2.17.14,4.34.2,6.5,0,.32.12.4.42.39a8.11,8.11,0,0,1,1.48.07,2,2,0,0,1,1.64,2.15,2.09,2.09,0,0,1-1.81,2,4.89,4.89,0,0,1-.66,0H50.73a2.18,2.18,0,0,1-2.39-1.67,2.1,2.1,0,0,1,2-2.56Zm24.13,0V97c-.08-2.48-.16-5-.23-7.45q-.18-5.78-.34-11.55l-.33-11.58-.33-11.59c-.11-3.85-.23-7.7-.33-11.55-.11-3.68-.21-7.37-.3-11.05,0-.75,0-1.51,0-2.28A95,95,0,0,1,58,29.9q-1,33.86-2,67.64h2.62V97q0-4.48,0-9c0-.34.09-.46.44-.45h4.62c.54,0,.54,0,.54.56v9.36ZM70.46,22.2c0-.34,0-.64,0-.94a.52.52,0,0,0-.22-.33c-1.33-.68-2.67-1.35-4-2a.61.61,0,0,0-.46,0c-1.34.65-2.67,1.32-4,2a.47.47,0,0,0-.23.29c0,.32,0,.65,0,1,.51,0,1,.07,1.41.07s.42.16.42.46.06.73.09,1.09c.4,0,.74,0,1.09,0s.33-.09.34-.31a4.1,4.1,0,0,1,0-.86.47.47,0,0,1,.32-.31c.5,0,1,0,1.5,0,.22,0,.32.1.33.32s0,.61.07.91a.38.38,0,0,0,.24.25c.38,0,.76,0,1.15,0l.07-.46,0-.41c0-.71-.06-.62.66-.67Zm1.63,4.42c-1-.16-1-.11-1.14,1.15.34,0,.68,0,1,0,.09,0,.22-.2.22-.3A5.84,5.84,0,0,0,72.09,26.62Zm-4.91,1.26h1.36l-.17-1.12h-1Zm-3.57-1.09a6.9,6.9,0,0,0-.09.78.4.4,0,0,0,.25.27,8.63,8.63,0,0,0,1,0c-.17-1.29.11-1.1-1.1-1.1Zm12.27.64,0-1.22-1,.14-.12,1.2Zm-16-.84-.14,1,1.27.09C60.93,26.53,60.93,26.53,59.92,26.59Zm-3.7-.38a4.79,4.79,0,0,0-.08.77c0,.1.1.27.18.28a6.53,6.53,0,0,0,.9.09v-1Z"/><path class="cls-1" d="M76,97.54H64.25V88.18c0-.55,0-.56-.54-.56H59.09c-.35,0-.44.11-.44.45q0,4.47,0,9v.52H56q1-33.83,2-67.64a95,95,0,0,0,16.09,0c0,.77,0,1.53,0,2.28.09,3.68.19,7.37.3,11.05.1,3.85.22,7.7.33,11.55l.33,11.59L75.38,78q.16,5.78.34,11.55c.07,2.48.15,5,.23,7.45ZM61.16,34.81c1,0,1.91,0,2.85,0,.08,0,.23-.18.23-.29,0-1,0-2,0-3,0-.25-.11-.34-.35-.33H61.16Zm0,7H64a.4.4,0,0,0,.2-.29c0-1,0-2,0-3,0-.29-.13-.35-.38-.35h-2.7Zm0,7c1,0,1.9,0,2.83,0,.09,0,.23-.16.24-.24,0-1,0-2,0-3.06,0-.25-.13-.3-.34-.3H61.17Zm0,7c1,0,1.9,0,2.83,0,.09,0,.23-.16.24-.25,0-1,0-2,0-3.06,0-.1-.18-.27-.28-.28-.41,0-.83,0-1.25,0H61.17Zm0,7c1,0,1.93,0,2.88,0,.07,0,.21-.18.21-.27,0-1,0-2,0-3,0-.11-.17-.3-.27-.3-.85,0-1.71,0-2.57,0a.35.35,0,0,0-.23.24C61.14,60.72,61.15,61.82,61.15,63Zm0,7.05c1,0,1.91,0,2.84,0a.41.41,0,0,0,.25-.28c0-1,0-2,0-3,0-.23-.1-.31-.33-.31-.83,0-1.66,0-2.49,0-.09,0-.27.16-.27.24C61.14,67.76,61.15,68.86,61.15,70Zm0,7c1,0,1.93,0,2.88,0,.08,0,.21-.17.21-.27,0-1,0-2,0-3,0-.1-.17-.29-.27-.29-.85,0-1.69,0-2.53,0a.37.37,0,0,0-.27.24C61.14,74.81,61.15,75.91,61.15,77.07Zm0,7c1,0,1.93,0,2.88,0,.07,0,.21-.18.21-.27,0-1,0-2,0-3a.41.41,0,0,0-.27-.3c-.86,0-1.71,0-2.57,0a.35.35,0,0,0-.23.24C61.14,81.85,61.15,83,61.15,84.11Z"/><path class="cls-1" d="M70.46,22.2l-1.17.07c-.72.05-.63,0-.66.67l0,.41-.07.46c-.39,0-.77,0-1.15,0a.38.38,0,0,1-.24-.25c0-.3,0-.61-.07-.91s-.11-.32-.33-.32c-.5,0-1,0-1.5,0a.47.47,0,0,0-.32.31,4.1,4.1,0,0,0,0,.86c0,.22-.11.32-.34.31s-.69,0-1.09,0c0-.36-.08-.72-.09-1.09s-.09-.45-.42-.46-.9,0-1.41-.07c0-.34,0-.67,0-1a.47.47,0,0,1,.23-.29c1.33-.67,2.66-1.34,4-2a.61.61,0,0,1,.46,0c1.34.65,2.68,1.32,4,2a.52.52,0,0,1,.22.33C70.48,21.56,70.46,21.86,70.46,22.2Z"/><path class="cls-1" d="M72.09,26.62a5.84,5.84,0,0,1,.1.84c0,.1-.13.29-.22.3-.34,0-.68,0-1,0C71.06,26.51,71.11,26.46,72.09,26.62Z"/><path class="cls-1" d="M67.18,27.88l.18-1.12h1l.17,1.12Z"/><path class="cls-1" d="M63.61,26.79l.08,0c1.21,0,.93-.19,1.1,1.1a8.63,8.63,0,0,1-1,0,.4.4,0,0,1-.25-.27A6.9,6.9,0,0,1,63.61,26.79Z"/><path class="cls-1" d="M75.88,27.43l-1.17.12.12-1.2,1-.14Z"/><path class="cls-1" d="M59.92,26.59c1-.06,1-.06,1.13,1.1l-1.27-.09Z"/><path class="cls-1" d="M56.22,26.21l1,.12v1a6.53,6.53,0,0,1-.9-.09c-.08,0-.18-.18-.18-.28A4.79,4.79,0,0,1,56.22,26.21Z"/><path class="cls-3" d="M61.16,34.81V31.19H63.9c.24,0,.35.08.35.33,0,1,0,2,0,3,0,.11-.15.29-.23.29C63.07,34.82,62.13,34.81,61.16,34.81Z"/><path class="cls-3" d="M61.17,41.85V38.24h2.7c.25,0,.38.06.38.35,0,1,0,2,0,3a.4.4,0,0,1-.2.29Z"/><path class="cls-3" d="M61.17,48.9V45.28h2.74c.21,0,.34,0,.34.3,0,1,0,2,0,3.06,0,.08-.15.24-.24.24C63.07,48.9,62.13,48.9,61.17,48.9Z"/><path class="cls-3" d="M61.17,55.94V52.32H62.7c.42,0,.84,0,1.25,0,.1,0,.28.18.28.28,0,1,0,2,0,3.06,0,.09-.15.25-.24.25C63.07,56,62.13,55.94,61.17,55.94Z"/><path class="cls-3" d="M61.15,63c0-1.16,0-2.26,0-3.36a.35.35,0,0,1,.23-.24c.86,0,1.72,0,2.57,0,.1,0,.27.19.27.3,0,1,0,2,0,3,0,.09-.14.27-.21.27C63.08,63,62.13,63,61.15,63Z"/><path class="cls-3" d="M61.15,70c0-1.17,0-2.27,0-3.37,0-.08.18-.23.27-.24.83,0,1.66,0,2.49,0,.23,0,.33.08.33.31,0,1,0,2,0,3A.41.41,0,0,1,64,70C63.06,70,62.14,70,61.15,70Z"/><path class="cls-3" d="M61.15,77.07c0-1.16,0-2.26,0-3.36a.37.37,0,0,1,.27-.24c.84,0,1.68,0,2.53,0,.1,0,.27.19.27.29,0,1,0,2,0,3,0,.1-.13.27-.21.27C63.08,77.07,62.13,77.07,61.15,77.07Z"/><path class="cls-3" d="M61.15,84.11c0-1.16,0-2.26,0-3.36a.35.35,0,0,1,.23-.24c.86,0,1.71,0,2.57,0a.41.41,0,0,1,.27.3c0,1,0,2,0,3,0,.09-.14.27-.21.27C63.08,84.12,62.13,84.11,61.15,84.11Z"/></svg>