<svg width="50" height="90"  id="icon" xmlns="http://www.w3.org/2000/svg" viewBox="0 0 131 169"><defs><style>.cls-1{fill:#1d3967;}.cls-2,.cls-3{fill:#fff;}.cls-2{stroke:#1d3967;stroke-width:0.75px;}.cls-2,.cls-4{stroke-miterlimit:10;}.cls-4{fill:none;stroke:#fff;stroke-width:5px;}</style></defs><path class="cls-1" d="M64.83,76.93h50.48a1.85,1.85,0,0,1,1.6,2.77L91.67,123.51l-25.24,43.8a1.84,1.84,0,0,1-3.2,0L38,123.51,12.75,79.7a1.85,1.85,0,0,1,1.6-2.77Z"/><ellipse class="cls-1" cx="64.56" cy="56.46" rx="53.67" ry="53.78"/><path class="cls-2" d="M65.06,113.58C34,113.94,8.87,89,7.68,58.83,6.36,25.12,33.68-.92,64.5-.76c31.39.16,57,25.48,57.14,56.53C121.81,88.33,95.57,113.53,65.06,113.58Zm49.72-57.14C114.74,28.62,92.19,5.82,64.57,6A50.12,50.12,0,0,0,14.44,56.37a50.17,50.17,0,1,0,100.34.07Z"/><rect class="cls-3" x="20.13" y="59.21" width="88.52" height="16.13" rx="1.8"/><path class="cls-4" d="M104.24,62.51H24.53A43.89,43.89,0,0,1,57.45,37.59a43.28,43.28,0,0,1,13.88,0A43.85,43.85,0,0,1,104.24,62.51Z"/><path class="cls-4" d="M70.43,31v6.54a37.47,37.47,0,0,0-12.08,0V31a6,6,0,0,1,12.08,0Z"/></svg>