<svg width="50" height="90" id="icon" xmlns="http://www.w3.org/2000/svg" viewBox="0 0 131 169"><defs><style>.cls-1{fill:#1d3967;}.cls-2,.cls-3{fill:#fff;}.cls-2{stroke:#1d3967;stroke-miterlimit:10;stroke-width:0.75px;}.cls-4{fill:#ee86b3;}</style></defs><path class="cls-1" d="M65.1,77.62h50.48a1.85,1.85,0,0,1,1.6,2.77L91.94,124.1,66.7,167.82a1.86,1.86,0,0,1-3.2,0L38.26,124.1,13,80.39a1.85,1.85,0,0,1,1.6-2.77Z"/><circle class="cls-1" cx="64.93" cy="57.27" r="51.9"/><path class="cls-2" d="M65.43,113.84C34.32,114.2,9.23,89.28,8.05,59.2,6.73,25.57,34-.42,64.86-.26c31.39.16,57,25.43,57.14,56.42C122.17,88.65,95.93,113.79,65.43,113.84Zm49.71-57c0-27.76-22.59-50.51-50.21-50.33a50.28,50.28,0,1,0,50.21,50.33Z"/><path class="cls-3" d="M62.35,77.25c0,.22,0,.33,0,.43,0,1.37,0,2.74,0,4.11,0,.41.11.57.54.57,1,0,1-.24,1,1,0,.64,0,1.28,0,1.92,0,.35-.11.46-.44.46-2.11,0-4.21,0-6.32,0-.33,0-.47-.13-.47-.46,0-.84,0-1.68,0-2.52,0-.34.15-.47.47-.45h.09c1.13,0,1,.05,1-.93q0-3.92,0-7.83c0-.61,0-.62-.6-.62-1,0-.93.1-.93-1,0-.68,0-1.37,0-2.06,0-.3.12-.41.4-.41,1.47,0,2.93,0,4.4,0a1,1,0,0,1,.6.4c1.86,2.62,3.7,5.26,5.55,7.89.07.11.16.22.3.41a2.5,2.5,0,0,0,.08-.4c0-1.47,0-2.93,0-4.4,0-.37-.11-.5-.49-.5-1.19,0-1.06.16-1.07-1.08,0-.62,0-1.25,0-1.87,0-.34.12-.47.46-.47,2.1,0,4.21,0,6.31,0,.33,0,.47.12.47.46,0,.84,0,1.68,0,2.51,0,.37-.16.47-.5.48-1,0-1,0-1,1V85.12c0,.65,0,.65-.67.65-.86,0-1.71,0-2.57,0a.88.88,0,0,1-.83-.42q-2.73-3.87-5.5-7.72Z"/><path class="cls-3" d="M48.23,86.05A8.23,8.23,0,0,1,40,77.7a8.48,8.48,0,1,1,8.26,8.35Zm.21-12.69a4.27,4.27,0,0,0-4.23,4.41A4.16,4.16,0,0,0,48.28,82a4.43,4.43,0,0,0,4.39-4.35A4.23,4.23,0,0,0,48.44,73.36Z"/><path class="cls-3" d="M37.39,77a12.75,12.75,0,0,1,1.13.89,4.35,4.35,0,0,1,1.07,4.6,4.16,4.16,0,0,1-3.26,3.06,7.13,7.13,0,0,1-1.59.19q-3.75,0-7.5,0c-.6,0-.62,0-.63-.61,0-.76,0-1.53,0-2.29,0-.36.12-.52.5-.53,1.07,0,1.07,0,1.07-1.12,0-2.52,0-5,0-7.55,0-.44-.12-.59-.57-.57-1.06,0-1,.06-1-1,0-.67,0-1.34,0-2,0-.36.12-.53.5-.53,2.59,0,5.19,0,7.78,0A4.45,4.45,0,0,1,38.31,71a4.08,4.08,0,0,1-.58,5.76Zm-5.08,3.58c0,.39,0,.79,0,1.19,0,.24.08.38.34.37.64,0,1.28,0,1.91-.09a1.3,1.3,0,0,0,1.16-1.37,1.37,1.37,0,0,0-1-1.52,14.48,14.48,0,0,0-2.09-.14c-.09,0-.26.21-.27.32C32.29,79.78,32.31,80.2,32.31,80.61Zm1.14-7.51h-.77c-.24,0-.38.07-.37.34,0,.64,0,1.28,0,1.91a.49.49,0,0,0,.32.32,12.85,12.85,0,0,0,1.64,0,1.18,1.18,0,0,0,1.13-1.29,1.14,1.14,0,0,0-1.14-1.23C34,73.11,33.73,73.11,33.45,73.1Z"/><path class="cls-3" d="M75.78,77.17c0-1.23,0-2.47,0-3.7,0-.37-.09-.52-.49-.52-1.18,0-1.06.16-1.07-1.12,0-.61,0-1.22,0-1.83,0-.33.14-.47.47-.47l5.9,0c.31,0,.44.11.44.43,0,.87,0,1.74,0,2.6,0,.34-.17.4-.46.4-.69,0-.69,0-.69.69,0,2.09,0,4.18,0,6.27a3.14,3.14,0,0,0,.08.81,1.88,1.88,0,0,0,2.11,1.48,1.78,1.78,0,0,0,1.73-1.85c0-.88,0-1.77,0-2.65,0-1.41,0-2.81,0-4.21,0-.4-.12-.54-.52-.54-.63,0-.64,0-.64-.64s0-1.55,0-2.33c0-.33.13-.47.46-.47,2,0,3.9,0,5.86,0,.33,0,.47.12.47.46,0,.83,0,1.67.07,2.51,0,.33-.13.45-.46.46C88,73,88,73,88,74.15c0,2.16,0,4.33,0,6.49a5.62,5.62,0,0,1-1.48,3.8,5.51,5.51,0,0,1-3.53,1.65,7.29,7.29,0,0,1-4.07-.54,4.93,4.93,0,0,1-3-4.27c-.13-1.35,0-2.74,0-4.11Z"/><path class="cls-3" d="M97.43,70.12c0-.53.26-.6.65-.59.67,0,1.34,0,2,0,.37,0,.52.11.52.5,0,1.31,0,2.63,0,3.94,0,.41-.16.53-.54.52H97.41c-.32,0-.48-.09-.55-.44A1.44,1.44,0,0,0,94.79,73,1.2,1.2,0,0,0,94,74a1.16,1.16,0,0,0,.56,1.3c.77.35,1.59.6,2.38.92a16.11,16.11,0,0,1,2.16,1,4.75,4.75,0,0,1,1.49,6.31A5.17,5.17,0,0,1,94.34,86a5.91,5.91,0,0,1-.84-.42,6,6,0,0,1-1,.22c-.7,0-1.4,0-2.1,0-.36,0-.49-.14-.48-.49,0-1.39,0-2.78,0-4.16,0-.38.14-.52.51-.51.9,0,1.8,0,2.7,0,.39,0,.56.12.63.52.17,1,.61,1.48,1.45,1.57a1.54,1.54,0,0,0,1.51-.58,1.22,1.22,0,0,0,.13-1.45,2.14,2.14,0,0,0-.88-.75c-.93-.41-1.91-.7-2.85-1.11a5.22,5.22,0,0,1-2.82-2.49,4.89,4.89,0,0,1,3.07-6.71,4.31,4.31,0,0,1,3.78.39A1.73,1.73,0,0,0,97.43,70.12Z"/><path class="cls-3" d="M46.05,69.11a2.39,2.39,0,0,1-.28-.35c-.29-.57-.55-1.16-.85-1.72-.2-.36-.15-.55.22-.76,1.61-.89,3.2-1.82,4.8-2.73a7,7,0,0,1,.8-.44.46.46,0,0,1,.43.13c.47.87.9,1.76,1.34,2.65.17.32-.09.4-.3.49L48.5,68,46.41,69Z"/><path d="M63.65,65.46c-.2.27-.35.53-.55.75a12.75,12.75,0,0,1-1.51,1.52,3.28,3.28,0,0,1-4.67-.7,5.91,5.91,0,0,1-1.08-2.64A1.46,1.46,0,0,0,55,63.26a44.65,44.65,0,0,1-9.56-6.86,9,9,0,0,0-1.74-1.6,9.15,9.15,0,0,0-2.27-.48,9.93,9.93,0,0,1-3.67-1.46,3.5,3.5,0,0,1-1.66-3,2.34,2.34,0,0,1,1.35-2.21,6.66,6.66,0,0,1,1.28-.5c.64-.2.66-.22.33-.92a1.87,1.87,0,0,1-.37.33,6.08,6.08,0,0,1-1.5.72,1.89,1.89,0,0,1-2.13-2.23,4.68,4.68,0,0,1,1-2.24c.68-.86,1.43-1.67,2.12-2.52a1.46,1.46,0,0,0,.33-.67,32.45,32.45,0,0,1,3-10.14A24.49,24.49,0,0,1,53,18.38a31.76,31.76,0,0,1,16.14-3.26A30.27,30.27,0,0,1,85,20.39a20.44,20.44,0,0,1,7.57,10c.38,1,.66,2.12,1,3.19.09.33.2.48.59.42.63-.11,1.27-.13,1.91-.23a1.57,1.57,0,0,0,.6-.28,5.94,5.94,0,0,1,4.44-1c.16,0,.41.13.44.24a2.44,2.44,0,0,1,0,.85s-.3.06-.45,0a6,6,0,0,0-2.49.25l.42.28a4.49,4.49,0,0,1,1.76,2.11,1.43,1.43,0,0,1-.76,1.92,4.28,4.28,0,0,1-3.76,0A2,2,0,0,1,95,36c0-.2.2-.51-.24-.54s-.83.11-.86.54c-.09,1.33-.15,2.65-.27,4a34.23,34.23,0,0,1-3.44,13,25.34,25.34,0,0,1-7.14,8.87,2.87,2.87,0,0,0-1.22,1.8,13.23,13.23,0,0,1-.87,2.5,3.65,3.65,0,0,1-2.5,2.1,2.83,2.83,0,0,1-2.76-.85c-.29-.26-.44-.29-.74,0a2.56,2.56,0,0,1-3.34.32c-.21-.13-.38-.27-.63,0a4.07,4.07,0,0,1-6.21-.5C64.37,66.68,64.05,66.09,63.65,65.46ZM46.87,54.92a23.8,23.8,0,0,0,11.65,7.89,16.77,16.77,0,0,0,4.63.69L61.9,60.32h.94a.72.72,0,0,1,.8.63c.21.75.46,1.49.73,2.22a8.51,8.51,0,0,0,1.93,3.39,2.35,2.35,0,0,0,1.62.73,2.85,2.85,0,0,0,2.78-1.94,13.23,13.23,0,0,0,.92-4.69c0-.62.06-1.25.11-1.87,0-.1.24-.3.28-.27a12,12,0,0,1,1.32.73.45.45,0,0,1,.1.37c-.19,1.4-.4,2.8-.62,4.2,0,.22-.1.43-.17.72.52-.08.93-.16,1.35-.2s.38-.17.39-.45q0-1,.09-2c.07-1.24-.12-1,1.13-1.38.33-.1.51,0,.47.36L76,62.05a9.71,9.71,0,0,0,0,3.27,1.72,1.72,0,0,0,1.35,1.34,1.54,1.54,0,0,0,1.76-.58A11.83,11.83,0,0,0,80.23,64a12.08,12.08,0,0,0,.46-1.71,5.23,5.23,0,0,1-.81,0,.49.49,0,0,1-.35-.19.6.6,0,0,1,.4-.86,11.82,11.82,0,0,0,6.23-4.71,36.68,36.68,0,0,0,4-7.82,29.62,29.62,0,0,0,2.32-13A17.2,17.2,0,0,0,90,27.76a21.5,21.5,0,0,0-8.79-7.93A6,6,0,0,0,76.84,19a1.23,1.23,0,0,1-.19,0,37,37,0,0,0-8.78,1.66,17,17,0,0,0-6.73,3.85c-.14.13-.26.28-.41.45.34.23.6.48.12.73a.67.67,0,0,1-.54-.1A9.27,9.27,0,0,0,57,23.65c-1-.31-2-.62-3.07-.91-.25-.07-.48-.13-.44-.46s.34-.3.57-.28.44.11.67.12a.61.61,0,0,0,.44-.14,13.61,13.61,0,0,1,5.37-4.16c.85-.4,1.71-.76,2.57-1.14a.39.39,0,0,0-.31,0c-2,.59-3.93,1.12-5.85,1.8a27.35,27.35,0,0,0-10.8,6.68,22.73,22.73,0,0,0-6,21.26,1.22,1.22,0,0,0,1.74.63,4.48,4.48,0,0,1,4.8-.69,2.5,2.5,0,0,0,3.08-.64.36.36,0,0,1,.23-.13c.38,0,.91.85.73,1.19A2.29,2.29,0,0,1,48,47.84a13.38,13.38,0,0,0-2.06-.4,15,15,0,0,0-2,.06l0,.21a2.91,2.91,0,0,0,.58.15c1,.07,2,.07,3,.18a2.81,2.81,0,0,1,2.44,1.75,2.84,2.84,0,0,1-.51,2.67c-.14.22-.3.43-.45.65l0,.14c.41,0,.81,0,1.22,0a4.3,4.3,0,0,0,4.31-4.17c.05-1.07.05-1.07,1.08-1.39a7.78,7.78,0,0,0,4.25-2.85,2.25,2.25,0,0,1,.24-.17l.15,5.26c-.43-.41-.79-.71-1.11-1.06a.81.81,0,0,0-1-.28,6,6,0,0,1-1,.26c-.33.07-.43.22-.37.58A3.37,3.37,0,0,1,55.31,53a12.33,12.33,0,0,1-2.07,1.16,14.06,14.06,0,0,1-5.76.79ZM44.43,53.5c.35,0,.89-.07,1.41-.17a3,3,0,0,0,2.43-1.65,1.45,1.45,0,0,0-.87-2.14,5.11,5.11,0,0,0-1.11-.25c-1.66-.2-3.32-.43-5-.56a10.31,10.31,0,0,0-2.72.06,1,1,0,0,0-.68,1.63,6.32,6.32,0,0,0,1.22,1.46C40.58,53.15,42.39,53.42,44.43,53.5ZM76.26,18l0-.18A10,10,0,0,0,74,17.41a35.42,35.42,0,0,0-8.55,1.38,16,16,0,0,0-7.07,4l-.24.26c.56.38,1.09.7,1.58,1.08.24.18.36.15.57,0a22,22,0,0,1,1.81-1.54,25.11,25.11,0,0,1,10.54-4C73.86,18.35,75.06,18.19,76.26,18ZM57.39,64.48A3.38,3.38,0,0,0,58,66.13a2.12,2.12,0,0,0,2.91.63,11.44,11.44,0,0,0,1.6-1.59.29.29,0,0,0,.08-.17ZM38.55,41.38l-.25-.06A28.57,28.57,0,0,0,36.84,44a5.5,5.5,0,0,0-.27,1.87c0,.22.19.44.3.67.19-.13.45-.21.58-.39.43-.58.82-1.2,1.22-1.81a.44.44,0,0,0,.08-.26C38.69,43.16,38.62,42.27,38.55,41.38Zm59.56-4.13c.94,0,1.28-.31,1.19-.94a2.18,2.18,0,0,0-2.79-1.55.81.81,0,0,0-.38,1.36A2.8,2.8,0,0,0,98.11,37.25ZM74.87,65.8c-.07,0-.12-.07-.15-.06l-2.22.33c-.09,0-.24.13-.25.21a.44.44,0,0,0,.19.27A2,2,0,0,0,74.87,65.8Z"/><path class="cls-4" d="M46.87,54.92h.61a14.06,14.06,0,0,0,5.76-.79A12.33,12.33,0,0,0,55.31,53a3.37,3.37,0,0,0,1.47-3.54c-.06-.36,0-.51.37-.58a6,6,0,0,0,1-.26.81.81,0,0,1,1,.28c.32.35.68.65,1.11,1.06l-.15-5.26a2.25,2.25,0,0,0-.24.17,7.78,7.78,0,0,1-4.25,2.85c-1,.32-1,.32-1.08,1.39a4.3,4.3,0,0,1-4.31,4.17c-.41,0-.81,0-1.22,0l0-.14c.15-.22.31-.43.45-.65a2.84,2.84,0,0,0,.51-2.67A2.81,2.81,0,0,0,47.48,48c-1-.11-2-.11-3-.18a2.91,2.91,0,0,1-.58-.15l0-.21a15,15,0,0,1,2-.06,13.38,13.38,0,0,1,2.06.4,2.29,2.29,0,0,0,2.78-1.1c.18-.34-.35-1.21-.73-1.19a.36.36,0,0,0-.23.13,2.5,2.5,0,0,1-3.08.64,4.48,4.48,0,0,0-4.8.69,1.22,1.22,0,0,1-1.74-.63,22.73,22.73,0,0,1,6-21.26A27.35,27.35,0,0,1,57,18.44c1.92-.68,3.9-1.21,5.85-1.8a.39.39,0,0,1,.31,0c-.86.38-1.72.74-2.57,1.14A13.61,13.61,0,0,0,55.18,22a.61.61,0,0,1-.44.14c-.23,0-.45-.1-.67-.12s-.52-.09-.57.28.19.39.44.46c1,.29,2.05.6,3.07.91a9.27,9.27,0,0,1,3.3,1.91.67.67,0,0,0,.54.1c.48-.25.22-.5-.12-.73.15-.17.27-.32.41-.45a17,17,0,0,1,6.73-3.85A37,37,0,0,1,76.65,19a1.23,1.23,0,0,0,.19,0,6,6,0,0,1,4.39.88A21.5,21.5,0,0,1,90,27.76a17.2,17.2,0,0,1,2.5,7.94,29.62,29.62,0,0,1-2.32,13,36.68,36.68,0,0,1-4,7.82,11.82,11.82,0,0,1-6.23,4.71.6.6,0,0,0-.4.86.49.49,0,0,0,.35.19,5.23,5.23,0,0,0,.81,0A12.08,12.08,0,0,1,80.23,64a11.83,11.83,0,0,1-1.09,2.09,1.54,1.54,0,0,1-1.76.58A1.72,1.72,0,0,1,76,65.32a9.71,9.71,0,0,1,0-3.27l.09-1.19c0-.38-.14-.46-.47-.36-1.25.41-1.06.14-1.13,1.38q-.06,1-.09,2c0,.28-.09.42-.39.45s-.83.12-1.35.2c.07-.29.14-.5.17-.72.22-1.4.43-2.8.62-4.2a.45.45,0,0,0-.1-.37A12,12,0,0,0,72,58.52s-.27.17-.28.27c0,.62-.07,1.25-.11,1.87a13.23,13.23,0,0,1-.92,4.69,2.85,2.85,0,0,1-2.78,1.94,2.35,2.35,0,0,1-1.62-.73,8.51,8.51,0,0,1-1.93-3.39c-.27-.73-.52-1.47-.73-2.22a.72.72,0,0,0-.8-.63H61.9l1.25,3.18a16.77,16.77,0,0,1-4.63-.69A23.8,23.8,0,0,1,46.87,54.92Zm15.81-9.1-.34.52a6.54,6.54,0,0,0-1.09,2.54,2.73,2.73,0,0,0,5,2c1-1.68,2-3.38,2.9-5.13A6.46,6.46,0,0,0,70,42.19a2,2,0,0,0-1.58-1.84,4.52,4.52,0,0,0-1.59-.11c-1.49.26-3,.61-4.46.93-.3.07-.38.24-.34.54.1.86.1.87.94.66l.22-.07c1.25-.19,2.49-.48,3.74-.55s1.56.55,1.29,1.66a17.91,17.91,0,0,1-3.65,7,2.19,2.19,0,0,1-1,.57c-.37.11-.63-.13-.65-.51a4,4,0,0,1,.08-1,12.9,12.9,0,0,1,1.47-3.73c.13-.22.18-.4-.11-.51L61.19,44a.36.36,0,0,0-.32,0,1,1,0,0,0,.28,1.11C61.63,45.35,62.12,45.56,62.68,45.82ZM55.56,42.7l-.1,0c0-.26,0-.52-.06-.77a2.3,2.3,0,0,0-2.12-2.11,3.76,3.76,0,0,0-3,.82,11.59,11.59,0,0,0-2.7,3.59c-.19.33,0,.38.3.43a17.68,17.68,0,0,1,6.39,2.21c.24.14.38.08.43-.18C55,45.34,55.28,44,55.56,42.7Zm-15.74.74c.1.29.28.88.49,1.46.12.32.35.33.67.23a9.83,9.83,0,0,1,5.4-.25c.39.1.48,0,.44-.37a13.44,13.44,0,0,0-.25-1.8,5,5,0,0,0-2.43-3.34,2.44,2.44,0,0,0-3.34.78A5.91,5.91,0,0,0,39.82,43.44Zm14.67-8.09c.15-.12.24-.2.33-.26.41-.26.42-.4,0-.66a1.55,1.55,0,0,0-1.81.11,4.22,4.22,0,0,0-1.78,3.12c-.06.77.32,1.05,1.05.79s1.19-.48,1.79-.7a1.29,1.29,0,0,1,1.68.68c.13.28.18.59.32.86a7.06,7.06,0,0,0,.7,1.15c.17.22.42.17.42-.15a10.41,10.41,0,0,0,0-2.09,3,3,0,0,0-2.26-2.66A3.91,3.91,0,0,1,54.49,35.35Zm-7.91,2.72.22,0a14.66,14.66,0,0,0,.08-2.29,2.53,2.53,0,0,0-1.75-2.11c-.39-.15-.51-.07-.47.35a8.76,8.76,0,0,0,.18,1,3.57,3.57,0,0,0-2.92.9c-.83.64-1.43,2.17-1.09,2.82.12-.13.23-.26.35-.37a11.06,11.06,0,0,1,1.63-1.44c1.46-.87,2.58-.55,3.5.88A2.85,2.85,0,0,0,46.58,38.07Z"/><path class="cls-4" d="M44.43,53.5c-2-.08-3.85-.35-5.31-1.62a6.32,6.32,0,0,1-1.22-1.46,1,1,0,0,1,.68-1.63,10.31,10.31,0,0,1,2.72-.06c1.67.13,3.33.36,5,.56a5.11,5.11,0,0,1,1.11.25,1.45,1.45,0,0,1,.87,2.14,3,3,0,0,1-2.43,1.65C45.32,53.43,44.78,53.46,44.43,53.5Zm1.42-3.66A1.23,1.23,0,0,0,44.53,51a1.61,1.61,0,0,0,1.39,1.65,1.25,1.25,0,0,0,1.25-1.24A1.44,1.44,0,0,0,45.85,49.84Zm-5.17-.39a1.1,1.1,0,0,0-1.24,1.09,1.37,1.37,0,0,0,1.23,1.35,1.22,1.22,0,0,0,1.23-1.2A1.17,1.17,0,0,0,40.68,49.45Z"/><path class="cls-4" d="M76.26,18c-1.2.19-2.4.35-3.6.56a25.11,25.11,0,0,0-10.54,4,22,22,0,0,0-1.81,1.54c-.21.18-.33.21-.57,0-.49-.38-1-.7-1.58-1.08l.24-.26a16,16,0,0,1,7.07-4A35.42,35.42,0,0,1,74,17.41a10,10,0,0,1,2.26.41Z"/><path class="cls-4" d="M57.39,64.48l5.18.52a.29.29,0,0,1-.08.17,11.44,11.44,0,0,1-1.6,1.59A2.12,2.12,0,0,1,58,66.13,3.38,3.38,0,0,1,57.39,64.48Z"/><path class="cls-4" d="M38.55,41.38c.07.89.14,1.78.2,2.67a.44.44,0,0,1-.08.26c-.4.61-.79,1.23-1.22,1.81-.13.18-.39.26-.58.39-.11-.23-.32-.45-.3-.67A5.5,5.5,0,0,1,36.84,44a28.57,28.57,0,0,1,1.46-2.65Z"/><path class="cls-4" d="M74.87,65.8a2,2,0,0,1-2.43.75.44.44,0,0,1-.19-.27c0-.08.16-.19.25-.21l2.22-.33S74.8,65.77,74.87,65.8Z"/><path d="M62.68,45.82c-.56-.26-1-.47-1.53-.7A1,1,0,0,1,60.87,44a.36.36,0,0,1,.32,0l3.15,1.22c.29.11.24.29.11.51A12.9,12.9,0,0,0,63,49.42a4,4,0,0,0-.08,1c0,.38.28.62.65.51a2.19,2.19,0,0,0,1-.57,17.91,17.91,0,0,0,3.65-7c.27-1.11-.15-1.72-1.29-1.66s-2.49.36-3.74.55l-.22.07c-.84.21-.84.2-.94-.66,0-.3,0-.47.34-.54,1.48-.32,3-.67,4.46-.93a4.52,4.52,0,0,1,1.59.11A2,2,0,0,1,70,42.19a6.46,6.46,0,0,1-.85,3.56c-.9,1.75-1.88,3.45-2.9,5.13a2.73,2.73,0,0,1-5-2,6.54,6.54,0,0,1,1.09-2.54Z"/><path d="M55.56,42.7c-.28,1.32-.56,2.64-.85,4-.05.26-.19.32-.43.18a17.68,17.68,0,0,0-6.39-2.21c-.25-.05-.49-.1-.3-.43a11.59,11.59,0,0,1,2.7-3.59,3.76,3.76,0,0,1,3-.82A2.3,2.3,0,0,1,55.4,41.9c0,.25,0,.51.06.77Zm-2.24.63c-1.14.2-1.67-.39-2.06-1.37l-1.11,1.26,3.07,1.22Z"/><path d="M39.82,43.44a5.91,5.91,0,0,1,1-3.29,2.44,2.44,0,0,1,3.34-.78,5,5,0,0,1,2.43,3.34,13.44,13.44,0,0,1,.25,1.8c0,.34,0,.47-.44.37a9.83,9.83,0,0,0-5.4.25c-.32.1-.55.09-.67-.23C40.1,44.32,39.92,43.73,39.82,43.44Zm3.28-3.33a4.06,4.06,0,0,1,.11,1.21,1.89,1.89,0,0,1-1.82,1.41c-.65,0-.65,0-.72.69l0,.27c0,.3.12.4.39.3a10,10,0,0,1,4.06-.5c.33,0,.42-.13.33-.41a12.1,12.1,0,0,0-.62-1.72A2.15,2.15,0,0,0,43.1,40.11Z"/><path d="M54.49,35.35a3.91,3.91,0,0,0,.42.19,3,3,0,0,1,2.26,2.66,10.41,10.41,0,0,1,0,2.09c0,.32-.25.37-.42.15a7.06,7.06,0,0,1-.7-1.15c-.14-.27-.19-.58-.32-.86a1.29,1.29,0,0,0-1.68-.68c-.6.22-1.18.49-1.79.7s-1.11,0-1.05-.79A4.22,4.22,0,0,1,53,34.54a1.55,1.55,0,0,1,1.81-.11c.42.26.41.4,0,.66C54.73,35.15,54.64,35.23,54.49,35.35Z"/><path d="M46.58,38.07a2.85,2.85,0,0,1-.27-.32c-.92-1.43-2-1.75-3.5-.88a11.06,11.06,0,0,0-1.63,1.44c-.12.11-.23.24-.35.37-.34-.65.26-2.18,1.09-2.82a3.57,3.57,0,0,1,2.92-.9,8.76,8.76,0,0,1-.18-1c0-.42.08-.5.47-.35a2.53,2.53,0,0,1,1.75,2.11A14.66,14.66,0,0,1,46.8,38Z"/><path d="M45.85,49.84a1.44,1.44,0,0,1,1.32,1.57,1.25,1.25,0,0,1-1.25,1.24A1.61,1.61,0,0,1,44.53,51,1.23,1.23,0,0,1,45.85,49.84Z"/><path d="M40.68,49.45a1.17,1.17,0,0,1,1.22,1.24,1.22,1.22,0,0,1-1.23,1.2,1.37,1.37,0,0,1-1.23-1.35A1.1,1.1,0,0,1,40.68,49.45Z"/><path class="cls-3" d="M53.32,43.33l-.1,1.11-3.07-1.22L51.26,42C51.65,42.94,52.18,43.53,53.32,43.33Z"/><path class="cls-3" d="M43.1,40.11a2.15,2.15,0,0,1,1.7,1.25,12.1,12.1,0,0,1,.62,1.72c.09.28,0,.43-.33.41A10,10,0,0,0,41,44c-.27.1-.41,0-.39-.3l0-.27c.07-.67.07-.67.72-.69a1.89,1.89,0,0,0,1.82-1.41A4.06,4.06,0,0,0,43.1,40.11Z"/></svg>