<svg width="38" height="73"  id="icon" xmlns="http://www.w3.org/2000/svg" viewBox="0 0 131 169"><defs><style>.cls-1{fill:#1d3967;}.cls-2,.cls-3,.cls-4{fill:#fff;}.cls-2{stroke:#1d3967;stroke-miterlimit:10;}.cls-2,.cls-3{stroke-width:0.75px;}.cls-3{stroke:#fff;stroke-linecap:round;stroke-linejoin:round;}</style></defs><path class="cls-1" d="M64.88,77.62h50.48A1.84,1.84,0,0,1,117,80.39L91.71,124.1,66.47,167.82a1.85,1.85,0,0,1-3.19,0L38,124.1,12.8,80.39a1.85,1.85,0,0,1,1.59-2.77Z"/><circle class="cls-1" cx="64.92" cy="57.19" r="53.67"/><path class="cls-2" d="M65.43,113.84C34.32,114.2,9.23,89.28,8.05,59.2,6.73,25.57,34-.42,64.86-.26c31.39.16,57,25.43,57.14,56.42C122.17,88.65,95.93,113.79,65.43,113.84Zm49.71-57c0-27.76-22.59-50.51-50.21-50.33a50.28,50.28,0,1,0,50.21,50.33Z"/><path class="cls-3" d="M39.63,81.09c6.72-1.22,29.05-7.56,9.77-36.18a17.31,17.31,0,0,1-3-10.71c.39-6,4-13,19.06-13,16.33,0,24.7,9.57,25.46,11.6,1.88,5-6.75,13.85-17.87,14.4a.38.38,0,0,1-.27-.66c3.55-3.08,16.68-15.63-.81-18.83-9.07-1.66-13.28.14-15.12,1.84a6.05,6.05,0,0,0-1.71,3.13C54.28,36.5,54.23,46.09,72,53.7,90.9,61.81,89.62,74.4,88.64,78.43a.83.83,0,0,1-1.34.45c-2.62-2.14-10-7.07-15.31.85-6.33,9.49-15.73,15.9-32.7,2.78A.8.8,0,0,1,39.63,81.09Z"/><path class="cls-3" d="M73.39,92.74h13a1.21,1.21,0,0,0,1.19-1.42c-.41-2.28-2-6.48-7.74-5.89-5.43.55-7.12,3.81-7.65,5.79A1.21,1.21,0,0,0,73.39,92.74Z"/><circle class="cls-4" cx="65.48" cy="34.18" r="3.25"/></svg>