<svg width="38" height="73"  id="icon" xmlns="http://www.w3.org/2000/svg" viewBox="0 0 131 169"><defs><style>.cls-1{fill:#1d3967;}.cls-2,.cls-3{fill:#fff;}.cls-2{stroke:#1d3967;stroke-miterlimit:10;stroke-width:0.75px;}</style></defs><path class="cls-1" d="M64.88,78h50.48A1.84,1.84,0,0,1,117,80.76L91.71,124.29,66.47,167.82a1.85,1.85,0,0,1-3.19,0L38,124.29,12.8,80.76A1.84,1.84,0,0,1,14.39,78Z"/><ellipse class="cls-1" cx="64.57" cy="55.18" rx="54.39" ry="54.15"/><path class="cls-2" d="M65.43,113.36A56.81,56.81,0,1,1,64.86-.26c31.39.16,57,25.32,57.14,56.18A57,57,0,0,1,65.43,113.36Zm49.71-56.78c0-27.65-22.59-50.3-50.21-50.12s-50.09,22-50.13,50.05a50.17,50.17,0,0,0,100.34.07Z"/><path class="cls-3" d="M78.5,83.91a55.84,55.84,0,0,0,12.84-3.23,12.07,12.07,0,0,0,3.51-2c1.8-1.58,1.74-3.08-.16-4.51-2.45-1.86-5.33-2.68-8.24-3.43-1.69-.43-3.4-.79-5.11-1.39a9.88,9.88,0,0,1,1.44,0c6,.92,12,1.65,17.58,4.23,1.6.74,3.5,1.54,3.44,3.61s-1.86,2.73-3.42,3.45C95,83.14,89.22,84,83.44,84.84A196.4,196.4,0,0,1,52.49,86.3C62.08,85.62,71.76,85,78.5,83.91Z"/><path class="cls-3" d="M66.68,80.64c-7.4.11-14.8.13-22.09-1.42a20,20,0,0,1-7-2.42c-1.93-1.24-2-2.68-.12-4,2.57-1.91,5.66-2.55,8.68-3.33.85-.23,1.74-.33,2.59-.49-1.32,1.34-3.35,1.25-4.83,2.31-.43.3-.94.5-1.35.82-1.88,1.45-1.76,3.13.29,4.32A23.11,23.11,0,0,0,51.11,79c3.5.53,12,1.11,12.63,1.23A14.73,14.73,0,0,1,66.68,80.64Z"/><path class="cls-3" d="M63.83,84.17c-4.61-.08-9.22.17-13.82-.26-5.85-.54-11.67-1.27-17.23-3.33a21,21,0,0,1-4-2.44,2.35,2.35,0,0,1-.27-3.6,15,15,0,0,1,8.79-4.06c-1.41.91-3,1.38-4.43,2.29-3,1.93-3,4.11,0,6a24.29,24.29,0,0,0,9,3.19c8.06,1.57,17.4,1.72,18.38,1.85A29.05,29.05,0,0,1,63.83,84.17Z"/><path class="cls-3" d="M61,77.24c2.75-.19,5.52-.26,8.25-.59a27.73,27.73,0,0,0,8.36-2c.66-.3,1.55-.63,1.49-1.55s-.95-1.15-1.6-1.51c-.5-.27-1.1-.36-1.62-.7a10.3,10.3,0,0,1,7.07,1.9c1,.72.39,1.47-.38,2a11.32,11.32,0,0,1-4,1.46A66.11,66.11,0,0,1,61,77.24Z"/><path class="cls-3" d="M59,72.45c.23-1.8.55-3.57.68-5.36a22,22,0,0,0-1-9,6.63,6.63,0,0,0-2.85-3.53,34,34,0,0,0-6.15-2.79c-1.65-.61-3.37-1.08-4.94-1.84A24.48,24.48,0,0,1,33.24,38.47a40,40,0,0,1-3.31-9.56,6.66,6.66,0,0,1-.13-1.18c0-.47.25-.7.7-.56a4.5,4.5,0,0,1,1.11.52c1,.7,2.09,1.37,3.06,2.16A11,11,0,0,0,40,32.14c2.64.43,5.28.77,7.92,1.2a36.9,36.9,0,0,1,11.26,3.32,20.07,20.07,0,0,1,3,2,7.27,7.27,0,0,1,2.47,3.46c.31-.55.57-1.08.89-1.56A11.7,11.7,0,0,1,69.67,37a26,26,0,0,1,7.12-2.5c3.58-.81,7.2-1.33,10.84-1.78a17.88,17.88,0,0,0,5.48-1.33,11.41,11.41,0,0,0,3.47-2.7c.49-.52,1-1,1.51-1.5a3.28,3.28,0,0,1,1-.49c.33-.13.52,0,.51.38a19.57,19.57,0,0,1-.1,2,35.73,35.73,0,0,1-2.89,10.65,18.89,18.89,0,0,1-10.87,9.86c-2,.76-4.06,1.35-6.08,2.06A24.63,24.63,0,0,0,74.81,54a8.81,8.81,0,0,0-4,6.2,26.23,26.23,0,0,0-.21,7.66c.13,1.32.35,2.63.53,4,0,.19,0,.31-.19.43a5.63,5.63,0,0,1-2.13,1.67,8.86,8.86,0,0,1-8.17,0A4.8,4.8,0,0,1,59,72.45Z"/></svg>