<svg width="50" height="90"  id="icon" xmlns="http://www.w3.org/2000/svg" viewBox="0 0 131 169"><defs><style>.cls-1{fill:#1d3967;}.cls-2,.cls-3,.cls-4,.cls-5{fill:#fff;}.cls-2{stroke:#1d3967;}.cls-2,.cls-5{stroke-miterlimit:10;}.cls-2,.cls-3{stroke-width:0.75px;}.cls-3,.cls-4,.cls-5{stroke:#fff;}.cls-3,.cls-4{stroke-linecap:round;stroke-linejoin:round;}.cls-4,.cls-5{stroke-width:5px;}</style></defs><path class="cls-1" d="M65.19,77.93h50.48a1.85,1.85,0,0,1,1.6,2.77L92,124.51l-25.24,43.8a1.84,1.84,0,0,1-3.2,0l-25.24-43.8L13.11,80.7a1.85,1.85,0,0,1,1.6-2.77Z"/><ellipse class="cls-1" cx="65.63" cy="57.46" rx="55.45" ry="55.56"/><path class="cls-2" d="M65.43,114.58C34.32,114.94,9.23,90,8.05,59.83,6.73,26.12,34,.08,64.86.24c31.39.16,57,25.48,57.14,56.53C122.17,89.33,95.93,114.53,65.43,114.58Zm49.71-57.14C115.1,29.62,92.55,6.82,64.93,7A50.12,50.12,0,0,0,14.8,57.37a50.17,50.17,0,1,0,100.34.07Z"/><path class="cls-3" d="M99.32,51.5a.16.16,0,0,1-.31,0c-.37-1.38-1.44-3.93-3.54.71C92,59.77,93.62,80,77,81.89a33.87,33.87,0,0,1-28.69-10.2c-1.63-1.63-.91-.56-3.82-4.53-2-2.69-6.27-11.75-7.93-14.64-2-3.55-8.05-9.47-7.83-4.05a.16.16,0,0,1-.28.12c-.71-.75-2.18-2.71.43-3.79,5.59-2.33,16.67,13.12,17.75,14.39a27.84,27.84,0,0,0,21.12,9.72c11.22,0,18.19-10.66,20.91-15.82a15.19,15.19,0,0,1,5.76-6.23C97.11,45.3,100.26,46.41,99.32,51.5Z"/><line class="cls-4" x1="41.79" y1="80.04" x2="48.27" y2="71.69"/><line class="cls-4" x1="86.48" y1="65.57" x2="97.9" y2="75.49"/><line class="cls-4" x1="79.73" y1="70.53" x2="93.16" y2="81.29"/><line class="cls-4" x1="74.68" y1="76.61" x2="86.44" y2="87.73"/><path class="cls-3" d="M83.78,63.1c-2-3.6-15.1-28.25-.38-43.67.16-.17,0-.51-.14-.47L46.17,27.53a3.22,3.22,0,0,0-2,1.67,19.68,19.68,0,0,0,.87,21c3.62,5.42,12.18,8.69,20.36,10.63a117.5,117.5,0,0,0,18.24,2.71C83.79,63.52,83.88,63.27,83.78,63.1Z"/><line class="cls-5" x1="65.5" y1="73.37" x2="65.39" y2="48.51"/></svg>