<svg width="38" height="73"  id="icon" xmlns="http://www.w3.org/2000/svg" viewBox="0 0 131 169"><defs><style>.cls-1{fill:#1d3967;}.cls-2,.cls-3{fill:#fff;stroke-miterlimit:10;}.cls-2{stroke:#fff;}.cls-3{stroke:#1d3967;stroke-width:0.75px;}</style></defs><path class="cls-1" d="M64.86,78.31h50.48a1.84,1.84,0,0,1,1.6,2.76L91.7,124.69,66.46,168.32a1.86,1.86,0,0,1-3.2,0L38,124.69,12.78,81.07a1.84,1.84,0,0,1,1.6-2.76Z"/><ellipse class="cls-1" cx="64.57" cy="57.22" rx="51.9" ry="51.78"/><path class="cls-2" d="M56.82,42.12l-.63,0a.94.94,0,0,1-1-1c0-1.3,0-2.61,0-3.92a1,1,0,0,1,1-1c.29,0,.57,0,.95,0v-.72q0-4.33,0-8.65c0-.28.07-.54-.36-.66a1.78,1.78,0,0,1-1.28-1.6,1.87,1.87,0,0,1,.93-1.9q4.06-2.72,8.14-5.41a1,1,0,0,0,.53-1c0-.89,0-1.78,0-2.68,0-.69.38-1.11,1-1.1s1,.43,1,1.13c0,.9,0,1.79,0,2.68a.91.91,0,0,0,.5.9c2.6,1.71,5.2,3.42,7.78,5.18a3.32,3.32,0,0,1,1.19,1.28,1.87,1.87,0,0,1-1.12,2.49.76.76,0,0,0-.41.49c0,3.09,0,6.18,0,9.27a.9.9,0,0,0,.08.24h.77c.76,0,1.1.38,1.1,1.13,0,1.16,0,2.33,0,3.49,0,.95-.28,1.23-1.26,1.29a2,2,0,0,0-.36,0c.1,1.38.19,2.73.29,4.09q.41,5.81.83,11.6l1.2,16.56q.47,6.33.89,12.65c0,.38.12.48.47.45,2-.14,1.94.53,1.91,2,0,.91,0,1.82,0,2.74s-.33,1.2-1.21,1.2l-19.19,0-8,0c-.95,0-1.27-.31-1.27-1.26,0-1.16,0-2.32,0-3.48,0-.78.36-1.13,1.14-1.15,1.21,0,1.18,0,1.27-1.22q.42-6.14.88-12.28.41-5.73.82-11.47l1.2-16.63C56.65,44.67,56.73,43.43,56.82,42.12ZM55.53,87.47H76.6l-.42-5.86H55.94C55.8,83.58,55.66,85.5,55.53,87.47ZM76,79.59c-.15-2-.29-3.94-.43-5.89-.17,0-.27,0-.36,0H57c-.39,0-.49.16-.52.51-.1,1.66-.23,3.31-.35,5a4.05,4.05,0,0,0,0,.48Zm-.58-7.92c0-.47,0-.89-.08-1.3-.09-1.28-.24-2.56-.27-3.84,0-.66-.25-.77-.84-.77-5.47,0-10.93,0-16.4,0h-.79c-.14,2-.28,3.93-.43,5.9Zm-1-13.82H58.91c-1.25,0-1.25,0-1.35,1.27l-.06.56c-.09,1.35-.18,2.71-.28,4.09H74.9C74.76,61.79,74.62,59.86,74.47,57.85Zm-.13-1.93c-.14-1.93-.26-3.77-.42-5.6,0-.13-.33-.34-.51-.34l-14.7,0c-.36,0-.52.1-.53.49,0,.95-.15,1.9-.21,2.85s-.11,1.71-.17,2.62Zm-1-13.76a1.49,1.49,0,0,0-.23-.06H59.22c-.41,0-.47.2-.49.53-.11,1.68-.24,3.35-.35,5a1.49,1.49,0,0,0,0,.36H73.77Zm-12.25-6c0-.24,0-.44,0-.64V31.34a2.93,2.93,0,0,1,3-3H68a2.88,2.88,0,0,1,3,3c0,1.41,0,2.82,0,4.23,0,.22,0,.44,0,.64h1.92a1.86,1.86,0,0,0,0-.28c0-3,0-6.06,0-9.09,0-.53-.3-.48-.64-.48H59.82c-.21,0-.43,0-.66,0v9.81Zm-7.82,55.3H77.55c1.44,0,1.42,0,1.4-1.48,0-.4-.13-.55-.54-.54-.89,0-1.78,0-2.67,0H54.81c-1.75,0-1.75,0-1.6,1.74A1.5,1.5,0,0,0,53.28,91.45ZM74.45,24.32l0-.13q-4.07-2.7-8.15-5.38a.73.73,0,0,0-.65.07c-2.59,1.69-5.16,3.4-7.74,5.11a2.62,2.62,0,0,1-.39.15l.17.18ZM75,38.14H58.42c-1.31,0-1.29,0-1.31,1.31,0,.53.12.71.69.71,5.46,0,10.92,0,16.39,0H75Zm-11.87-2c1.93,0,3.77,0,5.62,0,.11,0,.33-.2.33-.31,0-1.57,0-3.15,0-4.72a.87.87,0,0,0-1-.87c-1.33,0-2.66,0-4,0a.89.89,0,0,0-1,.91C63.06,32.82,63.08,34.45,63.08,36.19Z"/><path class="cls-2" d="M87.5,93.39c-3.54,0-7.07,0-10.6,0a1.63,1.63,0,0,1-1.08-.45.92.92,0,0,1,.58-1.45,2.6,2.6,0,0,1,.56,0H96.78c.48,0,1,0,1.43,0,.69,0,1.12.39,1.13,1a1,1,0,0,1-1.12,1Z"/><path class="cls-2" d="M42,91.45H52.51a2.58,2.58,0,0,1,.62,0,1,1,0,0,1,0,1.86,2.56,2.56,0,0,1-.62,0H31.43c-.79,0-1.25-.36-1.25-1s.45-1,1.26-1Z"/><path class="cls-2" d="M51.42,36.4c.58,0,.92.25,1,.74a.89.89,0,0,1-.52,1.08,10.11,10.11,0,0,1-1.06.35l-17.35,5.2c-.22.07-.44.14-.66.19a1,1,0,0,1-.56-1.85c1-.31,1.94-.59,2.91-.89l15.63-4.67Z"/><path class="cls-2" d="M79.58,36.72a1.12,1.12,0,0,1,1-.25l.29.08L99.16,42l.3.09a1,1,0,1,1-.58,1.84c-1.2-.33-2.39-.7-3.58-1.06-5-1.5-10-3-15-4.51a1.4,1.4,0,0,1-.8-.51,1.25,1.25,0,0,1,0-1A.52.52,0,0,1,79.58,36.72Z"/><path class="cls-2" d="M100,20.83c0,.59-.45.84-1,1l-9.54,2.85L80.68,27.3a2,2,0,0,1-.79.12.89.89,0,0,1-.79-.9.94.94,0,0,1,.76-1L84,24.28c2.67-.78,5.34-1.55,8-2.34,2.21-.66,4.41-1.36,6.61-2A1,1,0,0,1,100,20.83Z"/><path class="cls-2" d="M32.73,19.81c.22.05.41.08.59.14,3.27,1,6.54,2,9.82,3,2.86.86,5.73,1.69,8.6,2.54.75.22,1.08.68.9,1.24a.93.93,0,0,1-1.21.67c-2.37-.7-4.73-1.43-7.1-2.14L36.75,23l-4.18-1.25c-.43-.13-.8-.4-.74-.87a2,2,0,0,1,.48-.92C32.38,19.86,32.6,19.85,32.73,19.81Z"/><path class="cls-2" d="M31.16,31.15c.23,0,.42,0,.6,0l10.28,0c3,0,6-.05,9-.07.79,0,1.23.34,1.22.93a.92.92,0,0,1-1,1c-2.47,0-4.94,0-7.41,0l-7.91,0-4.36,0c-.46,0-.88-.16-1-.62a2.2,2.2,0,0,1,.19-1C30.84,31.29,31.05,31.22,31.16,31.15Z"/><path class="cls-2" d="M79.83,31.12c.23,0,.42,0,.61,0l10.27,0c3,0,6-.05,9-.07.79,0,1.23.34,1.23.93a.94.94,0,0,1-1,1H92.52l-7.91,0-4.36,0c-.45,0-.88-.16-1-.62a2.2,2.2,0,0,1,.19-1C79.52,31.26,79.73,31.19,79.83,31.12Z"/><path class="cls-3" d="M65.43,114.1A56.93,56.93,0,1,1,64.86.24c31.39.16,57,25.38,57.14,56.3C122.17,89,95.93,114.05,65.43,114.1Zm49.71-56.9C115.1,29.5,92.55,6.8,64.93,7A50.17,50.17,0,1,0,115.14,57.2Z"/></svg>