<svg width="38" height="73" id="icon" xmlns="http://www.w3.org/2000/svg" viewBox="0 0 131 169"><defs><style>.cls-1{fill:#1d3967;}.cls-2,.cls-3{fill:#fff;}.cls-2{stroke:#1d3967;stroke-miterlimit:10;stroke-width:0.75px;}</style></defs><path class="cls-1" d="M64.78,78h50.49a1.84,1.84,0,0,1,1.59,2.76L91.62,124.29,66.38,167.82a1.85,1.85,0,0,1-3.19,0L38,124.29,12.71,80.76A1.84,1.84,0,0,1,14.3,78Z"/><ellipse class="cls-1" cx="64.92" cy="55.54" rx="53.67" ry="53.45"/><path class="cls-2" d="M65.43,113.36A56.81,56.81,0,1,1,64.86-.26c31.39.16,57,25.32,57.14,56.18A57,57,0,0,1,65.43,113.36Zm49.71-56.78c0-27.65-22.59-50.3-50.21-50.12s-50.09,22-50.13,50.05a50.17,50.17,0,0,0,100.34.07Z"/><path class="cls-3" d="M65.09,85.25c-5.18,0-10.35,0-15.52,0-1,0-1.41.26-1.33,1.32s0,2.31,0,3.46a4.66,4.66,0,1,1-9.32.15,28.51,28.51,0,0,1,0-3.58c.09-1.12-.35-1.44-1.41-1.34-.78.08-1.58,0-2.36,0-1.11.1-1.47-.26-1.46-1.43,0-9.74-.06-19.48.07-29.22a81.79,81.79,0,0,1,.95-9.07c.48-3.95,1-7.89,1.52-11.83.19-1.44.3-2.9.6-4.31.71-3.29,3-5.15,5.93-6.52a48.64,48.64,0,0,1,12.56-3.53,52.47,52.47,0,0,1,16.4-.44c5.71.81,11.37,1.76,16.57,4.46a9.1,9.1,0,0,1,5.2,7.55c.55,5,1.33,10,1.94,15a85.63,85.63,0,0,1,1,11.88c-.12,8.66-.06,17.32,0,26,0,1.14-.3,1.56-1.45,1.45-.93-.08-1.87,0-2.81,0-.71,0-1,.22-1,1,0,1.23,0,2.46,0,3.7a4.58,4.58,0,0,1-4.93,4.84c-2.61-.15-4.37-2-4.38-4.93V86.91c0-1.65,0-1.66-1.61-1.66Zm0-29.89H88.24A2.1,2.1,0,0,0,90.65,53a8.18,8.18,0,0,0,0-1.11c-.73-5.26-1.5-10.51-2.22-15.77-.41-3-1.24-3.91-3.72-3.91q-19.62,0-39.24,0c-2.23,0-3.11.75-3.46,3-.55,3.38-1.06,6.75-1.54,10.13-.35,2.43-.72,4.85-.91,7.29-.17,2.15.56,2.8,2.73,2.8Zm0-27.31H77.63c1.35,0,2-.55,2-1.69s-.67-1.76-2-1.76H52.49c-1.35,0-2,.58-2,1.72s.62,1.73,2,1.73ZM90.69,70.7a4.27,4.27,0,0,0-4.1-4.19,4.08,4.08,0,0,0-4.17,4.18,4,4,0,0,0,4,4.18A4.07,4.07,0,0,0,90.69,70.7Zm-43,0a4.1,4.1,0,0,0-4.06-4.19,4.22,4.22,0,0,0-4.24,4.15,4.08,4.08,0,0,0,4.13,4.19A4,4,0,0,0,47.73,70.71Z"/></svg>