<svg width="14" height="21" viewBox="0 0 14 21" fill="none" xmlns="http://www.w3.org/2000/svg">
<path d="M6.99998 0C3.13469 0 0 3.34436 0 7.46819C0 11.592 7.21218 21 7.21218 21C7.21218 21 14 11.592 14 7.46819C14 3.34436 10.8653 0 6.99998 0ZM6.99998 1.51524C10.0816 1.51524 12.5797 4.18044 12.5797 7.46819C12.5797 10.756 10.0816 13.4212 6.99998 13.4212C3.91836 13.4212 1.42025 10.756 1.42025 7.46819C1.42025 4.18044 3.91836 1.51524 6.99998 1.51524Z" fill="#FC6A08"/>
<path d="M6.91798 3.76367L6.83359 3.91802L6.88181 4.00807H6.83841L6.67444 4.30649L6.72749 4.40682H6.59728L6.19221 5.1503L6.30313 5.35354H6.13916V5.58508H7.86081V5.35354H7.69684L7.80776 5.1503L7.40507 4.40682H7.27245L7.3255 4.30649L7.16394 4.00807H7.12053L7.16876 3.91802L7.08195 3.76367H6.91316H6.91798ZM6.81189 4.79786H7.19528L7.38578 5.1503L7.27486 5.35354H6.7299L6.62139 5.1503L6.81189 4.79786Z" fill="#FC6A08"/>
<path d="M7 3.80998V3.43695" stroke="#FC6A08" stroke-width="0.84666"/>
<path d="M6.32252 6.5524L5.83302 11.1496H5.57983V11.4995H8.42033V11.1496H8.16714L7.72828 6.5524H6.32252ZM6.86262 7.4682H7.13751L7.27255 7.72032L7.13751 7.97244H6.86262L6.72759 7.72032L6.86262 7.4682ZM6.86262 8.4252H7.13751L7.27255 8.6799L7.13751 8.93202H6.86262L6.72759 8.6799L6.86262 8.4252ZM7.00007 10.3083L7.45822 10.5888V11.1496H6.54192V10.5888L7.00007 10.3083Z" fill="#FC6A08"/>
<path d="M5.96313 5.73944V5.92209H6.0837L6.37788 6.39545H7.6245L7.91627 5.92209H8.03684V5.73944H5.96313ZM6.31036 5.92209H6.62139L6.70579 6.21536H6.4888L6.31036 5.92209ZM6.80465 5.92209H7.19529L7.11089 6.21536H6.88905L6.80465 5.92209ZM7.37855 5.92209H7.69202L7.51117 6.21536H7.29415L7.37855 5.92209Z" fill="#FC6A08"/>
</svg>
