<svg width="14" height="21" viewBox="0 0 14 21" fill="none" xmlns="http://www.w3.org/2000/svg">
<path d="M6.99995 0C3.13395 1.16667e-05 3.21496e-05 3.34367 0 7.46824C0 11.5928 7.21308 21 7.21308 21C7.21308 21 14 11.5928 14 7.46824C14 3.34367 10.8659 1.16667e-05 6.99995 0ZM6.99995 1.51594C8.47964 1.51594 9.89872 2.14306 10.945 3.25933C11.9913 4.3756 12.5791 5.88959 12.5791 7.46824C12.5791 9.04689 11.9913 10.5609 10.945 11.6772C9.89871 12.7934 8.47963 13.4205 6.99995 13.4205C5.52027 13.4205 4.1012 12.7934 3.05491 11.6772C2.00863 10.5609 1.42082 9.04689 1.42082 7.46824C1.42082 5.8896 2.00862 4.37562 3.05491 3.25934C4.1012 2.14307 5.52027 1.51595 6.99995 1.51594Z" fill="#FC6A08"/>
<path d="M9.98559 9.88294C9.92045 9.88294 9.86867 9.93823 9.86867 10.0078C9.86867 10.0898 9.50623 10.1148 9.35089 10.1255C9.28241 10.1308 9.21226 10.1344 9.14712 10.1415C8.43226 10.2165 7.90112 10.2058 7.52364 10.1077C7.33657 10.0577 7.12278 10.1059 6.91567 10.154C6.62338 10.22 6.34779 10.2824 6.14067 10.1041C5.77656 9.79198 5.14855 10.006 4.86794 10.163C4.68756 10.2646 4.29839 10.2379 3.82738 10.0934C3.36138 9.95071 3.06407 9.76701 3.02566 9.70459C2.99893 9.64217 2.93045 9.61541 2.87199 9.64217C2.81354 9.6707 2.78514 9.74383 2.81187 9.80625C2.89037 9.9953 3.33799 10.1808 3.5284 10.2521C3.6971 10.3163 4.15642 10.4733 4.55394 10.4733C4.71094 10.4733 4.85959 10.4483 4.97484 10.3841C5.30221 10.2004 5.77155 10.1094 5.99369 10.2985C6.28599 10.55 6.64676 10.4697 6.96411 10.3984C7.15452 10.3556 7.33323 10.3146 7.46852 10.3502C7.87272 10.4554 8.42892 10.4697 9.17051 10.3912C9.23231 10.3841 9.29745 10.3805 9.36593 10.3752C9.52293 10.3645 9.68662 10.3538 9.8169 10.3163C10.0541 10.2503 10.1025 10.1112 10.1025 10.0078C10.1025 9.93823 10.0507 9.88294 9.98559 9.88294Z" fill="#FC6A08"/>
<path d="M10.9292 5.40993H8.19337V5.28152C8.19337 4.79462 8.56417 4.39868 9.01848 4.39868C9.47279 4.39868 9.84358 4.79462 9.84358 5.28152C9.84358 5.35107 9.89536 5.40636 9.9605 5.40636C10.0256 5.40636 10.0774 5.35107 10.0774 5.28152C10.0774 4.65729 9.60307 4.14899 9.01848 4.14899C8.43389 4.14899 7.95954 4.65729 7.95954 5.28152V5.40993H4.94641V5.28152C4.94641 4.79462 5.3172 4.39868 5.77151 4.39868C6.22582 4.39868 6.59662 4.79462 6.59662 5.28152C6.59662 5.35107 6.64839 5.40636 6.71353 5.40636C6.77867 5.40636 6.83045 5.35107 6.83045 5.28152C6.83045 4.65729 6.3561 4.14899 5.77151 4.14899C5.18692 4.14899 4.71257 4.65729 4.71257 5.28152V5.40993H3.82734C3.7622 5.40993 3.71042 5.46522 3.71042 5.53477C3.71042 5.60433 3.7622 5.65962 3.82734 5.65962H4.7109V9.6422C4.50379 9.67609 4.18811 9.63507 3.82567 9.5227C3.35967 9.38002 3.06236 9.19632 3.02395 9.1339C2.99722 9.07148 2.92874 9.04472 2.87029 9.07148C2.81183 9.10001 2.78343 9.17314 2.81016 9.23556C2.88866 9.42461 3.33629 9.6101 3.52669 9.68144C3.69539 9.74564 4.15471 9.90259 4.55223 9.90259C4.70923 9.90259 4.85788 9.87762 4.97313 9.81342C5.3005 9.62972 5.76984 9.53876 5.99198 9.72781C6.28428 9.97928 6.64505 9.89903 6.9624 9.82769C7.15281 9.78488 7.33153 9.74386 7.46682 9.77953C7.63718 9.82412 7.83427 9.85265 8.06143 9.86336C8.06644 9.86336 8.06978 9.86336 8.07479 9.86336H8.07646C8.38545 9.87762 8.74623 9.86336 9.1688 9.81877C9.2306 9.81163 9.29574 9.80807 9.36589 9.80272C9.52289 9.79202 9.68658 9.78131 9.81519 9.74386C10.0524 9.67787 10.1008 9.53876 10.1008 9.43531C10.1008 9.36576 10.049 9.31047 9.98388 9.31047C9.91874 9.31047 9.86697 9.36576 9.86697 9.43531C9.86697 9.4692 9.78178 9.49595 9.75506 9.50309C9.64816 9.53341 9.49617 9.54411 9.34919 9.55302C9.28071 9.55838 9.21056 9.56194 9.14542 9.56908C8.7813 9.60831 8.46396 9.62258 8.1917 9.61723V5.65962H10.9276C10.9927 5.65962 11.0445 5.60433 11.0445 5.53477C11.0445 5.46522 10.9927 5.40993 10.9292 5.40993ZM4.94975 5.65962V6.30703H7.95954V6.55673H4.94975V6.99012H7.95954V7.23981H4.94975V7.6732H7.95954V7.9229H4.94975V8.35629H7.95954V8.60598H4.94975V9.04116H7.95954V9.29085H4.94975V9.55124C4.94808 9.55124 4.94808 9.55302 4.94641 9.55302V5.65962H4.94975ZM5.62954 9.37467C5.62453 9.37467 5.62119 9.37467 5.61618 9.37467C5.62119 9.37467 5.6262 9.37467 5.62954 9.37467ZM6.14064 9.53519C6.00535 9.41926 5.83331 9.37467 5.65459 9.37467C5.83331 9.37467 6.00702 9.41748 6.14398 9.53519C6.24586 9.62258 6.36612 9.6529 6.4964 9.65112C6.36445 9.6529 6.24419 9.62437 6.14064 9.53519ZM7.5236 9.53876C7.46515 9.52271 7.40502 9.51735 7.34322 9.51735C7.40669 9.51735 7.46849 9.52271 7.52694 9.53876C7.65388 9.57264 7.79753 9.59405 7.95787 9.60831C7.79586 9.59583 7.65221 9.57264 7.5236 9.53876Z" fill="#FC6A08"/>
</svg>
