<svg width="14" height="23" viewBox="0 0 14 23" fill="none" xmlns="http://www.w3.org/2000/svg">
<path d="M7.00005 1.16168C3.13404 1.16169 3.21496e-05 4.50535 0 8.62993C0 12.7545 7.21317 22.1617 7.21317 22.1617C7.21317 22.1617 14 12.7545 14 8.62993C14 4.50535 10.866 1.16169 7.00005 1.16168ZM7.00005 2.67762C8.47973 2.67763 9.8988 3.30475 10.9451 4.42103C11.9914 5.5373 12.5792 7.05128 12.5792 8.62993C12.5792 10.2086 11.9914 11.7226 10.9451 12.8388C9.8988 13.9551 8.47973 14.5822 7.00005 14.5822C5.52037 14.5822 4.10129 13.9551 3.05499 12.8389C2.00869 11.7226 1.42089 10.2086 1.42088 8.62993C1.42089 7.05127 2.00869 5.53729 3.05499 4.42101C4.10128 3.30474 5.52037 2.67762 7.00005 2.67762Z" fill="#008000"/>
<path d="M8.61815 9.35291C8.77604 9.35291 8.91138 9.24061 8.94897 9.07217L9.3249 7.27539C9.34746 7.17111 9.3249 7.05881 9.25724 6.97058C9.18957 6.88235 9.09934 6.83422 8.99408 6.83422H5.46783L5.26483 6H4.17462C4.01673 6 3.88892 6.13636 3.88892 6.30481C3.88892 6.47326 4.01673 6.60962 4.17462 6.60962H4.82875L5.74602 10.3235H8.92642C9.08431 10.3235 9.21212 10.1871 9.21212 10.0187C9.21212 9.85023 9.08431 9.71387 8.92642 9.71387H6.18211L6.09188 9.35291H8.61815ZM5.72347 7.85293H6.34L6.41518 8.42244H5.8588L5.72347 7.85293ZM6.56556 7.85293H7.23472V8.42244H6.64074L6.56556 7.85293ZM8.85123 8.42244H8.27981L8.355 7.85293H8.97153L8.85123 8.42244ZM8.05425 8.42244H7.46028V7.85293H8.12944L8.05425 8.42244ZM8.02418 8.66308L7.96403 9.11227H7.46028V8.66308H8.02418ZM7.46028 7.61229V7.07486H8.22718L8.15951 7.61229H7.46028ZM7.23472 7.61229H6.53548L6.4603 7.07486H7.23472V7.61229ZM7.23472 8.66308V9.11227H6.73097L6.67082 8.66308H7.23472ZM8.61815 9.11227H8.19711L8.25726 8.66308H8.80612L8.73093 9.02404C8.71589 9.08019 8.67078 9.11227 8.61815 9.11227ZM9.08431 7.12299C9.10686 7.15507 9.11438 7.18716 9.10686 7.22726L9.02416 7.61229H8.38507L8.45274 7.07486H8.99408C9.02416 7.08288 9.06175 7.09892 9.08431 7.12299ZM6.23474 7.08288L6.30992 7.62031H5.66332L5.52798 7.08288H6.23474ZM5.91895 8.66308H6.44526L6.50541 9.11227H6.03173L5.91895 8.66308Z" fill="#008000"/>
<path d="M6.23472 10.5641C6.00164 10.5641 5.80615 10.7647 5.80615 11.0214C5.80615 11.278 5.99412 11.4786 6.23472 11.4786C6.47531 11.4786 6.66328 11.278 6.66328 11.0214C6.66328 10.7647 6.4678 10.5641 6.23472 10.5641ZM6.23472 11.2299C6.12194 11.2299 6.03171 11.1337 6.03171 11.0133C6.03171 10.893 6.12194 10.7968 6.23472 10.7968C6.3475 10.7968 6.43772 10.893 6.43772 11.0133C6.43772 11.1337 6.3475 11.2299 6.23472 11.2299Z" fill="#008000"/>
<path d="M8.4227 10.5641C8.18963 10.5641 7.99414 10.7647 7.99414 11.0214C7.99414 11.278 8.18211 11.4786 8.4227 11.4786C8.6633 11.4786 8.85127 11.278 8.85127 11.0214C8.85127 10.7647 8.65578 10.5641 8.4227 10.5641ZM8.4227 11.2299C8.30992 11.2299 8.2197 11.1337 8.2197 11.0133C8.2197 10.893 8.30992 10.7968 8.4227 10.7968C8.53548 10.7968 8.62571 10.893 8.62571 11.0133C8.62571 11.1337 8.53548 11.2299 8.4227 11.2299Z" fill="#008000"/>
</svg>
