<svg xmlns="http://www.w3.org/2000/svg" width="20" height="20" fill="none" xmlns:v="https://vecta.io/nano"><path fill-rule="evenodd" d="M0 4a4 4 0 0 1 4-4h12a4 4 0 0 1 4 4v12a4 4 0 0 1-4 4H4a4 4 0 0 1-4-4V4zm4-2a2 2 0 0 0-2 2v12a2 2 0 0 0 2 2h12a2 2 0 0 0 2-2V4a2 2 0 0 0-2-2H4zm6 5a3 3 0 0 0-3 3 3 3 0 0 0 3 3 3 3 0 0 0 3-3 3 3 0 0 0-3-3zm-5 3a5 5 0 0 1 5-5 5 5 0 0 1 5 5 5 5 0 0 1-5 5 5 5 0 0 1-5-5zm10.5-4A1.5 1.5 0 0 0 17 4.5 1.5 1.5 0 0 0 15.5 3 1.5 1.5 0 0 0 14 4.5 1.5 1.5 0 0 0 15.5 6z" fill="#fff"/></svg>