<svg width="24" height="24" viewBox="0 0 24 24" fill="none" xmlns="http://www.w3.org/2000/svg">
<g opacity="0.9">
<path fill-rule="evenodd" clip-rule="evenodd" d="M3.49993 12C3.49993 10.3189 3.99845 8.67547 4.93244 7.27765C5.86643 5.87984 7.19395 4.79037 8.74712 4.14702C10.3003 3.50368 12.0094 3.33535 13.6582 3.66333C15.307 3.9913 16.8216 4.80085 18.0103 5.98959C19.1991 7.17834 20.0086 8.69289 20.3366 10.3417C20.6646 11.9906 20.4963 13.6996 19.8529 15.2528C19.2096 16.806 18.1201 18.1335 16.7223 19.0675C15.3245 20.0015 13.6811 20.5 11.9999 20.5C10.3918 20.5029 8.81616 20.047 7.45793 19.186C7.33711 19.1096 7.20131 19.0599 7.05969 19.0404C6.91806 19.021 6.7739 19.0321 6.63693 19.073L3.75693 19.932L4.84193 17.395C4.90499 17.2473 4.93156 17.0866 4.91937 16.9264C4.90719 16.7663 4.85662 16.6115 4.77193 16.475C3.93786 15.1316 3.49718 13.5813 3.49993 12ZM11.9999 1.5C6.20093 1.5 1.49993 6.201 1.49993 12C1.49993 13.838 1.97293 15.568 2.80493 17.073L1.07993 21.107C1.00527 21.2817 0.981943 21.4741 1.01268 21.6617C1.04343 21.8492 1.12696 22.0241 1.25351 22.1658C1.38005 22.3076 1.54437 22.4104 1.72721 22.4621C1.91006 22.5139 2.10386 22.5124 2.28593 22.458L6.78593 21.116C8.37295 22.0255 10.1708 22.5027 11.9999 22.5C17.7989 22.5 22.4999 17.799 22.4999 12C22.4999 6.201 17.7989 1.5 11.9999 1.5ZM14.2929 14.182L12.9779 15.108C12.2534 14.6912 11.5881 14.1789 10.9999 13.585C10.3685 12.9544 9.82247 12.2437 9.37593 11.471L10.2109 10.762C10.3849 10.6144 10.5032 10.4117 10.5461 10.1876C10.589 9.96351 10.554 9.73147 10.4469 9.53L9.38293 7.53C9.31212 7.39718 9.21225 7.28205 9.09075 7.1932C8.96925 7.10436 8.82926 7.04408 8.68122 7.01688C8.53318 6.98967 8.38091 6.99624 8.23576 7.03608C8.09061 7.07593 7.95633 7.14803 7.84293 7.247L7.52693 7.522C6.76793 8.184 6.31893 9.272 6.69093 10.374C7.28943 12.1171 8.27983 13.6997 9.58593 15C11.3989 16.813 13.2409 17.527 14.3189 17.805C15.1869 18.028 16.0079 17.729 16.5869 17.257L17.1779 16.775C17.3025 16.6734 17.4008 16.5432 17.4644 16.3956C17.528 16.2479 17.5551 16.0871 17.5433 15.9268C17.5315 15.7664 17.4812 15.6113 17.3967 15.4745C17.3123 15.3377 17.196 15.2233 17.0579 15.141L15.3799 14.141C15.214 14.042 15.0229 13.9932 14.8299 14.0004C14.6368 14.0077 14.4499 14.0708 14.2919 14.182H14.2929Z" fill="black"/>
</g>
</svg>
