<svg xmlns="http://www.w3.org/2000/svg" width="22" height="22" fill="none" xmlns:v="https://vecta.io/nano"><path fill-rule="evenodd" d="M2.5 11a8.5 8.5 0 0 1 5.247-7.853 8.5 8.5 0 0 1 9.263 1.843 8.5 8.5 0 0 1 1.843 9.263A8.5 8.5 0 0 1 11 19.5c-1.608.003-3.184-.453-4.542-1.314a1 1 0 0 0-.821-.113l-2.88.859 1.085-2.537a1 1 0 0 0-.07-.92C2.938 14.132 2.497 12.581 2.5 11zM11 .5C5.201.5.5 5.201.5 11c0 1.838.473 3.568 1.305 5.073L.08 20.107a1 1 0 0 0 .174 1.059 1 1 0 0 0 1.032.292l4.5-1.342c1.587.91 3.385 1.387 5.214 1.384 5.799 0 10.5-4.701 10.5-10.5S16.799.5 11 .5zm2.293 12.682l-1.315.926A9.33 9.33 0 0 1 10 12.585a10.2 10.2 0 0 1-1.624-2.114l.835-.709a1 1 0 0 0 .236-1.232l-1.064-2a1 1 0 0 0-.702-.513 1 1 0 0 0-.838.23l-.316.275c-.759.662-1.208 1.75-.836 2.852A12.05 12.05 0 0 0 8.586 14c1.813 1.813 3.655 2.527 4.733 2.805.868.223 1.689-.076 2.268-.548l.591-.482a1 1 0 0 0 .365-.848 1 1 0 0 0-.485-.786l-1.678-1a1 1 0 0 0-1.088.041h.001z" fill="#fff"/></svg>