<?xml version="1.0" encoding="utf-8" ?>
<svg xmlns="http://www.w3.org/2000/svg" xmlns:xlink="http://www.w3.org/1999/xlink" width="100" height="10">
	<path fill="#3C5B97" transform="matrix(0.0281215 0 0 0.0308642 0 2.38419e-07)" d="M81.6423 0L3471.78 0Q3472.8 1.19326 3473.55 2.56765C3475.36 5.88574 3478.33 15.4209 3477.25 19.0073C3434.65 28.6602 3390.68 34.4546 3347.62 42.0096L3105.18 84.8572L2364.7 215.826L1946.83 289.748L1837.04 309.206C1819.41 312.413 1796.69 318.57 1779.11 318.985C1761.53 319.4 1735.72 312.252 1717.5 309.038L1581.27 285.091L1004.78 182.853L340.084 65.6275L167.182 35.0846L113.672 25.8205C102.419 23.8652 90.6439 22.3722 79.6991 19.1Q80.823 9.5655 81.6423 0Z"/>
</svg>
