<?xml version="1.0" encoding="utf-8" ?>
<svg xmlns="http://www.w3.org/2000/svg" xmlns:xlink="http://www.w3.org/1999/xlink" width="100" height="10">
	<path fill="#3D5B97" transform="matrix(0.0281215 0 0 0.0304878 -1.90735e-06 1.90735e-06)" d="M0 0L3554.25 0C3555.81 2.42771 3555.9 4.58517 3555.95 7.38963C3557.5 83.38 3556.04 159.706 3556.02 235.728L3556 298.648C3556 306.469 3557.28 317.048 3555.7 324.557C3555.45 325.782 3554.92 326.949 3554.25 328L3471.28 328L82.4274 328L0 328L0 0ZM0 0L0 328L82.4274 328C81.0539 321.605 79.5782 315.228 78.9033 308.712C137.767 296.365 197.538 286.766 256.765 276.214L548.624 223.963L1375.94 75.6627L1664.7 24.0014L1734.07 11.5977C1749.26 8.87576 1765.81 4.4334 1781.27 4.8994C1801.47 5.50824 1832.91 13.9056 1854.14 17.3832C1937.33 31.015 2020.14 47.1715 2103.16 61.8403L2949.28 213.538C2999.12 222.448 3471.5 305.917 3474.97 308.188C3475.24 308.367 3475.49 308.597 3475.72 308.833C3475.18 309.94 3474.7 311.086 3474.08 312.144C3471.71 316.165 3474.37 322.4 3472.05 326.709C3471.81 327.156 3471.57 327.582 3471.28 328L3554.25 328C3554.92 326.949 3555.45 325.782 3555.7 324.557C3557.28 317.048 3556 306.469 3556 298.648L3556.02 235.728C3556.04 159.706 3557.5 83.38 3555.95 7.38963C3555.9 4.58517 3555.81 2.42771 3554.25 0L0 0Z"/>
</svg>
