<svg xmlns="http://www.w3.org/2000/svg" width="24" height="24" fill="none" xmlns:v="https://vecta.io/nano"><path d="M20.688 20S22 20 22 18.667s-1.312-5.333-6.562-5.333-6.562 4-6.562 5.333S10.188 20 10.188 20h10.5zm-10.471-1.333l-.029-.005c.001-.352.219-1.373.998-2.293.724-.863 1.998-1.701 4.252-1.701s3.527.84 4.253 1.701c.778.92.995 1.943.997 2.293l-.011.003-10.461.003zm5.221-8c.696 0 1.364-.281 1.856-.781a2.69 2.69 0 0 0 0-3.771c-.492-.5-1.16-.781-1.856-.781s-1.364.281-1.856.781a2.69 2.69 0 0 0 0 3.771c.492.5 1.16.781 1.856.781zM19.375 8c0 .525-.102 1.045-.3 1.531s-.488.926-.854 1.298-.8.666-1.277.867-.99.305-1.507.305-1.029-.104-1.507-.305-.912-.496-1.277-.867-.656-.812-.854-1.298-.3-1.005-.3-1.531c0-1.061.415-2.078 1.153-2.828S14.393 4 15.438 4s2.046.421 2.784 1.172S19.375 6.939 19.375 8zm-9.271 5.707a7.61 7.61 0 0 0-1.614-.329l-.927-.044c-5.25 0-6.562 4-6.562 5.333C1 19.556 1.437 20 2.313 20h5.534c-.195-.416-.292-.873-.284-1.333 0-1.347.495-2.723 1.431-3.872.319-.392.69-.759 1.11-1.088zm-2.646.96c-.777 1.186-1.196 2.576-1.207 4H2.313c0-.347.215-1.373.998-2.299.715-.848 1.958-1.675 4.147-1.7v-.001zm-4.489-6c0-1.061.415-2.078 1.153-2.828s1.74-1.172 2.784-1.172 2.046.421 2.784 1.172 1.153 1.768 1.153 2.828-.415 2.078-1.153 2.828-1.74 1.172-2.784 1.172-2.046-.421-2.784-1.172-1.153-1.768-1.153-2.828zM6.906 6c-.696 0-1.364.281-1.856.781a2.69 2.69 0 0 0 0 3.771c.492.5 1.16.781 1.856.781s1.364-.281 1.856-.781a2.69 2.69 0 0 0 0-3.771C8.27 6.281 7.602 6 6.906 6z" fill="#fff"/></svg>