<svg width="16" height="15" viewBox="0 0 16 15" fill="none" xmlns="http://www.w3.org/2000/svg">
<g clip-path="url(#clip0_74_11859)">
<path d="M14.8099 9.89597L15.2004 7.94345L10.2174 5.45196V3.33608C10.2179 2.88315 10.1187 2.43566 9.92655 2.02549C9.73444 1.61531 9.45425 1.25255 9.10593 0.963031C8.89159 0.78437 8.6214 0.686523 8.34236 0.686523C8.06333 0.686523 7.79313 0.78437 7.5788 0.963031C7.23048 1.25255 6.95029 1.61531 6.75818 2.02549C6.56607 2.43566 6.46678 2.88315 6.46736 3.33608V5.45196L1.48438 7.94345L1.87487 9.89597L6.48002 9.29538L6.70666 11.675L4.59236 12.581V14.5307H12.0924V12.581L9.97807 11.6749L10.2047 9.2953L14.8099 9.89597ZM11.1549 13.1992V13.5932H5.52986V13.1992L7.7048 12.2671L7.40486 9.11784V8.22921L2.62235 8.853L2.5441 8.46177L7.40486 6.03139V3.33608C7.40446 3.02063 7.47363 2.70897 7.60743 2.4233C7.74123 2.13764 7.93638 1.88499 8.17897 1.68335C8.22483 1.64511 8.28265 1.62416 8.34236 1.62416C8.40208 1.62416 8.4599 1.64511 8.50575 1.68335C8.74834 1.88499 8.94349 2.13764 9.07729 2.4233C9.2111 2.70897 9.28026 3.02063 9.27986 3.33608V6.03139L14.1406 8.46177L14.0624 8.853L9.27986 8.22921V9.11784L8.97992 12.2671L11.1549 13.1992Z" fill="#14202B"/>
</g>
<defs>
<clipPath id="clip0_74_11859">
<rect width="15" height="15" fill="white" transform="translate(0.84375)"/>
</clipPath>
</defs>
</svg>
