<svg width="16" height="16" viewBox="0 0 16 16" fill="none" xmlns="http://www.w3.org/2000/svg">
<path d="M7.33203 10.0002H8.66536V11.3335H7.33203V10.0002ZM7.33203 4.66683H8.66536V8.66683H7.33203V4.66683ZM7.9987 1.3335C4.31203 1.3335 1.33203 4.3335 1.33203 8.00016C1.33203 9.76827 2.03441 11.464 3.28465 12.7142C3.90371 13.3333 4.63864 13.8243 5.44747 14.1594C6.25631 14.4944 7.12322 14.6668 7.9987 14.6668C9.76681 14.6668 11.4625 13.9645 12.7127 12.7142C13.963 11.464 14.6654 9.76827 14.6654 8.00016C14.6654 7.12468 14.4929 6.25778 14.1579 5.44894C13.8229 4.6401 13.3318 3.90517 12.7127 3.28612C12.0937 2.66706 11.3588 2.176 10.5499 1.84097C9.74108 1.50593 8.87418 1.3335 7.9987 1.3335ZM7.9987 13.3335C6.58421 13.3335 5.22766 12.7716 4.22746 11.7714C3.22727 10.7712 2.66536 9.41465 2.66536 8.00016C2.66536 6.58567 3.22727 5.22912 4.22746 4.22893C5.22766 3.22873 6.58421 2.66683 7.9987 2.66683C9.41319 2.66683 10.7697 3.22873 11.7699 4.22893C12.7701 5.22912 13.332 6.58567 13.332 8.00016C13.332 9.41465 12.7701 10.7712 11.7699 11.7714C10.7697 12.7716 9.41319 13.3335 7.9987 13.3335Z" fill="#E50505"/>
</svg>
