<svg xmlns="http://www.w3.org/2000/svg" width="24" height="24" fill="none" xmlns:v="https://vecta.io/nano"><path d="M15.2 7.294h1.6V18H7.2V7.294h1.6v-.765c0-.406.169-.795.469-1.081A1.64 1.64 0 0 1 10.4 5h3.2a1.64 1.64 0 0 1 1.131.448c.3.287.469.676.469 1.081v.765zm2.4 0h.8a1.64 1.64 0 0 1 1.131.448c.3.287.469.676.469 1.081v7.647c0 .406-.169.795-.469 1.081A1.64 1.64 0 0 1 18.4 18h-.8V7.294zm-11.2 0V18h-.8c-.424 0-.831-.161-1.131-.448S4 16.876 4 16.471V8.824c0-.841.72-1.529 1.6-1.529h.8zm4-.765v.765h3.2v-.765h-3.2z" fill="#fff"/></svg>