<svg width="24" height="24" viewBox="0 0 24 24" fill="none" xmlns="http://www.w3.org/2000/svg">
<path d="M7.76153 10.5088C6.73333 10.5088 5.5665 10.0487 4.27952 9.13383C4.0412 8.96461 3.97209 8.63608 4.12218 8.38602L5.83648 5.52896C5.9317 5.3699 6.09934 5.26828 6.28464 5.25727C6.46743 5.24612 6.64536 5.32664 6.75786 5.47191C6.90293 5.6594 7.13717 5.87629 7.43617 5.84391C7.6861 5.817 8.80518 5.36778 9.7044 5.00687C12.6916 3.80779 13.2696 3.64755 13.5961 3.95123C13.8602 4.13389 15.7738 4.96592 17.3141 5.63558C20.2103 6.89479 21.0805 7.28895 21.2662 7.47478C21.5639 7.77245 21.7915 8.54961 21.4708 9.08982C21.2769 9.41645 20.8481 9.74327 19.9031 9.51596C19.7471 9.71814 19.5276 9.86771 19.269 9.94499C18.7474 10.1012 18.0707 9.96959 17.2564 9.55387C17.0601 9.74841 16.7428 9.96688 16.2915 9.99524C15.6754 10.0331 15.0108 9.70066 14.3147 9.00449C14.1505 8.84028 13.6133 8.60875 13.2514 8.48299H13.2461C12.7764 8.48299 11.9095 8.81001 11.252 9.09067C10.3438 9.47836 9.88507 9.75388 9.55007 9.95501C9.25148 10.1343 9.01566 10.276 8.65653 10.3822C8.37125 10.4667 8.07278 10.5087 7.76152 10.5088L7.76153 10.5088ZM4.93646 8.60383C6.31814 9.54506 7.49143 9.88171 8.42652 9.60527C8.68687 9.52818 8.85476 9.42735 9.13292 9.26032C9.4881 9.04711 9.97437 8.75505 10.9339 8.3454C12.4358 7.70415 13.0328 7.65602 13.3502 7.67586C13.7899 7.7027 14.1038 7.80999 14.356 7.89618C14.6489 7.99636 14.8424 8.06217 15.163 8.00117C15.6608 7.90614 16.0694 7.59746 16.1082 7.4626C16.0797 7.40417 15.9021 7.18221 14.8109 6.87576C13.449 6.49361 11.9222 6.598 10.2723 7.18609L10.0001 6.42285C11.8112 5.77726 13.5032 5.66699 15.0296 6.0955C15.9464 6.35295 16.8876 6.71209 16.9195 7.42422C16.9517 8.14572 15.981 8.66998 15.315 8.79713C15.3107 8.79792 15.3064 8.79878 15.3022 8.79957C15.6547 9.0708 15.978 9.20309 16.2406 9.18653C16.5087 9.16972 16.6808 8.99681 16.7597 8.89519C16.9284 8.67836 17.2276 8.61796 17.4712 8.75097C18.3826 9.24898 18.8434 9.22663 19.0369 9.16866C19.1569 9.13279 19.2441 9.06507 19.2962 8.9674C19.4219 8.73211 19.6986 8.61612 19.954 8.6909C20.3762 8.81514 20.6891 8.81099 20.7714 8.68041C20.8733 8.51878 20.7785 8.16262 20.7009 8.05757C20.408 7.86435 18.5164 7.04195 16.991 6.37875C14.4901 5.29139 13.5 4.8491 13.1567 4.62898C12.7156 4.67138 11.0303 5.34784 10.0061 5.75887C8.65098 6.30292 7.86743 6.61246 7.52293 6.64965C7.10406 6.69495 6.70021 6.54843 6.35888 6.23328L4.93646 8.60386L4.93646 8.60383ZM13.0395 4.54013C13.0442 4.54488 13.0491 4.54935 13.0539 4.55364C13.0487 4.54903 13.0438 4.54454 13.0395 4.54013ZM13.0392 4.53986C13.0394 4.54 13.0394 4.54006 13.0395 4.54013C13.0393 4.54006 13.0393 4.53999 13.0392 4.53986ZM13.604 3.95883C13.6066 3.96133 13.6092 3.96397 13.6119 3.96661C13.6095 3.96424 13.607 3.9616 13.604 3.95883Z" fill="#14202B"/>
<path d="M19.1713 20.1866H6.61125C6.42661 20.1866 6.26175 20.0764 6.19105 19.9058C6.12049 19.7352 6.15913 19.5407 6.2897 19.4102L7.42105 18.2788C7.50691 18.1929 7.62126 18.1455 7.74273 18.1455H18.0399C18.1608 18.1455 18.2787 18.1948 18.3635 18.2808L19.4929 19.4101C19.6235 19.5407 19.6621 19.7352 19.5915 19.9058C19.5208 20.0764 19.356 20.1866 19.1713 20.1866H19.1713ZM7.46959 19.3762H18.313L17.8925 18.9558H7.88992L7.46959 19.3762ZM17.7885 18.8518C17.7895 18.8529 17.7907 18.854 17.7918 18.8551L17.7885 18.8518Z" fill="#14202B"/>
<path d="M17.6619 17.8368H8.14727L8.07644 17.8094C7.93374 17.754 7.8314 17.6372 7.79565 17.489C7.72219 17.1846 7.92424 16.8885 8.53014 16.2067C8.5403 16.1954 8.54993 16.1845 8.55903 16.1743C8.63816 13.9163 10.4998 12.1035 12.7768 12.1035C15.0459 12.1035 16.9023 13.9033 16.9939 16.1501C17.0117 16.1664 17.0312 16.1842 17.0519 16.2032C17.8297 16.9146 18.0482 17.1673 17.9981 17.4706C17.9738 17.6181 17.8771 17.7423 17.7397 17.8027L17.6619 17.8368L17.6619 17.8368ZM8.89126 17.0265H16.7486C16.6491 16.9329 16.5585 16.85 16.505 16.8011C16.2608 16.5777 16.1871 16.5103 16.1871 16.324C16.1871 14.4436 14.6573 12.9138 12.7768 12.9138C10.8965 12.9138 9.36672 14.4436 9.36672 16.324C9.36672 16.4853 9.3038 16.5561 9.13578 16.7451C9.0428 16.8497 8.96128 16.9435 8.89126 17.0265Z" fill="#14202B"/>
<path d="M14.0135 12.4528H13.2032C13.2032 12.0509 13.0001 11.805 12.8896 11.805C12.7791 11.805 12.576 12.0509 12.576 12.4528H11.7656C11.7656 11.6351 12.2593 10.9946 12.8896 10.9946C13.5199 10.9946 14.0136 11.6351 14.0136 12.4528H14.0135Z" fill="#14202B"/>
<path d="M14.0005 9.6416H11.7852V10.4519H14.0005V9.6416Z" fill="#14202B"/>
<path d="M13.2938 10.293H12.4844V11.1535H13.2938V10.293Z" fill="#14202B"/>
<path d="M4.45618 8.99541L2.36719 8.75234L5.73432 3.81592L6.6073 5.38685L5.89905 5.78041L5.66389 5.35731L3.79159 8.10226L4.54982 8.19049L4.45618 8.99541Z" fill="#14202B"/>
<path d="M19.8513 9.47677L16.7882 7.95589L16.7187 8.05059L17.5285 8.89943L16.9421 9.45877L15.6641 8.1189L16.5376 6.92676L20.2116 8.75099L19.8513 9.47677Z" fill="#14202B"/>
</svg>
