<svg width="24" height="24" viewBox="0 0 24 24" fill="none" xmlns="http://www.w3.org/2000/svg">
<g clip-path="url(#clip0_74_11308)">
<path d="M16.109 13.1715H8.83594L9.00884 12.6407C9.95937 9.72283 13.9706 9.41394 14.1409 9.4022L14.4237 9.38281L16.109 13.1715H16.109ZM10.0148 12.3611H14.8616L13.9193 10.2426C13.1367 10.3514 10.9132 10.7926 10.0148 12.3611Z" fill="#14202B"/>
<path d="M16.8056 15.9283H1.5625L1.59191 15.4957C1.59652 15.4274 1.72644 13.8014 3.53926 11.9938C5.89507 9.64486 9.8656 8.11296 15.3406 7.44059L15.6524 7.40234L18.1205 13.6921L16.8056 15.9283V15.9283ZM2.49469 15.118H16.3422L17.2221 13.6212L15.128 8.28429C8.80889 9.10926 5.68364 11.0301 4.17127 12.5084C3.07671 13.5786 2.65454 14.5725 2.49469 15.118H2.49469Z" fill="#14202B"/>
<path d="M1.1238 17.3752C0.901833 17.3752 0.720882 17.1962 0.718766 16.9737C0.716786 16.75 0.896421 16.567 1.12024 16.5649L16.9157 16.4199H16.9195C17.1415 16.4199 17.3224 16.5989 17.3246 16.8214C17.3265 17.0451 17.1469 17.2281 16.9231 17.2303L1.12763 17.3752H1.1238Z" fill="#14202B"/>
<path d="M17.2401 7.13653L15.6797 8.0376L16.0849 8.73925L17.6453 7.83818L17.2401 7.13653Z" fill="#14202B"/>
<path d="M22.8721 13.0438H22.866C22.7707 13.0423 20.5218 12.995 19.6291 11.7465C19.2322 11.1915 19.1614 10.5092 19.4186 9.71868C19.7137 8.81142 19.7411 8.11175 19.4956 7.74839C19.3215 7.49095 19.0484 7.46958 19.0368 7.46879L18.9946 7.46747L18.9603 7.45771C18.342 7.30683 17.4238 8.00043 17.1503 8.25524C16.9867 8.40758 16.7303 8.39887 16.5779 8.23559C16.4253 8.07218 16.4337 7.81631 16.5968 7.66345C16.7354 7.53354 17.9731 6.41156 19.1175 6.66241C19.2842 6.67824 19.7971 6.76766 20.1516 7.2724C20.5665 7.86327 20.5792 8.77053 20.1891 9.96928C20.0137 10.5086 20.0458 10.9354 20.2875 11.2742C20.8299 12.0344 22.3416 12.2245 22.8784 12.2334C23.102 12.2373 23.2804 12.4214 23.2769 12.6451C23.2733 12.8665 23.0929 13.0438 22.8721 13.0438L22.8721 13.0438Z" fill="#14202B"/>
</g>
<defs>
<clipPath id="clip0_74_11308">
<rect width="24" height="24" fill="white" transform="translate(-0.00390625 0.00146484)"/>
</clipPath>
</defs>
</svg>
