<svg width="24" height="24" viewBox="0 0 24 24" fill="none" xmlns="http://www.w3.org/2000/svg">
<path d="M11.9981 20.4762C7.32515 20.4762 3.52344 16.6745 3.52344 12.0015C3.52344 7.32857 7.32515 3.52686 11.9981 3.52686C16.6711 3.52686 20.4728 7.32857 20.4728 12.0015C20.4728 16.6745 16.6711 20.4762 11.9981 20.4762ZM11.9981 4.33719C7.77199 4.33719 4.33377 7.77541 4.33377 12.0015C4.33377 16.2277 7.77199 19.6659 11.9981 19.6659C16.2243 19.6659 19.6625 16.2277 19.6625 12.0015C19.6625 7.77541 16.2243 4.33719 11.9981 4.33719Z" fill="#14202B"/>
<path d="M14.5727 8.09717C15.1714 8.62841 15.4709 9.37122 15.4709 10.3256C15.4709 10.8748 15.3605 11.3881 15.14 11.8651C14.9192 12.3424 14.5636 12.7295 14.073 13.0267C13.5822 13.3237 12.9633 13.4723 12.216 13.4723H10.7709V17.0647H9.46094V7.30029H12.0809C13.1433 7.30029 13.9738 7.56592 14.5727 8.09717H14.5727ZM13.3572 11.9056C13.6498 11.7078 13.8591 11.4667 13.9853 11.1831C14.1112 10.8995 14.1743 10.6226 14.1743 10.3525C14.1743 9.88453 14.0212 9.46789 13.7152 9.10321C13.4089 8.73867 12.9318 8.55627 12.2835 8.55627H10.7709V12.2027H12.216C12.6841 12.2027 13.0646 12.1038 13.3572 11.9056Z" fill="#14202B"/>
</svg>
