<svg width="24" height="24" viewBox="0 0 24 24" fill="none" xmlns="http://www.w3.org/2000/svg">
<path d="M4.70563 20.109C4.51624 20.1091 4.35573 20.0502 4.22094 19.9321C4.04804 19.781 3.9569 19.5721 3.95703 19.3279C3.95835 18.0301 6.95263 15.3155 10.57 12.1636C11.4266 11.4172 12.3097 10.6476 12.5542 10.3738C12.5269 9.9328 12.5329 8.59636 13.4793 7.62988C13.7393 7.36438 14.6566 6.4314 15.5442 5.57135C16.0567 5.07479 16.4718 4.68769 16.7776 4.42088C17.2266 4.02957 17.6136 3.69101 17.9419 4.01228C18.2619 4.32579 17.9517 4.7105 17.5588 5.19771C17.3007 5.5178 16.9298 5.94948 16.4565 6.48099C16.2454 6.718 16.0312 6.95526 15.8279 7.17895C16.022 7.00036 16.2264 6.81361 16.4311 6.62844C16.9754 6.13609 17.4171 5.74992 17.7441 5.48047C18.2598 5.05552 18.6322 4.74901 18.9492 5.05947C19.288 5.3913 18.9642 5.77603 18.2546 6.61906C17.7959 7.1643 17.1936 7.84274 16.7095 8.38796C16.459 8.67034 16.1869 8.97672 16.0071 9.18471C16.014 9.19156 16.0211 9.19856 16.0282 9.20568C16.3627 8.86738 16.9485 8.27862 17.5382 7.70345C18.0672 7.1875 18.4969 6.78234 18.815 6.4993C19.3219 6.04851 19.6883 5.72235 20.0155 6.04297C20.1012 6.12698 20.1483 6.24172 20.1479 6.3661C20.146 7.0295 17.6086 9.7021 16.7345 10.5484L16.7051 10.5769C16.452 10.8228 15.981 11.2806 15.2923 11.5238C14.8254 11.6888 14.179 11.688 13.9068 11.6783C13.6301 11.9098 12.8071 12.8014 12.0091 13.666C8.04692 17.9589 5.84939 20.109 4.70564 20.109L4.70563 20.109ZM13.3679 10.3855C13.4589 10.705 13.2842 10.8733 11.1023 12.7745C9.77164 13.9339 8.11563 15.3769 6.80571 16.6846C4.98169 18.5053 4.78015 19.1321 4.7667 19.2985C4.94383 19.2716 5.58613 19.034 7.42348 17.2735C8.74963 16.0029 10.2268 14.4024 11.4137 13.1164C11.9903 12.4917 12.4882 11.9523 12.8602 11.5686C13.3837 11.0289 13.6045 10.8182 13.8704 10.8659C14.1054 10.8773 14.6865 10.8783 15.0223 10.7598C15.4115 10.6223 15.7183 10.3852 15.9417 10.1837L15.8513 10.1379C15.8052 10.1145 15.6666 9.98828 15.4356 9.75924C15.3478 9.67206 15.2559 9.58092 15.1811 9.50786C14.9511 9.28272 15.0501 9.07408 15.2569 8.81742C15.2188 8.85329 15.181 8.88917 15.1432 8.92491L14.871 9.18275L14.5929 8.93137C14.1525 8.53333 14.0231 8.40448 13.9851 8.27549C13.2883 9.06431 13.3507 10.1875 13.3679 10.3855H13.3679Z" fill="#14202B"/>
<path d="M10.024 12.9154C9.45676 12.3144 9.21291 12.0818 9.11108 12C8.85654 11.9722 7.98791 11.8681 7.51245 11.7002C6.84271 11.4635 6.0982 11.0901 5.01539 9.38871C3.6539 7.2492 3.69175 5.10336 4.07199 4.73104L4.192 4.61353L4.37071 4.61182C4.60745 4.61445 4.81188 4.61683 9.68559 9.60725C10.2005 10.1346 10.742 10.6291 11.295 11.077C11.391 11.155 11.4954 11.2403 11.6072 11.3329L11.0907 11.9573C10.981 11.8665 10.8788 11.7828 10.7848 11.7065C10.2076 11.239 9.64259 10.7232 9.10581 10.1733C6.70028 7.71015 5.30357 6.34325 4.6457 5.74605C4.65691 6.42634 4.86846 7.64843 5.6991 8.95373C6.64409 10.4385 7.22374 10.7387 7.78229 10.936C8.13628 11.0612 8.87117 11.1589 9.19799 11.1944C9.44793 11.1612 9.67965 11.3698 10.6133 12.3594L10.024 12.9154L10.024 12.9154ZM4.69675 5.23091C4.69675 5.23091 4.69675 5.23104 4.69675 5.23091V5.23091Z" fill="#14202B"/>
<path d="M17.993 20.1194C16.921 20.1194 14.7286 17.9777 11.0742 14.041L11.668 13.4897C12.7273 14.6308 14.178 16.1934 15.4485 17.404C17.1493 19.0245 17.7625 19.2705 17.9385 19.3044C17.9487 19.1494 17.849 18.5507 16.3412 16.8758C15.0007 15.3865 13.2026 13.7722 12.25 12.9425L12.7823 12.3315C13.7487 13.1733 15.5744 14.8125 16.9436 16.3336C18.5694 18.1398 19.0682 19.2265 18.5609 19.8572C18.4293 20.0206 18.2425 20.111 18.0207 20.1188C18.0116 20.1192 18.0024 20.1194 17.993 20.1194H17.993Z" fill="#14202B"/>
</svg>
