<svg width="16" height="15" viewBox="0 0 16 15" fill="none" xmlns="http://www.w3.org/2000/svg">
<path d="M5.07564 1.4292C4.04816 1.4292 3.2075 2.31313 3.2075 3.39349V5.84884H2.27344V7.32206H3.2075V12.7238C3.2075 12.9939 3.41767 13.2149 3.67454 13.2149H5.07564L5.23629 12.7238H11.4534L11.6141 13.2149H13.0152C13.2721 13.2149 13.4822 12.9939 13.4822 12.7238V7.32206H14.4163V5.84884H13.4822V3.39349C13.4822 2.31313 12.6416 1.4292 11.6141 1.4292H5.07564ZM5.07564 2.41134H11.6141C12.1358 2.41134 12.5482 2.84496 12.5482 3.39349H4.14157C4.14157 2.84496 4.55396 2.41134 5.07564 2.41134ZM4.14157 4.37563H7.87783V7.81313H4.14157V4.37563ZM8.8119 4.37563H12.5482V7.81313H8.8119V4.37563ZM4.14157 8.79527H12.5482V11.7417H4.14157V8.79527ZM4.6086 9.77741V10.7596H6.47673V9.77741H4.6086ZM10.213 9.77741V10.7596H12.0811V9.77741H10.213Z" fill="#14202B"/>
</svg>
