<?xml version="1.0" encoding="utf-8" ?>
<svg xmlns="http://www.w3.org/2000/svg" xmlns:xlink="http://www.w3.org/1999/xlink" width="100" height="98">
	<path fill="#414B5A" transform="scale(0.2 0.20082)" d="M0 0L95.8537 0L282.192 0L499.562 0C500.077 0.873286 499.99 1.72538 499.997 2.71039L500.003 194.95L500.001 235.147C500.001 238.103 500.433 247.063 499.869 249.132C499.795 249.406 499.702 249.532 499.567 249.758C499.783 250.124 499.919 250.384 499.954 250.817C500.355 255.814 500 261.143 500 266.177L500.003 297.955L500.001 439.371L500.002 474.718C500.001 477.439 500.417 485.011 499.905 487.274C499.842 487.555 499.714 487.76 499.562 488L0 488L0 105.464L0 0ZM299.864 171.723C295.208 176.639 291.012 181.944 286.311 186.843C279.155 194.301 271.736 201.486 264.51 208.872Q247.929 225.939 232.097 243.702Q228.785 247.48 225.414 251.205C223.578 253.2 221.121 255.284 219.758 257.601C219.374 265.053 219.508 272.565 219.5 280.027L219.55 316.875L219.425 428.653Q219.351 446.697 219.079 464.739C218.992 468.839 219.207 473.115 218.879 477.186C229.326 477.517 239.767 477.517 250.216 477.625C255.818 477.683 261.536 477.531 267.11 478.053C267.738 471.917 267.503 465.633 267.507 459.469L267.497 430.823L267.268 336.926C270.702 337.6 274.556 337.313 278.055 337.366Q288.37 337.591 298.687 337.565C310.434 337.556 322.241 337.795 333.975 337.255C333.465 342.035 333.662 347.002 333.568 351.811C333.324 364.319 333.462 376.849 333.399 389.36L333.209 444.304C333.142 455.251 332.803 466.229 333.01 477.173C340.779 477.663 348.59 477.604 356.371 477.639C364 477.673 371.64 477.791 379.267 477.713C379.667 471.474 379.516 465.177 379.516 458.927L379.508 430.285L379.508 340.594L379.528 281.419L379.478 264.1C379.457 260.761 379.641 257.189 379.186 253.886C376.79 251.028 374.087 248.439 371.489 245.767Q364.774 238.82 357.943 231.986L326.779 199.983C319.932 192.903 313.605 185.327 306.743 178.247C304.7 176.14 302.334 173.289 299.864 171.723ZM282.192 0C284.585 3.91745 287.58 7.46229 290.441 11.0392C299.944 22.9235 310.436 33.6961 320.697 44.8956C325.714 50.3709 330.451 56.1036 335.363 61.6728C340.724 67.7511 346.303 73.7111 351.856 79.6189C356.002 84.031 360.006 88.5297 364.092 92.9928C369.014 98.369 374.229 103.829 378.253 109.923C377.057 122.195 377.943 136.709 378.014 149.215Q387.594 149.243 397.172 149.046C400.75 148.979 409.02 148.345 412.127 149.107C413.385 149.416 414.73 150.914 415.631 151.816C418.588 154.778 421.164 158.214 423.824 161.442Q429.58 168.414 435.436 175.302C446.416 188.304 456.819 201.687 467.555 214.876C472.286 220.689 477.465 226.153 482.077 232.052C484.181 234.742 494.127 247.136 494.587 249.972C496.242 249.876 497.91 249.737 499.567 249.758C499.702 249.532 499.795 249.406 499.869 249.132C500.433 247.063 500.001 238.103 500.001 235.147L500.003 194.95L499.997 2.71039C499.99 1.72538 500.077 0.873286 499.562 0L282.192 0ZM16.709 275.788C16.1719 281.474 16.4963 287.423 16.4965 293.144L16.4891 324.234L15.8199 438.911Q15.7165 452.425 15.8321 465.939C15.8314 469.71 16.0268 473.608 15.7688 477.366C23.3644 477.807 30.9326 477.75 38.5363 477.664C43.6664 477.606 48.8258 477.64 53.9474 477.321L54.2621 364.063L92.0694 363.966C97.3994 363.913 105.544 363.194 110.569 363.958C110.836 364.56 110.844 365.091 110.851 365.738C110.875 368.181 110.622 370.65 110.566 373.096Q110.435 380.755 110.421 388.416L110.508 447.369C110.531 457.29 110.284 467.358 110.761 477.262C120.986 477.726 131.249 477.538 141.482 477.53C149.637 477.524 157.904 477.789 166.041 477.299C166.59 469.672 165.853 462.052 166.076 454.437Q165.54 409.18 165.512 363.92L165.435 336.198C165.444 331.687 165.322 327.125 165.553 322.624C165.525 321.774 165.616 320.508 165.138 319.792C163.343 317.102 158.397 312.897 155.854 310.261Q135.531 289.352 114.263 269.404Q97.2648 253.267 79.9797 237.438C76.1399 233.947 72.4822 229.665 68.2006 226.75C63.9168 229.363 60.3131 233.006 56.6627 236.419Q49.0498 243.561 41.6012 250.874Q32.4124 259.622 23.5079 268.66C21.2435 270.983 18.7852 273.3 16.709 275.788ZM97.9615 29.2056C93.4639 31.8719 89.6197 35.5735 85.9227 39.2394C74.1687 50.8945 63.7994 63.7409 52.5494 75.8545C44.1704 84.8767 35.5159 93.6139 27.2709 102.765C23.7007 106.727 19.691 110.811 16.7931 115.294C16.0531 126.817 16.4974 138.529 16.4575 150.077Q16.3705 188.993 16.7109 227.906L16.7433 247.309C16.7574 250.79 16.9588 254.357 16.7543 257.829C22.2455 253.479 26.8945 247.737 31.8631 242.79C40.7988 233.891 50.0001 225.202 59.183 216.558C61.2924 214.521 63.7727 211.532 66.7422 210.941C69.9747 210.298 73.9749 210.733 77.278 210.76L100.384 210.993C127.428 211.094 154.511 210.643 181.548 210.99L181.508 148.762L181.477 131.098C181.445 127.998 181.697 124.404 180.981 121.39C179.467 115.016 135.736 70.8514 127.569 61.8027Q118.542 51.62 109.654 41.3166C106.597 37.8135 103.603 34.1526 100.297 30.8822C99.6606 30.2522 98.891 29.3288 97.9615 29.2056ZM398.927 270.496C399.368 276.475 399.1 282.68 399.112 288.684L399.026 325.267L398.862 428.498L398.705 461.342C398.688 466.225 398.142 472.679 398.989 477.36C403.487 476.871 408.415 477.269 412.966 477.283L439.151 477.287L466.517 477.433C470.018 477.456 474.138 476.94 477.56 477.478C477.105 471.244 477.508 464.681 477.459 458.404L477.292 414.621L477.23 270.481C451.133 270.339 425.022 270.812 398.927 270.496ZM126.77 16.125C122.079 16.2084 116.951 16.7358 112.306 16.2195L112.619 16.5076C115.882 19.5351 118.673 23.2216 121.583 26.5925Q128.482 34.4791 135.463 42.2929C150.254 58.6922 165.449 74.6811 180.359 90.9706C182.684 93.5107 192.534 105.506 194.071 106.497C195.016 107.106 197.023 107.093 198.148 107.143C204.361 107.42 210.641 107.255 216.863 107.271L242.159 107.473L340.812 107.557C345.331 107.593 350.128 107.208 354.6 107.617C350.477 102.149 345.361 97.5128 340.714 92.4971L312.617 61.9423C302.417 50.7998 292.619 39.3126 282.343 28.2311C279.569 25.2399 274.403 19.1511 271.29 16.9207C270.338 16.2389 267.437 16.3049 266.273 16.2618C257.833 15.9496 249.348 16.0488 240.902 16.0344L199.845 16.0134L154.562 15.9981C145.304 15.9971 136.025 15.8815 126.77 16.125ZM275.346 124.361C258.831 124.798 242.209 124.47 225.68 124.533L208.044 124.665C204.948 124.682 201.684 124.885 198.607 124.591C198.804 127.702 198.592 130.843 198.537 133.959Q198.472 139.964 198.486 145.968L198.467 194.394L198.484 207.197C198.485 210.475 198.306 213.885 198.868 217.12C201.212 219.379 203.711 221.447 206.129 223.624C210.601 227.651 214.984 231.762 219.493 235.753C223.253 230.797 228.362 226.442 232.668 221.917C239.428 214.815 245.874 207.42 252.574 200.268C263.636 188.3 275.206 176.688 286.722 165.156L296.093 155.744C298.009 153.806 299.829 151.767 301.936 150.033C302.013 149.97 302.084 149.9 302.161 149.838C302.793 149.329 303.824 149.37 304.602 149.352C309.834 149.235 315.123 149.507 320.364 149.522Q342.48 149.765 364.582 148.961C364.454 140.791 364.583 132.618 364.456 124.447C360.813 124.52 357.164 124.341 353.52 124.318L329.102 124.238C311.189 124.233 293.256 124.562 275.346 124.361ZM394.153 163.867C380.774 164.205 367.368 163.991 353.985 164.031C344.202 164.061 334.362 164.062 324.584 164.294C321.987 164.355 319.396 164.595 316.801 164.657C323.498 173.24 331.174 181.058 338.526 189.071C344.965 196.09 351.267 203.196 357.84 210.095C367.05 219.761 376.597 229.13 385.75 238.842C389.859 243.202 393.792 247.743 397.79 252.205C399.004 252.27 400.231 252.298 401.439 252.424C412.362 252.847 423.416 252.52 434.352 252.51C448.979 252.497 463.593 252.673 478.208 252.025C466.991 237.306 454.285 223.443 442.418 209.229C429.941 194.284 418.059 178.751 405.178 164.154C401.527 163.691 397.825 163.806 394.153 163.867ZM82.047 223.7C90.879 230.004 98.6849 237.621 106.621 244.977C122.654 259.839 138.047 275.362 153.802 290.519C161.128 297.567 168.168 305.355 176.415 311.338C178.508 312.857 180.53 313.581 183.066 313.948C186.605 314.118 190.187 314.346 193.729 314.178Q196.236 313.974 198.734 313.687L199.241 279.229C199.313 274.338 198.845 259.816 200.228 256.186C201.635 252.491 206.938 247.802 209.591 244.559C208.539 243.247 207.37 242.047 206.18 240.862C203.362 238.055 189.617 224.465 187.022 223.56C183.119 222.197 164.599 222.869 159.483 222.882L82.047 223.7ZM0 0L0 105.464C4.10244 102.52 7.74791 98.7551 11.187 95.069C18.0547 87.708 24.3892 79.859 30.9501 72.2323C34.5727 68.0212 38.4505 64.02 42.1545 59.879C46.0336 55.5422 49.7498 51.0597 53.641 46.7351Q65.4268 33.5418 77.5833 20.689Q82.9754 14.9951 88.2317 9.17561C90.8527 6.30745 94.009 3.44354 95.8537 0L0 0ZM280.781 349.059C280.295 351.927 280.431 354.985 280.418 357.889L280.375 370.245L280.201 416.507L279.935 455.308C279.856 462.44 279.171 469.983 279.987 477.064C285.215 477.54 290.568 477.5 295.818 477.544C303.541 477.609 311.288 477.622 319.008 477.837C319.889 476.984 319.635 474.036 319.658 472.752C320.032 450.992 319.752 429.15 319.617 407.385Q319.698 378.205 319.231 349.028L280.781 349.059ZM68.2293 374.388C67.5399 374.39 66.7089 374.259 66.1404 374.703C65.593 389.814 65.9921 405.078 65.9907 420.203C65.989 439.19 65.6884 458.234 66.0303 477.216C70.5692 477.676 75.1758 477.562 79.7332 477.568Q88.2731 477.623 96.8124 477.515L99.2948 477.444L99.1165 401.564C99.0328 392.469 99.4385 383.24 99.0112 374.167C88.8194 374.138 78.3939 373.785 68.2293 374.388ZM178.673 326.19C179.359 328.682 178.886 342.809 178.874 346.491Q178.313 391.716 178.485 436.943L178.517 465.25C178.543 468.741 179.082 474.136 178.698 477.287C185.251 478.057 192.386 477.581 198.998 477.548C198.727 472.931 199.005 468.154 199.008 463.516L198.998 434.815L198.831 366.763C198.814 353.13 199.032 339.501 198.75 325.87C195.313 325.622 181.877 324.56 179.272 325.361C178.843 325.493 178.844 325.811 178.673 326.19Z"/>
	<path fill="#40454B" transform="scale(0.2 0.20082)" d="M183.066 313.948C186.605 314.118 190.187 314.346 193.729 314.178C194.686 314.311 195.78 314.089 196.663 314.449L196.487 314.902C196.409 314.931 196.331 314.963 196.252 314.99C194.679 315.528 189.375 315.842 187.877 315.164C188.35 315.22 188.352 315.137 188.748 314.914C188.369 315.072 188.176 315.044 187.773 315.027C186.209 314.073 183.164 314.568 181.26 314.238L181.342 314.13L183.066 313.948Z"/>
	<path fill="#40454B" transform="scale(0.2 0.20082)" d="M398.989 477.36C403.487 476.871 408.415 477.269 412.966 477.283L439.151 477.287L466.517 477.433C470.018 477.456 474.138 476.94 477.56 477.478C477.661 477.526 477.704 477.649 477.766 477.742C475.625 478.315 466.392 477.843 463.494 477.877C458.184 477.94 452.871 478.367 447.575 478.391C444.053 478.408 440.484 477.991 436.992 478.075C427.389 478.304 417.92 478.38 408.312 477.979C405.222 477.85 402.015 478.066 398.989 477.36Z"/>
	<path fill="#606A79" transform="scale(0.2 0.20082)" d="M178.698 477.287C178.481 476.925 178.31 476.669 178.241 476.244C178.022 474.897 178.216 473.205 178.227 471.832C178.255 468.414 178.335 464.958 178.204 461.543C177.631 446.66 177.874 431.728 177.876 416.83L177.871 387.247C177.86 385.025 177.657 382.801 177.67 380.581C177.682 378.641 178.07 376.708 178.202 374.773C178.355 372.522 178.274 370.255 178.201 368.002Q178.065 369.047 177.866 370.082C177.071 368.7 177.647 349.901 177.629 346.719C177.616 344.558 177.097 342.337 177.145 340.242C177.187 338.455 177.634 336.622 178.024 334.884L178.044 335.005C178.976 332.785 178.47 328.435 178.117 326.027L178.673 326.19C179.359 328.682 178.886 342.809 178.874 346.491Q178.313 391.716 178.485 436.943L178.517 465.25C178.543 468.741 179.082 474.136 178.698 477.287Z"/>
	<path fill="#606A79" transform="scale(0.2 0.20082)" d="M165.553 322.624C166.665 324.045 165.301 329.515 165.894 331.493L166.033 331.039C166.567 331.839 165.964 332.869 167.099 333.149C167.185 333.17 167.273 333.183 167.36 333.2C167.583 333.755 167.637 334.166 167.657 334.763L167.614 334.661C168.012 334.706 168.33 334.719 168.698 334.885L168.804 334.648C168.834 335.039 168.738 335.217 168.598 335.576L169.11 335.653L169.048 335.373C169.235 334.778 169.115 335.062 169.407 334.52C169.852 334.895 170.083 335.134 170.157 335.739C170.211 336.177 170.174 336.653 170.16 337.094L170.577 337.004L170.162 337.11C170.244 337.148 170.325 337.184 170.406 337.223C171.047 337.526 171.442 337.701 171.829 338.329C172.076 341.222 170.775 343.893 170.845 346.753C170.848 346.875 170.829 347 170.852 347.12C170.957 347.678 171.689 348.365 172.056 348.794C172.125 349.564 171.647 350.413 171.927 351.082C172.125 351.555 172.221 351.997 172.331 352.495L172.102 352.929C172.198 353.124 172.354 353.299 172.389 353.513C172.483 354.106 170.953 370.483 170.63 371.522C170.535 371.827 170.368 372.106 170.24 372.397C170.004 372.934 170.03 373.528 170.037 374.105L169.57 374.516C169.025 373.956 169.103 373.219 168.602 372.703L168.136 372.859L167.882 374.643L167.638 374.677L167.156 374.034C166.833 374.215 166.403 375.795 166.251 376.223L166.055 373.186C165.983 377.521 166.241 381.824 166.244 386.151C166.249 392.099 166.014 398.026 166.134 403.983C166.28 411.229 166.703 418.419 166.749 425.674C166.764 428.036 167.246 430.155 166.562 432.495C166.178 433.807 166.091 436.902 166.701 438.107C167.024 438.745 166.581 452.221 166.495 454.262L166.076 454.437Q165.54 409.18 165.512 363.92L165.435 336.198C165.444 331.687 165.322 327.125 165.553 322.624Z"/>
</svg>
