<svg width="25" height="25" viewBox="0 0 25 25" fill="none" xmlns="http://www.w3.org/2000/svg">
<path d="M12.8382 22.0488L12.5037 21.5467C12.2715 21.1981 6.81641 12.9705 6.81641 9.75547C6.81641 6.40773 9.54005 3.68408 12.8878 3.68408C16.2355 3.68408 18.9592 6.40773 18.9592 9.75547C18.9592 12.9722 13.4126 21.2006 13.1765 21.5493L12.8382 22.0488H12.8382ZM12.8878 4.4944C9.9869 4.4944 7.62674 6.8545 7.62674 9.75547C7.62674 12.2959 11.6436 18.7212 12.8438 20.5843C14.062 18.7246 18.1489 12.2956 18.1489 9.75547C18.1489 6.8545 15.7887 4.4944 12.8878 4.4944Z" fill="black"/>
<path d="M12.955 12.8808C11.205 12.8808 9.78125 11.457 9.78125 9.70699C9.78125 7.95695 11.205 6.5332 12.955 6.5332C14.7051 6.5332 16.1288 7.95695 16.1288 9.70699C16.1288 11.457 14.7051 12.8808 12.955 12.8808ZM12.955 7.34353C11.6518 7.34353 10.5916 8.40379 10.5916 9.70699C10.5916 11.0102 11.6518 12.0704 12.955 12.0704C14.2582 12.0704 15.3185 11.0102 15.3185 9.70699C15.3185 8.40379 14.2582 7.34353 12.955 7.34353Z" fill="black"/>
</svg>
