<svg width="24" height="24" viewBox="0 0 24 24" fill="none" xmlns="http://www.w3.org/2000/svg">
<path d="M17.3967 14.1174C17.021 13.7371 16.5743 13.5327 16.1061 13.5305C15.6418 13.5283 15.2013 13.7249 14.8295 14.1017L13.6661 15.2769C13.5667 15.224 13.4673 15.1748 13.3717 15.1256C13.2341 15.0575 13.1041 14.9932 12.993 14.9252C11.8579 14.2154 10.8193 13.2924 9.81557 12.0997C9.32883 11.5053 8.99922 11.0054 8.75626 10.4983C9.05878 10.2186 9.33836 9.92758 9.61068 9.64776C9.71375 9.5433 9.81673 9.43509 9.91981 9.33063C10.6929 8.54718 10.6673 7.52768 9.85481 6.7369L8.79854 5.70888C8.6786 5.59214 8.55479 5.47164 8.43853 5.35118C8.2062 5.11774 7.96235 4.87676 7.71133 4.65073C7.33612 4.28921 6.89341 4.09603 6.43284 4.0939C5.97227 4.09177 5.53159 4.28086 5.16309 4.63894C5.15941 4.64267 5.15941 4.64267 5.15573 4.6464L3.9044 5.92609C3.4332 6.40362 3.17227 6.98706 3.12887 7.6652C3.06569 8.75925 3.4159 9.78025 3.68179 10.4486C4.33441 12.0894 5.28604 13.6116 6.68964 15.2446C8.39229 17.2126 10.4206 18.7698 12.7206 19.871C13.5991 20.2836 14.7702 20.7724 16.0671 20.8609C16.1465 20.865 16.2297 20.8691 16.3052 20.8695C17.1772 20.8735 17.9018 20.5658 18.4601 19.95C18.4637 19.9425 18.4712 19.9388 18.4748 19.9313C18.6652 19.6961 18.8863 19.4835 19.1184 19.256C19.2769 19.1031 19.439 18.9427 19.5971 18.7747C19.9611 18.3904 20.1462 17.9415 20.1346 17.4805C20.123 17.0157 19.9117 16.5688 19.521 16.1922L17.3967 14.1174ZM18.8471 18.0704C18.8433 18.0704 18.8434 18.0742 18.8471 18.0704C18.7038 18.2272 18.5564 18.3689 18.398 18.5256C18.1585 18.7568 17.9154 18.9993 17.6882 19.2718C17.317 19.6749 16.8726 19.864 16.2837 19.8612C16.227 19.861 16.1666 19.8607 16.1099 19.8567C14.9869 19.7803 13.9341 19.3407 13.1433 18.966C10.9808 17.9291 9.06804 16.4624 7.46259 14.6073C6.13665 13.0609 5.24022 11.6326 4.63185 10.1007C4.25737 9.16577 4.11079 8.43803 4.15023 7.75237C4.17699 7.31401 4.33776 6.95123 4.6433 6.64158L5.8986 5.36941C6.07926 5.19785 6.27322 5.10505 6.46575 5.10594C6.70359 5.10704 6.89969 5.25036 7.0235 5.37086C7.02737 5.37463 7.03124 5.37839 7.03511 5.38216C7.27075 5.59687 7.49525 5.81903 7.73145 6.05623C7.85149 6.17671 7.9753 6.29721 8.0992 6.42146L9.15547 7.44948C9.56559 7.84864 9.5748 8.21596 9.18459 8.61141C9.07783 8.7196 8.97485 8.82781 8.868 8.93225C8.55897 9.25313 8.26447 9.55159 7.94336 9.84242C7.93599 9.84988 7.92854 9.8536 7.92495 9.86108C7.60836 10.1819 7.67666 10.497 7.74996 10.711C7.75402 10.7223 7.75808 10.7335 7.76213 10.7448C8.04633 11.3907 8.43906 11.9997 9.03101 12.7257L9.03488 12.7295C10.1088 14.0087 11.2322 15.007 12.4631 15.7735C12.6203 15.8717 12.7809 15.9511 12.9338 16.0268C13.0714 16.0949 13.2013 16.1592 13.3125 16.2272C13.3278 16.2347 13.3432 16.2461 13.3584 16.2536C13.4884 16.3179 13.6099 16.3485 13.7345 16.3491C14.0479 16.3505 14.2393 16.1565 14.3019 16.0931L15.5609 14.8172C15.686 14.6903 15.886 14.5376 16.1239 14.5387C16.3579 14.5398 16.5541 14.6869 16.6743 14.8148C16.6782 14.8186 16.6782 14.8186 16.6821 14.8224L18.8139 16.8972C19.2124 17.2814 19.2222 17.6749 18.8471 18.0704Z" fill="#455C80" stroke="#455C80" stroke-width="0.5"/>
<path d="M12.7804 7.23952C13.773 7.40892 14.6827 7.87757 15.4174 8.59263C16.1521 9.30768 16.6386 10.2014 16.833 11.1836C16.8807 11.431 17.1 11.6043 17.3453 11.6055C17.3755 11.6056 17.4018 11.602 17.4319 11.5984C17.71 11.5547 17.8883 11.2934 17.8361 11.016C17.6025 9.82753 17.0095 8.74232 16.1239 7.88049C15.2384 7.01866 14.1339 6.45172 12.9327 6.24391C12.6524 6.19766 12.3966 6.38001 12.3544 6.65324C12.3122 6.92647 12.5 7.19328 12.7804 7.23952Z" fill="#455C80" stroke="#455C80" stroke-width="0.5"/>
<path d="M21.0723 10.8607C20.6875 8.90372 19.7147 7.12009 18.253 5.69751C16.7913 4.27494 14.976 3.34514 12.9981 3.00263C12.7214 2.95266 12.4658 3.13876 12.4236 3.41199C12.3853 3.68898 12.5766 3.94831 12.857 3.9983C14.6227 4.30236 16.247 5.13764 17.554 6.40593C18.861 7.67797 19.731 9.27385 20.0728 11.0209C20.1205 11.2683 20.3399 11.4416 20.5852 11.4427C20.6153 11.4429 20.6417 11.4392 20.6717 11.4356C20.9462 11.3957 21.1282 11.1344 21.0723 10.8607Z" fill="#455C80" stroke="#455C80" stroke-width="0.5"/>
</svg>
