<svg width="38" height="39" viewBox="0 0 38 39" fill="none" xmlns="http://www.w3.org/2000/svg">
<path d="M23.6476 15.2092L21.8951 14.8469C22.0556 14.071 22.0946 12.8358 22.129 11.7459C22.1427 11.3087 22.1561 10.8869 22.176 10.5074C22.3819 6.59726 21.3429 4.03157 20.3018 2.93442C19.9855 2.60093 19.4845 2.20351 18.8941 2.20351C18.3419 2.20351 17.8214 2.45574 17.347 2.95335C16.0791 4.28293 15.447 7.03792 15.6124 10.5119C15.6287 10.854 15.6407 11.2326 15.653 11.6267C15.6887 12.7615 15.7292 14.0477 15.8935 14.8482L14.1404 15.2079C13.9454 14.2573 13.9023 12.8895 13.8644 11.6829C13.8523 11.299 13.8409 10.9301 13.825 10.5969C13.6336 6.57834 14.4245 3.4252 16.0519 1.71845C16.8655 0.86507 17.8484 0.414062 18.8941 0.414062C19.8644 0.414062 20.8001 0.859676 21.5999 1.70272C23.2797 3.47326 24.1631 6.79983 23.9631 10.6014C23.9438 10.9693 23.9308 11.3785 23.9175 11.8024C23.8791 13.0215 23.8393 14.282 23.6476 15.2093L23.6476 15.2092Z" fill="black"/>
<path d="M0.866915 25.5642L0 20.7963L14.6099 13.3359L15.4237 14.9297L1.99859 21.7851L2.32466 23.5787L15.8006 21.894L16.0225 23.6698L0.866915 25.5642Z" fill="black"/>
<path d="M36.9341 25.5724L21.7656 23.6692L21.9884 21.8937L35.4763 23.5861L35.8024 21.7929L22.3773 14.9375L23.191 13.3438L37.801 20.8041L36.9341 25.5724Z" fill="black"/>
<path d="M29.3303 38.5885H8.45312V33.8232L14.6761 31.1561L14.1218 22.8411L15.9072 22.722L16.5459 32.3016L10.2426 35.0031V36.7991H27.5409V35.0397L20.9168 32.6311L21.8784 22.6953L23.6594 22.8677L22.8315 31.4232L29.3303 33.7865V38.5885Z" fill="black"/>
</svg>
