<svg width="24" height="24" viewBox="0 0 24 24" fill="none" xmlns="http://www.w3.org/2000/svg">
<path d="M8.308 18.692H9.192V12.212C9.664 12.1167 10.0577 11.8983 10.373 11.557C10.6883 11.215 10.846 10.796 10.846 10.3V6.692C10.846 6.58467 10.809 6.49367 10.735 6.419C10.6603 6.345 10.5693 6.308 10.462 6.308C10.354 6.308 10.2627 6.345 10.188 6.419C10.114 6.49367 10.077 6.58467 10.077 6.692V9.885H9.135V6.692C9.135 6.58467 9.09767 6.49367 9.023 6.419C8.949 6.345 8.858 6.308 8.75 6.308C8.642 6.308 8.551 6.345 8.477 6.419C8.40233 6.49367 8.365 6.58467 8.365 6.692V9.885H7.423V6.692C7.423 6.58467 7.386 6.49367 7.312 6.419C7.23733 6.345 7.146 6.308 7.038 6.308C6.93067 6.308 6.83967 6.345 6.765 6.419C6.691 6.49367 6.654 6.58467 6.654 6.692V10.3C6.654 10.796 6.81167 11.215 7.127 11.557C7.44233 11.899 7.83567 12.1173 8.307 12.212L8.308 18.692ZM14.308 18.692H15.192V12.458C15.7293 12.2553 16.1553 11.8817 16.47 11.337C16.7847 10.7917 16.942 10.1403 16.942 9.383C16.942 8.49633 16.7333 7.76233 16.316 7.181C15.8987 6.599 15.3767 6.308 14.75 6.308C14.1233 6.308 13.6013 6.599 13.184 7.181C12.7667 7.763 12.558 8.497 12.558 9.383C12.558 10.1403 12.7153 10.7917 13.03 11.337C13.3447 11.8817 13.7707 12.255 14.308 12.457V18.692ZM4.615 21C4.155 21 3.771 20.846 3.463 20.538C3.15433 20.2293 3 19.845 3 19.385V4.615C3 4.155 3.15433 3.771 3.463 3.463C3.771 3.15433 4.155 3 4.615 3H19.385C19.845 3 20.229 3.15433 20.537 3.463C20.8457 3.771 21 4.155 21 4.615V19.385C21 19.845 20.846 20.229 20.538 20.537C20.2293 20.8457 19.845 21 19.385 21H4.615ZM4.615 20H19.385C19.5383 20 19.6793 19.936 19.808 19.808C19.936 19.6793 20 19.5383 20 19.385V4.615C20 4.46167 19.936 4.32067 19.808 4.192C19.6793 4.064 19.5383 4 19.385 4H4.615C4.46167 4 4.32067 4.064 4.192 4.192C4.064 4.32067 4 4.46167 4 4.615V19.385C4 19.5383 4.064 19.6793 4.192 19.808C4.32067 19.936 4.46167 20 4.615 20Z" fill="black"/>
</svg>
