<svg width="41" height="28" viewBox="0 0 41 28" fill="none" xmlns="http://www.w3.org/2000/svg">
<path d="M40.4859 9.88C40.4859 13.32 38.9659 17.2 35.9259 21.52C32.8859 25.84 30.6059 28 29.0859 28C27.6459 28 26.9259 27.52 26.9259 26.56C26.9259 26.16 27.2859 24.8 28.0059 22.48C28.6459 20.24 28.9659 18.6 28.9659 17.56C28.9659 16.52 28.6859 15.84 28.1259 15.52C25.5659 13.76 24.2859 11.16 24.2859 7.72C24.2859 5.64 25.0859 3.96 26.6859 2.68C28.2059 1.4 30.2059 0.759999 32.6859 0.759999C37.8859 0.759999 40.4859 3.8 40.4859 9.88ZM16.4859 9.88C16.4859 13.32 14.9659 17.2 11.9259 21.52C8.88594 25.84 6.60594 28 5.08594 28C3.64594 28 2.92594 27.52 2.92594 26.56C2.92594 26.16 3.28594 24.8 4.00594 22.48C4.64594 20.24 4.96594 18.6 4.96594 17.56C4.96594 16.52 4.68594 15.84 4.12594 15.52C1.56594 13.76 0.285939 11.16 0.28594 7.72C0.28594 5.64 1.08594 3.96 2.68594 2.68C4.20594 1.4 6.20594 0.759997 8.68594 0.759997C13.8859 0.759997 16.4859 3.8 16.4859 9.88Z" fill="#EDF1F4"/>
</svg>
