<svg width="41" height="28" viewBox="0 0 41 28" fill="none" xmlns="http://www.w3.org/2000/svg">
<path d="M0.514063 18.12C0.514063 14.68 2.03406 10.8 5.07406 6.48C8.11406 2.15999 10.3941 -7.15256e-06 11.9141 -7.15256e-06C13.3541 -7.15256e-06 14.0741 0.479994 14.0741 1.44C14.0741 1.84 13.7141 3.19999 12.9941 5.51999C12.3541 7.75999 12.0341 9.39999 12.0341 10.44C12.0341 11.48 12.3141 12.16 12.8741 12.48C15.4341 14.24 16.7141 16.84 16.7141 20.28C16.7141 22.36 15.9141 24.04 14.3141 25.32C12.7941 26.6 10.7941 27.24 8.31406 27.24C3.11406 27.24 0.514063 24.2 0.514063 18.12ZM24.5141 18.12C24.5141 14.68 26.0341 10.8 29.0741 6.48C32.1141 2.15999 34.3941 -7.15256e-06 35.9141 -7.15256e-06C37.3541 -7.15256e-06 38.0741 0.479994 38.0741 1.44C38.0741 1.84 37.7141 3.19999 36.9941 5.51999C36.3541 7.75999 36.0341 9.39999 36.0341 10.44C36.0341 11.48 36.3141 12.16 36.8741 12.48C39.4341 14.24 40.7141 16.84 40.7141 20.28C40.7141 22.36 39.9141 24.04 38.3141 25.32C36.7941 26.6 34.7941 27.24 32.3141 27.24C27.1141 27.24 24.5141 24.2 24.5141 18.12Z" fill="#EDF1F4"/>
</svg>
