<?xml version="1.0" encoding="utf-8" ?>
<svg xmlns="http://www.w3.org/2000/svg" xmlns:xlink="http://www.w3.org/1999/xlink" width="200" height="199">
	<path fill="#1D3A67" transform="scale(0.282087 0.28267)" d="M0 0L708.394 0C709.63 2.1786 708.999 7.16621 708.999 9.78142L709.002 558.722L709.002 669.426C709.001 673.776 709.617 700.753 708.785 703.228C708.686 703.523 708.55 703.724 708.394 704L674.725 704L661.687 704L0 704L0 0ZM0 0L0 704L661.687 704C648.91 692.976 636.706 681.232 624.265 669.831L549.84 601.502L497.642 553.546C488.5 545.178 478.475 536.858 469.873 528.001C457.33 537.955 443.242 546.553 428.995 553.83Q426.698 555.014 424.379 556.155Q422.061 557.297 419.723 558.396Q417.384 559.496 415.026 560.553Q412.667 561.61 410.29 562.623Q407.913 563.637 405.518 564.608Q403.123 565.578 400.711 566.505Q398.299 567.432 395.87 568.315Q393.441 569.198 390.997 570.037Q388.553 570.876 386.094 571.67Q383.634 572.464 381.161 573.214Q378.688 573.963 376.202 574.668Q373.715 575.372 371.217 576.031Q368.718 576.691 366.208 577.304Q363.697 577.918 361.176 578.486Q358.655 579.054 356.124 579.577Q353.593 580.099 351.053 580.575Q348.513 581.051 345.965 581.481Q343.417 581.911 340.861 582.295Q338.305 582.679 335.743 583.016Q333.181 583.354 330.613 583.644Q328.045 583.935 325.473 584.179Q322.9 584.423 320.323 584.621Q317.746 584.818 315.166 584.969Q312.587 585.119 310.004 585.223Q307.422 585.326 304.839 585.383Q302.255 585.44 299.671 585.45Q297.086 585.46 294.502 585.423Q291.918 585.386 289.335 585.302Q286.752 585.218 284.171 585.088Q281.59 584.957 279.012 584.779Q276.434 584.602 273.86 584.377Q271.285 584.153 268.715 583.882Q265.2 583.505 261.695 583.04Q258.19 582.576 254.698 582.025Q251.206 581.474 247.728 580.837Q244.251 580.2 240.79 579.477Q237.33 578.754 233.888 577.946Q230.446 577.137 227.026 576.244Q223.605 575.351 220.207 574.374Q216.81 573.396 213.438 572.335Q210.065 571.273 206.721 570.129Q203.376 568.984 200.06 567.758Q196.744 566.531 193.46 565.222Q190.176 563.914 186.925 562.525Q183.674 561.135 180.459 559.666Q177.243 558.197 174.065 556.649Q170.887 555.1 167.748 553.474Q164.609 551.847 161.512 550.143Q158.414 548.44 155.36 546.66Q152.305 544.88 149.296 543.026Q146.286 541.171 143.323 539.242Q140.361 537.313 137.447 535.312Q134.533 533.31 131.669 531.238Q128.805 529.165 125.994 527.022Q123.182 524.879 120.425 522.667Q117.667 520.455 114.965 518.175Q112.263 515.896 109.619 513.55Q106.974 511.205 104.388 508.794Q101.802 506.384 99.2768 503.91Q96.7514 501.437 94.288 498.901Q91.8246 496.366 89.4246 493.771Q87.0247 491.175 84.6898 488.521Q82.3548 485.867 80.0862 483.156Q77.8177 480.445 75.6169 477.679Q73.3828 474.872 71.2183 472.012Q69.0539 469.151 66.9604 466.238Q64.867 463.325 62.8458 460.362Q60.8246 457.398 58.8769 454.386Q56.9292 451.373 55.0562 448.314Q53.1831 445.255 51.3859 442.15Q49.5886 439.046 47.8683 435.898Q46.1479 432.751 44.5055 429.562Q42.863 426.373 41.2995 423.145Q39.736 419.916 38.2523 416.65Q36.7686 413.384 35.3657 410.083Q33.9628 406.782 32.6415 403.447Q31.3201 400.112 30.0812 396.746Q28.8423 393.38 27.6866 389.984Q26.5308 386.588 25.4589 383.165Q24.387 379.742 23.3996 376.294Q22.4122 372.845 21.5098 369.374Q20.6075 365.902 19.7908 362.409Q18.9742 358.917 18.2436 355.405Q17.5131 351.893 16.8691 348.364Q16.2251 344.836 15.6681 341.292Q15.1111 337.749 14.6414 334.193Q14.1717 330.637 13.7896 327.07Q13.4075 323.504 13.1132 319.929Q12.8189 316.354 12.6126 312.773Q12.4063 309.192 12.2881 305.607Q12.1699 302.022 12.1399 298.435Q12.1099 294.848 12.1681 291.262Q12.2263 287.676 12.3727 284.092Q12.5191 280.508 12.7535 276.928Q12.988 273.349 13.3104 269.777Q13.6328 266.204 14.043 262.641Q14.4426 259.07 14.9306 255.511Q15.4187 251.951 15.9948 248.404Q16.5709 244.858 17.2347 241.327Q17.8986 237.796 18.6497 234.282Q19.4009 230.768 20.2389 227.274Q21.0769 223.781 22.0013 220.308Q22.9257 216.836 23.9359 213.388Q24.946 209.94 26.0413 206.518Q27.1367 203.096 28.3165 199.702Q29.4963 196.308 30.7599 192.945Q32.0234 189.581 33.37 186.25Q34.7166 182.919 36.1453 179.622Q37.574 176.325 39.084 173.065Q40.594 169.804 42.1844 166.582Q43.7747 163.36 45.4445 160.179Q47.1142 156.997 48.8623 153.858Q50.6104 150.719 52.4358 147.624Q54.2611 144.529 56.1627 141.48Q58.0642 138.431 60.0407 135.43Q62.0172 132.43 64.0676 129.479Q66.1178 126.528 68.2406 123.629Q70.3634 120.729 72.5575 117.884Q74.7515 115.038 77.0154 112.248Q79.2793 109.457 81.6116 106.724Q83.944 103.99 86.3434 101.315Q88.7428 98.6406 91.2078 96.0261Q93.6727 93.4115 96.2018 90.8588Q98.7308 88.3061 101.322 85.8168Q103.914 83.3276 106.566 80.9033Q109.219 78.479 111.93 76.1212Q114.642 73.7634 117.411 71.4735Q120.181 69.1836 123.006 66.963Q125.734 64.8135 128.514 62.7314Q131.294 60.6494 134.124 58.6362Q136.954 56.6229 139.832 54.6796Q142.711 52.7364 145.636 50.8642Q148.562 48.9921 151.532 47.1922Q154.502 45.3923 157.516 43.6658Q160.53 41.9393 163.585 40.2872Q166.64 38.635 169.734 37.0583Q172.829 35.4815 175.961 33.9811Q179.094 32.4807 182.262 31.0575Q185.43 29.6343 188.632 28.2892Q191.835 26.9441 195.069 25.6779Q198.303 24.4117 201.567 23.2251Q204.832 22.0386 208.124 20.9324Q211.416 19.8262 214.735 18.8011Q218.054 17.7759 221.396 16.8325Q224.739 15.889 228.104 15.0277Q231.469 14.1664 234.854 13.3879Q238.238 12.6093 241.641 11.914Q245.044 11.2187 248.463 10.607Q251.883 9.99525 255.316 9.46754Q258.749 8.93982 262.193 8.4964Q265.638 8.05299 269.093 7.69415Q272.548 7.33531 276.01 7.06127Q279.473 6.78722 282.941 6.59812Q286.409 6.40903 289.881 6.30501Q293.353 6.20098 296.826 6.18209Q300.299 6.16319 303.772 6.22944Q307.245 6.29569 310.715 6.44704Q314.185 6.59839 317.65 6.83475Q321.116 7.07111 324.574 7.39234Q328.032 7.71357 331.482 8.11948Q334.973 8.5272 338.452 9.02096Q341.932 9.51472 345.398 10.0942Q348.864 10.6737 352.315 11.3386Q355.766 12.0035 359.199 12.7533Q362.633 13.5032 366.047 14.3376Q369.46 15.172 372.853 16.0904Q376.245 17.0088 379.613 18.0106Q382.982 19.0125 386.324 20.0972Q389.667 21.1819 392.982 22.3487Q396.297 23.5156 399.582 24.7639Q402.867 26.0123 406.12 27.3413Q409.374 28.6704 412.593 30.0793Q415.812 31.4883 418.996 32.9763Q422.18 34.4643 425.326 36.0304Q428.472 37.5965 431.578 39.2398Q434.684 40.8831 437.749 42.6026Q440.814 44.3221 443.835 46.1167Q446.857 47.9113 449.833 49.7799Q452.809 51.6485 455.738 53.5901Q458.667 55.5316 461.548 57.5448Q464.428 59.5581 467.258 61.6418Q470.087 63.7255 472.865 65.8785Q475.642 68.0314 478.365 70.2522Q481.089 72.4731 483.756 74.7605Q486.424 77.0478 489.034 79.4004Q491.645 81.7529 494.196 84.1691Q496.747 86.5854 499.239 89.0639Q501.73 91.5424 504.159 94.0816Q506.588 96.6208 508.953 99.2192Q511.319 101.818 513.62 104.474Q515.92 107.13 518.155 109.842Q520.389 112.554 522.556 115.32Q524.78 118.14 526.934 121.015Q529.088 123.889 531.17 126.816Q533.252 129.743 535.261 132.72Q537.27 135.697 539.205 138.723Q541.141 141.749 543 144.821Q544.86 147.894 546.644 151.012Q548.427 154.129 550.133 157.29Q551.839 160.451 553.466 163.653Q555.094 166.854 556.641 170.095Q558.189 173.336 559.656 176.615Q561.124 179.893 562.51 183.206Q563.896 186.52 565.199 189.866Q566.503 193.213 567.724 196.591Q568.944 199.969 570.081 203.375Q571.218 206.782 572.271 210.216Q573.323 213.65 574.29 217.109Q575.258 220.568 576.139 224.049Q577.021 227.531 577.817 231.033Q578.612 234.536 579.321 238.057Q580.03 241.578 580.651 245.115Q581.273 248.652 581.807 252.204Q582.341 255.755 582.787 259.319Q583.233 262.883 583.591 266.456Q583.95 270.03 584.219 273.611Q584.489 277.193 584.67 280.78Q584.852 284.366 584.944 287.957Q585.037 291.547 585.041 295.139Q585.045 298.73 584.96 302.321Q584.876 305.911 584.703 309.498Q584.529 313.086 584.267 316.668Q584.006 320.25 583.655 323.824Q583.305 327.398 582.867 330.963Q582.346 335.372 581.69 339.763Q581.034 344.154 580.244 348.523Q579.454 352.892 578.531 357.234Q577.608 361.577 576.553 365.889Q575.497 370.202 574.31 374.48Q573.123 378.758 571.806 382.998Q570.489 387.238 569.043 391.435Q567.597 395.633 566.023 399.784Q564.449 403.936 562.749 408.037Q561.048 412.139 559.224 416.186Q557.399 420.233 555.451 424.223Q553.503 428.213 551.435 432.141Q549.366 436.07 547.178 439.933Q544.99 443.796 542.684 447.591Q540.379 451.386 537.959 455.108Q535.539 458.83 533.006 462.477C526.55 471.804 519.489 481.318 511.554 489.452C516.661 493.224 521.345 498.232 526.044 502.528L557.991 531.869L674.655 638.986C678.547 642.546 706.263 667.258 706.69 668.76C705.628 672.298 679.463 697.76 674.725 704L708.394 704C708.55 703.724 708.686 703.523 708.785 703.228C709.617 700.753 709.001 673.776 709.002 669.426L709.002 558.722L708.999 9.78142C708.999 7.16621 709.63 2.1786 708.394 0L0 0ZM287.539 63.5114Q284.755 63.6475 281.974 63.8518Q279.194 64.0562 276.42 64.3287Q273.645 64.6013 270.879 64.9418Q268.112 65.2823 265.354 65.6906Q262.596 66.0989 259.85 66.5747Q257.103 67.0506 254.368 67.5937Q251.634 68.1368 248.914 68.7468Q246.194 69.3568 243.49 70.0334Q240.785 70.71 238.098 71.4527Q235.411 72.1955 232.743 73.0039Q230.076 73.8124 227.428 74.6861Q224.781 75.5597 222.156 76.4981Q219.531 77.4364 216.93 78.4389Q214.329 79.4414 211.753 80.5074Q209.177 81.5734 206.628 82.7023Q204.08 83.8312 201.559 85.0223Q199.039 86.2134 196.549 87.4659Q194.058 88.7185 191.599 90.0318Q189.14 91.3451 186.715 92.7184Q184.289 94.0916 181.897 95.5239Q179.506 96.9563 177.15 98.4469Q174.795 99.9375 172.477 101.485Q170.158 103.033 167.879 104.638Q165.599 106.242 163.36 107.902Q161.12 109.562 158.922 111.276Q156.724 112.99 154.569 114.758Q152.413 116.526 150.302 118.346Q148.191 120.166 146.125 122.037Q144.059 123.908 142.04 125.83Q140.02 127.751 138.049 129.722Q136.077 131.692 134.154 133.71Q132.232 135.728 130.359 137.793Q128.423 139.91 126.54 142.074Q124.657 144.238 122.827 146.448Q120.998 148.658 119.223 150.911Q117.448 153.165 115.729 155.462Q114.01 157.759 112.348 160.097Q110.686 162.435 109.082 164.813Q107.478 167.192 105.933 169.609Q104.388 172.026 102.902 174.48Q101.417 176.934 99.9924 179.424Q98.5677 181.914 97.2046 184.438Q95.8415 186.962 94.5407 189.519Q93.24 192.075 92.0024 194.663Q90.7648 197.251 89.5912 199.869Q88.4175 202.486 87.3085 205.132Q86.1994 207.777 85.1557 210.449Q84.1119 213.121 83.1341 215.818Q82.1563 218.515 81.245 221.235Q80.3336 223.955 79.4894 226.696Q78.6451 229.438 77.8684 232.199Q77.0917 234.96 76.383 237.74Q75.6743 240.52 75.0341 243.316Q74.3939 246.112 73.8225 248.923Q73.2511 251.734 72.7489 254.558Q72.2467 257.382 71.8141 260.218Q71.3814 263.054 71.0184 265.899Q70.6555 268.745 70.3625 271.598Q70.0696 274.452 69.8467 277.311Q69.6239 280.171 69.4714 283.036Q69.3188 285.9 69.2367 288.767Q69.1545 291.635 69.1428 294.503Q69.131 297.372 69.1897 300.24Q69.2484 303.107 69.3775 305.973Q69.498 308.901 69.6918 311.825Q69.8855 314.748 70.1525 317.666Q70.4195 320.585 70.7594 323.495Q71.0994 326.405 71.5122 329.306Q71.9249 332.207 72.4102 335.097Q72.8955 337.987 73.4531 340.864Q74.0106 343.74 74.64 346.602Q75.2694 349.464 75.9704 352.309Q76.6713 355.155 77.4432 357.981Q78.2152 360.808 79.0577 363.615Q79.9003 366.421 80.8128 369.206Q81.7254 371.99 82.7074 374.751Q83.6895 377.512 84.7403 380.247Q85.7912 382.983 86.9103 385.691Q88.0294 388.399 89.2159 391.079Q90.4025 393.758 91.6558 396.407Q92.9091 399.056 94.2283 401.672Q95.5476 404.289 96.932 406.872Q98.3164 409.454 99.765 412.002Q101.214 414.549 102.726 417.059Q104.238 419.569 105.812 422.041Q107.386 424.512 109.022 426.944Q110.658 429.375 112.354 431.765Q114.051 434.154 115.806 436.501Q117.562 438.847 119.375 441.149Q121.189 443.451 123.06 445.706Q124.931 447.962 126.858 450.17Q128.784 452.378 130.766 454.537Q132.747 456.696 134.782 458.805Q136.817 460.914 138.904 462.971Q140.991 465.028 143.129 467.033Q145.267 469.037 147.455 470.987Q149.484 472.795 151.556 474.554Q153.628 476.312 155.741 478.021Q157.855 479.73 160.008 481.387Q162.162 483.045 164.355 484.651Q166.548 486.256 168.778 487.809Q171.009 489.361 173.276 490.86Q175.544 492.359 177.846 493.803Q180.148 495.247 182.485 496.635Q184.821 498.024 187.19 499.356Q189.559 500.688 191.959 501.963Q194.36 503.238 196.79 504.455Q199.22 505.673 201.678 506.831Q204.137 507.99 206.622 509.09Q209.108 510.189 211.619 511.229Q214.13 512.268 216.666 513.248Q219.201 514.227 221.759 515.145Q224.317 516.063 226.896 516.92Q229.476 517.777 232.075 518.571Q234.674 519.366 237.292 520.098Q239.909 520.831 242.543 521.5Q245.177 522.169 247.827 522.776Q250.476 523.382 253.14 523.924Q255.803 524.467 258.478 524.945Q261.154 525.424 263.84 525.838Q266.526 526.253 269.222 526.603Q271.917 526.953 274.62 527.238Q277.323 527.523 280.032 527.744Q282.741 527.964 285.454 528.12Q288.168 528.276 290.884 528.366Q293.601 528.457 296.319 528.482Q299.037 528.508 301.754 528.468Q304.472 528.429 307.188 528.324Q308.126 528.283 309.063 528.227Q311.853 528.099 314.638 527.903Q317.424 527.707 320.204 527.443Q322.984 527.178 325.757 526.845Q328.529 526.512 331.293 526.112Q334.057 525.711 336.81 525.242Q339.563 524.773 342.303 524.237Q345.044 523.7 347.77 523.097Q350.497 522.493 353.208 521.823Q355.919 521.152 358.612 520.415Q361.306 519.679 363.981 518.876Q366.655 518.073 369.309 517.204Q371.963 516.336 374.595 515.402Q377.227 514.469 379.835 513.471Q382.443 512.473 385.026 511.411Q387.609 510.35 390.165 509.225Q392.721 508.1 395.248 506.912Q397.776 505.725 400.273 504.475Q402.771 503.226 405.236 501.916Q407.702 500.606 410.135 499.235Q412.568 497.864 414.967 496.434Q417.365 495.004 419.728 493.516Q422.091 492.027 424.416 490.481Q426.741 488.935 429.028 487.332Q431.314 485.729 433.561 484.071Q435.807 482.412 438.012 480.699Q440.217 478.985 442.379 477.218Q444.541 475.451 446.659 473.631Q448.777 471.811 450.849 469.94Q452.922 468.069 454.948 466.147Q456.974 464.226 458.952 462.255Q460.93 460.284 462.858 458.265Q464.787 456.246 466.666 454.18C510.231 406.538 530.4 346.647 527.473 282.449Q527.327 279.619 527.112 276.793Q526.897 273.968 526.613 271.148Q526.329 268.329 525.976 265.517Q525.623 262.706 525.201 259.903Q524.779 257.101 524.289 254.31Q523.8 251.519 523.241 248.741Q522.683 245.962 522.058 243.199Q521.432 240.435 520.739 237.687Q520.045 234.939 519.285 232.209Q518.525 229.479 517.699 226.769Q516.872 224.058 515.979 221.369Q515.087 218.679 514.129 216.012Q513.17 213.345 512.147 210.703Q511.124 208.06 510.037 205.443Q508.95 202.826 507.799 200.237Q506.648 197.647 505.434 195.086Q504.22 192.526 502.944 189.995Q501.668 187.465 500.33 184.967Q498.992 182.468 497.594 180.003Q496.196 177.539 494.738 175.109Q493.28 172.679 491.762 170.285Q490.245 167.891 488.67 165.535Q487.095 163.18 485.463 160.863Q483.831 158.546 482.142 156.27Q480.454 153.994 478.71 151.76Q476.967 149.526 475.169 147.335Q473.371 145.144 471.521 142.998Q469.67 140.851 467.767 138.751Q465.865 136.65 463.912 134.597Q461.958 132.544 459.955 130.539Q457.952 128.534 455.901 126.578Q453.85 124.623 451.751 122.718Q449.708 120.852 447.619 119.036Q445.531 117.219 443.4 115.455Q441.268 113.69 439.094 111.978Q436.92 110.265 434.704 108.606Q432.489 106.947 430.234 105.343Q427.98 103.738 425.686 102.189Q423.393 100.64 421.063 99.1467Q418.733 97.6537 416.367 96.2179Q414.001 94.782 411.601 93.4041Q409.201 92.0263 406.768 90.7072Q404.335 89.3881 401.87 88.1287Q399.406 86.8692 396.912 85.67Q394.417 84.4709 391.895 83.3328Q389.372 82.1946 386.822 81.1182Q384.272 80.0418 381.697 79.0278Q379.122 78.0137 376.523 77.0626Q373.924 76.1115 371.303 75.2239Q368.681 74.3363 366.039 73.5128Q363.397 72.6892 360.735 71.9302Q358.074 71.1712 355.394 70.4772Q352.715 69.7831 350.02 69.1545Q347.325 68.5258 344.615 67.9629Q341.905 67.4 339.182 66.9032Q336.459 66.4064 333.725 65.976Q330.991 65.5456 328.248 65.1818Q325.504 64.8181 322.752 64.5212Q320.001 64.2242 317.243 63.9944Q314.484 63.7645 311.722 63.6018Q308.959 63.4391 306.193 63.3437Q303.427 63.2482 300.659 63.2201Q297.891 63.192 295.124 63.2312Q292.357 63.2704 289.591 63.377Q288.563 63.4187 287.539 63.5114Z"/>
</svg>
