<svg width="24" height="24" viewBox="0 0 24 24" fill="none" xmlns="http://www.w3.org/2000/svg">
<path d="M12 21.9999C6.48602 21.9999 2 17.514 2 12C2 6.48601 6.48602 2 12 2C17.514 2 22 6.48601 22 12C22 17.514 17.514 21.9999 12 21.9999ZM12 2.89547C6.97974 2.89547 2.89549 6.97973 2.89549 12C2.89549 17.0202 6.97975 21.1044 12 21.1044C17.0203 21.1044 21.1045 17.0202 21.1045 12C21.1045 6.9798 17.0203 2.89547 12 2.89547Z" fill="#14202B"/>
<path d="M13.2709 5.82416C12.5775 5.68228 11.8457 5.65844 11.1437 5.75369L11.0233 4.86637C11.8247 4.75742 12.6589 4.78475 13.4504 4.9469L13.2709 5.82416Z" fill="#14202B"/>
<path d="M8.81888 18.46C6.34034 17.2374 4.80065 14.7621 4.80065 12C4.80065 9.65897 5.94529 7.4562 7.86247 6.10766L8.37769 6.84004C6.69859 8.02113 5.69613 9.95012 5.69613 12C5.69613 14.4186 7.04453 16.5862 9.21503 17.657L8.81888 18.46Z" fill="#14202B"/>
<path d="M12 19.1993C11.3809 19.1993 10.7659 19.1205 10.1722 18.9651L10.3989 18.0988C11.551 18.4003 12.7994 18.3668 13.9332 18.0019L14.2075 18.8544C13.4964 19.0833 12.7537 19.1993 12 19.1993Z" fill="#14202B"/>
<path d="M15.7655 18.1372L15.2965 17.3743C17.1796 16.2167 18.3038 14.2075 18.3038 12C18.3038 10.2722 17.6186 8.66022 16.3744 7.46092L16.9958 6.81613C18.4167 8.18581 19.1993 10.0268 19.1993 12C19.1993 14.521 17.9156 16.8153 15.7655 18.1372Z" fill="#14202B"/>
<path d="M14.7556 20.3417C14.6373 20.3417 14.4679 20.306 14.3115 20.143C13.6076 19.4093 13.7332 16.306 13.9541 12.6291C14.0073 11.744 14.0621 10.8318 14.0441 10.5268C13.2202 10.041 12.447 9.4265 12.447 8.04173C12.447 6.33268 13.1825 3.80386 14.761 3.80386C16.2045 3.80386 16.9834 5.89296 16.9834 7.85853C16.9834 9.3295 16.242 9.99645 15.4798 10.4362C15.465 10.7395 15.519 11.6191 15.5714 12.4729C15.8003 16.2041 15.9317 19.3554 15.2188 20.1276C15.0593 20.3004 14.8848 20.3393 14.7665 20.3415C14.763 20.3416 14.7593 20.3417 14.7556 20.3417ZM14.761 4.40085C13.7783 4.40085 13.044 6.32306 13.044 8.04173C13.044 9.17363 13.6541 9.61451 14.4517 10.0733C14.6859 10.2079 14.6905 10.3291 14.5501 12.665C14.4668 14.0502 14.3632 15.7741 14.379 17.2156C14.4046 19.5514 14.747 19.7391 14.7616 19.746C14.7688 19.7392 15.1249 19.5729 15.1532 17.1732C15.1706 15.6907 15.0625 13.9269 14.9755 12.5095C14.8341 10.2037 14.8378 10.109 15.0754 9.97874C15.8623 9.54725 16.3864 9.02161 16.3864 7.85853C16.3864 6.19568 15.765 4.40085 14.761 4.40085Z" fill="#14202B"/>
<path d="M9.60629 20.2819C9.43299 20.2819 9.27296 20.2125 9.14143 20.0799C8.41035 19.3424 8.54436 16.3817 8.77815 12.8775C8.83455 12.0316 8.89278 11.1592 8.87164 10.8955C8.62241 10.6689 7.82291 9.85158 7.82291 8.68938C7.82291 8.2165 7.97762 4.38504 8.03927 4.0985L8.62285 4.22399C8.58372 4.45574 8.4199 8.04824 8.4199 8.68939C8.4199 9.66555 9.1783 10.3707 9.30234 10.4794C9.51659 10.6064 9.51462 10.8059 9.37383 12.9172C9.24098 14.9089 8.96449 19.0534 9.56542 19.6596C9.5915 19.686 9.60258 19.6851 9.60987 19.6849C9.61577 19.6798 9.94233 19.4904 9.9776 17.2807C9.99939 15.9143 9.9088 14.2786 9.83592 12.9642C9.71677 10.814 9.71546 10.589 9.92461 10.4652C10.0754 10.3273 10.421 9.97868 10.5537 9.70111C10.7609 9.26707 10.772 8.81495 10.7786 8.54488L10.7795 8.50829C10.8293 6.58608 10.5268 4.14937 10.5237 4.12496L11.116 4.05062C11.1288 4.152 11.4273 6.55685 11.3763 8.52381L11.3754 8.55944C11.3682 8.85641 11.3546 9.40923 11.0924 9.95842C10.9097 10.3408 10.5147 10.7313 10.3574 10.8781C10.3329 11.1434 10.3832 12.0512 10.432 12.9312C10.7054 17.8641 10.6572 20.2222 9.64441 20.2808C9.63165 20.2815 9.61889 20.2819 9.60629 20.2819Z" fill="#14202B"/>
<path d="M9.92439 4.23702H9.3274V8.71444H9.92439V4.23702Z" fill="#14202B"/>
</svg>
