<svg width="25" height="24" viewBox="0 0 25 24" fill="none" xmlns="http://www.w3.org/2000/svg">
<path fill-rule="evenodd" clip-rule="evenodd" d="M22.8861 5.50725C22.8861 7.44236 21.3066 9.01107 19.3582 9.01107C18.1537 9.01107 17.0903 8.41165 16.4537 7.4968L9.86217 10.7439C9.91487 10.9848 9.94262 11.2349 9.94262 11.4914C9.94262 12.0424 9.81458 12.5637 9.58644 13.0275L16.3563 16.6583C16.978 15.6601 18.0902 14.9951 19.3588 14.9951C21.3072 14.9951 22.8867 16.5638 22.8867 18.4989C22.8867 20.4341 21.3072 22.0028 19.3588 22.0028C17.4103 22.0028 15.8308 20.4341 15.8308 18.4989C15.8308 18.2099 15.8661 17.929 15.9325 17.6603L8.95801 13.9197C8.31612 14.5827 7.41391 14.9953 6.41467 14.9953C4.46624 14.9953 2.88672 13.4265 2.88672 11.4914C2.88672 9.55632 4.46624 7.9876 6.41467 7.9876C7.71718 7.9876 8.85482 8.68862 9.46596 9.73149L15.9805 6.52229C15.8828 6.201 15.8302 5.86022 15.8302 5.50725C15.8302 3.57214 17.4097 2.00342 19.3582 2.00342C21.3066 2.00342 22.8861 3.57214 22.8861 5.50725ZM21.8028 5.50725C21.8028 6.83706 20.7153 7.92776 19.3582 7.92776C18.001 7.92776 16.9135 6.83706 16.9135 5.50725C16.9135 4.17743 18.001 3.08673 19.3582 3.08673C20.7153 3.08673 21.8028 4.17743 21.8028 5.50725ZM19.3588 20.9195C20.7159 20.9195 21.8034 19.8288 21.8034 18.4989C21.8034 17.1691 20.7159 16.0784 19.3588 16.0784C18.0016 16.0784 16.9141 17.1691 16.9141 18.4989C16.9141 19.8288 18.0016 20.9195 19.3588 20.9195ZM6.41467 13.9119C7.77183 13.9119 8.85931 12.8212 8.85931 11.4914C8.85931 10.1616 7.77183 9.07091 6.41467 9.07091C5.05751 9.07091 3.97003 10.1616 3.97003 11.4914C3.97003 12.8212 5.05751 13.9119 6.41467 13.9119Z" fill="#14202B"/>
</svg>
