<svg width="16" height="15" viewBox="0 0 16 15" fill="none" xmlns="http://www.w3.org/2000/svg">
<g clip-path="url(#clip0_74_11850)">
<path d="M15.3467 7.33965C14.7953 5.91355 13.8382 4.68025 12.5936 3.79219C11.349 2.90413 9.87143 2.40023 8.34355 2.34277C6.81567 2.40023 5.33811 2.90413 4.09349 3.79219C2.84887 4.68025 1.89175 5.91355 1.34043 7.33965C1.30319 7.44264 1.30319 7.55541 1.34043 7.6584C1.89175 9.0845 2.84887 10.3178 4.09349 11.2059C5.33811 12.0939 6.81567 12.5978 8.34355 12.6553C9.87143 12.5978 11.349 12.0939 12.5936 11.2059C13.8382 10.3178 14.7953 9.0845 15.3467 7.6584C15.3839 7.55541 15.3839 7.44264 15.3467 7.33965ZM8.34355 11.7178C5.85917 11.7178 3.23418 9.87559 2.28261 7.49902C3.23418 5.12246 5.85917 3.28027 8.34355 3.28027C10.8279 3.28027 13.4529 5.12246 14.4045 7.49902C13.4529 9.87559 10.8279 11.7178 8.34355 11.7178Z" fill="#14202B"/>
<path d="M8.34375 4.68799C7.78749 4.68799 7.24372 4.85294 6.78121 5.16198C6.3187 5.47102 5.95821 5.91027 5.74534 6.42419C5.53247 6.93811 5.47677 7.50361 5.58529 8.04918C5.69381 8.59475 5.96168 9.09589 6.35501 9.48923C6.74835 9.88256 7.24949 10.1504 7.79506 10.2589C8.34063 10.3675 8.90613 10.3118 9.42005 10.0989C9.93396 9.88603 10.3732 9.52554 10.6823 9.06303C10.9913 8.60052 11.1563 8.05675 11.1563 7.50049C11.1563 6.75457 10.8599 6.0392 10.3325 5.51175C9.80504 4.9843 9.08967 4.68799 8.34375 4.68799ZM8.34375 9.37549C7.97291 9.37549 7.6104 9.26552 7.30206 9.05949C6.99371 8.85347 6.75339 8.56063 6.61148 8.21802C6.46956 7.87541 6.43243 7.49841 6.50478 7.13469C6.57713 6.77098 6.7557 6.43689 7.01793 6.17466C7.28015 5.91244 7.61424 5.73386 7.97796 5.66152C8.34167 5.58917 8.71867 5.6263 9.06128 5.76821C9.40389 5.91013 9.69673 6.15045 9.90276 6.45879C10.1088 6.76714 10.2188 7.12965 10.2188 7.50049C10.2188 7.99777 10.0212 8.47468 9.66958 8.82631C9.31794 9.17794 8.84103 9.37549 8.34375 9.37549Z" fill="#14202B"/>
</g>
<defs>
<clipPath id="clip0_74_11850">
<rect width="15" height="15" fill="white" transform="translate(0.84375)"/>
</clipPath>
</defs>
</svg>
