<svg width="25" height="18" viewBox="0 0 25 18" fill="none" xmlns="http://www.w3.org/2000/svg">
<path d="M24.8181 8.2065L13.1509 0.195111C12.7719 -0.0650371 12.2276 -0.0650371 11.8489 0.195111L8.86049 2.24751V1.18225C8.86049 0.952172 8.63883 0.766308 8.36498 0.766308H5.48921C5.21535 0.766308 4.99369 0.952354 4.99369 1.18225V4.90262L0.181853 8.2065C-0.0301899 8.35173 -0.06106 8.61413 0.111726 8.7921C0.209831 8.89256 0.35247 8.94534 0.496338 8.94534C0.606516 8.94534 0.717056 8.9143 0.809233 8.8515L3.30704 7.1359V17.5838C3.30704 17.8137 3.5287 18 3.80198 18H21.1981C21.4715 18 21.6937 17.8138 21.6937 17.5838V7.13615L24.1915 8.85174C24.2835 8.91473 24.3944 8.94559 24.5042 8.94559C24.6476 8.94559 24.7902 8.89274 24.8884 8.79228C25.061 8.61413 25.0302 8.3521 24.8181 8.2065ZM5.9845 1.5982H7.86932V2.92767L5.9845 4.22204V1.5982ZM20.703 17.1675H4.2972V6.4558L12.0759 1.11441C12.3227 0.944883 12.6771 0.944883 12.924 1.11441L20.703 6.4558V17.1675Z" fill="#14202B"/>
</svg>
