<svg width="24" height="24" viewBox="0 0 24 24" fill="none" xmlns="http://www.w3.org/2000/svg">
<path d="M21.9817 18.7401C21.9926 18.7039 22 18.6658 22 18.6256V5.3739C22 5.33349 21.9926 5.29508 21.9814 5.25866C21.9798 5.25367 21.9789 5.24869 21.977 5.2437C21.9622 5.20104 21.9404 5.16263 21.913 5.12896C21.9111 5.12671 21.9109 5.12397 21.9091 5.12172C21.9079 5.12048 21.9065 5.11998 21.9053 5.11873C21.8761 5.08531 21.8415 5.05837 21.8028 5.03816C21.7998 5.03667 21.7975 5.03467 21.7944 5.03317C21.7578 5.01546 21.7179 5.00549 21.6759 5.00249C21.6717 5.00224 21.6678 5.00125 21.6636 5.00125C21.6596 5.001 21.6562 5 21.6522 5H2.34824C2.3443 5 2.34058 5.001 2.33664 5.00125C2.33293 5.0015 2.32922 5.00224 2.3255 5.00249C2.28305 5.00549 2.24245 5.01571 2.20532 5.03367C2.203 5.03467 2.20115 5.03642 2.19883 5.03742C2.15939 5.05762 2.12435 5.08506 2.09489 5.11898C2.09373 5.12023 2.09234 5.12048 2.09118 5.12172C2.08932 5.12372 2.08909 5.12646 2.08723 5.12871C2.05986 5.16238 2.03782 5.20104 2.02297 5.2437C2.02111 5.24869 2.02018 5.25367 2.01856 5.25891C2.00742 5.29533 2 5.33374 2 5.37415V18.6261C2 18.667 2.00766 18.7059 2.01902 18.7428C2.02065 18.7478 2.02158 18.7526 2.0232 18.7575C2.03828 18.8005 2.06055 18.8391 2.08816 18.8728C2.08979 18.8748 2.09025 18.8773 2.09187 18.8793C2.09327 18.881 2.09512 18.882 2.09675 18.8838C2.10811 18.8965 2.12064 18.9077 2.13363 18.9187C2.13944 18.9234 2.14454 18.9292 2.15057 18.9337C2.16588 18.9451 2.18236 18.9544 2.19929 18.9628C2.20347 18.9648 2.20718 18.9681 2.21136 18.9698C2.25335 18.989 2.29952 19 2.34801 19H21.6518C21.7003 19 21.7464 18.9893 21.7884 18.9698C21.7949 18.9668 21.8009 18.9623 21.8072 18.9588C21.8216 18.9511 21.836 18.9431 21.8492 18.9334C21.8562 18.9282 21.8624 18.9214 21.8692 18.9157C21.881 18.9055 21.8926 18.8952 21.9028 18.8835C21.9046 18.8815 21.9067 18.88 21.9086 18.878C21.9104 18.8758 21.9109 18.8728 21.9128 18.8705C21.9399 18.8371 21.9617 18.7987 21.9766 18.7563C21.9789 18.7508 21.98 18.7456 21.9817 18.7401ZM2.69625 6.22248L8.55368 11.9747L2.69625 17.7728V6.22248ZM14.7016 11.6928C14.6775 11.7098 14.6519 11.724 14.6318 11.7479C14.6241 11.7569 14.6215 11.7686 14.6148 11.7781L12.0001 14.3458L3.24517 5.74805H20.7551L14.7016 11.6928ZM9.06966 12.4813L11.7653 15.1285C11.8319 15.1939 11.9159 15.2266 12.0001 15.2266C12.0843 15.2266 12.1683 15.1939 12.2347 15.1285L14.8969 12.5142L20.7534 18.2517H3.24007L9.06966 12.4813ZM15.4131 12.0074L21.304 6.22248V17.7788L15.4131 12.0074Z" fill="#455C80" stroke="#455C80" stroke-width="0.5"/>
</svg>
