<svg width="30" height="18" viewBox="0 0 30 18" fill="none" xmlns="http://www.w3.org/2000/svg">
<path d="M29.9725 17.6658C29.9889 17.6193 30 17.5703 30 17.5186V0.480731C30 0.428778 29.9889 0.37939 29.9722 0.332567C29.9697 0.326153 29.9683 0.319739 29.9655 0.313325C29.9433 0.258485 29.9106 0.209097 29.8695 0.165803C29.8667 0.162916 29.8664 0.159389 29.8636 0.156503C29.8618 0.154899 29.8598 0.154257 29.858 0.152654C29.8142 0.10968 29.7623 0.0750441 29.7042 0.0490673C29.6997 0.047143 29.6962 0.0445773 29.6917 0.0426531C29.6367 0.0198833 29.5768 0.0070555 29.5138 0.00320709C29.5076 0.00288638 29.5017 0.00160324 29.4954 0.00160324C29.4895 0.00128254 29.4843 0 29.4783 0H0.522359C0.516443 0 0.510875 0.00128254 0.504959 0.00160324C0.499391 0.00192394 0.493823 0.00288638 0.488255 0.00320709C0.424569 0.0070555 0.363668 0.0202043 0.307987 0.0432947C0.304507 0.0445776 0.301723 0.0468223 0.298243 0.0481051C0.239081 0.0740819 0.186532 0.109359 0.142335 0.152974C0.140595 0.154578 0.138507 0.154899 0.136767 0.156503C0.133983 0.159068 0.133635 0.162596 0.130851 0.165482C0.0897859 0.208777 0.0567252 0.258485 0.0344527 0.313325C0.0316687 0.319739 0.0302766 0.326153 0.0278406 0.332888C0.0111362 0.37971 0 0.429098 0 0.481052V17.5193C0 17.5719 0.0114842 17.6219 0.0285366 17.6694C0.0309726 17.6758 0.0323647 17.6819 0.0348007 17.6883C0.0574212 17.7434 0.0908299 17.7931 0.132243 17.8364C0.134679 17.839 0.135375 17.8422 0.137811 17.8448C0.139899 17.847 0.142683 17.8483 0.145119 17.8506C0.162171 17.8669 0.180964 17.8813 0.200452 17.8955C0.209153 17.9015 0.216809 17.9089 0.225857 17.9147C0.248825 17.9294 0.273534 17.9413 0.298938 17.9522C0.305203 17.9548 0.310771 17.959 0.317035 17.9612C0.380024 17.9859 0.449278 18 0.522011 18H29.4776C29.5504 18 29.6196 17.9862 29.6826 17.9612C29.6924 17.9573 29.7014 17.9516 29.7108 17.9471C29.7324 17.9371 29.754 17.9269 29.7738 17.9144C29.7842 17.9076 29.7936 17.899 29.8037 17.8916C29.8215 17.8785 29.8389 17.8653 29.8542 17.8502C29.857 17.8477 29.8601 17.8457 29.8629 17.8432C29.8657 17.8403 29.8664 17.8364 29.8692 17.8336C29.9099 17.7906 29.9426 17.7412 29.9649 17.6867C29.9683 17.6796 29.9701 17.6729 29.9725 17.6658ZM1.04437 1.57176L9.83052 8.96745L1.04437 16.4221V1.57176ZM19.0524 8.60506C19.0162 8.62686 18.9779 8.64514 18.9476 8.67593C18.9361 8.68748 18.9323 8.70255 18.9222 8.71474L15.0002 12.016L1.86776 0.961783H28.1326L19.0524 8.60506ZM10.6045 9.61879L14.648 13.0224C14.7479 13.1064 14.8738 13.1484 15.0002 13.1484C15.1265 13.1484 15.2525 13.1064 15.352 13.0224L19.3454 9.66113L28.1302 17.0379H1.8601L10.6045 9.61879ZM20.1197 9.00946L28.956 1.57176V16.4298L20.1197 9.00946Z" fill="#14202B"/>
</svg>
