<svg width="34" height="25" viewBox="0 0 34 25" fill="none" xmlns="http://www.w3.org/2000/svg">
<path d="M19.992 23.6248C19.9938 23.6248 19.996 23.6248 19.9978 23.6248C20.7547 23.6248 21.4663 23.3496 22.0023 22.8501C22.5397 22.3489 22.8364 21.6827 22.8371 20.9731C22.8386 19.5082 21.5649 18.315 19.9982 18.313C19.9975 18.313 19.9964 18.313 19.9956 18.313C18.4293 18.313 17.1542 19.5017 17.1523 20.964C17.1509 21.6742 17.4465 22.3425 17.9836 22.8454C18.52 23.3479 19.2337 23.6248 19.992 23.6248ZM19.9953 19.3191C19.996 19.3191 19.9967 19.3191 19.9971 19.3191C20.9705 19.3201 21.7611 20.0619 21.7604 20.9721C21.76 21.4126 21.5758 21.8264 21.2421 22.1375C20.9092 22.4479 20.4671 22.6183 19.9964 22.6183C19.9953 22.6183 19.9938 22.6183 19.9927 22.6183C19.5213 22.6183 19.0785 22.4465 18.7452 22.1348C18.4115 21.8223 18.228 21.4072 18.2287 20.9653C18.2302 20.0575 19.0223 19.3191 19.9953 19.3191Z" fill="#14202B"/>
<path d="M33.283 24.2992L27.8328 12.3863L29.6897 9.61098C29.7096 9.58116 29.726 9.54964 29.7379 9.51745C30.373 8.53304 30.7084 7.41782 30.7084 6.28533C30.7113 4.60827 30.0165 3.03118 28.7515 1.8448C27.4861 0.657743 25.8005 0.00237208 24.0049 0C24.002 0 23.9995 0 23.9969 0C20.2977 0 17.2839 2.80989 17.2781 6.26771C17.2781 7.41749 17.6147 8.53914 18.2526 9.51745C18.2628 9.54151 18.2751 9.56523 18.29 9.58794L19.2978 11.1694H6.40465C6.18886 11.1694 5.99411 11.2894 5.90961 11.4748L0.0431015 24.2992C-0.0276186 24.4544 -0.0105732 24.633 0.0887976 24.774C0.188531 24.9149 0.357171 25 0.538142 25H32.7891C32.97 25 33.1387 24.9153 33.2384 24.774C33.337 24.633 33.3537 24.4544 33.283 24.2992ZM19.2166 9.06269C18.6523 8.22636 18.3542 7.25991 18.3542 6.26872C18.3596 3.36564 20.8896 1.00644 23.9962 1.00644C23.9987 1.00644 24.0009 1.00644 24.0034 1.00644C25.5107 1.00847 26.9265 1.55845 27.9888 2.55507C29.0507 3.55134 29.6342 4.87564 29.6317 6.28397C29.6317 6.28431 29.6317 6.28431 29.6317 6.28465C29.6317 7.26432 29.3317 8.23009 28.7638 9.07726C28.7442 9.10573 28.7286 9.13589 28.7167 9.16706L23.8805 16.3951L20.7006 11.4056C20.6966 11.3995 20.6934 11.3934 20.689 11.3877L19.2645 9.15249C19.2521 9.12132 19.2362 9.09116 19.2166 9.06269ZM6.75861 12.1755H7.98552C8.0624 13.6106 9.37925 14.1511 10.3501 14.5469C10.8597 14.7547 11.3866 14.9692 11.552 15.2328C11.8131 15.6489 11.6445 15.9387 11.1331 16.6022C10.6656 17.2084 10.0835 17.9627 10.4818 18.9519C11.099 20.4856 14.3006 20.8977 17.8105 21.2148C18.4477 21.2721 18.9975 21.3219 19.3428 21.3768C22.0534 21.8068 22.9637 23.2426 23.2603 23.9949H1.35269L6.75861 12.1755ZM24.3908 23.9939C24.1456 23.1291 23.1737 20.9631 19.5227 20.3843C19.1397 20.3236 18.5721 20.2721 17.9143 20.2128C15.9693 20.0369 11.9219 19.6713 11.4896 18.5971C11.3039 18.1362 11.565 17.7621 12.0064 17.1901C12.4771 16.5801 13.1212 15.7445 12.4808 14.7235C12.1384 14.1776 11.4479 13.8963 10.7806 13.6242C9.76766 13.2118 9.13807 12.8946 9.0688 12.1752H19.9379L23.4069 17.6181C23.503 17.7689 23.676 17.8621 23.8638 17.8638C23.8656 17.8638 23.8678 17.8638 23.8696 17.8638C24.0553 17.8638 24.2276 17.7747 24.3262 17.6276L27.1376 13.4256L31.9727 23.9939H24.3908Z" fill="#14202B"/>
</svg>
