<svg width="24" height="24" viewBox="0 0 24 24" fill="none" xmlns="http://www.w3.org/2000/svg">
<path d="M12.0585 3.00019C10.1864 3.00019 8.39107 3.70422 7.06736 4.95742C5.74365 6.21077 5 7.91051 5 9.6827C5.01539 10.9658 5.4056 12.2199 6.12707 13.306C7.54111 15.5155 11.3506 20.8468 11.5117 21.0728C11.6344 21.2478 11.8413 21.3529 12.0632 21.3529C12.2849 21.3529 12.492 21.2478 12.6147 21.0728C12.7758 20.8473 16.5852 15.5219 17.9993 13.306C18.7174 12.2196 19.1044 10.9664 19.1176 9.68475C19.1181 8.5115 18.7922 7.35881 18.1727 6.3426C17.5533 5.32639 16.6622 4.48236 15.589 3.89561C14.5158 3.309 13.2982 3 12.0589 3L12.0585 3.00019ZM16.8586 12.6588C15.7777 14.3524 13.1926 18.0069 12.0585 19.6004C10.9247 18.007 8.33951 14.35 7.2584 12.6588C6.66326 11.768 6.33966 10.7389 6.32304 9.68494C6.32304 7.74515 7.41628 5.95275 9.1907 4.98278C10.9653 4.01274 13.1514 4.01274 14.9259 4.98278C16.7003 5.95267 17.7936 7.74515 17.7936 9.68494C17.777 10.7389 17.4534 11.768 16.8582 12.6588H16.8586Z" fill="#455C80"/>
<path d="M12.0607 6.32812C11.1247 6.32812 10.2268 6.68021 9.56509 7.30674C8.90313 7.93344 8.53125 8.78328 8.53125 9.66953C8.53125 10.5557 8.90315 11.4055 9.56509 12.0322C10.2269 12.6589 11.1247 13.0108 12.0607 13.0108C12.9966 13.0108 13.8945 12.6588 14.5562 12.0322C15.2182 11.4055 15.5901 10.5556 15.5901 9.66953C15.5901 8.78325 15.2182 7.9334 14.5562 7.30674C13.8944 6.6802 12.9966 6.32812 12.0607 6.32812ZM12.0607 11.7578C11.4756 11.7578 10.9145 11.5377 10.5009 11.1462C10.0871 10.7545 9.8548 10.2234 9.8548 9.66949C9.8548 9.11563 10.0871 8.58437 10.5009 8.1928C10.9145 7.80109 11.4756 7.58114 12.0607 7.58114C12.6457 7.58114 13.2068 7.8011 13.6204 8.1928C14.0342 8.58437 14.2665 9.11563 14.2665 9.66949C14.2665 10.2234 14.0342 10.7545 13.6204 11.1462C13.2068 11.5378 12.6457 11.7578 12.0607 11.7578Z" fill="#455C80"/>
</svg>
