<svg width="27" height="26" viewBox="0 0 27 26" fill="none" xmlns="http://www.w3.org/2000/svg">
<path d="M20.9045 15.8124C20.3956 15.2748 19.7666 14.9767 19.0871 14.9565C18.4131 14.9364 17.7546 15.191 17.1785 15.6964L15.3763 17.2723C15.237 17.1957 15.0974 17.1243 14.9633 17.0531C14.7701 16.9542 14.5876 16.8608 14.4327 16.7631C12.8529 15.7435 11.4339 14.4338 10.0912 12.7539C9.44173 11.9172 9.01128 11.2163 8.70731 10.5089C9.17347 10.1347 9.60742 9.74415 10.0297 9.36873C10.1895 9.22863 10.3494 9.08337 10.5091 8.94327C11.7069 7.89254 11.768 6.48723 10.6643 5.36798L9.22965 3.91297C9.06674 3.74775 8.89857 3.5772 8.74136 3.40697C8.42649 3.07686 8.09563 2.73592 7.75291 2.41532C7.24292 1.9035 6.61873 1.62108 5.95021 1.60118C5.2817 1.58128 4.62366 1.82553 4.05415 2.30521C4.04845 2.31021 4.04845 2.31021 4.04275 2.31521L2.10272 4.03189C1.37261 4.67234 0.937594 5.46642 0.809313 6.39896C0.612293 7.90369 1.02252 9.32304 1.34424 10.2535C2.13391 12.5377 3.36912 14.6696 5.2499 16.9708C7.53265 19.7444 10.3278 21.9642 13.5612 23.5659C14.7971 24.1665 16.4504 24.8831 18.325 25.0527C18.4398 25.0613 18.5602 25.0701 18.6698 25.0733C19.9356 25.111 21.0172 24.7138 21.8871 23.8861C21.8931 23.876 21.9043 23.8711 21.9102 23.861C22.2093 23.544 22.5508 23.2592 22.9097 22.9544C23.1546 22.7495 23.4053 22.5346 23.651 22.3091C24.2166 21.7931 24.5285 21.1816 24.5561 20.5461C24.5839 19.9054 24.3202 19.2819 23.7892 18.7488L20.9045 15.8124ZM22.6299 21.3113C22.6244 21.3111 22.6242 21.3163 22.6299 21.3113C22.4068 21.5219 22.1791 21.7117 21.934 21.9217C21.564 22.2314 21.1877 22.5565 20.8316 22.9235C20.2539 23.465 19.5904 23.7091 18.7356 23.6837C18.6534 23.6812 18.5657 23.6786 18.4837 23.671C16.8606 23.5244 15.3742 22.8801 14.2621 22.3348C11.2221 20.8268 8.586 18.7359 6.43351 16.1214C4.65716 13.9423 3.49305 11.9418 2.75716 9.80923C2.30342 8.50758 2.16063 7.49971 2.28388 6.55667C2.36493 5.95381 2.63327 5.45999 3.1067 5.0447L5.05176 3.33852C5.33059 3.10885 5.62114 2.98817 5.9006 2.99649C6.24581 3.00676 6.51675 3.21141 6.68492 3.38197C6.69018 3.3873 6.69543 3.39263 6.70069 3.39795C7.02216 3.7024 7.32674 4.01669 7.64686 4.35214C7.80955 4.52253 7.97772 4.69308 8.14567 4.8688L9.58036 6.32381C10.1374 6.88876 10.1154 7.39509 9.51082 7.92545C9.3454 8.07056 9.18547 8.21582 9.02027 8.35575C8.54069 8.78638 8.08437 9.18666 7.59014 9.57546C7.57874 9.58546 7.56755 9.59031 7.56162 9.60047C7.07108 10.0308 7.13991 10.4674 7.22576 10.7648C7.23056 10.7805 7.23537 10.7961 7.24018 10.8118C7.59064 11.712 8.10226 12.5653 8.89187 13.5873L8.89712 13.5926C10.3332 15.3943 11.8684 16.8109 13.5818 17.9121C13.8006 18.0531 14.026 18.1685 14.2407 18.2783C14.434 18.3772 14.6165 18.4706 14.7713 18.5683C14.7928 18.5793 14.814 18.5954 14.8355 18.6064C15.018 18.6998 15.1916 18.7463 15.3724 18.7517C15.8272 18.7653 16.1238 18.5051 16.2208 18.42L18.1715 16.7088C18.3655 16.5387 18.6706 16.3357 19.0158 16.346C19.3555 16.3561 19.6262 16.5659 19.7885 16.7466C19.7937 16.752 19.7937 16.752 19.799 16.7573L22.6947 19.694C23.2362 20.2378 23.2126 20.7803 22.6299 21.3113Z" fill="#14202B"/>
<path d="M14.8223 6.31404C16.2481 6.58411 17.5245 7.2636 18.523 8.27627C19.5215 9.28894 20.1422 10.5387 20.33 11.8997C20.3754 12.2425 20.6775 12.4894 21.0337 12.5001C21.0775 12.5014 21.1161 12.4973 21.1601 12.4935C21.5683 12.4435 21.8526 12.0899 21.8034 11.7056C21.5786 10.0589 20.8215 8.54128 19.618 7.32075C18.4145 6.10023 16.8645 5.27808 15.1395 4.94736C14.7367 4.87329 14.3476 5.1152 14.26 5.49025C14.1724 5.8653 14.4195 6.23996 14.8223 6.31404Z" fill="#14202B"/>
<path d="M26.5084 11.6613C26.1378 8.94981 24.8964 6.4555 22.9098 4.44083C20.9233 2.42616 18.3756 1.07766 15.5351 0.532674C15.138 0.453598 14.7486 0.700677 14.661 1.07572C14.5787 1.4561 14.8317 1.8206 15.2343 1.89984C17.7701 2.38402 20.0495 3.59519 21.826 5.3915C23.6024 7.19298 24.7126 9.42472 25.0409 11.8453C25.0864 12.1881 25.3884 12.435 25.7446 12.4456C25.7885 12.447 25.827 12.4429 25.8711 12.4391C26.2736 12.3941 26.5633 12.0406 26.5084 11.6613Z" fill="#14202B"/>
</svg>
