<svg width="24" height="24" viewBox="0 0 24 24" fill="none" xmlns="http://www.w3.org/2000/svg">
<path d="M22.0694 5.40053C21.7742 3.90373 20.9007 2.73124 19.7997 2.33209C18.2004 1.75 12.2522 1.75 12 1.75C11.7478 1.75 5.79965 1.75832 4.20035 2.33209C3.09315 2.73124 2.22583 3.91205 1.93058 5.40053C1.5 7.56258 1.5 11.8202 1.5 12.0031C1.5 12.186 1.50615 16.4436 1.93058 18.6057C2.22583 20.1025 3.0993 21.2749 4.20035 21.6741C5.79965 22.2562 11.7478 22.2562 12 22.2562C12.2522 22.2562 18.2004 22.2479 19.7997 21.6741C20.9069 21.2749 21.7742 20.0941 22.0694 18.6057C22.5 16.4436 22.5 12.186 22.5 12.0031C22.5 11.8202 22.5 7.56258 22.0694 5.40053ZM20.9438 12.0031C20.9438 12.0447 20.9376 16.1609 20.5624 18.0568C20.4086 18.8219 19.9657 19.4289 19.3937 19.6368C18.3603 20.011 14.3128 20.1523 12 20.1523C9.68717 20.1523 5.63972 20.011 4.60633 19.6368C4.04042 19.4289 3.59139 18.8302 3.43761 18.0568C3.06239 16.1609 3.05624 12.0447 3.05624 12.0031C3.05624 11.9615 3.06239 7.84531 3.43761 5.94936C3.59139 5.18433 4.03427 4.57729 4.60633 4.3694C5.63972 3.9952 9.68717 3.85384 12 3.85384C14.3128 3.85384 18.3603 3.9952 19.3937 4.3694C19.9534 4.56898 20.3963 5.1677 20.5562 5.92441L20.5624 5.94936C20.9376 7.83699 20.9438 11.9615 20.9438 12.0031Z" fill="#455C80"/>
<path d="M9.42188 17.4045L16.3481 11.9994L9.42188 6.58594V17.4045Z" fill="#455C80"/>
</svg>
